# Blender 4.4.0
# www.blender.org
mtllib Alga.mtl
o Cube.004
v -26.822464 0.450113 0.884899
v -26.705629 0.936970 0.866581
v -26.828215 0.450206 0.569855
v -26.713228 0.938645 0.555181
v -26.668024 0.447959 0.877794
v -26.488712 0.689482 0.872516
v -26.674187 0.448066 0.558755
v -26.496508 0.691930 0.558672
v -26.474533 1.389620 0.910605
v -26.481424 1.396562 0.609167
v -26.241297 1.173073 0.589523
v -26.235003 1.166930 0.900146
v -26.286629 1.685127 0.995530
v -26.292459 1.694526 0.698114
v -25.949678 1.641975 0.733748
v -25.943964 1.631517 1.019633
v -26.228748 2.179396 0.956635
v -26.235170 2.194441 0.695111
v -25.907310 2.093202 0.753473
v -25.899647 2.077130 1.007652
v -26.021980 3.063632 0.671254
v -26.021236 3.076189 0.425473
v -25.770733 2.932527 0.462513
v -25.771549 2.919580 0.707507
v -25.688154 3.842884 0.498980
v -25.687996 3.847796 0.351331
v -25.514868 3.737919 0.333588
v -25.515110 3.732929 0.477437
v -25.232389 4.224990 0.623741
v -25.232534 4.227571 0.517423
v -25.162148 4.133873 0.505771
v -25.162027 4.131289 0.611118
v -24.840321 4.417927 0.659231
v -24.840345 4.420659 0.595981
v -24.788130 4.369691 0.599228
v -24.788099 4.367008 0.662724
v -24.667524 4.590409 0.693497
v -24.667614 4.592102 0.645510
v -24.614067 4.588082 0.656825
v -24.613943 4.586474 0.705259
v -24.519798 5.010863 0.790906
v -24.519840 5.011458 0.772357
v -24.499683 5.010612 0.773867
v -24.499641 5.010020 0.792430
v -24.494762 5.443803 0.893578
v -24.494835 5.444243 0.874403
v -24.474688 5.443255 0.874384
v -24.474613 5.442815 0.893559
v -26.885216 0.432637 0.532364
v -26.895847 0.770559 0.566611
v -27.053099 0.432984 0.363896
v -27.069775 0.789587 0.404162
v -26.805885 0.431017 0.456106
v -26.710283 0.554310 0.412010
v -26.973740 0.431362 0.287794
v -26.879835 0.558666 0.246584
v -26.724291 1.089188 0.500839
v -26.903694 1.107819 0.347686
v -26.791203 0.945338 0.221571
v -26.615168 0.927635 0.377644
v -26.581596 1.309639 0.421879
v -26.758703 1.324684 0.273289
v -26.592430 1.296804 0.111947
v -26.414967 1.281755 0.261177
v -26.490252 1.681669 0.389242
v -26.671053 1.696948 0.248769
v -26.510170 1.622935 0.099440
v -26.333197 1.609079 0.243061
v -26.481108 2.391213 0.345144
v -26.630079 2.403555 0.218944
v -26.480501 2.290474 0.097894
v -26.331318 2.276590 0.221908
v -26.447504 2.971910 0.143722
v -26.535065 2.974302 0.054230
v -26.442011 2.896030 -0.025339
v -26.354351 2.893419 0.063867
v -26.219778 3.187428 -0.175713
v -26.275150 3.188207 -0.233554
v -26.238619 3.122893 -0.265350
v -26.183105 3.122081 -0.207429
v -26.006199 3.291846 -0.425088
v -26.040581 3.292710 -0.460395
v -26.013706 3.255581 -0.487748
v -25.979307 3.254704 -0.452449
v -25.914116 3.415443 -0.523919
v -25.939428 3.416218 -0.549674
v -25.911888 3.413639 -0.576938
v -25.886572 3.412856 -0.551192
v -25.839802 3.719132 -0.603415
v -25.849337 3.719439 -0.613089
v -25.839191 3.718722 -0.623109
v -25.829659 3.718416 -0.613435
v -25.824804 4.009879 -0.609001
v -25.834339 4.010185 -0.618675
v -25.824194 4.009470 -0.628695
v -25.814661 4.009164 -0.619020
v -27.913017 0.426338 0.570036
v -27.861288 0.968514 0.534401
v -27.803690 0.424324 0.265196
v -27.733837 0.965527 0.232676
v -27.739866 0.435545 0.631050
v -27.504837 0.924477 0.662054
v -27.629971 0.433565 0.326272
v -27.379944 0.920630 0.358942
v -27.970125 1.543185 0.480434
v -27.805538 1.550816 0.189825
v -27.331160 1.592746 0.304783
v -27.534792 1.583831 0.672518
v -27.956421 1.950444 0.460080
v -27.776913 1.975753 0.221883
v -27.450048 2.172723 0.335385
v -27.622938 2.152493 0.578929
v -28.132553 2.535238 0.415929
v -27.934944 2.574149 0.138709
v -27.623909 2.619327 0.244769
v -27.822569 2.586537 0.524719
v -28.546558 3.335731 0.106462
v -28.440577 3.339951 -0.108039
v -28.188845 3.467281 -0.011272
v -28.292013 3.463742 0.193062
v -28.858034 4.260490 -0.023927
v -28.774506 4.257765 -0.189632
v -28.571648 4.291718 -0.132720
v -28.671680 4.299474 0.019049
v -28.776979 4.947310 -0.057388
v -28.726246 4.941512 -0.168201
v -28.630291 4.915694 -0.134457
v -28.683348 4.921931 -0.024969
v -28.489117 5.363406 0.060384
v -28.459335 5.360616 -0.002583
v -28.390230 5.352820 0.025089
v -28.420273 5.355628 0.087594
v -28.474388 5.680671 0.013647
v -28.454262 5.679370 -0.032515
v -28.409678 5.713325 -0.017347
v -28.429487 5.714517 0.028915
v -28.571514 6.094272 0.002357
v -28.561295 6.093715 -0.024679
v -28.533955 6.114745 -0.015361
v -28.544163 6.115304 0.011679
v -28.704432 6.259929 -0.087105
v -28.698883 6.259555 -0.102645
v -28.684708 6.271382 -0.097869
v -28.690256 6.271756 -0.082329
v -27.272394 0.448682 1.168676
v -27.116343 1.066371 1.054612
v -27.573341 0.448689 1.145692
v -27.581093 1.087275 1.157811
v -27.250427 0.448701 0.900363
v -27.148275 1.120671 0.801326
v -27.576862 0.448708 0.880670
v -27.565174 1.145363 0.790843
v -27.021717 1.621941 1.279918
v -27.467627 1.661159 1.336087
v -27.451130 1.732681 0.821284
v -27.045620 1.697574 0.871717
v -27.025162 2.346429 1.481875
v -27.351194 2.318954 1.515324
v -27.395004 2.633306 1.164536
v -27.015570 2.650311 1.137942
v -27.050875 2.974768 1.903371
v -27.270411 2.976752 1.874943
v -27.336567 3.209716 1.519412
v -27.035034 3.232063 1.504277
v -26.992910 3.959983 2.582854
v -27.240482 3.938646 2.608815
v -27.164597 4.054472 2.268291
v -26.942410 4.073112 2.246285
v -27.182795 4.952079 3.054440
v -27.309868 4.969003 3.036654
v -27.276136 4.996547 2.861103
v -27.148752 4.979678 2.878829
v -27.084789 5.737258 3.132952
v -27.190567 5.746882 3.121387
v -27.170063 5.733047 2.972385
v -27.064543 5.723414 2.983916
v -26.984659 6.346068 3.005553
v -27.048979 6.352071 2.998710
v -27.040035 6.359258 2.905358
v -26.975216 6.353309 2.912309
v -26.987076 6.711745 3.043489
v -27.031992 6.716414 3.039099
v -27.028381 6.770385 2.991361
v -26.983196 6.765790 2.995859
v -26.994890 7.272433 3.334687
v -27.012459 7.274043 3.332787
v -27.008795 7.294213 3.314887
v -26.991222 7.292603 3.316787
v -27.064280 7.666881 3.694273
v -27.082029 7.668469 3.692323
v -27.078304 7.688682 3.674467
v -27.060555 7.687093 3.676415
v -27.162453 0.443069 1.085463
v -27.078075 0.898287 1.117382
v -27.074974 0.443450 0.874289
v -26.986370 0.912957 0.896151
v -26.968513 0.442950 1.154701
v -26.866865 0.833520 1.178044
v -26.877226 0.443306 0.934411
v -26.776514 0.848565 0.960144
v -26.966724 1.073254 1.160054
v -26.888466 1.087850 0.963060
v -26.698849 1.078011 1.031781
v -26.786165 1.066012 1.228140
v -26.933004 1.239412 1.199561
v -26.838497 1.248528 1.024314
v -26.668262 1.220670 1.068267
v -26.770874 1.208558 1.274577
v -26.863924 1.445043 1.251298
v -26.767557 1.458675 1.055261
v -26.585270 1.413697 1.140075
v -26.676584 1.401313 1.325173
v -26.841055 1.642678 1.264550
v -26.756411 1.653123 1.097256
v -26.580883 1.557631 1.147001
v -26.685045 1.545195 1.339681
v -26.745197 1.863468 1.315799
v -26.682682 1.866405 1.183721
v -26.546864 1.815155 1.221556
v -26.574139 1.801264 1.357134
v -26.575033 2.088786 1.367885
v -26.533617 2.097651 1.266092
v -26.453604 1.992446 1.286020
v -26.499657 1.983314 1.392654
v -26.498238 2.235268 1.391222
v -26.470699 2.239603 1.325660
v -26.402306 2.227920 1.349586
v -26.430784 2.223134 1.417439
v -26.384768 2.490932 1.366971
v -26.368967 2.493663 1.328702
v -26.331224 2.485337 1.346703
v -26.347237 2.482576 1.385466
v -26.379690 2.823963 1.336581
v -26.373718 2.824867 1.322070
v -26.357279 2.820568 1.325117
v -26.363163 2.819695 1.339429
v -26.375252 3.015318 1.409245
v -26.371113 3.016131 1.399313
v -26.361227 3.013501 1.402432
v -26.365372 3.012683 1.412368
v -27.236410 0.440376 0.273831
v -27.251169 0.906028 0.215731
v -27.553810 0.455154 0.405922
v -27.583872 0.958090 0.354380
v -27.374296 0.431049 -0.004811
v -27.420692 0.782877 -0.061772
v -27.705547 0.445720 0.133247
v -27.748381 0.835050 0.074657
v -27.315968 1.154454 0.022410
v -27.608429 1.203373 0.149202
v -27.742481 1.163240 -0.123483
v -27.440680 1.119011 -0.240459
v -27.300297 1.395826 -0.083961
v -27.587770 1.431688 0.003185
v -27.728088 1.369932 -0.219300
v -27.399143 1.324999 -0.330798
v -27.307619 1.692060 -0.247569
v -27.618816 1.738038 -0.140783
v -27.730106 1.642824 -0.417069
v -27.435892 1.600169 -0.517635
v -27.305923 1.986015 -0.319566
v -27.574183 2.023285 -0.230779
v -27.718418 1.858256 -0.453604
v -27.402227 1.815210 -0.548743
v -27.341908 2.303209 -0.513525
v -27.549345 2.324948 -0.437969
v -27.660212 2.231481 -0.613525
v -27.488068 2.190069 -0.728231
v -27.457483 2.621637 -0.787687
v -27.609585 2.648837 -0.723429
v -27.682156 2.481123 -0.811571
v -27.519909 2.453058 -0.876093
v -27.506981 2.832878 -0.918844
v -27.605970 2.848263 -0.878135
v -27.655750 2.821672 -0.974183
v -27.553339 2.805300 -1.016286
v -27.639736 3.213856 -1.056095
v -27.697208 3.223155 -1.032079
v -27.719723 3.204856 -1.089926
v -27.661501 3.195442 -1.114244
v -27.656265 3.720387 -1.085322
v -27.678043 3.723718 -1.076171
v -27.692963 3.715528 -1.096094
v -27.671486 3.712270 -1.105129
v -27.572102 3.996380 -1.200703
v -27.587053 3.998948 -1.194530
v -27.594666 3.993742 -1.207887
v -27.579706 3.991166 -1.214060
v -27.261091 0.661885 0.381736
v -27.473686 0.936969 0.553766
v -27.075062 0.665804 0.636055
v -27.288240 0.938646 0.804042
v -27.422710 0.449193 0.407416
v -27.693901 0.449611 0.604743
v -27.234045 0.449210 0.664765
v -27.506889 0.449620 0.856904
v -27.688004 1.389619 0.650775
v -27.508873 1.396563 0.893313
v -27.693933 1.173074 1.047585
v -27.877863 1.166930 0.797194
v -27.890543 1.685127 0.689478
v -27.714596 1.694526 0.929337
v -28.015417 1.641975 1.097488
v -28.184633 1.631517 0.866993
v -27.915489 2.179396 0.754599
v -27.759716 2.194441 0.964766
v -28.061415 2.093202 1.105744
v -28.213978 2.077130 0.902298
v -27.920321 3.063632 1.106979
v -27.779469 3.076190 1.308397
v -28.005636 2.932528 1.422287
v -28.145979 2.919580 1.221473
v -28.094156 3.842885 1.439996
v -28.009304 3.847797 1.560828
v -28.140667 3.737920 1.674984
v -28.223263 3.732930 1.557210
v -28.538670 4.224991 1.600294
v -28.477356 4.227572 1.687152
v -28.528210 4.133874 1.737193
v -28.588943 4.131289 1.651114
v -28.879711 4.417928 1.796931
v -28.843287 4.420660 1.848641
v -28.887856 4.369692 1.876038
v -28.924427 4.367009 1.824132
v -29.040739 4.590409 1.868366
v -29.013046 4.592103 1.907555
v -29.063347 4.588083 1.929123
v -29.091326 4.586474 1.889587
v -29.217609 5.010863 1.873734
v -29.206898 5.011458 1.888877
v -29.224251 5.010612 1.899245
v -29.234970 5.010020 1.884089
v -29.297176 5.443803 1.804183
v -29.286081 5.444243 1.819820
v -29.302546 5.443255 1.831432
v -29.313643 5.442815 1.815795
v -27.089283 0.450974 0.629031
v -27.202927 1.044084 0.618016
v -26.841938 0.447852 0.670432
v -26.806564 1.060077 0.625929
v -27.129625 0.437803 0.844513
v -27.224785 1.038352 0.834151
v -26.860905 0.434647 0.885158
v -26.888664 1.037868 0.923649
v -27.237186 1.540833 0.531757
v -26.864971 1.563520 0.576873
v -26.975412 1.524039 0.993651
v -27.294765 1.523202 0.872710
v -27.196312 2.165493 0.514924
v -26.925600 2.135188 0.542933
v -26.956211 2.320810 0.888979
v -27.268940 2.346314 0.843730
v -27.095989 2.753186 0.310304
v -26.923309 2.739650 0.373336
v -26.936691 2.857511 0.711293
v -27.184084 2.886071 0.672334
v -27.014883 3.682568 -0.043200
v -26.809210 3.659279 -0.022467
v -26.934958 3.691491 0.254713
v -27.119297 3.712226 0.234986
v -26.771975 4.566922 -0.186055
v -26.672274 4.571600 -0.145435
v -26.732729 4.561933 -0.007846
v -26.832693 4.557302 -0.048464
v -26.836653 5.221671 -0.112298
v -26.753048 5.222571 -0.081914
v -26.797771 5.183890 0.029076
v -26.881172 5.182967 -0.001235
v -26.941875 5.694545 0.088880
v -26.891005 5.695247 0.107234
v -26.915859 5.683673 0.180590
v -26.967115 5.683053 0.162067
v -26.932764 5.997609 0.130958
v -26.897165 5.998561 0.143561
v -26.909094 6.033303 0.191090
v -26.944889 6.032443 0.178364
v -26.871521 6.506515 0.012531
v -26.857632 6.506679 0.017566
v -26.863979 6.519753 0.034950
v -26.877872 6.519591 0.029916
v -26.747450 6.891189 -0.181037
v -26.733423 6.891316 -0.175938
v -26.739811 6.904437 -0.158589
v -26.753838 6.904309 -0.163690
v -26.996519 0.462385 0.284741
v -26.962276 0.894426 0.300109
v -27.220726 0.475671 0.286191
v -27.197453 0.941945 0.301572
v -27.008646 0.461459 0.079139
v -26.997120 0.833880 0.081925
v -27.242788 0.474830 0.080620
v -27.228683 0.881277 0.083340
v -26.942083 1.068268 0.180927
v -27.149973 1.111918 0.185363
v -27.161587 1.103599 -0.016058
v -26.950432 1.062119 -0.011900
v -26.896116 1.229631 0.134507
v -27.091167 1.265965 0.115519
v -27.120409 1.241904 -0.058418
v -26.894299 1.198229 -0.044032
v -26.847157 1.430433 0.050752
v -27.061277 1.473977 0.038128
v -27.060223 1.428419 -0.162790
v -26.857857 1.387770 -0.150572
v -26.816639 1.625727 0.024530
v -27.000454 1.661838 0.011540
v -27.035761 1.570334 -0.169523
v -26.821541 1.527987 -0.148414
v -26.776342 1.843037 -0.083709
v -26.920536 1.866056 -0.089992
v -26.945337 1.817761 -0.229840
v -26.813021 1.785336 -0.257388
v -26.763258 2.068704 -0.260741
v -26.870874 2.092622 -0.259350
v -26.897974 1.990171 -0.340819
v -26.784189 1.965127 -0.339819
v -26.751335 2.214937 -0.340570
v -26.821169 2.229027 -0.340469
v -26.827267 2.218079 -0.412786
v -26.755039 2.203202 -0.412909
v -26.781918 2.477316 -0.435700
v -26.822546 2.485723 -0.435390
v -26.821793 2.477213 -0.477162
v -26.780632 2.468701 -0.477469
v -26.765730 2.811301 -0.428571
v -26.781147 2.814358 -0.428434
v -26.785284 2.810593 -0.444766
v -26.770079 2.807596 -0.444906
v -26.674761 2.991846 -0.460893
v -26.685307 2.994133 -0.460849
v -26.686626 2.991661 -0.471169
v -26.676077 2.989368 -0.471212
vn -0.9725 0.2319 0.0214
vn -0.0268 -0.0094 -0.9996
vn 0.8053 -0.5925 -0.0202
vn 0.0196 0.0244 0.9995
vn 0.8836 -0.4675 -0.0264
vn 0.8519 -0.5228 -0.0317
vn -0.8923 0.4507 0.0274
vn -0.0451 -0.0534 0.9976
vn 0.0375 0.0706 -0.9968
vn -0.0962 0.0642 0.9933
vn -0.8480 0.5290 0.0324
vn -0.1134 -0.1908 0.9751
vn 0.1280 0.2142 -0.9684
vn 0.9863 -0.1633 -0.0230
vn 0.1394 0.0028 -0.9902
vn 0.9950 -0.0959 -0.0294
vn -0.9929 0.1161 0.0268
vn 0.9526 -0.3040 -0.0114
vn -0.9708 0.2388 0.0239
vn -0.0056 0.3221 0.9467
vn 0.0236 -0.3140 -0.9491
vn 0.7511 -0.6599 -0.0197
vn -0.9176 0.3972 0.0155
vn 0.0930 0.2113 0.9730
vn -0.0256 -0.1183 -0.9927
vn -0.0528 -0.1074 0.9928
vn -0.6455 0.7634 0.0225
vn -0.0708 -0.2467 0.9665
vn 0.1239 0.2854 -0.9504
vn 0.7852 -0.6188 -0.0248
vn 0.1274 0.1648 -0.9781
vn 0.5368 -0.8433 -0.0268
vn -0.4448 0.8952 0.0285
vn -0.9443 0.3288 0.0132
vn -0.7087 0.7050 0.0288
vn -0.1659 -0.0461 0.9851
vn 0.1874 0.1018 -0.9770
vn -0.0466 -0.2263 0.9729
vn -0.1849 -0.1548 0.9705
vn 0.1813 0.2211 -0.9582
vn 0.9660 -0.2585 -0.0109
vn 0.0490 0.9985 0.0227
vn 0.0463 0.2251 -0.9732
vn 0.9984 -0.0566 -0.0046
vn -0.9984 0.0566 0.0046
vn -0.6948 -0.1037 0.7116
vn -0.6044 0.0949 -0.7910
vn 0.5525 -0.6108 -0.5671
vn 0.6083 -0.0953 0.7879
vn 0.6577 -0.2154 -0.7218
vn 0.5320 -0.5160 -0.6714
vn -0.5729 0.4368 0.6935
vn 0.5985 -0.1160 0.7927
vn -0.5907 0.1212 -0.7978
vn 0.6654 -0.1111 0.7382
vn -0.5031 0.5614 0.6571
vn 0.6604 -0.1434 0.7371
vn -0.6550 0.1569 -0.7391
vn 0.6327 -0.0281 -0.7739
vn -0.6632 0.1222 -0.7384
vn 0.6160 -0.1905 -0.7644
vn -0.6045 0.2045 0.7699
vn 0.6515 -0.1779 -0.7375
vn -0.6244 0.0627 0.7786
vn 0.6697 0.0298 0.7420
vn -0.6511 0.0162 -0.7588
vn 0.4116 -0.8092 -0.4193
vn -0.6330 0.2979 0.7145
vn 0.7157 0.1950 0.6707
vn -0.6799 -0.1006 -0.7263
vn 0.7431 0.0778 0.6646
vn -0.3383 0.8748 0.3470
vn 0.7477 0.1788 0.6395
vn -0.7074 -0.0952 -0.7004
vn 0.5344 -0.6500 -0.5404
vn -0.6950 -0.0151 -0.7188
vn 0.2694 -0.9225 -0.2765
vn -0.2106 0.9526 0.2197
vn -0.6661 0.3371 0.6654
vn -0.4732 0.7372 0.4823
vn 0.7156 0.0203 0.6982
vn -0.6922 0.0424 -0.7204
vn 0.7017 -0.0225 0.7121
vn 0.7039 0.0136 0.7102
vn -0.6995 0.0589 -0.7122
vn 0.6831 -0.2658 -0.6803
vn 0.0515 0.9985 -0.0191
vn -0.7017 0.0225 -0.7121
vn 0.7106 -0.0501 -0.7018
vn -0.7106 0.0501 0.7019
vn -0.9282 0.0813 -0.3630
vn 0.3268 -0.1015 -0.9396
vn 0.8374 -0.4375 0.3276
vn -0.3285 0.0956 0.9397
vn 0.8981 0.0017 0.4398
vn 0.8339 0.1789 0.5222
vn -0.8827 -0.1738 -0.4366
vn -0.3745 -0.0094 0.9272
vn 0.2787 -0.0688 -0.9579
vn -0.3236 -0.0280 0.9458
vn -0.8385 0.0503 -0.5425
vn -0.3946 0.0768 0.9157
vn 0.2504 0.0826 -0.9646
vn 0.6797 0.5663 0.4661
vn 0.3412 -0.0477 -0.9388
vn 0.7277 0.4002 0.5570
vn -0.7585 -0.2777 -0.5896
vn 0.7829 0.4382 0.4416
vn -0.6789 -0.5651 -0.4687
vn -0.3672 0.1570 0.9168
vn 0.3537 -0.0562 -0.9337
vn 0.8624 0.0671 0.5018
vn -0.8403 -0.3427 -0.4202
vn -0.2982 0.0477 0.9533
vn 0.3143 0.0187 -0.9492
vn -0.3493 -0.0274 0.9366
vn -0.8957 0.0807 -0.4374
vn -0.2626 0.0709 0.9623
vn 0.2899 0.0167 -0.9569
vn 0.9063 0.0940 0.4120
vn 0.3690 0.1309 -0.9201
vn 0.7409 -0.5490 0.3869
vn -0.7156 0.5979 -0.3611
vn -0.9023 -0.2240 -0.3684
vn -0.9095 -0.0217 -0.4151
vn -0.3753 0.1458 0.9154
vn 0.3694 -0.0907 -0.9248
vn -0.4199 0.1464 0.8957
vn -0.2927 -0.0427 0.9553
vn 0.2617 0.0858 -0.9613
vn 0.8926 0.2727 0.3590
vn -0.5783 0.7841 -0.2253
vn 0.3925 -0.1039 -0.9139
vn 0.6422 0.7338 0.2216
vn -0.6891 -0.6837 -0.2402
vn 0.1058 0.0680 0.9921
vn -0.9998 0.0018 -0.0194
vn 0.0355 -0.1395 -0.9896
vn 0.9785 -0.2025 -0.0398
vn 0.0788 0.0714 -0.9943
vn 0.0360 0.3107 -0.9498
vn 0.1383 -0.3557 0.9243
vn 0.9836 -0.1424 -0.1110
vn -0.9811 0.1936 -0.0076
vn 0.9991 0.0101 0.0418
vn 0.1069 -0.2724 0.9562
vn 0.9997 -0.0092 -0.0237
vn -0.9938 0.0866 0.0700
vn -0.1045 0.6680 -0.7368
vn -0.9861 0.0154 0.1655
vn -0.0823 0.5288 -0.8447
vn 0.0321 -0.5198 0.8537
vn -0.0130 0.5509 -0.8345
vn 0.0201 -0.5879 0.8087
vn 0.9934 -0.1089 0.0347
vn -0.9958 0.0869 0.0296
vn 0.1377 0.1259 -0.9824
vn 0.0247 -0.4036 0.9146
vn 0.9777 0.0950 0.1875
vn -0.9789 0.0156 -0.2036
vn 0.9837 -0.1305 0.1241
vn -0.1341 -0.0845 0.9874
vn 0.9781 -0.1355 0.1578
vn -0.9739 0.1651 -0.1558
vn 0.1203 0.1997 -0.9724
vn -0.9729 0.1956 -0.1236
vn 0.0956 -0.1257 -0.9875
vn -0.0853 0.2173 0.9724
vn -0.1345 -0.4581 0.8787
vn -0.1118 -0.1038 0.9883
vn 0.9956 -0.0013 0.0936
vn -0.9965 0.0479 -0.0679
vn 0.9806 -0.0061 0.1958
vn 0.9963 -0.0306 0.0801
vn -0.9973 0.0603 -0.0424
vn 0.1373 0.5168 -0.8450
vn -0.0226 0.6642 0.7472
vn -0.9806 0.0058 -0.1960
vn 0.1400 0.6804 -0.7193
vn -0.1400 -0.6804 0.7193
vn -0.9091 0.1916 -0.3700
vn 0.2897 -0.0106 -0.9570
vn 0.8974 -0.2506 0.3632
vn -0.3046 0.0048 0.9525
vn -0.7830 0.5558 -0.2793
vn -0.3962 -0.1873 0.8989
vn -0.3221 -0.0633 0.9446
vn 0.3390 0.1699 -0.9253
vn 0.8573 -0.3842 0.3426
vn 0.7968 -0.4818 0.3646
vn 0.3123 0.2152 -0.9253
vn 0.8798 -0.2577 0.3995
vn -0.8619 0.3374 -0.3785
vn -0.4168 -0.0562 0.9073
vn -0.8375 0.3632 -0.4083
vn -0.4034 -0.0689 0.9124
vn 0.3594 0.0993 -0.9279
vn 0.3613 0.2267 -0.9045
vn 0.3887 0.1143 -0.9142
vn 0.8885 -0.0216 0.4583
vn -0.8901 0.1384 -0.4343
vn 0.8602 -0.4618 0.2165
vn 0.8907 -0.3108 0.3317
vn -0.8140 0.4388 -0.3805
vn -0.3320 0.0080 0.9433
vn -0.3309 0.0072 0.9436
vn -0.7389 0.6044 -0.2979
vn -0.2821 -0.0367 0.9587
vn 0.3435 0.1305 -0.9300
vn 0.9007 -0.2453 0.3585
vn 0.4013 0.1720 -0.8996
vn 0.8881 -0.2907 0.3561
vn -0.8217 0.4843 -0.3003
vn 0.9178 0.0961 0.3852
vn -0.8715 0.3538 -0.3397
vn -0.3429 0.2305 0.9107
vn 0.3458 -0.1165 -0.9310
vn -0.2906 -0.3375 0.8953
vn -0.9237 -0.0209 -0.3825
vn -0.3449 0.1008 0.9332
vn 0.3573 -0.0230 -0.9337
vn 0.2050 0.9648 0.1647
vn 0.3011 0.3568 -0.8843
vn 0.9194 -0.1298 0.3712
vn -0.9160 0.1609 -0.3676
vn 0.3922 0.1214 0.9118
vn -0.8668 -0.0093 0.4985
vn -0.3939 -0.1877 -0.8998
vn 0.8754 -0.0025 -0.4833
vn 0.3893 0.6202 0.6810
vn 0.9021 -0.2650 -0.3404
vn 0.8861 -0.1504 -0.4383
vn -0.8804 0.2534 0.4010
vn -0.3913 -0.4603 -0.7969
vn -0.3367 -0.5567 -0.7594
vn -0.8593 0.2997 0.4145
vn -0.3624 -0.3420 -0.8670
vn 0.3676 0.4180 0.8308
vn 0.9283 -0.1347 -0.3467
vn 0.3304 0.4457 0.8320
vn 0.9217 -0.1486 -0.3582
vn -0.8997 0.1825 0.3964
vn -0.8794 0.3064 0.3643
vn -0.9106 0.1946 0.3647
vn -0.3178 -0.1144 -0.9412
vn 0.3406 0.2279 0.9122
vn -0.4844 -0.5237 -0.7008
vn -0.4197 -0.3878 -0.8206
vn 0.3361 0.5165 0.7875
vn 0.8953 -0.0790 -0.4385
vn 0.8947 -0.0799 -0.4394
vn 0.3469 0.6683 0.6581
vn 0.8685 -0.1275 -0.4791
vn -0.8885 0.2146 0.4056
vn -0.4055 -0.3262 -0.8539
vn -0.9070 0.2497 0.3391
vn -0.4000 -0.3705 -0.8383
vn 0.3994 0.5534 0.7309
vn -0.3848 0.0089 -0.9229
vn 0.4022 0.4305 0.8080
vn 0.8897 0.1460 -0.4327
vn -0.9012 -0.0307 0.4323
vn 0.8179 -0.4188 -0.3946
vn 0.3942 0.0657 0.9167
vn 0.9014 0.0148 -0.4327
vn -0.9074 0.0619 0.4157
vn 0.0083 0.9300 -0.3674
vn -0.8168 0.4363 0.3774
vn -0.4052 -0.2139 -0.8888
vn 0.4065 0.2442 0.8804
vn 0.5674 0.7050 -0.4255
vn 0.5180 -0.1806 0.8361
vn -0.5229 0.1944 -0.8299
vn 0.6696 -0.5616 -0.4860
vn -0.7537 -0.3431 0.5605
vn -0.6784 -0.5228 0.5162
vn 0.7139 0.4507 -0.5360
vn -0.4962 0.0456 -0.8670
vn 0.5007 -0.0322 0.8650
vn -0.4931 0.0642 -0.8676
vn 0.6748 0.5290 -0.5146
vn -0.4685 -0.1908 -0.8626
vn 0.4527 0.2142 0.8656
vn -0.7933 -0.1633 0.5865
vn 0.4559 0.0028 0.8900
vn -0.7967 -0.0959 0.5967
vn 0.7965 0.1161 -0.5934
vn -0.7724 -0.3040 0.5576
vn 0.7801 0.2388 -0.5783
vn -0.5403 0.3221 -0.7774
vn 0.5270 -0.3140 0.7898
vn -0.6029 -0.6599 0.4484
vn 0.7415 0.3972 -0.5408
vn -0.6360 0.2113 -0.7421
vn 0.5922 -0.1183 0.7970
vn -0.5283 -0.1074 -0.8423
vn 0.5149 0.7634 -0.3899
vn -0.4984 -0.2467 -0.8311
vn 0.4457 0.2854 0.8485
vn -0.6278 -0.6188 0.4722
vn 0.4588 0.1648 0.8731
vn -0.4236 -0.8433 0.3309
vn 0.3473 0.8952 -0.2793
vn 0.7646 0.3287 -0.5543
vn 0.5630 0.7050 -0.4314
vn -0.4313 -0.0461 -0.9010
vn 0.4091 0.1017 0.9068
vn -0.5218 -0.2263 -0.8225
vn -0.4074 -0.1548 -0.9000
vn 0.4033 0.2211 0.8880
vn -0.7837 -0.2585 0.5649
vn -0.0532 0.9985 0.0096
vn 0.5224 0.2251 0.8225
vn -0.8138 -0.0566 0.5784
vn 0.8138 0.0566 -0.5784
vn 0.0771 -0.0409 -0.9962
vn 0.9812 -0.0052 0.1931
vn -0.2104 -0.0443 0.9766
vn -0.9738 -0.1730 -0.1479
vn -0.3020 -0.1539 0.9408
vn -0.2502 0.0865 0.9643
vn 0.0746 -0.1269 -0.9891
vn -0.9832 -0.1114 -0.1449
vn 0.9538 0.1342 0.2686
vn -0.9637 0.0725 -0.2571
vn 0.1124 -0.0403 -0.9928
vn -0.9791 0.0388 -0.1998
vn 0.9838 0.0473 0.1729
vn -0.0650 0.4751 0.8775
vn 0.9979 0.0004 0.0640
vn -0.1111 0.3163 0.9421
vn 0.1620 -0.3082 -0.9374
vn -0.1763 0.3438 0.9223
vn 0.1636 -0.3853 -0.9082
vn -0.9598 -0.0451 -0.2771
vn 0.9766 0.0383 0.2115
vn -0.3566 -0.0951 0.9294
vn 0.1830 -0.1816 -0.9662
vn -0.9098 0.1873 -0.3704
vn 0.9074 -0.0836 0.4119
vn -0.9300 -0.0461 -0.3647
vn 0.3542 0.1367 -0.9251
vn -0.9170 -0.0436 -0.3966
vn 0.9133 0.0730 0.4006
vn -0.3374 -0.0221 0.9411
vn 0.9196 0.1100 0.3771
vn -0.3168 -0.3431 0.8843
vn 0.3032 0.4292 -0.8508
vn 0.3300 -0.2514 -0.9099
vn 0.3326 0.1193 -0.9355
vn -0.9486 0.0731 -0.3081
vn 0.9553 -0.0220 0.2949
vn -0.9108 0.0911 -0.4027
vn -0.9523 0.0416 -0.3023
vn 0.9618 -0.0042 0.2739
vn -0.3251 0.3163 0.8912
vn 0.1912 0.8155 -0.5462
vn 0.9107 -0.0914 0.4028
vn -0.2993 0.5042 0.8101
vn 0.2993 -0.5042 -0.8101
vn 0.0018 -0.0343 0.9994
vn -0.9921 0.0400 0.1189
vn -0.0053 0.0072 -1.0000
vn 0.9933 -0.0542 -0.1022
vn 0.1230 0.5440 0.8300
vn 0.9470 -0.3209 0.0158
vn 0.9773 -0.1998 -0.0703
vn -0.9515 0.3039 0.0472
vn -0.0702 -0.3781 -0.9231
vn -0.0403 -0.4809 -0.8759
vn -0.9350 0.3473 0.0718
vn -0.0094 -0.2588 -0.9659
vn 0.0327 0.3361 0.9413
vn 0.9807 -0.1931 0.0316
vn -0.0003 0.3668 0.9303
vn 0.9785 -0.2057 0.0172
vn -0.9715 0.2353 0.0293
vn -0.9333 0.3587 0.0186
vn -0.9682 0.2501 -0.0029
vn 0.0734 -0.0320 -0.9968
vn -0.0347 0.1446 0.9889
vn -0.1970 -0.4388 -0.8767
vn -0.0829 -0.3022 -0.9496
vn 0.0264 0.4393 0.8979
vn 0.9897 -0.1295 -0.0606
vn 0.9895 -0.1303 -0.0617
vn 0.0958 0.5969 0.7966
vn 0.9784 -0.1732 -0.1125
vn -0.9630 0.2657 0.0449
vn -0.0532 -0.2402 -0.9693
vn -0.9518 0.3061 -0.0203
vn -0.0568 -0.2856 -0.9567
vn 0.1088 0.4739 0.8738
vn 0.0116 0.0954 -0.9954
vn 0.0741 0.3469 0.9350
vn 0.9948 0.0944 -0.0379
vn -0.9988 0.0213 0.0431
vn 0.8825 -0.4635 -0.0800
vn 0.0036 -0.0216 0.9998
vn 0.9983 -0.0370 -0.0448
vn -0.9928 0.1148 0.0335
vn 0.2042 0.9457 -0.2528
vn -0.8738 0.4818 0.0662
vn -0.0330 -0.1265 -0.9914
vn 0.0392 0.1570 0.9868
vt 0.027332 0.481508
vt 0.102799 0.482201
vt 0.105623 0.390648
vt 0.030261 0.388906
vt 0.045603 0.066690
vt 0.116562 0.160910
vt 0.121054 0.064583
vt 0.067956 0.038817
vt 0.051312 0.388387
vt 0.105391 0.393537
vt 0.102471 0.485805
vt 0.048391 0.482169
vt 0.069463 0.039606
vt 0.122531 0.064501
vt 0.118091 0.161030
vt 0.047043 0.067531
vt 0.198612 0.411098
vt 0.195075 0.502362
vt 0.294018 0.462498
vt 0.290167 0.546453
vt 0.189086 0.502964
vt 0.192530 0.414392
vt 0.212719 0.131802
vt 0.202244 0.226615
vt 0.201421 0.227665
vt 0.211877 0.132504
vt 0.262727 0.263202
vt 0.307139 0.190015
vt 0.362984 0.286722
vt 0.325902 0.368768
vt 0.249849 0.533679
vt 0.253690 0.446327
vt 0.262340 0.264664
vt 0.306908 0.191775
vt 0.350574 0.547371
vt 0.354466 0.472735
vt 0.478705 0.396612
vt 0.474135 0.468425
vt 0.326122 0.371876
vt 0.363150 0.290336
vt 0.318352 0.527335
vt 0.322376 0.450557
vt 0.613315 0.369923
vt 0.610982 0.412113
vt 0.457637 0.454474
vt 0.462159 0.382426
vt 0.474535 0.460037
vt 0.453658 0.538038
vt 0.454685 0.539386
vt 0.475617 0.461469
vt 0.707925 0.430029
vt 0.706388 0.460941
vt 0.600300 0.416239
vt 0.602657 0.372931
vt 0.601836 0.604188
vt 0.588655 0.660809
vt 0.588938 0.661052
vt 0.602148 0.604457
vt 0.698131 0.670486
vt 0.698056 0.635936
vt 0.779160 0.625310
vt 0.777128 0.646503
vt 0.707955 0.464154
vt 0.709500 0.432956
vt 0.698190 0.670483
vt 0.698122 0.635935
vt 0.785855 0.484715
vt 0.786924 0.466094
vt 0.836730 0.487906
vt 0.835982 0.502116
vt 0.777305 0.646770
vt 0.779331 0.625566
vt 0.784905 0.483171
vt 0.785978 0.464622
vt 0.829989 0.483659
vt 0.829230 0.497735
vt 0.899511 0.532418
vt 0.899795 0.526975
vt 0.829120 0.646225
vt 0.821668 0.656577
vt 0.821750 0.656704
vt 0.829187 0.646336
vt 0.890118 0.729700
vt 0.892986 0.725938
vt 0.944798 0.823730
vt 0.941950 0.827533
vt 0.890141 0.729736
vt 0.893010 0.725973
vt 0.902447 0.527772
vt 0.902162 0.533219
vt 0.957296 0.561269
vt 0.954645 0.560922
vt 0.954376 0.566550
vt 0.957027 0.566897
vt 0.941951 0.827535
vt 0.944799 0.823731
vt 0.508006 0.679012
vt 0.511410 0.679459
vt 0.490421 0.768347
vt 0.486904 0.767917
vt 0.511510 0.683584
vt 0.508108 0.683136
vt 0.486722 0.772045
vt 0.490239 0.772475
vt 0.493765 0.159101
vt 0.483689 0.269417
vt 0.543243 0.286903
vt 0.553777 0.168645
vt 0.042239 0.077279
vt 0.085862 0.205210
vt 0.103383 0.071384
vt 0.064838 0.051142
vt 0.040638 0.398006
vt 0.079155 0.418639
vt 0.073534 0.514350
vt 0.035054 0.494041
vt 0.065863 0.052474
vt 0.104493 0.070625
vt 0.085920 0.198371
vt 0.043244 0.078633
vt 0.158010 0.447290
vt 0.152322 0.542251
vt 0.256620 0.486750
vt 0.252570 0.580398
vt 0.071811 0.406600
vt 0.064696 0.502568
vt 0.148033 0.544553
vt 0.153042 0.449347
vt 0.178046 0.173550
vt 0.167499 0.265544
vt 0.165228 0.274700
vt 0.176564 0.181363
vt 0.232345 0.302515
vt 0.276365 0.239351
vt 0.338887 0.331883
vt 0.304896 0.405908
vt 0.213532 0.572151
vt 0.217527 0.478781
vt 0.229242 0.310882
vt 0.273301 0.247668
vt 0.440919 0.350107
vt 0.497421 0.369697
vt 0.482559 0.565564
vt 0.434395 0.548853
vt 0.300107 0.416317
vt 0.334919 0.340672
vt 0.322722 0.515490
vt 0.319655 0.607532
vt 0.291401 0.599322
vt 0.293783 0.506963
vt 0.434712 0.616334
vt 0.438108 0.538014
vt 0.562423 0.529849
vt 0.558904 0.580296
vt 0.417787 0.605171
vt 0.421277 0.526307
vt 0.439359 0.549740
vt 0.415867 0.632686
vt 0.413386 0.639414
vt 0.436757 0.557383
vt 0.660297 0.533736
vt 0.657995 0.566078
vt 0.549102 0.574352
vt 0.552638 0.523855
vt 0.548344 0.731653
vt 0.534323 0.786174
vt 0.534353 0.785928
vt 0.548351 0.731544
vt 0.645713 0.767246
vt 0.646259 0.734293
vt 0.731317 0.704238
vt 0.728759 0.725515
vt 0.659857 0.564524
vt 0.662157 0.532246
vt 0.645804 0.766636
vt 0.646345 0.733703
vt 0.740904 0.566818
vt 0.742304 0.546942
vt 0.794097 0.557979
vt 0.793078 0.572544
vt 0.728784 0.725366
vt 0.731340 0.704096
vt 0.739850 0.566539
vt 0.741252 0.546665
vt 0.787200 0.556761
vt 0.786181 0.571326
vt 0.857647 0.579477
vt 0.858029 0.573998
vt 0.782427 0.725202
vt 0.774755 0.735092
vt 0.774759 0.735067
vt 0.782431 0.725183
vt 0.841521 0.810608
vt 0.844378 0.807048
vt 0.889749 0.900275
vt 0.886893 0.903834
vt 0.860605 0.574458
vt 0.860223 0.579937
vt 0.911843 0.583610
vt 0.909267 0.583150
vt 0.908884 0.588629
vt 0.911461 0.589089
vt 0.491033 0.743937
vt 0.494457 0.744549
vt 0.488591 0.828624
vt 0.485167 0.828012
vt 0.494176 0.748569
vt 0.490752 0.747957
vt 0.484886 0.832031
vt 0.488311 0.832643
vt 0.012600 0.454349
vt 0.104953 0.471498
vt 0.118805 0.371190
vt 0.025952 0.354901
vt 0.058613 0.093515
vt 0.148391 0.134403
vt 0.165765 0.024427
vt 0.072095 0.042861
vt 0.032856 0.356893
vt 0.122338 0.371975
vt 0.108693 0.472497
vt 0.019477 0.456375
vt 0.071179 0.042596
vt 0.164175 0.028464
vt 0.146480 0.139157
vt 0.057739 0.093097
vt 0.236487 0.391766
vt 0.215535 0.517825
vt 0.325981 0.446618
vt 0.308170 0.532836
vt 0.196528 0.500390
vt 0.213335 0.400460
vt 0.267276 0.103731
vt 0.229987 0.232615
vt 0.236119 0.218117
vt 0.274627 0.086527
vt 0.295189 0.273215
vt 0.350390 0.194941
vt 0.405858 0.297731
vt 0.376272 0.384487
vt 0.264663 0.517518
vt 0.283424 0.432540
vt 0.306037 0.251567
vt 0.359917 0.175025
vt 0.541380 0.341081
vt 0.607939 0.336501
vt 0.586343 0.560660
vt 0.541674 0.554485
vt 0.389692 0.363251
vt 0.418320 0.275847
vt 0.394899 0.463285
vt 0.372861 0.561814
vt 0.354812 0.556233
vt 0.377732 0.458967
vt 0.507521 0.561754
vt 0.518516 0.492566
vt 0.641796 0.542552
vt 0.634365 0.596771
vt 0.595632 0.429126
vt 0.529703 0.433566
vt 0.532543 0.625753
vt 0.579200 0.632844
vt 0.509707 0.544259
vt 0.471813 0.606327
vt 0.475144 0.599559
vt 0.512942 0.537181
vt 0.741996 0.584908
vt 0.737534 0.622258
vt 0.490027 0.480450
vt 0.478498 0.552832
vt 0.621503 0.599478
vt 0.629494 0.543048
vt 0.615511 0.747654
vt 0.596847 0.796801
vt 0.598572 0.790516
vt 0.617730 0.735159
vt 0.710451 0.849936
vt 0.712884 0.819534
vt 0.800372 0.784426
vt 0.796791 0.805975
vt 0.738789 0.623146
vt 0.743266 0.585656
vt 0.710652 0.846670
vt 0.713185 0.815483
vt 0.816388 0.656244
vt 0.819049 0.634990
vt 0.878782 0.646001
vt 0.876768 0.661450
vt 0.797045 0.803921
vt 0.800648 0.782256
vt 0.815623 0.655261
vt 0.818290 0.633898
vt 0.871803 0.643749
vt 0.869796 0.659204
vt 0.934097 0.689817
vt 0.935241 0.680925
vt 0.855740 0.829736
vt 0.847266 0.839515
vt 0.847464 0.838535
vt 0.855934 0.828860
vt 0.906702 0.909068
vt 0.911930 0.903151
vt 0.925899 0.966897
vt 0.923043 0.969861
vt 0.906752 0.908928
vt 0.911979 0.903015
vt 0.939555 0.682324
vt 0.938412 0.691216
vt 0.961518 0.681830
vt 0.959128 0.681066
vt 0.958493 0.686149
vt 0.960883 0.686914
vt 0.519042 0.777476
vt 0.524624 0.779109
vt 0.522002 0.837700
vt 0.518825 0.836684
vt 0.523723 0.786406
vt 0.518141 0.784776
vt 0.518359 0.840413
vt 0.521536 0.841429
vt 0.045972 0.334380
vt 0.109203 0.391576
vt 0.130420 0.272977
vt 0.058639 0.254584
vt 0.091111 0.091124
vt 0.159061 0.128805
vt 0.178982 0.062539
vt 0.100795 0.041187
vt 0.060093 0.246070
vt 0.138070 0.268481
vt 0.117864 0.377633
vt 0.046380 0.332473
vt 0.104527 0.039771
vt 0.181639 0.056600
vt 0.166952 0.100878
vt 0.094375 0.090729
vt 0.198940 0.317814
vt 0.177845 0.424787
vt 0.295772 0.370728
vt 0.281981 0.470278
vt 0.166366 0.440384
vt 0.189081 0.325969
vt 0.242340 0.100131
vt 0.219567 0.172580
vt 0.215625 0.192350
vt 0.242422 0.098929
vt 0.289821 0.250749
vt 0.335176 0.202504
vt 0.383865 0.304048
vt 0.341397 0.365370
vt 0.246653 0.468047
vt 0.257010 0.382407
vt 0.281195 0.260665
vt 0.327196 0.212544
vt 0.346141 0.493947
vt 0.356140 0.414386
vt 0.439885 0.507623
vt 0.432813 0.566005
vt 0.339657 0.363567
vt 0.376796 0.310408
vt 0.316019 0.493119
vt 0.325538 0.434638
vt 0.547122 0.524898
vt 0.539833 0.558372
vt 0.420591 0.558806
vt 0.428400 0.493776
vt 0.448107 0.489020
vt 0.422926 0.547055
vt 0.416304 0.554664
vt 0.442266 0.495633
vt 0.624634 0.579142
vt 0.619097 0.606917
vt 0.537297 0.553582
vt 0.544580 0.520189
vt 0.519314 0.661660
vt 0.509442 0.693797
vt 0.510175 0.693374
vt 0.520035 0.661250
vt 0.592123 0.750437
vt 0.596386 0.721241
vt 0.667803 0.741122
vt 0.663474 0.758460
vt 0.620757 0.606296
vt 0.626304 0.578452
vt 0.592136 0.750450
vt 0.596402 0.721256
vt 0.686268 0.648166
vt 0.689672 0.631109
vt 0.734807 0.649567
vt 0.732385 0.661433
vt 0.663491 0.758511
vt 0.667811 0.741158
vt 0.685392 0.648126
vt 0.688781 0.631205
vt 0.728677 0.648288
vt 0.726260 0.660078
vt 0.787944 0.683996
vt 0.788866 0.679372
vt 0.708872 0.779791
vt 0.701274 0.785852
vt 0.701322 0.785988
vt 0.708914 0.779907
vt 0.750621 0.871876
vt 0.753492 0.869556
vt 0.781659 0.960275
vt 0.778784 0.962586
vt 0.750623 0.871882
vt 0.753494 0.869562
vt 0.791061 0.680458
vt 0.790138 0.685082
vt 0.836366 0.684883
vt 0.834170 0.683780
vt 0.833242 0.688453
vt 0.835439 0.689557
vt 0.778784 0.962585
vt 0.781658 0.960275
vt 0.438646 0.709439
vt 0.441536 0.710914
vt 0.438321 0.785667
vt 0.435400 0.784183
vt 0.440837 0.714338
vt 0.437947 0.712863
vt 0.434712 0.787605
vt 0.437632 0.789090
vt 0.033572 0.192458
vt 0.192937 0.298843
vt 0.241659 0.147995
vt 0.075563 0.045447
vt 0.029974 0.184192
vt 0.177763 0.342457
vt 0.223751 0.198910
vt 0.089011 0.075524
vt 0.097974 0.048248
vt 0.244161 0.136796
vt 0.195971 0.285246
vt 0.054178 0.201621
vt 0.093248 0.082716
vt 0.224111 0.199603
vt 0.178293 0.343411
vt 0.034034 0.191053
vt 0.262292 0.344863
vt 0.305659 0.211479
vt 0.258133 0.357523
vt 0.311872 0.252906
vt 0.358793 0.299858
vt 0.315097 0.406879
vt 0.257175 0.359036
vt 0.312675 0.248668
vt 0.322452 0.218913
vt 0.278632 0.354069
vt 0.321922 0.412071
vt 0.369478 0.268050
vt 0.436518 0.341239
vt 0.393465 0.469984
vt 0.319711 0.394163
vt 0.362335 0.289789
vt 0.317172 0.400562
vt 0.358314 0.276677
vt 0.393066 0.453883
vt 0.439827 0.328885
vt 0.476853 0.393730
vt 0.452042 0.526973
vt 0.388930 0.466473
vt 0.434646 0.330294
vt 0.396689 0.445811
vt 0.443205 0.320888
vt 0.482618 0.380682
vt 0.455450 0.518367
vt 0.541040 0.560428
vt 0.567860 0.463940
vt 0.483890 0.376810
vt 0.437818 0.512527
vt 0.456075 0.514696
vt 0.495066 0.397798
vt 0.537327 0.560932
vt 0.564341 0.474649
vt 0.628746 0.537955
vt 0.604294 0.610531
vt 0.537049 0.578978
vt 0.565410 0.486262
vt 0.574432 0.448006
vt 0.540850 0.567411
vt 0.650260 0.572780
vt 0.645615 0.484774
vt 0.728979 0.551536
vt 0.711253 0.594891
vt 0.630881 0.631758
vt 0.653879 0.562957
vt 0.650363 0.573656
vt 0.646376 0.484300
vt 0.690952 0.667267
vt 0.706044 0.621002
vt 0.802581 0.664003
vt 0.793990 0.690382
vt 0.711186 0.594424
vt 0.728982 0.551193
vt 0.688073 0.665437
vt 0.702563 0.620667
vt 0.912379 0.729679
vt 0.909260 0.739446
vt 0.793444 0.687283
vt 0.801926 0.661243
vt 0.814024 0.629409
vt 0.804081 0.654911
vt 0.804023 0.654861
vt 0.813967 0.629353
vt 0.888042 0.803787
vt 0.891593 0.793212
vt 0.950445 0.866424
vt 0.948162 0.873027
vt 0.908503 0.741517
vt 0.911673 0.731617
vt 0.887981 0.803720
vt 0.891526 0.793142
vt 0.546437 0.526581
vt 0.543963 0.533024
vt 0.539737 0.529474
vt 0.542209 0.523030
vt 0.948184 0.873041
vt 0.950469 0.866438
vt 0.965225 0.821529
vt 0.962980 0.828274
vt 0.962745 0.828644
vt 0.964988 0.821902
vt 0.018280 0.202848
vt 0.132939 0.267071
vt 0.186945 0.105435
vt 0.061513 0.044506
vt 0.021421 0.162496
vt 0.115738 0.314995
vt 0.166724 0.161173
vt 0.088436 0.052107
vt 0.089320 0.049505
vt 0.189750 0.093407
vt 0.136342 0.252468
vt 0.044385 0.214897
vt 0.095005 0.065924
vt 0.167106 0.161930
vt 0.116301 0.316037
vt 0.027557 0.175545
vt 0.207361 0.318411
vt 0.255422 0.175494
vt 0.202339 0.333192
vt 0.261324 0.221574
vt 0.311524 0.273379
vt 0.263355 0.387834
vt 0.201291 0.334801
vt 0.262231 0.217019
vt 0.273476 0.183923
vt 0.224909 0.328741
vt 0.271086 0.392385
vt 0.323769 0.238089
vt 0.395436 0.318697
vt 0.347757 0.456613
vt 0.268455 0.374220
vt 0.315442 0.262597
vt 0.266069 0.379849
vt 0.311639 0.247132
vt 0.347066 0.440444
vt 0.398710 0.306660
vt 0.438062 0.377539
vt 0.410029 0.520750
vt 0.342896 0.452715
vt 0.393519 0.306839
vt 0.351051 0.431818
vt 0.402432 0.298110
vt 0.444407 0.363595
vt 0.413789 0.511544
vt 0.505770 0.559002
vt 0.535625 0.455509
vt 0.446230 0.358230
vt 0.395228 0.503598
vt 0.414912 0.506380
vt 0.458095 0.381151
vt 0.502172 0.558240
vt 0.532140 0.465766
vt 0.601056 0.535643
vt 0.573982 0.613385
vt 0.501702 0.577710
vt 0.533184 0.478325
vt 0.542868 0.438470
vt 0.505499 0.566534
vt 0.623535 0.574965
vt 0.619349 0.479869
vt 0.708696 0.553933
vt 0.689156 0.600299
vt 0.602478 0.636936
vt 0.627946 0.563233
vt 0.623638 0.575913
vt 0.620176 0.479375
vt 0.666978 0.676708
vt 0.683703 0.627138
vt 0.787490 0.675875
vt 0.777969 0.704138
vt 0.689089 0.599793
vt 0.708703 0.553563
vt 0.663887 0.674663
vt 0.679948 0.626693
vt 0.905376 0.749404
vt 0.901917 0.759870
vt 0.777409 0.700780
vt 0.786808 0.672880
vt 0.799752 0.640030
vt 0.788780 0.667314
vt 0.788718 0.667259
vt 0.799691 0.639968
vt 0.877999 0.830018
vt 0.881931 0.818691
vt 0.944760 0.899126
vt 0.942234 0.906198
vt 0.901081 0.762087
vt 0.904595 0.751478
vt 0.877933 0.829946
vt 0.881859 0.818613
vt 0.514615 0.524950
vt 0.511884 0.531844
vt 0.507356 0.527911
vt 0.510085 0.521016
vt 0.942258 0.906213
vt 0.944786 0.899142
vt 0.961548 0.849811
vt 0.959062 0.857035
vt 0.958805 0.857430
vt 0.961289 0.850207
vt 0.014021 0.438238
vt 0.079470 0.457708
vt 0.091043 0.374011
vt 0.026219 0.353745
vt 0.060733 0.132355
vt 0.123690 0.164599
vt 0.117046 0.019154
vt 0.066053 0.061304
vt 0.067373 0.062432
vt 0.118609 0.020046
vt 0.125089 0.165094
vt 0.061676 0.132558
vt 0.522406 0.316609
vt 0.520887 0.242829
vt 0.467568 0.222150
vt 0.469852 0.295461
vt 0.048051 0.472630
vt 0.059511 0.388206
vt 0.174770 0.416186
vt 0.162568 0.499439
vt 0.257692 0.487502
vt 0.245917 0.563937
vt 0.156987 0.498492
vt 0.168840 0.417698
vt 0.215192 0.161881
vt 0.196246 0.246665
vt 0.195385 0.247426
vt 0.214348 0.162317
vt 0.248424 0.295565
vt 0.296538 0.239230
vt 0.338550 0.342394
vt 0.296324 0.408735
vt 0.209997 0.542048
vt 0.222097 0.462479
vt 0.247923 0.296816
vt 0.296153 0.240795
vt 0.301518 0.579934
vt 0.312418 0.512101
vt 0.434416 0.473080
vt 0.423168 0.538140
vt 0.296223 0.411656
vt 0.338349 0.345767
vt 0.273774 0.553380
vt 0.285006 0.483605
vt 0.561132 0.482234
vt 0.554848 0.520546
vt 0.409324 0.521140
vt 0.420552 0.455851
vt 0.424412 0.530156
vt 0.397524 0.596832
vt 0.398339 0.598332
vt 0.425270 0.531748
vt 0.642469 0.561377
vt 0.638023 0.589491
vt 0.544596 0.521670
vt 0.551012 0.482334
vt 0.527654 0.694982
vt 0.509955 0.743877
vt 0.510192 0.744172
vt 0.527915 0.695308
vt 0.609936 0.780255
vt 0.613251 0.748384
vt 0.689066 0.758928
vt 0.685116 0.777957
vt 0.639153 0.592845
vt 0.643634 0.564470
vt 0.609991 0.780268
vt 0.613312 0.748399
vt 0.708957 0.631339
vt 0.711767 0.614440
vt 0.755548 0.647041
vt 0.753466 0.659954
vt 0.685253 0.778248
vt 0.689198 0.759207
vt 0.708232 0.629677
vt 0.711039 0.612845
vt 0.749749 0.641434
vt 0.747671 0.654222
vt 0.809067 0.703823
vt 0.809863 0.698877
vt 0.733076 0.790741
vt 0.725191 0.798416
vt 0.725254 0.798553
vt 0.733127 0.790860
vt 0.781134 0.882997
vt 0.784147 0.880249
vt 0.822334 0.983401
vt 0.819335 0.986194
vt 0.781152 0.883037
vt 0.784166 0.880287
vt 0.812229 0.700277
vt 0.811433 0.705227
vt 0.859514 0.744915
vt 0.857105 0.743930
vt 0.856305 0.749051
vt 0.858715 0.750036
vt 0.819336 0.986195
vt 0.822334 0.983403
vt 0.432594 0.739943
vt 0.435689 0.741210
vt 0.407630 0.817894
vt 0.404430 0.816615
vt 0.435377 0.745037
vt 0.432285 0.743771
vt 0.403858 0.820376
vt 0.407058 0.821655
vt 0.019787 0.433714
vt 0.106027 0.490899
vt 0.114610 0.351833
vt 0.024718 0.342216
vt 0.042982 0.114079
vt 0.128096 0.183368
vt 0.141880 0.103044
vt 0.052521 0.059868
vt 0.031470 0.322816
vt 0.122564 0.344336
vt 0.113909 0.472544
vt 0.026259 0.421696
vt 0.056276 0.046742
vt 0.144088 0.095563
vt 0.133343 0.149682
vt 0.046264 0.102972
vt 0.196662 0.379523
vt 0.186740 0.505593
vt 0.311293 0.407009
vt 0.308567 0.522432
vt 0.175929 0.526706
vt 0.186711 0.391817
vt 0.217262 0.124339
vt 0.201084 0.212480
vt 0.199202 0.235794
vt 0.217201 0.122973
vt 0.289303 0.276751
vt 0.333720 0.208241
vt 0.400875 0.305574
vt 0.361336 0.387718
vt 0.268914 0.531432
vt 0.269580 0.432627
vt 0.280950 0.290606
vt 0.326102 0.222025
vt 0.383073 0.527950
vt 0.384112 0.436035
vt 0.489279 0.512712
vt 0.488813 0.580073
vt 0.359168 0.386275
vt 0.393805 0.314959
vt 0.349400 0.536820
vt 0.352581 0.468553
vt 0.610979 0.497099
vt 0.607106 0.536772
vt 0.474278 0.576024
vt 0.474722 0.501015
vt 0.495958 0.490821
vt 0.475266 0.563682
vt 0.468854 0.574315
vt 0.490289 0.500090
vt 0.704247 0.532348
vt 0.701604 0.565101
vt 0.603672 0.532258
vt 0.607547 0.492678
vt 0.597237 0.660061
vt 0.590316 0.699085
vt 0.591080 0.698375
vt 0.597988 0.659370
vt 0.689650 0.735324
vt 0.690692 0.701401
vt 0.772804 0.700338
vt 0.770182 0.721067
vt 0.703375 0.563870
vt 0.706021 0.531037
vt 0.689666 0.735334
vt 0.690712 0.701413
vt 0.781699 0.589231
vt 0.783326 0.569116
vt 0.835968 0.575012
vt 0.834776 0.589023
vt 0.770207 0.721119
vt 0.772818 0.700376
vt 0.780717 0.589471
vt 0.782344 0.569513
vt 0.828975 0.575578
vt 0.827778 0.589503
vt 0.899557 0.596104
vt 0.899998 0.590651
vt 0.823484 0.730080
vt 0.815786 0.739304
vt 0.815857 0.739439
vt 0.823545 0.730195
vt 0.881703 0.819126
vt 0.884608 0.815607
vt 0.927519 0.907548
vt 0.924609 0.911057
vt 0.881707 0.819133
vt 0.884612 0.815614
vt 0.902581 0.591147
vt 0.902140 0.596601
vt 0.953632 0.581349
vt 0.951044 0.580833
vt 0.950604 0.586343
vt 0.953191 0.586859
vt 0.924608 0.911057
vt 0.927518 0.907547
vt 0.512664 0.739381
vt 0.516072 0.740085
vt 0.521982 0.824436
vt 0.518539 0.823731
vt 0.515728 0.744129
vt 0.512320 0.743425
vt 0.518206 0.827769
vt 0.521650 0.828474
vt 0.015575 0.243821
vt 0.170254 0.332059
vt 0.223954 0.173315
vt 0.054805 0.087624
vt 0.032069 0.153720
vt 0.152347 0.381483
vt 0.203049 0.230410
vt 0.095183 0.038361
vt 0.077348 0.090208
vt 0.226755 0.161494
vt 0.173651 0.317706
vt 0.036565 0.253400
vt 0.104755 0.055167
vt 0.203422 0.231158
vt 0.152898 0.382514
vt 0.041116 0.169571
vt 0.243383 0.383227
vt 0.291170 0.242869
vt 0.237576 0.400109
vt 0.296021 0.290664
vt 0.345294 0.342093
vt 0.297493 0.454419
vt 0.236539 0.401685
vt 0.296929 0.286186
vt 0.308923 0.251318
vt 0.260632 0.393543
vt 0.305907 0.456597
vt 0.358281 0.305071
vt 0.428604 0.385039
vt 0.381210 0.520475
vt 0.302559 0.441053
vt 0.349188 0.331506
vt 0.301005 0.444210
vt 0.346306 0.313878
vt 0.379766 0.506912
vt 0.431053 0.375578
vt 0.469581 0.445703
vt 0.441519 0.586512
vt 0.376435 0.516596
vt 0.426753 0.373345
vt 0.383719 0.498450
vt 0.434745 0.367189
vt 0.475875 0.432022
vt 0.445251 0.577476
vt 0.535686 0.624964
vt 0.565417 0.523284
vt 0.478502 0.424386
vt 0.427811 0.567134
vt 0.447188 0.570033
vt 0.490114 0.447056
vt 0.532958 0.621817
vt 0.562766 0.530990
vt 0.630414 0.600368
vt 0.603504 0.676709
vt 0.532434 0.640987
vt 0.563754 0.543367
vt 0.572604 0.506562
vt 0.535395 0.632379
vt 0.651613 0.641643
vt 0.647793 0.547956
vt 0.735548 0.621623
vt 0.716158 0.667126
vt 0.631492 0.700135
vt 0.656809 0.627758
vt 0.651711 0.642577
vt 0.648608 0.547476
vt 0.694887 0.739829
vt 0.711516 0.691147
vt 0.813573 0.739990
vt 0.804107 0.767747
vt 0.716093 0.666628
vt 0.735557 0.621259
vt 0.691850 0.737790
vt 0.707820 0.690678
vt 0.929437 0.813363
vt 0.925998 0.823642
vt 0.803566 0.764435
vt 0.812912 0.737034
vt 0.824950 0.707155
vt 0.814057 0.733936
vt 0.813996 0.733881
vt 0.824889 0.707094
vt 0.901405 0.894898
vt 0.905313 0.883775
vt 0.966933 0.963501
vt 0.964423 0.970445
vt 0.925167 0.825818
vt 0.928662 0.815400
vt 0.901340 0.894826
vt 0.905243 0.883698
vt 0.542948 0.590129
vt 0.540236 0.596897
vt 0.535789 0.592987
vt 0.538499 0.586218
vt 0.964447 0.970460
vt 0.966959 0.963517
vt 0.984438 0.912704
vt 0.981966 0.919798
vt 0.981712 0.920185
vt 0.984181 0.913092
s 1
usemtl Material.003
f 1/1/1 2/2/1 4/3/1 3/4/1
f 3/5/2 4/6/2 8/7/2 7/8/2
f 7/9/3 8/10/3 6/11/3 5/12/3
f 5/13/4 6/14/4 2/15/4 1/16/4
f 6/11/5 8/10/5 11/17/5 12/18/5
f 12/18/6 11/17/6 15/19/6 16/20/6
f 4/3/7 2/2/7 9/21/7 10/22/7
f 2/15/8 6/14/8 12/23/8 9/24/8
f 8/7/9 4/6/9 10/25/9 11/26/9
f 13/27/10 16/28/10 20/29/10 17/30/10
f 10/22/11 9/21/11 13/31/11 14/32/11
f 9/24/12 12/23/12 16/28/12 13/27/12
f 11/26/13 10/25/13 14/33/13 15/34/13
f 20/35/14 19/36/14 23/37/14 24/38/14
f 15/34/15 14/33/15 18/39/15 19/40/15
f 16/20/16 15/19/16 19/36/16 20/35/16
f 14/32/17 13/31/17 17/41/17 18/42/17
f 24/38/18 23/37/18 27/43/18 28/44/18
f 18/42/19 17/41/19 21/45/19 22/46/19
f 17/30/20 20/29/20 24/47/20 21/48/20
f 19/40/21 18/39/21 22/49/21 23/50/21
f 28/44/22 27/43/22 31/51/22 32/52/22
f 22/46/23 21/45/23 25/53/23 26/54/23
f 21/48/24 24/47/24 28/55/24 25/56/24
f 23/50/25 22/49/25 26/57/25 27/58/25
f 29/59/26 32/60/26 36/61/26 33/62/26
f 26/54/27 25/53/27 29/63/27 30/64/27
f 25/56/28 28/55/28 32/60/28 29/59/28
f 27/58/29 26/57/29 30/65/29 31/66/29
f 36/67/30 35/68/30 39/69/30 40/70/30
f 31/66/31 30/65/31 34/71/31 35/72/31
f 32/52/32 31/51/32 35/68/32 36/67/32
f 30/64/33 29/63/33 33/73/33 34/74/33
f 38/75/34 37/76/34 41/77/34 42/78/34
f 34/74/35 33/73/35 37/76/35 38/75/35
f 33/62/36 36/61/36 40/79/36 37/80/36
f 35/72/37 34/71/37 38/81/37 39/82/37
f 41/83/38 44/84/38 48/85/38 45/86/38
f 37/80/39 40/79/39 44/84/39 41/83/39
f 39/82/40 38/81/40 42/87/40 43/88/40
f 40/70/41 39/69/41 43/89/41 44/90/41
f 47/91/42 46/92/42 45/93/42 48/94/42
f 43/88/43 42/87/43 46/95/43 47/96/43
f 44/97/44 43/98/44 47/99/44 48/100/44
f 42/101/45 41/102/45 45/103/45 46/104/45
f 49/105/46 50/106/46 52/107/46 51/108/46
f 51/109/47 52/110/47 56/111/47 55/112/47
f 55/113/48 56/114/48 54/115/48 53/116/48
f 53/117/49 54/118/49 50/119/49 49/120/49
f 54/115/50 56/114/50 59/121/50 60/122/50
f 60/122/51 59/121/51 63/123/51 64/124/51
f 52/125/52 50/126/52 57/127/52 58/128/52
f 50/119/53 54/118/53 60/129/53 57/130/53
f 56/111/54 52/110/54 58/131/54 59/132/54
f 61/133/55 64/134/55 68/135/55 65/136/55
f 58/128/56 57/127/56 61/137/56 62/138/56
f 57/130/57 60/129/57 64/134/57 61/133/57
f 59/132/58 58/131/58 62/139/58 63/140/58
f 68/141/59 67/142/59 71/143/59 72/144/59
f 63/140/60 62/139/60 66/145/60 67/146/60
f 64/124/61 63/123/61 67/147/61 68/148/61
f 62/138/62 61/137/62 65/149/62 66/150/62
f 72/151/63 71/152/63 75/153/63 76/154/63
f 66/150/64 65/149/64 69/155/64 70/156/64
f 65/136/65 68/135/65 72/157/65 69/158/65
f 67/146/66 66/145/66 70/159/66 71/160/66
f 76/154/67 75/153/67 79/161/67 80/162/67
f 70/156/68 69/155/68 73/163/68 74/164/68
f 69/158/69 72/157/69 76/165/69 73/166/69
f 71/160/70 70/159/70 74/167/70 75/168/70
f 77/169/71 80/170/71 84/171/71 81/172/71
f 74/164/72 73/163/72 77/173/72 78/174/72
f 73/166/73 76/165/73 80/170/73 77/169/73
f 75/168/74 74/167/74 78/175/74 79/176/74
f 84/177/75 83/178/75 87/179/75 88/180/75
f 79/176/76 78/175/76 82/181/76 83/182/76
f 80/162/77 79/161/77 83/178/77 84/177/77
f 78/174/78 77/173/78 81/183/78 82/184/78
f 86/185/79 85/186/79 89/187/79 90/188/79
f 82/184/80 81/183/80 85/186/80 86/185/80
f 81/172/81 84/171/81 88/189/81 85/190/81
f 83/182/82 82/181/82 86/191/82 87/192/82
f 89/193/83 92/194/83 96/195/83 93/196/83
f 85/190/84 88/189/84 92/194/84 89/193/84
f 87/192/85 86/191/85 90/193/85 91/194/85
f 88/180/86 87/179/86 91/197/86 92/198/86
f 95/199/87 94/200/87 93/201/87 96/202/87
f 91/194/88 90/193/88 94/196/88 95/195/88
f 92/203/89 91/204/89 95/205/89 96/206/89
f 90/207/90 89/208/90 93/209/90 94/210/90
f 97/211/91 98/212/91 100/213/91 99/214/91
f 99/215/92 100/216/92 104/217/92 103/218/92
f 103/219/93 104/220/93 102/221/93 101/222/93
f 101/223/94 102/224/94 98/225/94 97/226/94
f 102/221/95 104/220/95 107/227/95 108/228/95
f 108/228/96 107/227/96 111/229/96 112/230/96
f 100/213/97 98/212/97 105/231/97 106/232/97
f 98/225/98 102/224/98 108/233/98 105/234/98
f 104/217/99 100/216/99 106/235/99 107/236/99
f 109/237/100 112/238/100 116/239/100 113/240/100
f 106/232/101 105/231/101 109/241/101 110/242/101
f 105/234/102 108/233/102 112/238/102 109/237/102
f 107/236/103 106/235/103 110/243/103 111/244/103
f 116/245/104 115/246/104 119/247/104 120/248/104
f 111/244/105 110/243/105 114/249/105 115/250/105
f 112/230/106 111/229/106 115/251/106 116/252/106
f 110/242/107 109/241/107 113/253/107 114/254/107
f 120/255/108 119/256/108 123/257/108 124/258/108
f 114/259/109 113/260/109 117/261/109 118/262/109
f 113/240/110 116/239/110 120/263/110 117/264/110
f 115/250/111 114/249/111 118/265/111 119/266/111
f 124/258/112 123/257/112 127/267/112 128/268/112
f 118/269/113 117/270/113 121/271/113 122/272/113
f 117/264/114 120/263/114 124/273/114 121/274/114
f 119/266/115 118/265/115 122/275/115 123/276/115
f 125/277/116 128/278/116 132/279/116 129/280/116
f 122/272/117 121/271/117 125/281/117 126/282/117
f 121/274/118 124/273/118 128/278/118 125/277/118
f 123/276/119 122/275/119 126/283/119 127/284/119
f 132/285/120 131/286/120 135/287/120 136/288/120
f 127/284/121 126/283/121 130/289/121 131/290/121
f 128/268/122 127/267/122 131/286/122 132/285/122
f 126/282/123 125/281/123 129/291/123 130/292/123
f 134/293/124 133/294/124 137/295/124 138/296/124
f 130/292/125 129/291/125 133/294/125 134/293/125
f 129/280/126 132/279/126 136/297/126 133/298/126
f 131/290/127 130/289/127 134/299/127 135/300/127
f 137/301/128 140/302/128 144/303/128 141/304/128
f 133/298/129 136/297/129 140/302/129 137/301/129
f 135/300/130 134/299/130 138/305/130 139/306/130
f 136/288/131 135/287/131 139/307/131 140/308/131
f 143/309/132 142/310/132 141/311/132 144/312/132
f 139/306/133 138/305/133 142/304/133 143/303/133
f 140/313/134 139/314/134 143/315/134 144/316/134
f 138/317/135 137/318/135 141/319/135 142/320/135
f 145/321/136 146/322/136 148/323/136 147/324/136
f 147/325/137 148/326/137 152/327/137 151/328/137
f 151/329/138 152/330/138 150/331/138 149/332/138
f 149/333/139 150/334/139 146/335/139 145/336/139
f 150/331/140 152/330/140 155/337/140 156/338/140
f 156/338/141 155/337/141 159/339/141 160/340/141
f 148/323/142 146/322/142 153/341/142 154/342/142
f 146/335/143 150/334/143 156/343/143 153/344/143
f 152/327/144 148/326/144 154/345/144 155/346/144
f 157/347/145 160/348/145 164/349/145 161/350/145
f 154/342/146 153/341/146 157/351/146 158/352/146
f 153/344/147 156/343/147 160/348/147 157/347/147
f 155/346/148 154/345/148 158/353/148 159/354/148
f 164/355/149 163/356/149 167/357/149 168/358/149
f 159/354/150 158/353/150 162/359/150 163/360/150
f 160/340/151 159/339/151 163/356/151 164/355/151
f 158/352/152 157/351/152 161/361/152 162/362/152
f 168/358/153 167/357/153 171/363/153 172/364/153
f 162/362/154 161/361/154 165/365/154 166/366/154
f 161/350/155 164/349/155 168/367/155 165/368/155
f 163/360/156 162/359/156 166/369/156 167/370/156
f 172/364/157 171/363/157 175/371/157 176/372/157
f 166/366/158 165/365/158 169/373/158 170/374/158
f 165/368/159 168/367/159 172/375/159 169/376/159
f 167/370/160 166/369/160 170/377/160 171/378/160
f 173/379/161 176/380/161 180/381/161 177/382/161
f 170/374/162 169/373/162 173/383/162 174/384/162
f 169/376/163 172/375/163 176/380/163 173/379/163
f 171/378/164 170/377/164 174/385/164 175/386/164
f 180/387/165 179/388/165 183/389/165 184/390/165
f 175/386/166 174/385/166 178/391/166 179/392/166
f 176/372/167 175/371/167 179/388/167 180/387/167
f 174/384/168 173/383/168 177/393/168 178/394/168
f 182/395/169 181/396/169 185/397/169 186/398/169
f 178/394/170 177/393/170 181/396/170 182/395/170
f 177/382/171 180/381/171 184/399/171 181/400/171
f 179/392/172 178/391/172 182/401/172 183/402/172
f 185/403/173 188/404/173 192/405/173 189/406/173
f 181/400/174 184/399/174 188/404/174 185/403/174
f 183/402/175 182/401/175 186/407/175 187/408/175
f 184/390/176 183/389/176 187/409/176 188/410/176
f 191/411/177 190/412/177 189/413/177 192/414/177
f 187/408/178 186/407/178 190/415/178 191/416/178
f 188/417/179 187/418/179 191/419/179 192/420/179
f 186/421/180 185/422/180 189/423/180 190/424/180
f 193/425/181 194/426/181 196/427/181 195/428/181
f 195/429/182 196/430/182 200/431/182 199/432/182
f 199/433/183 200/434/183 198/435/183 197/436/183
f 197/437/184 198/438/184 194/439/184 193/440/184
f 196/427/185 194/426/185 201/441/185 202/442/185
f 201/443/186 204/444/186 208/445/186 205/446/186
f 194/439/187 198/438/187 204/444/187 201/443/187
f 200/431/188 196/430/188 202/447/188 203/448/188
f 198/435/189 200/434/189 203/449/189 204/450/189
f 208/451/190 207/452/190 211/453/190 212/454/190
f 203/448/191 202/447/191 206/455/191 207/456/191
f 204/450/192 203/449/192 207/452/192 208/451/192
f 202/442/193 201/441/193 205/457/193 206/458/193
f 209/459/194 212/460/194 216/461/194 213/462/194
f 206/458/195 205/457/195 209/463/195 210/464/195
f 205/446/196 208/445/196 212/460/196 209/459/196
f 207/456/197 206/455/197 210/465/197 211/466/197
f 215/467/198 214/468/198 218/469/198 219/470/198
f 211/466/199 210/465/199 214/468/199 215/467/199
f 212/454/200 211/453/200 215/471/200 216/472/200
f 210/464/201 209/463/201 213/473/201 214/474/201
f 220/475/202 219/476/202 223/477/202 224/478/202
f 216/472/203 215/471/203 219/476/203 220/475/203
f 214/474/204 213/473/204 217/479/204 218/480/204
f 213/462/205 216/461/205 220/481/205 217/482/205
f 221/483/206 224/484/206 228/485/206 225/486/206
f 218/480/207 217/479/207 221/487/207 222/488/207
f 217/482/208 220/481/208 224/484/208 221/483/208
f 219/470/209 218/469/209 222/489/209 223/490/209
f 228/491/210 227/492/210 231/493/210 232/494/210
f 223/490/211 222/489/211 226/495/211 227/496/211
f 224/478/212 223/477/212 227/492/212 228/491/212
f 222/488/213 221/487/213 225/497/213 226/498/213
f 232/494/214 231/493/214 235/499/214 236/500/214
f 226/498/215 225/497/215 229/501/215 230/502/215
f 225/486/216 228/485/216 232/503/216 229/504/216
f 227/496/217 226/495/217 230/505/217 231/506/217
f 233/507/218 236/508/218 240/509/218 237/510/218
f 230/502/219 229/501/219 233/511/219 234/512/219
f 229/504/220 232/503/220 236/508/220 233/507/220
f 231/506/221 230/505/221 234/513/221 235/514/221
f 239/515/222 238/516/222 237/517/222 240/518/222
f 235/514/223 234/513/223 238/519/223 239/520/223
f 236/500/224 235/499/224 239/521/224 240/522/224
f 234/512/225 233/511/225 237/523/225 238/524/225
f 241/525/226 242/526/226 244/527/226 243/528/226
f 243/529/227 244/530/227 248/531/227 247/532/227
f 247/533/228 248/534/228 246/535/228 245/536/228
f 245/537/229 246/538/229 242/539/229 241/540/229
f 244/527/230 242/526/230 249/541/230 250/542/230
f 249/543/231 252/544/231 256/545/231 253/546/231
f 242/539/232 246/538/232 252/544/232 249/543/232
f 248/531/233 244/530/233 250/547/233 251/548/233
f 246/535/234 248/534/234 251/549/234 252/550/234
f 256/551/235 255/552/235 259/553/235 260/554/235
f 251/548/236 250/547/236 254/555/236 255/556/236
f 252/550/237 251/549/237 255/552/237 256/551/237
f 250/542/238 249/541/238 253/557/238 254/558/238
f 257/559/239 260/560/239 264/561/239 261/562/239
f 254/558/240 253/557/240 257/563/240 258/564/240
f 253/546/241 256/545/241 260/560/241 257/559/241
f 255/556/242 254/555/242 258/565/242 259/566/242
f 263/567/243 262/568/243 266/569/243 267/570/243
f 259/566/244 258/565/244 262/568/244 263/567/244
f 260/554/245 259/553/245 263/571/245 264/572/245
f 258/564/246 257/563/246 261/573/246 262/574/246
f 268/575/247 267/576/247 271/577/247 272/578/247
f 264/572/248 263/571/248 267/576/248 268/575/248
f 262/574/249 261/573/249 265/579/249 266/580/249
f 261/562/250 264/561/250 268/581/250 265/582/250
f 269/583/251 272/584/251 276/585/251 273/586/251
f 266/580/252 265/579/252 269/587/252 270/588/252
f 265/582/253 268/581/253 272/584/253 269/583/253
f 267/570/254 266/569/254 270/589/254 271/590/254
f 276/591/255 275/592/255 279/593/255 280/594/255
f 271/590/256 270/589/256 274/595/256 275/596/256
f 272/578/257 271/577/257 275/592/257 276/591/257
f 270/588/258 269/587/258 273/597/258 274/598/258
f 280/594/259 279/593/259 283/599/259 284/600/259
f 274/598/260 273/597/260 277/601/260 278/602/260
f 273/586/261 276/585/261 280/603/261 277/604/261
f 275/596/262 274/595/262 278/605/262 279/606/262
f 281/607/263 284/608/263 288/609/263 285/610/263
f 278/602/264 277/601/264 281/611/264 282/612/264
f 277/604/265 280/603/265 284/608/265 281/607/265
f 279/606/266 278/605/266 282/613/266 283/614/266
f 287/615/267 286/616/267 285/617/267 288/618/267
f 283/614/268 282/613/268 286/619/268 287/620/268
f 284/600/269 283/599/269 287/621/269 288/622/269
f 282/612/270 281/611/270 285/623/270 286/624/270
f 289/625/271 290/626/271 292/627/271 291/628/271
f 291/629/272 292/630/272 296/631/272 295/632/272
f 293/633/273 294/634/273 290/635/273 289/636/273
f 291/637/274 295/638/274 293/639/274 289/640/274
f 294/641/275 296/642/275 299/643/275 300/644/275
f 300/644/276 299/643/276 303/645/276 304/646/276
f 292/627/277 290/626/277 297/647/277 298/648/277
f 290/635/278 294/634/278 300/649/278 297/650/278
f 296/631/279 292/630/279 298/651/279 299/652/279
f 301/653/280 304/654/280 308/655/280 305/656/280
f 298/648/281 297/647/281 301/657/281 302/658/281
f 297/650/282 300/649/282 304/654/282 301/653/282
f 299/652/283 298/651/283 302/659/283 303/660/283
f 308/661/284 307/662/284 311/663/284 312/664/284
f 303/660/285 302/659/285 306/665/285 307/666/285
f 304/646/286 303/645/286 307/662/286 308/661/286
f 302/658/287 301/657/287 305/667/287 306/668/287
f 312/664/288 311/663/288 315/669/288 316/670/288
f 306/668/289 305/667/289 309/671/289 310/672/289
f 305/656/290 308/655/290 312/673/290 309/674/290
f 307/666/291 306/665/291 310/675/291 311/676/291
f 316/670/292 315/669/292 319/677/292 320/678/292
f 310/672/293 309/671/293 313/679/293 314/680/293
f 309/674/294 312/673/294 316/681/294 313/682/294
f 311/676/295 310/675/295 314/683/295 315/684/295
f 317/685/296 320/686/296 324/687/296 321/688/296
f 314/680/297 313/679/297 317/689/297 318/690/297
f 313/682/298 316/681/298 320/686/298 317/685/298
f 315/684/299 314/683/299 318/691/299 319/692/299
f 324/693/300 323/694/300 327/695/300 328/696/300
f 319/692/301 318/691/301 322/697/301 323/698/301
f 320/678/302 319/677/302 323/694/302 324/693/302
f 318/690/303 317/689/303 321/699/303 322/700/303
f 326/701/304 325/702/304 329/703/304 330/704/304
f 322/700/305 321/699/305 325/702/305 326/701/305
f 321/688/306 324/687/306 328/705/306 325/706/306
f 323/698/307 322/697/307 326/707/307 327/708/307
f 329/709/308 332/710/308 336/711/308 333/712/308
f 325/706/309 328/705/309 332/710/309 329/709/309
f 327/708/310 326/707/310 330/713/310 331/714/310
f 328/696/311 327/695/311 331/715/311 332/716/311
f 335/717/312 334/718/312 333/719/312 336/720/312
f 331/714/313 330/713/313 334/721/313 335/722/313
f 332/723/314 331/724/314 335/725/314 336/726/314
f 330/727/315 329/728/315 333/729/315 334/730/315
f 337/731/316 338/732/316 340/733/316 339/734/316
f 339/735/317 340/736/317 344/737/317 343/738/317
f 343/739/318 344/740/318 342/741/318 341/742/318
f 341/743/319 342/744/319 338/745/319 337/746/319
f 342/741/320 344/740/320 347/747/320 348/748/320
f 348/748/321 347/747/321 351/749/321 352/750/321
f 340/733/322 338/732/322 345/751/322 346/752/322
f 338/745/323 342/744/323 348/753/323 345/754/323
f 344/737/324 340/736/324 346/755/324 347/756/324
f 349/757/325 352/758/325 356/759/325 353/760/325
f 346/752/326 345/751/326 349/761/326 350/762/326
f 345/754/327 348/753/327 352/758/327 349/757/327
f 347/756/328 346/755/328 350/763/328 351/764/328
f 356/765/329 355/766/329 359/767/329 360/768/329
f 351/764/330 350/763/330 354/769/330 355/770/330
f 352/750/331 351/749/331 355/766/331 356/765/331
f 350/762/332 349/761/332 353/771/332 354/772/332
f 360/768/333 359/767/333 363/773/333 364/774/333
f 354/772/334 353/771/334 357/775/334 358/776/334
f 353/760/335 356/759/335 360/777/335 357/778/335
f 355/770/336 354/769/336 358/779/336 359/780/336
f 364/774/337 363/773/337 367/781/337 368/782/337
f 358/776/338 357/775/338 361/783/338 362/784/338
f 357/778/339 360/777/339 364/785/339 361/786/339
f 359/780/340 358/779/340 362/787/340 363/788/340
f 365/789/341 368/790/341 372/791/341 369/792/341
f 362/784/342 361/783/342 365/793/342 366/794/342
f 361/786/343 364/785/343 368/790/343 365/789/343
f 363/788/344 362/787/344 366/795/344 367/796/344
f 372/797/345 371/798/345 375/799/345 376/800/345
f 367/796/346 366/795/346 370/801/346 371/802/346
f 368/782/347 367/781/347 371/798/347 372/797/347
f 366/794/348 365/793/348 369/803/348 370/804/348
f 374/805/349 373/806/349 377/807/349 378/808/349
f 370/804/350 369/803/350 373/806/350 374/805/350
f 369/792/351 372/791/351 376/809/351 373/810/351
f 371/802/352 370/801/352 374/811/352 375/812/352
f 377/813/353 380/814/353 384/815/353 381/816/353
f 373/810/354 376/809/354 380/814/354 377/813/354
f 375/812/355 374/811/355 378/817/355 379/818/355
f 376/800/356 375/799/356 379/819/356 380/820/356
f 383/821/357 382/822/357 381/823/357 384/824/357
f 379/818/358 378/817/358 382/825/358 383/826/358
f 380/827/359 379/828/359 383/829/359 384/830/359
f 378/831/360 377/832/360 381/833/360 382/834/360
f 385/835/361 386/836/361 388/837/361 387/838/361
f 387/839/362 388/840/362 392/841/362 391/842/362
f 391/843/363 392/844/363 390/845/363 389/846/363
f 389/847/364 390/848/364 386/849/364 385/850/364
f 388/837/365 386/836/365 393/851/365 394/852/365
f 393/853/366 396/854/366 400/855/366 397/856/366
f 386/849/367 390/848/367 396/854/367 393/853/367
f 392/841/368 388/840/368 394/857/368 395/858/368
f 390/845/369 392/844/369 395/859/369 396/860/369
f 400/861/370 399/862/370 403/863/370 404/864/370
f 395/858/371 394/857/371 398/865/371 399/866/371
f 396/860/372 395/859/372 399/862/372 400/861/372
f 394/852/373 393/851/373 397/867/373 398/868/373
f 401/869/374 404/870/374 408/871/374 405/872/374
f 398/868/375 397/867/375 401/873/375 402/874/375
f 397/856/376 400/855/376 404/870/376 401/869/376
f 399/866/377 398/865/377 402/875/377 403/876/377
f 407/877/378 406/878/378 410/879/378 411/880/378
f 403/876/379 402/875/379 406/878/379 407/877/379
f 404/864/380 403/863/380 407/881/380 408/882/380
f 402/874/381 401/873/381 405/883/381 406/884/381
f 412/885/382 411/886/382 415/887/382 416/888/382
f 408/882/383 407/881/383 411/886/383 412/885/383
f 406/884/384 405/883/384 409/889/384 410/890/384
f 405/872/385 408/871/385 412/891/385 409/892/385
f 413/893/386 416/894/386 420/895/386 417/896/386
f 410/890/387 409/889/387 413/897/387 414/898/387
f 409/892/388 412/891/388 416/894/388 413/893/388
f 411/880/389 410/879/389 414/899/389 415/900/389
f 420/901/390 419/902/390 423/903/390 424/904/390
f 415/900/391 414/899/391 418/905/391 419/906/391
f 416/888/392 415/887/392 419/902/392 420/901/392
f 414/898/393 413/897/393 417/907/393 418/908/393
f 424/904/394 423/903/394 427/909/394 428/910/394
f 418/908/395 417/907/395 421/911/395 422/912/395
f 417/896/396 420/895/396 424/913/396 421/914/396
f 419/906/397 418/905/397 422/915/397 423/916/397
f 425/917/398 428/918/398 432/919/398 429/920/398
f 422/912/399 421/911/399 425/921/399 426/922/399
f 421/914/400 424/913/400 428/918/400 425/917/400
f 423/916/401 422/915/401 426/923/401 427/924/401
f 431/925/402 430/926/402 429/927/402 432/928/402
f 427/924/403 426/923/403 430/929/403 431/930/403
f 428/910/404 427/909/404 431/931/404 432/932/404
f 426/922/405 425/921/405 429/933/405 430/934/405
