# Blender 4.4.0
# www.blender.org
mtllib Banca.mtl
o Object_1.005
v -78.215996 23.478895 -71.033455
v -78.210007 23.478897 -45.227459
v -78.215996 28.686893 -71.033455
v -78.210007 28.686895 -45.227463
v -78.215996 23.478905 35.718540
v -78.210007 23.478907 61.524536
v -78.215996 28.686903 35.718536
v -78.210007 28.686905 61.524536
v -77.945999 45.306900 -39.983467
v -78.456001 45.306908 36.258537
v -77.945999 50.514896 -39.983467
v -78.456001 50.514904 36.258537
v -69.744003 5.412905 49.476536
v -69.815994 26.412903 49.650539
v -68.351997 7.260905 46.116539
v -68.382004 26.412903 46.176540
v -69.702003 5.304903 21.888538
v -68.309998 7.152904 25.254538
v -69.798004 45.498905 21.648535
v -68.351997 45.498905 25.164537
v -69.744003 5.412905 49.476536
v -68.351997 7.260905 46.116539
v -69.408005 3.402905 47.670540
v -68.202003 6.240905 44.694538
v -69.702003 5.304903 21.888538
v -69.366005 3.294903 23.694538
v -68.309998 7.152904 25.254538
v -68.171997 6.120903 26.664539
v -69.366005 3.294903 23.694538
v -69.408005 3.402905 47.670540
v -68.171997 6.120903 26.664539
v -68.202003 6.240905 44.694538
v -66.972000 4.926906 50.376541
v -66.954002 26.412903 50.580540
v -66.923996 4.812903 20.988541
v -66.900002 45.498905 20.706535
v -66.797997 2.172905 47.472538
v -66.972000 4.926906 50.376541
v -66.755997 2.064903 23.892538
v -66.923996 4.812903 20.988541
v -66.797997 2.172905 47.472538
v -66.755997 2.064903 23.892538
v -66.762001 2.172897 -59.561459
v -66.804001 2.064899 -35.981461
v -68.514000 4.416897 -58.031460
v -68.556000 4.308899 -37.511459
v -66.636002 4.812899 -33.077461
v -68.346001 6.096899 -35.441460
v -66.804001 2.064899 -35.981461
v -68.556000 4.308899 -37.511459
v -66.587997 4.926897 -62.465458
v -66.762001 2.172897 -59.561459
v -68.297997 6.204897 -60.107460
v -68.514000 4.416897 -58.031460
v -66.636002 4.812899 -33.077461
v -66.659996 45.498898 -32.795464
v -68.346001 6.096899 -35.441460
v -68.447998 45.498898 -35.261467
v -66.587997 4.926897 -62.465458
v -68.297997 6.204897 -60.107460
v -66.606003 26.412895 -62.669460
v -68.375999 26.412895 -60.233459
v -65.352005 6.240897 -56.783463
v -65.388000 6.120899 -38.753464
v -65.250000 7.152899 -37.343460
v -65.388000 6.120899 -38.753464
v -65.201996 7.260898 -58.205460
v -65.352005 6.240897 -56.783463
v -65.250000 7.152899 -37.343460
v -65.208000 45.498898 -37.253464
v -65.262001 6.204905 48.018539
v -65.184006 26.412903 48.144539
v -65.201996 7.260898 -58.205460
v -65.178001 26.412895 -58.265461
v -65.213997 6.096904 23.352539
v -65.112000 45.498905 23.172535
v -65.262001 6.204905 48.018539
v -65.045998 4.416905 45.942539
v -65.213997 6.096904 23.352539
v -65.003998 4.308904 25.422541
v -65.045998 4.416905 45.942539
v -65.003998 4.308904 25.422541
v -64.152000 3.402897 -59.759460
v -64.194000 3.294899 -35.783459
v -64.194000 3.294899 -35.783459
v -63.857998 5.304899 -33.977463
v -64.152000 3.402897 -59.759460
v -63.815998 5.412897 -61.565460
v -63.857998 5.304899 -33.977463
v -63.762001 45.498898 -33.737465
v -63.815998 5.412897 -61.565460
v -63.743999 26.412895 -61.739460
v 73.938004 23.478895 -73.073463
v -78.215996 23.478895 -71.033455
v 73.938004 28.686893 -73.073463
v -78.215996 28.686893 -71.033455
v 73.938004 23.478905 33.684540
v -78.215996 23.478905 35.718540
v 73.938004 28.686903 33.684536
v -78.215996 28.686903 35.718536
v 74.496002 23.478897 -47.375462
v -78.210007 23.478897 -45.227459
v 73.938004 23.478895 -73.073463
v -78.215996 23.478895 -71.033455
v 74.496002 23.478907 59.376541
v -78.210007 23.478907 61.524536
v 73.938004 23.478905 33.684540
v -78.215996 23.478905 35.718540
v -78.210007 28.686895 -45.227463
v 74.496002 28.686895 -47.375465
v -78.215996 28.686893 -71.033455
v 73.938004 28.686893 -73.073463
v -78.210007 28.686905 61.524536
v 74.496002 28.686905 59.376541
v -78.215996 28.686903 35.718536
v 73.938004 28.686903 33.684536
v 74.153999 45.306900 -42.317463
v -77.945999 45.306900 -39.983467
v 74.153999 50.514896 -42.317463
v -77.945999 50.514896 -39.983467
v -78.210007 23.478897 -45.227459
v 74.496002 23.478897 -47.375462
v -78.210007 28.686895 -45.227463
v 74.496002 28.686895 -47.375465
v -78.210007 23.478907 61.524536
v 74.496002 23.478907 59.376541
v -78.210007 28.686905 61.524536
v 74.496002 28.686905 59.376541
v -78.456001 45.306908 36.258537
v -77.945999 45.306900 -39.983467
v 78.456001 45.306908 28.944534
v 74.153999 45.306900 -42.317463
v -78.456001 50.514904 36.258537
v 78.456001 50.514904 28.944534
v -77.945999 50.514896 -39.983467
v 74.153999 50.514896 -42.317463
v -78.456001 45.306908 36.258537
v 78.456001 45.306908 28.944534
v -78.456001 50.514904 36.258537
v 78.456001 50.514904 28.944534
v 64.769997 5.412905 49.476536
v 64.697998 26.412903 49.650539
v 66.155998 7.260905 46.116539
v 66.132004 26.412903 46.176540
v 64.811996 5.304903 21.888538
v 66.204002 7.152904 25.254538
v 64.709999 45.498905 21.648535
v 66.162003 45.498905 25.164537
v 64.769997 5.412905 49.476536
v 66.155998 7.260905 46.116539
v 65.106003 3.402905 47.670540
v 66.306000 6.240905 44.694538
v 66.491997 2.172897 -59.561459
v 66.449997 2.064899 -35.981461
v 64.739998 4.416897 -58.031460
v 64.697998 4.308899 -37.511459
v 64.811996 5.304903 21.888538
v 65.148003 3.294903 23.694538
v 66.204002 7.152904 25.254538
v 66.342003 6.120903 26.664539
v 66.617996 4.812899 -33.077461
v 64.907997 6.096899 -35.441460
v 66.449997 2.064899 -35.981461
v 64.697998 4.308899 -37.511459
v 66.666000 4.926897 -62.465458
v 66.491997 2.172897 -59.561459
v 64.956001 6.204897 -60.107460
v 64.739998 4.416897 -58.031460
v 65.148003 3.294903 23.694538
v 65.106003 3.402905 47.670540
v 66.342003 6.120903 26.664539
v 66.306000 6.240905 44.694538
v 66.617996 4.812899 -33.077461
v 66.594002 45.498898 -32.795464
v 64.907997 6.096899 -35.441460
v 64.806000 45.498898 -35.261467
v 66.666000 4.926897 -62.465458
v 64.956001 6.204897 -60.107460
v 66.648003 26.412895 -62.669460
v 64.877998 26.412895 -60.233459
v 67.542000 4.926906 50.376541
v 67.560005 26.412903 50.580540
v 67.590004 4.812903 20.988541
v 67.607994 45.498905 20.706535
v 67.716003 2.172905 47.472538
v 67.542000 4.926906 50.376541
v 67.896004 6.240897 -56.783463
v 67.866005 6.120899 -38.753464
v 67.758003 2.064903 23.892538
v 67.590004 4.812903 20.988541
v 68.003998 7.152899 -37.343460
v 67.866005 6.120899 -38.753464
v 68.045998 7.260898 -58.205460
v 67.896004 6.240897 -56.783463
v 67.716003 2.172905 47.472538
v 67.758003 2.064903 23.892538
v 68.003998 7.152899 -37.343460
v 68.045998 45.498898 -37.253464
v 68.045998 7.260898 -58.205460
v 68.076004 26.412895 -58.265461
v 69.251999 6.204905 48.018539
v 69.330002 26.412903 48.144539
v 69.293999 6.096904 23.352539
v 69.402000 45.498905 23.172535
v 69.102005 3.402897 -59.759460
v 69.059998 3.294899 -35.783459
v 69.251999 6.204905 48.018539
v 69.467995 4.416905 45.942539
v 69.293999 6.096904 23.352539
v 69.509995 4.308904 25.422541
v 69.059998 3.294899 -35.783459
v 69.395996 5.304899 -33.977463
v 69.467995 4.416905 45.942539
v 69.509995 4.308904 25.422541
v 69.102005 3.402897 -59.759460
v 69.438004 5.412897 -61.565460
v 69.395996 5.304899 -33.977463
v 69.492004 45.498898 -33.737465
v 69.438004 5.412897 -61.565460
v 69.509995 26.412895 -61.739460
v 73.938004 28.686893 -73.073463
v 74.496002 28.686895 -47.375465
v 73.938004 23.478895 -73.073463
v 74.496002 23.478897 -47.375462
v 73.938004 28.686903 33.684536
v 74.496002 28.686905 59.376541
v 73.938004 23.478905 33.684540
v 74.496002 23.478907 59.376541
v 74.153999 50.514896 -42.317463
v 78.456001 50.514904 28.944534
v 74.153999 45.306900 -42.317463
v 78.456001 45.306908 28.944534
vn -1.0000 -0.0000 0.0002
vn -1.0000 -0.0000 -0.0067
vn -0.9239 -0.0000 -0.3827
vn -0.9243 -0.0003 -0.3816
vn -0.9241 0.0001 0.3821
vn -0.9248 -0.0001 0.3804
vn -0.9392 0.1289 -0.3182
vn -0.9591 0.1721 -0.2246
vn -0.9394 0.1286 0.3179
vn -0.9598 0.1734 0.2209
vn -0.9199 0.3922 -0.0034
vn -0.9219 0.3874 -0.0041
vn -0.3102 -0.0088 0.9506
vn -0.3090 -0.0089 0.9510
vn -0.3092 -0.0064 -0.9510
vn -0.3091 -0.0064 -0.9510
vn -0.2826 -0.7044 0.6511
vn -0.3341 -0.6602 0.6726
vn -0.2828 -0.7048 -0.6506
vn -0.3348 -0.6601 -0.6724
vn -0.4261 -0.9047 0.0033
vn -0.4265 -0.9045 0.0034
vn -0.7896 -0.6136 -0.0042
vn -0.7866 -0.6174 -0.0049
vn -0.8360 -0.3736 0.4019
vn -0.8336 -0.3733 0.4070
vn -0.8354 -0.3729 -0.4037
vn -0.8335 -0.3728 -0.4078
vn -0.8114 -0.0045 0.5845
vn -0.8096 -0.0048 0.5870
vn -0.8111 -0.0062 -0.5848
vn -0.8090 -0.0068 -0.5878
vn -0.5007 0.8656 0.0035
vn -0.4951 0.8688 0.0048
vn -0.5431 0.6619 -0.5166
vn -0.5697 0.6888 -0.4484
vn -0.5427 0.6635 0.5150
vn -0.5726 0.6936 0.4371
vn -0.5241 0.0025 -0.8517
vn -0.5237 0.0026 -0.8519
vn 0.5250 0.0033 -0.8511
vn 0.5241 0.0035 -0.8517
vn -0.5243 0.0033 0.8515
vn -0.5241 0.0033 0.8517
vn 0.5241 0.0025 0.8517
vn 0.5237 0.0026 0.8519
vn 0.5434 0.6632 -0.5146
vn 0.5733 0.6932 -0.4368
vn 0.5431 0.6619 0.5166
vn 0.5697 0.6888 0.4484
vn 0.5014 0.8652 -0.0035
vn 0.4950 0.8689 -0.0050
vn 0.8111 -0.0062 0.5848
vn 0.8090 -0.0068 0.5878
vn 0.8114 -0.0045 -0.5845
vn 0.8096 -0.0048 -0.5870
vn 0.8354 -0.3729 0.4037
vn 0.8335 -0.3728 0.4078
vn 0.8360 -0.3736 -0.4019
vn 0.8336 -0.3733 -0.4070
vn 0.7896 -0.6136 0.0042
vn 0.7866 -0.6174 0.0049
vn 0.4261 -0.9047 -0.0033
vn 0.4265 -0.9045 -0.0034
vn 0.2828 -0.7048 0.6506
vn 0.3348 -0.6601 0.6724
vn 0.2826 -0.7044 -0.6511
vn 0.3341 -0.6602 -0.6726
vn 0.3092 -0.0064 0.9510
vn 0.3091 -0.0064 0.9510
vn 0.3102 -0.0088 -0.9506
vn 0.3090 -0.0089 -0.9510
vn 0.9199 0.3922 0.0034
vn 0.9227 0.3855 0.0044
vn 0.9394 0.1286 -0.3179
vn 0.9598 0.1734 -0.2209
vn 0.9397 0.1280 0.3172
vn 0.9595 0.1710 0.2239
vn 0.9241 0.0001 -0.3821
vn 0.9248 -0.0001 -0.3804
vn 0.9244 -0.0000 0.3813
vn 0.9243 -0.0000 0.3816
vn -0.0134 -0.0000 -0.9999
vn -0.0000 -1.0000 -0.0000
vn -0.0000 1.0000 -0.0000
vn -0.0153 -0.0000 -0.9999
vn 0.0141 -0.0000 0.9999
vn 0.0466 -0.0000 0.9989
vn -0.9244 -0.0000 -0.3813
vn -0.9243 -0.0000 -0.3816
vn -0.9241 -0.0001 0.3822
vn -0.9243 -0.0001 0.3817
vn -0.9397 0.1280 -0.3172
vn -0.9595 0.1710 -0.2239
vn -0.9227 0.3855 -0.0044
vn -0.3092 -0.0065 -0.9510
vn -0.3091 -0.0065 -0.9510
vn -0.5014 0.8652 0.0035
vn -0.4950 0.8689 0.0050
vn -0.5434 0.6632 0.5146
vn -0.5733 0.6932 0.4368
vn -0.5250 0.0033 0.8511
vn -0.5241 0.0035 0.8517
vn 0.5243 0.0033 -0.8516
vn 0.5241 0.0033 -0.8517
vn 0.5248 0.0025 0.8512
vn 0.5427 0.6635 -0.5150
vn 0.5726 0.6936 -0.4371
vn 0.5436 0.6624 0.5154
vn 0.5007 0.8656 -0.0035
vn 0.4951 0.8688 -0.0048
vn 0.8123 -0.0044 -0.5832
vn 0.8086 -0.0049 -0.5883
vn 0.9219 0.3874 0.0041
vn 0.8369 -0.3725 -0.4009
vn 0.8334 -0.3722 -0.4085
vn 0.9598 0.1734 -0.2208
vn 0.9392 0.1289 0.3182
vn 0.9591 0.1721 0.2246
vn 0.9239 -0.0000 0.3827
vn 0.9243 -0.0003 0.3816
vn 0.9998 -0.0000 -0.0217
vn 0.9982 -0.0000 -0.0603
vt 1.312600 0.636800
vt 1.299900 0.361900
vt 1.148600 0.641400
vt 1.147900 0.361800
vt 1.312600 0.632800
vt 1.299900 0.357900
vt 1.148600 0.637400
vt 1.147900 0.357800
vt 1.632200 1.883500
vt 1.615300 1.313300
vt 1.398600 1.892100
vt 1.398700 1.312300
vt 0.150200 2.038100
vt 0.884000 2.038100
vt 0.195900 2.117400
vt 0.878600 2.117400
vt 0.961400 2.045800
vt 0.919600 2.105700
vt 0.090500 2.045800
vt 0.096400 2.105700
vt 1.297800 2.026400
vt 1.910600 2.026400
vt 1.176800 2.109400
vt 1.899700 2.109400
vt 1.706800 2.023100
vt 1.814000 2.099600
vt 1.086200 2.023100
vt 1.090800 2.099600
vt 0.141500 2.039000
vt 0.882400 2.039000
vt 0.213800 2.118300
vt 0.795800 2.118300
vt 0.132800 2.008700
vt 0.884000 2.008700
vt 0.964900 2.023600
vt 0.104500 2.023600
vt 1.011900 2.109400
vt 1.134200 2.026400
vt 1.974200 2.099600
vt 1.872400 2.023100
vt 0.911900 2.009600
vt 0.133300 2.009600
vt 0.845100 2.074200
vt 0.197500 2.074200
vt 1.439300 2.023100
vt 1.485900 2.099600
vt 1.561800 2.026400
vt 1.501100 2.109400
vt 0.945500 2.072400
vt 0.102200 2.072400
vt 0.167000 2.073300
vt 0.880900 2.073300
vt -0.053000 0.774900
vt 1.121400 0.747400
vt -0.038400 0.643200
vt -0.053000 0.770800
vt 1.121400 0.743300
vt -0.038400 0.639200
vt -0.317800 0.317100
vt 1.448700 0.312100
vt -0.316800 0.690700
vt 1.449700 0.686000
vt -0.317800 0.313100
vt 1.448700 0.308100
vt -0.316800 0.686700
vt 1.449700 0.681900
vt -0.039200 0.366500
vt -0.039200 0.362500
vt -0.313400 1.958200
vt 1.359800 1.908000
vt -0.292600 1.889100
vt 1.138600 0.243200
vt -0.047900 0.232300
vt 1.138600 0.239100
vt -0.047900 0.228300
vt 1.827400 1.210900
vt 1.827200 1.986300
vt -0.689100 1.211100
vt -0.689400 1.985900
vt -0.292400 1.315100
vt 1.385500 1.161400
vt -0.304700 1.132000
vt -0.238300 0.642700
vt -0.239000 0.366900
vt -0.238300 0.638700
vt -0.239000 0.362800
vt -0.577300 1.886800
vt -0.577100 1.314800
s 0
usemtl bench
f 1/1/1 2/2/1 3/3/1
f 2/2/1 4/4/1 3/3/1
f 5/5/1 6/6/1 7/7/1
f 6/6/1 8/8/1 7/7/1
f 9/9/2 10/10/2 11/11/2
f 10/10/2 12/12/2 11/11/2
f 13/13/3 14/14/3 15/15/3
f 14/14/4 16/16/4 15/15/4
f 17/17/5 18/18/5 19/19/5
f 20/20/6 19/19/6 18/18/6
f 21/21/7 22/22/7 23/23/7
f 22/22/8 24/24/8 23/23/8
f 25/25/9 26/26/9 27/27/9
f 27/27/10 26/26/10 28/28/10
f 29/29/11 30/30/11 31/31/11
f 32/32/12 31/31/12 30/30/12
f 33/33/13 34/34/13 13/13/13
f 34/34/14 14/14/14 13/13/14
f 35/35/15 17/17/15 36/36/15
f 19/19/16 36/36/16 17/17/16
f 37/37/17 38/38/17 23/23/17
f 21/21/18 23/23/18 38/38/18
f 39/39/19 26/26/19 40/40/19
f 25/25/20 40/40/20 26/26/20
f 30/30/21 29/29/21 41/41/21
f 29/29/22 42/42/22 41/41/22
f 43/41/23 44/42/23 45/43/23
f 44/42/24 46/44/24 45/43/24
f 47/40/25 48/45/25 49/39/25
f 48/45/26 50/46/26 49/39/26
f 51/38/27 52/37/27 53/47/27
f 52/37/28 54/48/28 53/47/28
f 55/35/29 56/36/29 57/49/29
f 56/36/30 58/50/30 57/49/30
f 59/33/31 60/51/31 61/34/31
f 62/52/32 61/34/32 60/51/32
f 45/43/33 46/44/33 63/32/33
f 46/44/34 64/31/34 63/32/34
f 48/45/35 65/27/35 50/46/35
f 65/27/36 66/28/36 50/46/36
f 53/47/37 54/48/37 67/22/37
f 54/48/38 68/24/38 67/22/38
f 57/49/39 58/50/39 69/18/39
f 58/50/40 70/20/40 69/18/40
f 71/51/41 15/15/41 72/52/41
f 16/16/42 72/52/42 15/15/42
f 60/51/43 73/15/43 62/52/43
f 74/16/44 62/52/44 73/15/44
f 75/49/45 76/50/45 18/18/45
f 76/50/46 20/20/46 18/18/46
f 77/47/47 78/48/47 22/22/47
f 78/48/48 24/24/48 22/22/48
f 79/45/49 27/27/49 80/46/49
f 27/27/50 28/28/50 80/46/50
f 81/43/51 82/44/51 32/32/51
f 82/44/52 31/31/52 32/32/52
f 33/33/53 71/51/53 34/34/53
f 72/52/54 34/34/54 71/51/54
f 35/35/55 36/36/55 75/49/55
f 36/36/56 76/50/56 75/49/56
f 38/38/57 37/37/57 77/47/57
f 37/37/58 78/48/58 77/47/58
f 40/40/59 79/45/59 39/39/59
f 79/45/60 80/46/60 39/39/60
f 41/41/61 42/42/61 81/43/61
f 42/42/62 82/44/62 81/43/62
f 83/30/63 84/29/63 43/41/63
f 84/29/64 44/42/64 43/41/64
f 49/39/65 85/26/65 47/40/65
f 86/25/66 47/40/66 85/26/66
f 52/37/67 51/38/67 87/23/67
f 88/21/68 87/23/68 51/38/68
f 55/35/69 89/17/69 56/36/69
f 90/19/70 56/36/70 89/17/70
f 59/33/71 61/34/71 91/13/71
f 61/34/72 92/14/72 91/13/72
f 84/29/73 83/30/73 64/31/73
f 63/32/74 64/31/74 83/30/74
f 86/25/75 85/26/75 65/27/75
f 65/27/76 85/26/76 66/28/76
f 88/21/77 67/22/77 87/23/77
f 67/22/78 68/24/78 87/23/78
f 89/17/79 69/18/79 90/19/79
f 70/20/80 90/19/80 69/18/80
f 91/13/81 92/14/81 73/15/81
f 92/14/82 74/16/82 73/15/82
f 93/53/83 94/54/83 95/55/83
f 94/54/83 96/3/83 95/55/83
f 97/56/83 98/57/83 99/58/83
f 98/57/83 100/7/83 99/58/83
f 101/59/84 102/60/84 103/61/84
f 103/61/84 102/60/84 104/62/84
f 105/63/84 106/64/84 107/65/84
f 107/65/84 106/64/84 108/66/84
f 109/4/85 110/67/85 111/3/85
f 111/3/85 110/67/85 112/55/85
f 113/8/85 114/68/85 115/7/85
f 115/7/85 114/68/85 116/58/85
f 117/69/86 118/70/86 119/71/86
f 118/70/86 120/11/86 119/71/86
f 121/72/87 122/73/87 123/4/87
f 122/73/87 124/67/87 123/4/87
f 125/74/87 126/75/87 127/8/87
f 126/75/87 128/68/87 127/8/87
f 129/76/84 130/77/84 131/78/84
f 132/79/84 131/78/84 130/77/84
f 133/12/85 134/80/85 135/11/85
f 135/11/85 134/80/85 136/71/85
f 137/81/88 138/82/88 139/12/88
f 138/82/88 140/80/88 139/12/88
f 141/13/89 142/14/89 143/15/89
f 142/14/90 144/16/90 143/15/90
f 145/17/91 146/18/91 147/19/91
f 148/20/92 147/19/92 146/18/92
f 149/21/93 150/22/93 151/23/93
f 150/22/94 152/24/94 151/23/94
f 153/41/23 154/42/23 155/43/23
f 154/42/24 156/44/24 155/43/24
f 157/25/9 158/26/9 159/27/9
f 159/27/10 158/26/10 160/28/10
f 161/40/25 162/45/25 163/39/25
f 162/45/26 164/46/26 163/39/26
f 165/38/27 166/37/27 167/47/27
f 166/37/28 168/48/28 167/47/28
f 169/29/11 170/30/11 171/31/11
f 172/32/95 171/31/95 170/30/95
f 173/35/29 174/36/29 175/49/29
f 174/36/30 176/50/30 175/49/30
f 177/33/31 178/51/31 179/34/31
f 180/52/32 179/34/32 178/51/32
f 181/33/13 182/34/13 141/13/13
f 182/34/14 142/14/14 141/13/14
f 183/35/96 145/17/96 184/36/96
f 147/19/97 184/36/97 145/17/97
f 185/37/17 186/38/17 151/23/17
f 149/21/18 151/23/18 186/38/18
f 155/43/98 156/44/98 187/32/98
f 156/44/99 188/31/99 187/32/99
f 189/39/19 158/26/19 190/40/19
f 157/25/20 190/40/20 158/26/20
f 162/45/35 191/27/35 164/46/35
f 191/27/36 192/28/36 164/46/36
f 167/47/100 168/48/100 193/22/100
f 168/48/101 194/24/101 193/22/101
f 170/30/21 169/29/21 195/41/21
f 169/29/22 196/42/22 195/41/22
f 175/49/39 176/50/39 197/18/39
f 176/50/40 198/20/40 197/18/40
f 178/51/102 199/15/102 180/52/102
f 200/16/103 180/52/103 199/15/103
f 201/51/104 143/15/104 202/52/104
f 144/16/105 202/52/105 143/15/105
f 203/49/106 204/50/106 146/18/106
f 204/50/46 148/20/46 146/18/46
f 205/30/63 206/29/63 153/41/63
f 206/29/64 154/42/64 153/41/64
f 207/47/107 208/48/107 150/22/107
f 208/48/108 152/24/108 150/22/108
f 209/45/109 159/27/109 210/46/109
f 159/27/50 160/28/50 210/46/50
f 163/39/65 211/26/65 161/40/65
f 212/25/66 161/40/66 211/26/66
f 213/43/110 214/44/110 172/32/110
f 214/44/111 171/31/111 172/32/111
f 166/37/67 165/38/67 215/23/67
f 216/21/68 215/23/68 165/38/68
f 173/35/69 217/17/69 174/36/69
f 218/19/70 174/36/70 217/17/70
f 177/33/71 179/34/71 219/13/71
f 179/34/72 220/14/72 219/13/72
f 181/33/53 201/51/53 182/34/53
f 202/52/54 182/34/54 201/51/54
f 183/35/112 184/36/112 203/49/112
f 184/36/113 204/50/113 203/49/113
f 206/29/73 205/30/73 188/31/73
f 187/32/114 188/31/114 205/30/114
f 186/38/57 185/37/57 207/47/57
f 185/37/58 208/48/58 207/47/58
f 190/40/115 209/45/115 189/39/115
f 209/45/116 210/46/116 189/39/116
f 212/25/75 211/26/75 191/27/75
f 191/27/117 211/26/117 192/28/117
f 195/41/61 196/42/61 213/43/61
f 196/42/62 214/44/62 213/43/62
f 216/21/118 193/22/118 215/23/118
f 193/22/119 194/24/119 215/23/119
f 217/17/79 197/18/79 218/19/79
f 198/20/80 218/19/80 197/18/80
f 219/13/120 220/14/120 199/15/120
f 220/14/121 200/16/121 199/15/121
f 221/55/122 222/67/122 223/83/122
f 222/67/122 224/84/122 223/83/122
f 225/58/122 226/68/122 227/85/122
f 226/68/122 228/86/122 227/85/122
f 229/71/123 230/80/123 231/87/123
f 230/80/123 232/88/123 231/87/123
