# Blender 4.4.0
# www.blender.org
mtllib Estatua.mtl
o Spirit_Dragon
v -9.193474 2.108156 27.516010
v -9.315254 2.123305 27.903690
v -9.399854 2.268107 28.652380
v -8.961212 2.306218 28.943302
v -9.604081 1.883098 29.440407
v -9.026911 2.057227 29.776499
v -9.515903 1.773029 29.881632
v -8.564545 1.884369 30.018591
v -9.519658 1.327994 29.983624
v -8.500321 0.785674 30.061954
v -8.421066 0.051901 29.955303
v -7.474706 1.191629 29.668350
v -7.574215 0.096901 29.619387
v -6.779909 1.040289 28.781229
v -7.432229 -0.121563 29.010210
v -7.038587 -0.121553 28.995916
v -7.726638 -0.121871 29.437914
v -8.457711 -0.122072 29.716551
v -9.435874 0.081978 29.875893
v -9.396897 -0.122036 29.666796
v -10.008923 0.044355 29.343117
v -9.887470 -0.121682 29.174826
v -9.930179 -0.121344 28.706223
v -10.343403 1.396775 29.485569
v -10.737013 0.893798 28.412058
v -10.886423 0.666643 28.452366
v -10.406372 -0.121407 28.794382
v -10.811903 0.061833 28.455526
v -10.616256 -0.121152 28.440208
v -11.229360 0.053066 27.371147
v -11.064986 -0.120344 27.319206
v -11.163306 0.063404 26.274914
v -10.922516 -0.119604 26.291237
v -10.846394 -0.119323 25.902363
v -9.182579 2.115508 26.374632
v -9.470501 2.124302 26.095440
v -9.558084 2.096666 26.301901
v -9.615417 2.161517 26.576565
v -9.531866 2.111922 26.993599
v -9.081775 2.111925 26.989716
v -8.386246 2.111927 26.331963
v -8.873219 2.124305 26.090290
v -8.632521 2.121253 26.095123
v -9.050647 2.114187 25.838125
v -8.515000 2.114182 25.833509
v -7.339880 1.911123 29.541559
v -7.998675 2.149435 29.422213
v -7.139186 2.078470 28.983955
v -8.201735 2.194761 27.959082
v -6.842703 2.084850 28.084091
v -7.995115 2.179658 27.505787
v -7.021750 2.038454 27.381449
v -7.999620 2.111970 26.980387
v -7.283567 2.094443 26.886143
v -7.290016 2.102649 26.509056
v -6.590541 2.228705 26.037487
v -7.073244 2.231900 26.016884
v -7.011628 2.034558 25.770376
v -7.285518 2.270132 25.969448
v -7.213995 2.158466 25.247517
v -7.493268 2.213488 25.861256
v -7.918411 2.063485 25.177532
v -7.700065 2.243773 25.832626
v -7.942614 2.243045 25.686392
v -8.099162 2.121265 26.080153
v -8.268016 2.114184 25.831379
v -7.519621 2.135786 26.279205
v -8.466565 2.111967 26.984411
v -8.433471 2.179656 27.509567
v -7.529916 2.183771 26.031975
v -8.598655 2.137783 25.500763
v -8.314683 2.084846 24.992048
v -7.820861 1.987940 25.092424
v -8.136591 1.988021 24.980225
v -8.998567 2.119496 25.471605
v -9.282745 2.114186 25.840128
v -8.864989 2.089430 24.921570
v -8.472995 1.721067 24.623617
v -9.036834 1.718281 24.504330
v -9.079972 1.279672 24.527245
v -9.175761 1.390973 24.613539
v -9.400117 1.112453 24.581358
v -9.397339 1.147990 24.675167
v -9.710695 1.147928 24.762402
v -9.572302 2.007437 25.199835
v -9.591524 1.973525 25.912703
v -9.175761 1.734541 24.613619
v -9.342536 1.977292 24.873928
v -9.590649 1.977059 25.197567
v -9.877228 1.852850 25.060432
v -9.903424 1.734313 24.928749
v -10.122563 1.783324 25.129675
v -10.199319 1.555104 24.910286
v -10.336967 1.733259 25.176798
v -10.336967 1.391445 25.176720
v -9.605236 1.377062 26.389141
v -9.817938 1.116167 26.514879
v -9.925323 1.561324 26.603567
v -10.118740 1.116038 26.692789
v -10.331439 1.376752 26.818649
v -10.963474 1.391101 25.654068
v -10.331439 1.745585 26.818735
v -11.009970 1.732971 25.574842
v -10.657689 1.936887 25.891935
v -10.812851 1.149543 25.458120
v -10.534085 1.149662 25.293247
v -10.221861 1.185308 24.845654
v -9.932273 1.390823 24.824142
v -9.832000 1.074645 24.674973
v -9.976197 0.702810 24.700724
v -9.350533 0.832753 24.498270
v -8.871966 1.081785 24.542255
v -8.439888 1.336931 24.654085
v -8.475630 0.692008 24.848230
v -8.034867 1.014472 24.812969
v -8.260578 0.574347 24.611576
v -7.746511 1.046212 24.754656
v -7.278432 0.666656 24.956421
v -7.486823 1.370988 24.973057
v -7.289409 1.346452 25.124866
v -7.520230 1.454806 25.044140
v -7.304725 1.448323 25.171991
v -7.152857 1.966783 25.036110
v -7.344953 1.365854 25.246927
v -7.344953 1.758749 25.247017
v -7.145713 1.087903 25.429478
v -6.779819 0.996577 25.507030
v -6.835130 1.087754 25.636591
v -6.591143 1.365499 25.739855
v -9.239249 0.076157 24.696667
v -9.981989 0.107674 24.956522
v -10.546060 0.763639 25.185865
v -10.347677 -0.119240 25.786901
v -10.712575 0.847358 25.871561
v -11.002852 0.717030 25.898294
v -11.226385 1.060119 26.322598
v -11.144545 1.468427 26.384623
v -11.128109 1.410484 25.871183
v -11.202626 1.709525 25.852673
v -11.238988 1.040256 27.385044
v -10.959792 1.294431 27.378689
v -11.063374 1.600340 27.396935
v -11.219803 1.757286 26.514126
v -10.934774 1.843718 27.459919
v -10.696464 1.963053 26.651094
v -10.157260 2.020876 27.351933
v -10.528467 2.149349 26.669424
v -9.527363 2.108153 27.518890
v -10.634535 2.032929 28.515684
v -10.150905 1.889283 29.119427
v -10.253482 1.784577 29.407486
v -10.894060 1.700804 28.402708
v -10.986330 1.815589 26.007612
v -10.441993 2.010850 26.146214
v -10.409192 1.956651 25.492651
v -10.432002 1.949256 25.467543
v -10.196248 2.133354 26.519997
v -10.006520 2.133877 26.375629
v -9.932205 -0.118695 25.029503
v -9.235730 -0.118502 24.763077
v -8.729538 -0.118593 24.890329
v -8.418484 -0.118471 24.719967
v -7.425312 0.148583 25.032856
v -6.857402 0.291154 25.549561
v -7.632643 -0.118735 25.085983
v -7.048060 -0.119051 25.524164
v -8.335152 1.386361 24.804886
v -8.106750 1.137049 24.864189
v -7.807998 1.136921 25.042295
v -7.568976 1.386176 25.060490
v -10.118740 2.006480 26.692995
v -9.817938 2.006607 26.515087
v -9.605236 1.745894 26.389225
v -8.335151 1.738879 24.804966
v -6.877390 0.302686 25.788792
v -6.802603 1.047658 25.366165
v -7.214622 -0.119255 25.807526
v -6.422845 -0.120025 26.875286
v -6.535670 -0.121020 28.257208
v -6.220958 0.418162 26.868834
v -6.337905 0.289201 28.258514
v -6.498847 0.957136 28.787762
v -6.406815 1.560549 28.319895
v -6.797609 1.467816 29.117844
v -6.751940 1.703072 29.024393
v -6.530931 1.701059 28.047867
v -6.438935 1.800896 26.941278
v -6.526040 2.111011 26.321789
v -6.604692 1.617502 25.859135
v -6.526696 2.065007 25.706701
v -6.593725 1.758390 25.744534
v -6.792482 2.036341 25.561125
v -7.116111 2.036473 25.377163
v -7.070422 2.043593 25.273191
v -6.496403 1.560359 25.806547
v -6.146328 1.549577 28.241722
v -6.138073 1.520026 26.909170
v -9.773981 2.065686 25.949890
v -9.779406 1.857336 25.469067
v -10.046655 1.990348 25.998163
v -7.452711 1.710016 24.986343
v -7.555341 1.738733 25.007643
v -9.569709 1.383275 26.212584
v -9.339686 1.131123 26.148489
v -9.014388 1.131189 26.057930
v -8.784367 1.383432 25.993954
v -8.784368 1.740093 25.994036
v -9.014388 1.992244 26.058130
v -9.339686 1.992179 26.148687
v -9.569709 1.739935 26.212666
v -9.177037 1.561684 26.103310
v -8.706326 1.745967 26.177078
v -8.706326 1.377294 26.176992
v -8.467457 1.116558 26.239014
v -8.129647 1.116495 26.326813
v -7.890779 1.377142 26.388956
v -8.298553 1.561555 26.283016
v -7.890779 1.745815 26.389042
v -8.129647 2.006550 26.327021
v -8.467457 2.006613 26.239222
v -7.294884 1.381517 26.910740
v -7.294884 1.740688 26.910824
v -7.504081 1.994744 26.791967
v -7.652006 1.561249 26.707781
v -7.799931 1.994865 26.623796
v -7.918879 1.740980 26.504044
v -7.504081 1.127631 26.791767
v -7.799931 1.127753 26.623594
v -7.918879 1.381810 26.503962
v -8.177220 2.352028 27.789288
v -7.995117 2.179658 27.505787
v -8.089078 2.470270 27.612263
v -8.120960 2.772452 28.017822
v -7.909048 3.418031 27.580366
v -8.163693 3.718472 27.900078
v -8.168849 3.990562 27.554674
v -8.344671 4.152682 27.970837
v -8.313658 4.466634 27.526331
v -8.433788 5.678674 27.995707
v -8.415973 5.722214 27.923517
v -8.450381 7.157408 27.616373
v -8.402922 5.720866 27.837833
v -8.506226 5.720589 27.764715
v -8.532495 4.564150 27.218494
v -8.760763 4.562424 27.326767
v -8.760313 4.758866 26.976692
v -8.990851 4.564148 27.222445
v -9.219117 4.565275 27.330517
v -9.102113 5.720860 27.843864
v -9.097571 5.719088 27.915934
v -9.064538 7.153821 27.668715
v -9.092888 5.720469 28.001537
v -9.238334 5.467276 28.697020
v -9.208520 4.465670 27.536022
v -9.181371 4.152676 27.978048
v -9.347805 3.990827 27.565168
v -9.299170 3.718466 27.909868
v -9.602432 3.418021 27.594965
v -9.356958 2.754462 28.008900
v -9.431590 2.470253 27.623781
v -9.315868 2.431921 27.832125
v -9.315257 2.123306 27.903688
v -9.157598 2.550187 27.621437
v -9.193475 2.108156 27.516010
v -9.230482 2.382740 27.417873
v -9.081776 2.111925 26.989716
v -9.219478 2.228248 27.010429
v -9.531866 2.111922 26.993597
v -9.527363 2.108153 27.518890
v -9.245197 2.573097 27.434929
v -9.070932 2.817803 27.530836
v -8.184218 2.554805 28.184879
v -8.034976 3.148200 28.274164
v -7.918197 2.922743 28.463573
v -8.366711 3.625991 28.663801
v -7.906873 3.229192 28.861975
v -7.895135 2.975187 29.200039
v -7.241583 2.756684 28.914782
v -7.184464 2.202792 29.007988
v -6.810037 2.264975 28.142620
v -7.588178 2.260242 28.227045
v -7.369519 2.265202 27.826956
v -7.262479 2.559558 27.882782
v -7.231911 2.371828 27.460640
v -7.092457 2.477017 27.447678
v -7.326403 2.266714 26.999437
v -7.307706 2.279224 26.986664
v -7.485463 2.457632 26.744579
v -7.387692 2.389854 26.663994
v -7.714114 2.238840 26.430901
v -7.272001 2.232079 26.576010
v -7.704004 2.231825 26.928400
v -7.278529 2.237653 26.960545
v -7.342992 2.237617 27.011385
v -6.979569 2.249233 27.396809
v -7.308647 2.249167 27.487947
v -6.923066 2.600855 28.079178
v -7.286593 2.907670 28.641329
v -7.523973 2.692567 28.454262
v -7.929967 2.294903 28.356123
v -8.971758 2.527208 28.794926
v -7.621933 2.389712 26.860273
v -9.213819 4.515473 27.433270
v -9.442871 3.862295 27.264591
v -9.432253 3.913448 27.076721
v -9.267733 2.904191 27.161783
v -9.412951 4.067450 26.843779
v -9.149810 3.015804 26.764248
v -9.529384 3.804471 26.545712
v -9.371999 3.243780 26.499346
v -9.144123 3.286101 26.242464
v -9.281082 2.559150 26.438438
v -9.176920 2.460253 26.332668
v -9.470503 2.124302 26.095440
v -9.169133 2.309903 26.100672
v -9.168167 2.186040 25.965813
v -9.050648 2.114187 25.838125
v -9.182579 2.115509 26.374630
v -9.177265 2.577091 26.569956
v -8.996652 3.138987 26.520144
v -8.578843 3.112371 26.469889
v -8.391624 3.286106 26.235977
v -8.534513 3.487934 26.038456
v -8.186342 4.117287 26.077206
v -8.417528 4.024078 25.832092
v -8.486837 4.610939 26.092638
v -9.092114 4.024073 25.837908
v -9.022823 4.610937 26.097260
v -9.352067 4.117279 26.087255
v -9.240004 4.632866 26.296850
v -9.465072 4.153607 26.384563
v -9.253883 4.661983 26.554533
v -9.143764 4.714119 26.810909
v -9.028338 5.560536 26.583754
v -8.961585 5.595199 26.723888
v -9.011576 6.329829 26.563810
v -8.801503 5.626648 26.806955
v -8.873543 6.364840 26.633156
v -8.761147 6.062331 26.974884
v -8.764694 6.389933 26.684534
v -8.642820 6.361323 26.625771
v -8.764312 6.777440 26.737959
v -8.450966 6.937800 26.427330
v -8.766492 6.925991 26.484079
v -8.322474 7.233623 26.642286
v -8.366457 7.290898 26.597830
v -8.177635 7.568945 27.045397
v -8.268770 7.342350 26.588181
v -8.214771 7.276202 26.603958
v -8.493134 6.934242 26.181995
v -8.214443 6.980546 26.274487
v -8.168142 6.950800 26.297314
v -8.266142 6.873902 26.232798
v -8.220793 6.795888 26.285448
v -8.465472 6.777104 26.170565
v -8.391595 6.548230 26.260799
v -8.428741 6.532135 25.849367
v -8.410555 6.321558 25.871925
v -8.385778 6.522402 25.625311
v -8.454701 6.274057 25.755148
v -8.477176 6.474765 25.510036
v -8.609627 6.338500 25.377525
v -8.643667 6.431518 25.351954
v -8.776117 6.329298 25.379244
v -8.776184 6.413169 25.353405
v -8.903339 6.429765 25.353729
v -8.866557 6.562766 25.500917
v -9.076413 6.495055 25.510326
v -9.034276 6.577245 25.473158
v -9.166646 6.533314 25.629627
v -9.048616 6.626981 25.497524
v -8.916500 6.698971 25.806622
v -8.955041 6.610605 25.474014
v -8.519435 6.830720 25.894861
v -8.590895 6.709661 25.801466
v -8.604103 6.838477 25.966339
v -8.774103 6.616274 25.596043
v -8.770726 6.783519 25.990126
v -8.909887 6.838283 25.969587
v -8.770621 6.894876 26.002293
v -8.960222 6.949419 25.983580
v -8.966551 7.001604 26.176561
v -9.021178 6.915397 26.186550
v -9.250902 7.345916 26.603436
v -9.300408 7.284927 26.618832
v -9.330210 7.574039 27.052530
v -9.301095 7.232165 26.660158
v -9.201107 7.245678 26.652464
v -9.055211 6.933979 26.427137
v -9.301895 6.980694 26.285574
v -9.259697 6.874286 26.243057
v -9.356799 6.950778 26.306633
v -9.312919 6.796511 26.296537
v -9.139976 6.546470 26.265142
v -9.091070 6.283830 26.454012
v -9.016948 5.477219 26.438511
v -8.995770 6.827506 25.899681
v -9.058344 6.776219 26.174625
v -9.114869 6.536709 25.853022
v -9.130671 6.325119 25.877348
v -9.087731 6.282906 25.758837
v -8.936411 6.338485 25.380337
v -8.841895 6.276055 25.758289
v -8.768599 6.284400 25.757401
v -8.686475 6.276071 25.756950
v -8.775341 6.236381 25.469908
v -8.618468 6.236328 25.468557
v -8.616815 6.106210 25.513399
v -8.615044 6.156681 25.690346
v -8.612517 6.007789 26.161236
v -8.767303 6.129103 25.692514
v -8.756298 6.007789 26.162477
v -8.908155 6.156674 25.692875
v -8.900079 6.007787 26.163719
v -8.481215 6.230689 26.263626
v -8.512576 5.477222 26.434156
v -8.498999 5.560679 26.582460
v -8.275960 4.661837 26.550728
v -8.379995 4.714124 26.804325
v -8.097885 4.153075 26.378862
v -8.069258 4.067457 26.832197
v -8.026131 3.804479 26.532751
v -8.366607 3.023304 26.760662
v -8.155017 3.243778 26.501789
v -8.288012 2.559135 26.441238
v -8.366323 2.460215 26.325401
v -8.448305 2.559135 26.442621
v -8.632522 2.121253 26.095123
v -8.386244 2.111927 26.331963
v -8.443336 6.271857 26.435198
v -8.508012 6.331383 26.561363
v -8.559643 5.595201 26.720419
v -8.716960 5.638350 26.804344
v -8.302410 4.565281 27.322613
v -8.308034 4.515956 27.424473
v -8.118361 3.913457 27.065395
v -8.253426 2.904199 27.153038
v -8.759230 5.633730 26.835749
v -8.757337 5.185334 27.055481
v -8.903666 6.236315 25.471018
v -8.908607 6.106201 25.515917
v -8.772483 6.087705 25.505260
v -8.774920 6.542627 25.500748
v -8.657334 6.562782 25.499109
v -8.564731 6.599111 25.466410
v -8.478580 6.625353 25.492369
v -8.497624 6.570261 25.466211
v -8.555549 6.949509 25.979782
v -8.547928 7.020444 26.172953
v -8.768976 6.964773 26.193867
v -9.160718 7.298461 26.610785
v -8.999109 3.487931 26.042463
v -8.363015 2.577092 26.591679
v -8.293907 4.632871 26.288691
v -8.623774 5.459971 26.278418
v -8.892260 5.459971 26.280733
v -9.050472 6.230690 26.268543
v -8.382555 2.313502 26.098417
v -8.386690 2.186038 25.959074
v -8.515000 2.114182 25.833508
v -8.268017 2.114183 25.831379
v -9.085047 2.559152 26.436749
v -8.465490 2.817806 27.525616
v -8.384903 2.550199 27.614830
v -8.763558 4.259432 27.911741
v -8.672788 3.139463 28.799185
v -7.930361 2.310401 29.307346
v -7.042305 2.699626 27.993298
v -7.057377 2.413301 27.416885
v -7.294394 2.266736 26.968306
v -8.223596 5.512757 28.746361
v -8.372416 5.511884 28.754004
v -8.491809 5.720219 27.996294
v -8.544630 7.121430 27.618174
v -8.545959 5.720732 27.865305
v -8.532978 5.720243 27.786341
v -8.131965 5.735666 29.810478
v -7.769439 6.606195 29.113064
v -7.829296 6.604766 29.120462
v -7.915667 7.141058 29.928928
v -7.818338 7.596871 29.235905
v -8.117877 8.382772 29.504416
v -7.724695 7.592988 29.246067
v -8.522483 7.201321 27.509699
v -8.760973 4.507684 27.440626
v -8.934882 5.719874 27.852682
v -8.761099 4.474841 27.508942
v -8.979694 5.720251 27.914396
v -9.070888 5.466403 28.701935
v -9.366812 5.637779 29.977520
v -9.728424 6.599741 29.129951
v -9.545944 7.141075 29.904627
v -9.672566 6.600535 29.136354
v -8.920924 7.156251 27.594982
v -8.894037 5.720199 27.846134
v -8.998727 5.720586 27.768963
v -8.993341 7.236087 27.560812
v -9.406813 8.427615 29.624144
v -9.650815 7.571108 29.251698
v -9.764876 7.592974 29.263655
v -8.284550 2.407347 27.402872
v -8.284306 2.569396 27.431471
v -8.083778 3.861758 27.252213
v -7.999618 2.111970 26.980387
v -8.291757 2.242945 26.997883
v -8.213986 7.218953 26.648773
vn -0.0888 0.9936 -0.0692
vn -0.3917 0.9050 -0.1659
vn -0.1643 0.9844 0.0625
vn -0.0829 0.9886 0.1255
vn -0.2722 0.9134 0.3027
vn -0.1913 0.8450 0.4994
vn -0.3702 0.5550 0.7449
vn 0.1061 0.4864 0.8673
vn -0.3246 0.0467 0.9447
vn 0.1192 -0.0661 0.9907
vn 0.1316 -0.4794 0.8677
vn 0.5435 -0.0437 0.8383
vn 0.5894 -0.4235 0.6879
vn 0.5661 0.0033 0.8243
vn 0.6425 -0.3173 0.6975
vn 0.3436 -0.0025 0.9391
vn 0.4275 -0.7435 0.5143
vn 0.0743 -0.8047 0.5890
vn -0.3220 -0.4287 0.8441
vn -0.2834 -0.7239 0.6290
vn -0.7167 -0.5366 0.4455
vn -0.6632 -0.7137 0.2255
vn -0.7381 -0.3946 0.5472
vn -0.7891 0.0759 0.6096
vn -0.8317 0.0829 0.5489
vn -0.6662 0.2088 0.7159
vn -0.1494 0.2344 0.9606
vn -0.7903 -0.3711 0.4875
vn -0.6339 -0.7033 0.3217
vn -0.9140 -0.3756 0.1531
vn -0.6976 -0.7103 0.0935
vn -0.8689 -0.3880 -0.3075
vn -0.5976 -0.7954 -0.1013
vn -0.5508 -0.1929 -0.8120
vn 0.0128 0.9999 0.0010
vn -0.4611 0.8721 -0.1638
vn -0.0324 0.9887 -0.1460
vn 0.0304 0.9993 -0.0195
vn 0.0294 0.9989 0.0375
vn -0.0203 0.9996 -0.0181
vn -0.0079 0.9999 0.0113
vn 0.2164 0.9747 -0.0564
vn 0.0082 1.0000 -0.0003
vn 0.0014 1.0000 0.0025
vn -0.0080 0.9992 0.0382
vn 0.4762 0.5181 0.7105
vn 0.1466 0.9408 0.3055
vn 0.3979 0.8883 0.2295
vn 0.0366 0.9953 0.0902
vn 0.5083 0.8611 -0.0115
vn 0.1075 0.9920 -0.0665
vn 0.2886 0.9572 0.0227
vn 0.0375 0.9993 -0.0096
vn 0.0221 0.9969 0.0754
vn -0.0508 0.9928 0.1085
vn 0.4429 0.8903 -0.1058
vn 0.1107 0.9811 -0.1589
vn 0.2309 0.9369 -0.2625
vn 0.0420 0.9991 0.0028
vn 0.2347 0.8774 -0.4184
vn -0.0774 0.9960 -0.0451
vn 0.1151 0.9150 -0.3867
vn 0.0498 0.9988 -0.0033
vn -0.0472 0.9964 -0.0706
vn 0.1296 0.9905 0.0468
vn -0.2109 0.9538 0.2139
vn -0.0753 0.9822 0.1719
vn -0.1599 0.9691 -0.1880
vn -0.5397 0.8406 0.0448
vn -0.0693 0.9817 0.1777
vn -0.0388 0.9992 -0.0138
vn 0.1727 0.8543 -0.4903
vn 0.4399 0.0915 -0.8934
vn 0.6247 -0.1816 -0.7595
vn -0.0780 0.9960 -0.0441
vn -0.2399 0.9529 -0.1854
vn -0.0324 0.9070 -0.4199
vn 0.4498 0.2906 -0.8445
vn -0.1933 0.3569 -0.9139
vn -0.1128 0.1110 -0.9874
vn -0.8558 0.3257 -0.4019
vn -0.3849 0.4994 -0.7761
vn -0.4224 0.8998 -0.1093
vn 0.0995 0.8983 -0.4280
vn -0.4361 0.8545 -0.2821
vn -0.1112 0.9610 -0.2534
vn -0.8416 0.2670 -0.4696
vn -0.8680 0.2290 -0.4406
vn 0.3733 -0.6861 -0.6245
vn -0.2422 0.8872 -0.3928
vn 0.3783 0.4327 -0.8183
vn -0.2321 0.8510 -0.4712
vn -0.5537 0.3424 -0.7591
vn -0.8993 0.3330 -0.2835
vn -0.9466 0.3175 -0.0562
vn -0.9434 0.2941 -0.1531
vn -0.5767 0.7320 -0.3628
vn -0.5128 0.0002 -0.8585
vn -0.0333 0.7322 -0.6802
vn 0.3297 0.2946 -0.8969
vn -0.1223 -0.1068 -0.9867
vn 0.3265 -0.2870 -0.9006
vn -0.0650 0.3630 -0.9295
vn 0.3164 0.5380 -0.7813
vn -0.7513 0.4181 -0.5107
vn -0.6551 0.6643 -0.3599
vn -0.5860 0.1557 -0.7952
vn 0.3402 0.3551 -0.8707
vn -0.2179 0.4324 -0.8750
vn -0.4484 -0.1619 -0.8790
vn -0.0743 -0.0713 -0.9947
vn 0.2445 -0.1433 -0.9590
vn 0.4748 -0.0122 -0.8800
vn -0.0843 -0.0353 -0.9958
vn 0.0573 0.5184 -0.8532
vn -0.2199 0.1148 -0.9688
vn 0.0652 0.4682 -0.8812
vn 0.5551 -0.0910 -0.8268
vn 0.1675 0.5637 -0.8088
vn 0.7698 0.4698 -0.4320
vn 0.0410 0.0818 -0.9958
vn 0.9678 -0.1038 -0.2294
vn 0.5800 0.1901 -0.7921
vn 0.8658 0.3257 0.3799
vn 0.8313 -0.2972 0.4698
vn 0.3087 0.8953 0.3212
vn 0.8507 0.3036 -0.4291
vn -0.2413 0.8698 -0.4304
vn -0.8312 0.4648 -0.3049
vn 0.0051 -0.2792 -0.9602
vn -0.5757 -0.3861 -0.7208
vn -0.8181 -0.2152 -0.5334
vn -0.6715 -0.2802 -0.6860
vn -0.7738 -0.1911 -0.6040
vn -0.5941 0.1395 -0.7922
vn -0.9035 0.1523 -0.4005
vn -0.9904 -0.1206 -0.0676
vn -0.8727 -0.4126 -0.2610
vn -0.8778 0.3818 -0.2894
vn -0.9029 0.3536 0.2444
vn -0.9389 0.2126 0.2705
vn -0.9839 0.0218 0.1773
vn -0.8982 0.4378 0.0401
vn -0.6275 0.7748 0.0776
vn -0.4769 0.8787 0.0206
vn -0.2094 0.9711 0.1144
vn -0.4675 0.8820 0.0597
vn -0.1135 0.9913 0.0666
vn -0.5191 0.8265 0.2176
vn -0.1639 0.9271 0.3372
vn -0.5674 0.6124 0.5505
vn -0.9316 0.1825 0.3143
vn -0.3655 0.9262 -0.0927
vn -0.2089 0.9651 -0.1579
vn -0.0173 0.9799 -0.1990
vn -0.9266 0.3454 -0.1488
vn -0.0521 0.9924 -0.1116
vn -0.0732 0.9807 -0.1810
vn -0.6204 -0.3609 -0.6963
vn -0.0501 -0.3277 -0.9435
vn -0.0261 -0.0676 -0.9974
vn -0.1695 -0.0744 -0.9827
vn 0.5325 -0.4060 -0.7427
vn 0.9185 -0.2806 -0.2786
vn 0.4702 -0.4617 -0.7522
vn 0.8353 -0.4538 -0.3105
vn 0.9073 0.3349 -0.2543
vn 0.5609 0.7626 -0.3222
vn -0.3886 0.8873 -0.2485
vn -0.7572 0.4387 -0.4839
vn -0.0434 -0.7426 -0.6683
vn -0.5674 -0.7432 -0.3545
vn -0.9425 -0.2985 -0.1506
vn 0.9365 -0.0058 -0.3505
vn 0.8923 -0.3929 -0.2226
vn 0.8389 0.4515 -0.3041
vn 0.7795 -0.6249 -0.0425
vn 0.8983 -0.3782 -0.2238
vn 0.8596 -0.4034 0.3136
vn 0.9555 -0.2314 -0.1827
vn 0.9126 -0.2902 0.2879
vn 0.5324 0.1574 0.8317
vn 0.4790 0.7130 0.5121
vn 0.7750 -0.1429 0.6156
vn 0.7988 0.3867 0.4608
vn 0.5690 0.8188 0.0763
vn 0.6759 0.7332 0.0746
vn 0.7978 0.5895 0.1263
vn 0.9173 0.3455 -0.1978
vn 0.7191 0.4257 -0.5493
vn 0.3324 -0.5643 -0.7557
vn 0.2097 -0.6168 -0.7586
vn 0.3806 -0.9153 0.1318
vn 0.9923 0.0452 -0.1151
vn 0.5522 0.4791 -0.6823
vn 0.7741 0.5181 0.3638
vn 0.9261 0.3615 -0.1083
vn 0.0343 0.9448 -0.3259
vn -0.2487 0.9624 -0.1090
vn -0.1149 0.9580 -0.2628
vn 0.0791 0.0184 -0.9967
vn -0.5470 -0.1068 -0.8303
vn 0.5302 0.2883 -0.7974
vn 0.1318 0.7187 -0.6827
vn -0.4640 0.7181 -0.5187
vn -0.8637 0.2879 -0.4136
vn -0.8637 -0.2879 -0.4136
vn -0.4632 -0.7189 -0.5183
vn 0.1333 -0.7196 -0.6815
vn 0.5306 -0.2893 -0.7967
vn -0.2682 0.0002 -0.9634
vn 0.8574 -0.2883 -0.4262
vn 0.8575 0.2883 -0.4262
vn 0.4552 0.7193 -0.5248
vn -0.1437 0.7197 -0.6793
vn -0.5439 0.2889 -0.7878
vn 0.2515 0.0002 -0.9678
vn -0.5438 -0.2884 -0.7881
vn -0.1439 -0.7192 -0.6797
vn 0.4553 -0.7190 -0.5250
vn -0.3012 0.2834 -0.9105
vn -0.3012 -0.2829 -0.9106
vn 0.0512 -0.7059 -0.7065
vn 0.5451 0.0002 -0.8384
vn 0.6527 -0.6591 -0.3737
vn 0.9699 -0.1824 -0.1616
vn 0.0514 0.7061 -0.7063
vn 0.6601 0.6594 -0.3597
vn 0.9684 0.1979 -0.1516
vn 0.1892 0.1730 0.9666
vn 0.8383 0.5403 -0.0735
vn 0.9898 0.0446 -0.1352
vn 0.8277 -0.5603 0.0307
vn 0.9986 0.0537 -0.0038
vn 0.9159 0.3036 0.2627
vn 0.9190 0.3380 0.2031
vn 0.7486 0.3331 0.5733
vn 0.9725 0.1709 0.1582
vn 0.9992 0.0083 -0.0392
vn 0.9747 0.0485 0.2182
vn 0.8869 0.1080 -0.4491
vn 0.9469 0.0865 -0.3098
vn -0.0154 0.1750 -0.9845
vn -0.1677 0.9839 0.0613
vn -0.0016 0.9461 -0.3237
vn 0.0065 0.6590 0.7521
vn 0.1730 0.9830 0.0621
vn -0.8831 0.4604 -0.0907
vn -0.9298 0.0971 -0.3550
vn -0.9969 0.0526 0.0586
vn -0.9023 0.0759 -0.4244
vn -0.9948 0.0472 -0.0903
vn -0.8509 -0.4800 0.2136
vn -0.9817 0.1536 0.1127
vn -0.7375 0.1606 0.6560
vn -0.9189 0.3128 0.2406
vn -0.8289 0.2066 0.5199
vn -0.9968 0.0548 0.0585
vn -0.7033 -0.5467 0.4544
vn -0.9952 0.0416 -0.0881
vn -0.0524 -0.0864 0.9949
vn 0.0342 0.0519 0.9981
vn 0.9819 -0.1438 0.1235
vn 0.9889 0.0193 0.1472
vn 0.5315 0.4730 -0.7027
vn 0.6555 0.5566 -0.5104
vn 0.1300 0.7189 -0.6829
vn -0.4611 0.8038 -0.3759
vn -0.8828 0.4696 0.0096
vn 0.1345 -0.2193 -0.9663
vn 0.4312 -0.8808 -0.1956
vn 0.2576 -0.6173 -0.7434
vn 0.9716 0.2037 -0.1206
vn 0.6436 0.3991 -0.6531
vn 0.2557 0.6862 0.6810
vn 0.5634 0.8218 0.0847
vn 0.0996 0.4485 0.8882
vn 0.6911 0.4498 0.5658
vn 0.5390 -0.6147 0.5759
vn 0.8560 -0.5140 0.0557
vn -0.5414 -0.6260 -0.5612
vn -0.7625 -0.5845 -0.2775
vn -0.6348 0.6713 -0.3826
vn -0.7492 0.6462 -0.1453
vn 0.1599 0.8907 -0.4256
vn -0.4803 0.7665 0.4263
vn 0.1047 0.9939 0.0347
vn 0.0502 0.9984 -0.0247
vn 0.4967 0.7885 -0.3627
vn -0.5679 -0.1916 -0.8005
vn 0.7660 -0.3188 -0.5583
vn -0.7190 -0.3727 0.5867
vn 0.7800 -0.5860 -0.2194
vn -0.5256 -0.6831 0.5071
vn 0.7869 -0.5056 -0.3537
vn -0.8445 -0.5343 -0.0364
vn 0.8537 0.5196 -0.0335
vn 0.4340 0.8921 -0.1258
vn -0.2361 0.6260 -0.7433
vn -0.1093 -0.7266 -0.6783
vn -0.6734 -0.5417 0.5031
vn -0.4915 0.7716 0.4038
vn -0.9749 0.1766 0.1358
vn -0.9875 0.1515 -0.0427
vn -0.9974 0.0367 -0.0623
vn -0.5689 -0.6886 -0.4497
vn -0.9787 0.1664 0.1205
vn -0.5046 -0.8525 0.1368
vn -0.9896 -0.1316 -0.0579
vn -0.9720 -0.2079 -0.1093
vn -0.3706 -0.4472 -0.8141
vn -0.9965 -0.0792 0.0284
vn -0.0035 0.5731 -0.8194
vn -0.6992 0.6887 -0.1920
vn 0.0058 0.8016 -0.5978
vn -0.0007 0.8682 -0.4962
vn 0.1814 0.9190 -0.3501
vn -0.0106 -0.3422 0.9396
vn 0.0339 -0.3697 0.9285
vn 0.4272 -0.7886 -0.4422
vn -0.4450 -0.7681 -0.4603
vn 0.3850 -0.4214 -0.8211
vn 0.2601 -0.4883 -0.8330
vn 0.8472 0.0428 -0.5296
vn 0.3998 -0.0242 -0.9163
vn 0.3521 0.3513 -0.8675
vn -0.3798 -0.0135 -0.9250
vn -0.3373 0.3473 -0.8750
vn -0.8157 0.0494 -0.5764
vn -0.8314 0.3578 -0.4251
vn -0.9707 0.1655 -0.1739
vn -0.9460 0.2898 0.1450
vn -0.7901 0.4608 0.4042
vn -0.9792 0.0906 0.1817
vn -0.7120 0.1558 0.6847
vn -0.6886 0.1271 0.7139
vn -0.6049 0.1082 0.7889
vn -0.5675 0.1662 0.8064
vn -0.0050 0.1097 0.9940
vn 0.0034 0.2666 0.9638
vn 0.5583 0.1664 0.8128
vn -0.0154 0.3323 0.9430
vn 0.6919 -0.1576 0.7046
vn -0.0034 0.7962 0.6051
vn -0.4034 -0.4054 0.8203
vn -0.7353 0.6550 0.1741
vn 0.1897 0.5564 0.8090
vn 0.2006 0.7954 -0.5719
vn 0.8937 0.1099 -0.4350
vn 0.7217 0.4119 -0.5562
vn 0.4038 0.8507 -0.3365
vn 0.9469 0.2987 0.1190
vn 0.4270 -0.0424 -0.9033
vn 0.8664 -0.4969 0.0484
vn 0.7968 0.1079 -0.5945
vn 0.9930 -0.0862 0.0806
vn 0.9315 0.3627 -0.0283
vn 0.9532 -0.3006 -0.0334
vn 0.9670 0.1534 -0.2034
vn 0.7918 -0.5496 -0.2666
vn 0.7138 -0.1866 -0.6750
vn 0.4075 -0.6015 -0.6871
vn 0.2397 0.3048 -0.9218
vn -0.0056 -0.7634 -0.6459
vn -0.0049 0.2210 -0.9753
vn -0.2377 0.2906 -0.9268
vn 0.1418 0.7449 -0.6519
vn -0.7289 -0.1209 -0.6738
vn -0.3100 -0.0431 -0.9498
vn -0.9624 0.1765 -0.2067
vn -0.4693 0.7045 -0.5325
vn -0.4821 0.7620 -0.4323
vn 0.2525 0.4955 -0.8311
vn 0.5431 0.5148 -0.6633
vn 0.4620 0.7717 -0.4371
vn -0.0930 0.6531 -0.7516
vn -0.0247 0.8712 -0.4903
vn 0.0178 0.6383 -0.7696
vn 0.0714 0.6473 -0.7589
vn -0.0014 0.5976 -0.8018
vn -0.4890 0.4998 -0.7149
vn -0.2736 0.7995 -0.5348
vn -0.7146 0.4335 -0.5490
vn -0.2192 0.7909 -0.5713
vn -0.8969 0.1116 -0.4279
vn -0.1696 0.5587 0.8118
vn -0.7052 -0.6475 0.2889
vn 0.4202 -0.4072 0.8109
vn -0.6779 -0.1494 0.7198
vn -0.3451 0.8867 -0.3076
vn -0.4213 -0.0066 -0.9069
vn -0.9312 0.3464 0.1134
vn -0.8786 -0.4713 0.0770
vn -0.9909 -0.0651 0.1177
vn -0.9647 -0.0038 0.2632
vn -0.9190 0.1018 -0.3808
vn -0.5449 0.5080 -0.6671
vn -0.7814 0.1682 -0.6009
vn -0.9071 0.4209 -0.0060
vn -0.9456 -0.3234 -0.0364
vn -0.8079 -0.5270 -0.2639
vn -0.4116 -0.6138 -0.6737
vn -0.0279 0.0382 -0.9989
vn -0.0071 -0.0908 -0.9958
vn 0.0133 0.0257 -0.9996
vn -0.0087 0.5433 -0.8395
vn 0.3956 0.4402 -0.8060
vn 0.4657 -0.7600 -0.4534
vn 0.3960 -0.9182 0.0071
vn 0.5649 -0.5649 -0.6015
vn -0.0157 -0.9994 -0.0292
vn -0.0160 -0.6841 -0.7292
vn -0.3857 -0.9224 0.0207
vn -0.5165 -0.5678 -0.6409
vn 0.9510 -0.2854 -0.1193
vn 0.9240 0.1126 -0.3654
vn 0.9843 0.0962 0.1477
vn 0.9560 0.2598 0.1363
vn 0.7955 0.4678 0.3851
vn 0.9676 0.1567 -0.1978
vn 0.9837 0.1291 0.1252
vn 0.9780 -0.1393 -0.1551
vn 0.5653 -0.8055 0.1776
vn 0.9743 -0.2018 -0.0997
vn 0.9942 -0.1064 0.0157
vn -0.0076 0.6103 -0.7922
vn -0.9927 -0.1132 0.0417
vn -0.7353 0.6639 -0.1359
vn -0.0408 -0.3940 0.9182
vn 0.9832 -0.0534 0.1747
vn 0.7223 0.1047 0.6836
vn 0.7301 0.1510 0.6665
vn 0.6229 0.0929 0.7768
vn 0.8816 0.4646 -0.0830
vn 0.9742 0.1773 0.1396
vn 0.9998 -0.0145 -0.0143
vn 0.5677 -0.6799 -0.4642
vn 0.0154 0.0757 0.9970
vn 0.0155 -0.0542 0.9984
vn -0.3771 0.4443 -0.8127
vn -0.4717 -0.7581 -0.4504
vn -0.0129 -0.8580 -0.5135
vn 0.0132 0.7700 -0.6379
vn -0.0996 0.7440 -0.6608
vn -0.2653 0.3941 -0.8799
vn 0.4977 0.6776 -0.5414
vn 0.3290 -0.0989 -0.9391
vn 0.4985 0.4550 -0.7379
vn 0.2302 0.8178 -0.5275
vn -0.0169 0.9597 -0.2805
vn 0.7421 0.6388 0.2030
vn -0.2697 -0.4857 -0.8315
vn 0.0448 -0.4102 0.9109
vn 0.8494 0.3382 -0.4052
vn 0.4463 0.0538 -0.8933
vn -0.4285 0.0435 -0.9025
vn -0.9473 -0.2937 -0.1277
vn -0.0535 0.8041 -0.5921
vn -0.0282 0.8781 -0.4776
vn -0.2096 0.9255 -0.3155
vn 0.1876 0.9202 -0.3435
vn 0.9940 -0.0993 0.0466
vn -0.4213 -0.8887 -0.1808
vn -0.9724 -0.1373 0.1885
vn -0.0013 0.2384 0.9712
vn -0.4899 0.3264 0.8084
vn -0.1068 -0.5570 0.8236
vn 0.2695 0.9096 -0.3162
vn 0.7419 0.5139 -0.4307
vn 0.7185 0.6641 -0.2067
vn 0.8521 -0.4889 0.1868
vn -0.7465 -0.4234 0.5133
vn -0.9656 0.0695 0.2507
vn -0.9958 0.0869 0.0302
vn -0.9838 0.0732 0.1636
vn -0.8789 0.1359 -0.4572
vn 0.1191 -0.2035 0.9718
vn 0.9719 -0.2312 0.0440
vn -0.5666 0.0136 0.8239
vn 0.0262 -0.0598 0.9979
vn -0.6487 0.1576 0.7445
vn -0.1408 0.7918 0.5943
vn 0.9639 0.1694 0.2053
vn -0.1906 0.4396 -0.8777
vn 0.0243 0.8865 0.4621
vn 0.5840 -0.0303 0.8112
vn 0.0204 0.8778 0.4786
vn 0.9444 0.0444 0.3257
vn 0.7743 -0.4134 0.4791
vn -0.1272 -0.2415 0.9620
vn -0.9753 -0.2150 0.0503
vn -0.0097 -0.0776 0.9969
vn 0.5583 0.0283 0.8292
vn 0.8729 0.1186 -0.4733
vn 0.9200 -0.0037 0.3918
vn -0.0056 0.1827 -0.9832
vn -0.0573 0.5364 -0.8420
vn 0.1077 0.7782 0.6187
vn 0.6925 0.2012 0.6928
vn -0.9652 0.0880 0.2462
vn -0.2834 0.6259 -0.7266
vn -0.1474 -0.1902 -0.9706
vn 0.9799 0.1596 -0.1197
vn 0.4398 0.7657 -0.4694
vn -0.0908 0.6981 -0.7102
vn 0.7053 -0.6501 0.2826
vt 0.531300 0.764600
vt 0.694300 0.759800
vt 0.940400 0.717800
vt 1.045900 0.695300
vt 1.223600 0.852500
vt 1.345700 0.801800
vt 1.394500 0.874000
vt 1.434600 0.852500
vt 1.418900 1.013700
vt 1.450200 1.171900
vt 1.412100 1.386700
vt 1.311500 1.053700
vt 1.293900 1.374000
vt 0.995100 1.098600
vt 1.075200 1.437500
vt 1.071300 1.437500
vt 1.228500 1.437500
vt 1.326200 1.437500
vt 1.380900 1.377900
vt 1.305700 1.437500
vt 1.187500 1.388700
vt 1.127000 1.437500
vt 0.958000 1.437500
vt 1.237300 0.995100
vt 0.849600 1.140600
vt 0.863300 1.207000
vt 0.988300 1.437500
vt 0.865200 1.383800
vt 0.860400 1.437500
vt 0.472700 1.386700
vt 0.455100 1.437500
vt 0.078100 1.383800
vt 0.085000 1.437500
vt -0.053700 1.437500
vt 0.159200 0.762700
vt 0.057600 0.759800
vt 0.092800 0.767600
vt 0.191400 0.749000
vt 0.341800 0.763700
vt 0.157200 0.763700
vt 0.058600 0.760700
vt -0.071300 0.762700
vt 1.266600 0.844700
vt 1.221700 0.752000
vt 1.066400 0.772500
vt 0.743200 0.770500
vt 0.489300 0.794000
vt 0.310600 0.768500
vt 0.174800 0.765600
vt 0.006800 0.729500
vt -0.001000 0.728500
vt -0.089800 0.786100
vt -0.018500 0.716800
vt -0.278300 0.750000
vt -0.058600 0.733400
vt -0.305700 0.777300
vt -0.069300 0.724600
vt -0.123000 0.725600
vt 0.090800 0.756800
vt 0.001900 0.742200
vt -0.191400 0.755900
vt -0.374000 0.771500
vt -0.342800 0.838900
vt -0.378900 0.838900
vt -0.203100 0.761700
vt -0.401400 0.770500
vt -0.506800 0.901400
vt -0.551800 0.902300
vt -0.544000 1.029300
vt -0.502000 0.992200
vt -0.525400 1.078100
vt -0.482400 1.055700
vt -0.455100 1.055700
vt -0.302700 0.811500
vt -0.045900 0.827100
vt -0.502000 0.902300
vt -0.418900 0.838900
vt -0.314400 0.838900
vt -0.354500 0.847700
vt -0.402300 0.902300
vt -0.330100 0.882800
vt -0.409200 0.949200
vt -0.303700 0.902300
vt -0.303700 0.992200
vt 0.136700 0.992200
vt 0.173800 1.055700
vt 0.200200 0.947300
vt 0.226600 1.055700
vt 0.264600 0.992200
vt -0.150400 0.992200
vt 0.264600 0.902300
vt -0.176800 0.902300
vt -0.127900 0.838900
vt -0.213900 1.055700
vt -0.266600 1.055700
vt -0.432600 1.056600
vt -0.436500 0.992200
vt -0.493200 1.088900
vt -0.483400 1.197300
vt -0.554700 1.160200
vt -0.537100 1.086900
vt -0.496100 1.012700
vt -0.425800 1.201200
vt -0.437500 1.106400
vt -0.510700 1.235400
vt -0.458000 1.097700
vt -0.383800 1.208000
vt -0.377900 1.002900
vt -0.323200 1.009800
vt -0.352500 0.978500
vt -0.305700 0.980500
vt -0.354500 0.830100
vt -0.259800 0.992200
vt -0.259800 0.902300
vt -0.207000 1.055700
vt -0.183600 1.083000
vt -0.148400 1.055700
vt -0.118200 0.992200
vt -0.483400 1.380900
vt -0.391600 1.371100
vt -0.310600 1.179700
vt -0.093800 1.437500
vt -0.064500 1.155300
vt -0.055700 1.193400
vt 0.095700 1.092800
vt 0.118200 0.974600
vt -0.066400 0.992200
vt -0.073200 0.904300
vt 0.477500 1.098600
vt 0.476600 1.024400
vt 0.482400 0.935500
vt 0.164100 0.864300
vt 0.505900 0.865200
vt 0.214800 0.830100
vt 0.469700 0.790000
vt 0.222700 0.752000
vt 0.886700 0.809600
vt 1.105500 0.851600
vt 1.220700 0.870100
vt 0.845700 0.906300
vt -0.016600 0.847700
vt 0.034200 0.816400
vt -0.200200 0.821300
vt -0.210000 0.838900
vt 0.169900 0.756800
vt 0.118200 0.756800
vt -0.365200 1.437500
vt -0.459000 1.437500
vt -0.412100 1.437500
vt -0.471700 1.437500
vt -0.356400 1.359400
vt -0.168000 1.317400
vt -0.337900 1.437500
vt -0.177700 1.437500
vt -0.434600 0.992200
vt -0.415000 1.055700
vt -0.358400 1.055700
vt -0.352500 0.992200
vt 0.226600 0.838900
vt 0.173800 0.838900
vt 0.136700 0.902300
vt -0.434600 0.902300
vt -0.082000 1.314500
vt -0.234400 1.096700
vt -0.076200 1.437500
vt 0.309600 1.437500
vt 0.806600 1.437500
vt 0.307600 1.280300
vt 0.807600 1.317400
vt 0.998000 1.122100
vt 0.830100 0.947300
vt 1.116200 0.974600
vt 1.082000 0.905300
vt 0.731500 0.906300
vt 0.333000 0.877900
vt 0.109400 0.763700
vt -0.056600 0.931600
vt -0.111300 0.777300
vt -0.117200 0.902300
vt -0.169000 0.838900
vt -0.222700 0.838900
vt -0.268600 0.783200
vt -0.075200 0.948200
vt 0.802700 0.950200
vt 0.322300 0.960000
vt -0.033200 0.800800
vt -0.207000 0.861300
vt -0.016600 0.822300
vt -0.373100 0.904300
vt -0.369100 0.902300
vt 0.055700 0.992200
vt 0.036100 1.055700
vt 0.008800 1.055700
vt -0.009800 0.992200
vt -0.009800 0.902300
vt 0.008800 0.838900
vt 0.036100 0.838900
vt 0.055700 0.902300
vt 0.022500 0.947300
vt 0.057600 0.902300
vt 0.057600 0.992200
vt 0.076200 1.055700
vt 0.103500 1.055700
vt 0.123000 0.992200
vt 0.089800 0.947300
vt 0.123000 0.902300
vt 0.103500 0.838900
vt 0.076200 0.838900
vt 0.308600 0.992200
vt 0.308600 0.902300
vt 0.271500 0.838900
vt 0.245100 0.947300
vt 0.218800 0.838900
vt 0.181600 0.902300
vt 0.271500 1.055700
vt 0.218800 1.055700
vt 0.181600 0.992200
vt 0.658200 0.693400
vt 0.569300 0.658200
vt 0.708000 0.606500
vt 0.558600 0.405300
vt 0.672900 0.317400
vt 0.547900 0.238300
vt 0.697300 0.190400
vt 0.534200 0.070300
vt 0.680700 -0.267600
vt 0.654300 -0.267600
vt 0.560500 -0.686500
vt 0.624000 -0.267600
vt 0.596700 -0.267600
vt 0.435600 0.023400
vt 0.460900 0.042000
vt 0.351600 -0.004900
vt 0.460900 0.041000
vt 0.649400 -0.267600
vt 0.993200 -0.180700
vt 0.535200 0.070300
vt 0.548800 0.237300
vt 0.485400 0.692400
vt 0.341800 0.742200
vt 0.493200 0.651400
vt 0.537100 0.583000
vt 0.768500 0.689500
vt 0.807600 0.483400
vt 0.854500 0.534200
vt 0.935500 0.330100
vt 0.998000 0.444300
vt 1.141600 0.534200
vt 1.041000 0.597700
vt 1.075200 0.762700
vt 0.764600 0.750000
vt 0.752900 0.762700
vt 0.649400 0.750000
vt 0.669900 0.643500
vt 0.517600 0.698200
vt 0.513700 0.668000
vt 0.364300 0.740200
vt 0.357400 0.735400
vt 0.270500 0.664100
vt 0.241200 0.690400
vt 0.150400 0.752900
vt 0.210000 0.752900
vt 0.342800 0.752900
vt 0.343800 0.752900
vt 0.371100 0.752900
vt 0.495100 0.752000
vt 0.527300 0.752000
vt 0.741200 0.643500
vt 0.942400 0.535200
vt 0.836900 0.597700
vt 0.794900 0.762700
vt 0.992200 0.675800
vt 0.311500 0.690400
vt 0.498100 0.055700
vt 0.439400 0.275400
vt 0.372100 0.260700
vt 0.403300 0.560500
vt 0.288100 0.215800
vt 0.280300 0.532200
vt 0.180700 0.292000
vt 0.179700 0.456100
vt 0.073200 0.443400
vt 0.167000 0.656300
vt 0.105500 0.662100
vt 0.021500 0.706000
vt -0.025400 0.742200
vt 0.226600 0.650400
vt 0.172800 0.494100
vt 0.001000 0.384800
vt 0.016600 0.201200
vt -0.072300 0.228500
vt 0.033200 0.039100
vt 0.104500 0.032200
vt 0.123000 0.190400
vt 0.197300 0.023400
vt 0.290000 0.008800
vt 0.233400 -0.202200
vt 0.288100 -0.212900
vt 0.225600 -0.447300
vt 0.321300 -0.222700
vt 0.252900 -0.458000
vt 0.387700 -0.362300
vt 0.273400 -0.466800
vt 0.251000 -0.457000
vt 0.294900 -0.589800
vt 0.172800 -0.627900
vt 0.194300 -0.630900
vt 0.238300 -0.709000
vt 0.217800 -0.729500
vt 0.443400 -0.845700
vt 0.213900 -0.749000
vt 0.221700 -0.724600
vt 0.077200 -0.633800
vt 0.114300 -0.654300
vt 0.123000 -0.645500
vt 0.097700 -0.621100
vt 0.118200 -0.595700
vt 0.072300 -0.589800
vt 0.108400 -0.516600
vt -0.052700 -0.511700
vt -0.033200 -0.435600
vt -0.140600 -0.508800
vt -0.080100 -0.428700
vt -0.186500 -0.493200
vt -0.228500 -0.441400
vt -0.249000 -0.479500
vt -0.228500 -0.438500
vt -0.249000 -0.473600
vt -0.249000 -0.478500
vt -0.191400 -0.521500
vt -0.188500 -0.500000
vt -0.203100 -0.525400
vt -0.141600 -0.511700
vt -0.193400 -0.542000
vt -0.071300 -0.564500
vt -0.202200 -0.536100
vt -0.035200 -0.606500
vt -0.072300 -0.568400
vt -0.007800 -0.609400
vt -0.153300 -0.538100
vt 0.000000 -0.591800
vt -0.006800 -0.609400
vt 0.004900 -0.627000
vt -0.001900 -0.644500
vt 0.073200 -0.661100
vt 0.212900 -0.750000
vt 0.219700 -0.725600
vt 0.442400 -0.847700
vt 0.240200 -0.704100
vt 0.237300 -0.710000
vt 0.119100 -0.595700
vt 0.107400 -0.516600
vt 0.181600 -0.432600
vt 0.159200 -0.184600
vt -0.035200 -0.605500
vt -0.053700 -0.512700
vt -0.034200 -0.437500
vt -0.080100 -0.430700
vt -0.080100 -0.431600
vt -0.193400 -0.425800
vt -0.175800 -0.367200
vt -0.105500 -0.383800
vt 0.058600 -0.343800
vt -0.105500 -0.375000
vt 0.119100 -0.407200
vt 0.234400 -0.202200
vt 0.199200 0.023400
vt 0.125000 0.190400
vt 0.176800 -0.428700
vt 0.321300 -0.226600
vt 0.333000 -0.225600
vt 0.419900 -0.082000
vt -0.178700 -0.361300
vt -0.191400 -0.514600
vt -0.204100 -0.533200
vt -0.193400 -0.541000
vt -0.204100 -0.523400
vt 0.080100 -0.643500
vt 0.216800 -0.731500
vt 0.097700 -0.178700
vt 0.023400 0.704100
vt 0.697300 0.130900
vt 1.023400 0.486300
vt 1.180700 0.739300
vt 0.710000 0.602500
vt 0.502000 0.698200
vt 0.347700 0.740200
vt 0.996100 -0.180700
vt 0.653300 -0.267600
vt 0.625000 -0.267600
vt 1.443400 -0.208000
vt 1.110400 -0.517600
vt 1.113300 -0.517600
vt 1.432600 -0.682600
vt 1.154300 -0.815400
vt 1.283200 -1.107400
vt 1.158200 -0.814500
vt 0.521500 -0.710000
vt 0.502000 0.057600
vt 0.651400 -0.267600
vt 0.526400 0.067400
vt 0.678700 -0.267600
vt 0.242200 -0.703100
s 1
usemtl material_42
f 1/1/1 2/2/2 3/3/3
f 4/4/4 1/1/1 3/3/3
f 4/4/4 3/3/3 5/5/5
f 6/6/6 4/4/4 5/5/5
f 6/6/6 5/5/5 7/7/7
f 8/8/8 6/6/6 7/7/7
f 8/8/8 7/7/7 9/9/9
f 10/10/10 8/8/8 9/9/9
f 10/10/10 9/9/9 11/11/11
f 12/12/12 10/10/10 11/11/11
f 12/12/12 11/11/11 13/13/13
f 14/14/14 12/12/12 13/13/13
f 14/14/14 13/13/13 15/15/15
f 16/16/16 14/14/14 15/15/15
f 17/17/17 15/15/15 13/13/13
f 17/17/17 13/13/13 11/11/11
f 18/18/18 17/17/17 11/11/11
f 18/18/18 11/11/11 19/19/19
f 20/20/20 18/18/18 19/19/19
f 20/20/20 19/19/19 21/21/21
f 22/22/22 20/20/20 21/21/21
f 22/22/22 21/21/21 23/23/23
f 19/19/19 11/11/11 9/9/9
f 19/19/19 9/9/9 24/24/24
f 21/21/21 19/19/19 24/24/24
f 21/21/21 24/24/24 25/25/25
f 23/23/23 21/21/21 25/25/25
f 23/23/23 25/25/25 26/26/26
f 27/27/27 23/23/23 26/26/26
f 27/27/27 26/26/26 28/28/28
f 29/29/29 27/27/27 28/28/28
f 29/29/29 28/28/28 30/30/30
f 31/31/31 29/29/29 30/30/30
f 31/31/31 30/30/30 32/32/32
f 33/33/33 31/31/31 32/32/32
f 33/33/33 32/32/32 34/34/34
f 8/8/8 10/10/10 12/12/12
f 35/35/35 36/36/36 37/37/37
f 35/35/35 37/37/37 38/38/38
f 39/39/39 35/35/35 38/38/38
f 35/35/35 39/39/39 40/39/40
f 35/35/35 40/39/40 41/40/41
f 42/36/42 35/35/35 41/40/41
f 42/36/42 41/40/41 43/41/43
f 44/42/44 42/36/42 43/41/43
f 44/42/44 43/41/43 45/42/45
f 46/43/46 8/8/8 12/12/12
f 6/6/6 8/8/8 47/44/47
f 6/6/6 47/44/47 4/4/4
f 47/44/47 8/8/8 46/43/46
f 47/44/47 46/43/46 48/45/48
f 49/2/49 47/44/47 48/45/48
f 49/2/49 48/45/48 50/46/50
f 51/1/51 49/2/49 50/46/50
f 51/1/51 50/46/50 52/47/52
f 53/39/53 51/1/51 52/47/52
f 53/39/53 52/47/52 54/48/54
f 55/49/55 53/39/53 54/48/54
f 55/49/55 54/48/54 56/50/56
f 57/51/57 55/49/55 56/50/56
f 57/51/57 56/50/56 58/52/58
f 59/53/59 57/51/57 58/52/58
f 59/53/59 58/52/58 60/54/60
f 61/55/61 59/53/59 60/54/60
f 61/55/61 60/54/60 62/56/62
f 63/57/63 61/55/61 62/56/62
f 63/57/63 62/56/62 64/58/64
f 65/41/65 63/57/63 64/58/64
f 65/41/65 64/58/64 66/42/66
f 55/49/55 57/51/57 59/53/59
f 55/49/55 59/53/59 67/59/67
f 53/39/53 55/49/55 67/59/67
f 53/39/53 67/59/67 41/40/41
f 68/39/68 53/39/53 41/40/41
f 68/39/68 41/40/41 40/39/40
f 69/1/69 68/39/68 40/39/40
f 69/1/69 40/39/40 1/1/1
f 49/2/49 69/1/69 1/1/1
f 49/2/49 1/1/1 4/4/4
f 47/44/47 49/2/49 4/4/4
f 65/41/65 41/40/41 67/59/67
f 65/41/65 67/59/67 63/57/63
f 61/55/61 63/57/63 70/60/70
f 61/55/61 70/60/70 59/53/59
f 67/59/67 59/53/59 70/60/70
f 67/59/67 70/60/70 63/57/63
f 71/61/71 66/42/66 64/58/64
f 71/61/71 64/58/64 62/56/62
f 72/62/72 71/61/71 62/56/62
f 72/62/72 62/56/62 73/63/73
f 74/64/74 72/62/72 73/63/73
f 45/42/45 66/42/66 71/61/71
f 45/42/45 71/61/71 75/65/75
f 44/42/44 45/42/45 75/65/75
f 44/42/44 75/65/75 76/42/76
f 77/66/77 71/61/71 72/62/72
f 77/66/77 72/62/72 78/67/78
f 79/68/79 77/66/77 78/67/78
f 79/68/79 78/67/78 80/69/80
f 81/70/81 79/68/79 80/69/80
f 81/70/81 80/69/80 82/71/82
f 83/72/83 81/70/81 82/71/82
f 83/72/83 82/71/82 84/73/84
f 75/65/75 71/61/71 77/66/77
f 75/65/75 77/66/77 85/74/85
f 76/42/76 75/65/75 85/74/85
f 76/42/76 85/74/85 86/75/86
f 36/36/36 76/42/76 86/75/86
f 36/36/36 86/75/86 37/37/37
f 77/66/77 79/68/79 87/76/87
f 77/66/77 87/76/87 88/77/88
f 85/74/85 77/66/77 88/77/88
f 85/74/85 88/77/88 89/78/89
f 90/79/90 85/74/85 89/78/89
f 90/79/90 89/78/89 91/80/91
f 92/81/92 90/79/90 91/80/91
f 92/81/92 91/80/91 93/82/93
f 94/83/94 92/81/92 93/82/93
f 94/83/94 93/82/93 95/84/95
f 96/85/96 94/83/94 95/84/95
f 96/85/96 95/84/95 97/86/97
f 98/87/98 96/85/96 97/86/97
f 98/87/98 97/86/97 99/88/99
f 100/89/100 98/87/98 99/88/99
f 100/89/100 99/88/99 101/90/101
f 102/91/102 100/89/100 101/90/101
f 102/91/102 101/90/101 103/92/103
f 104/93/104 102/91/102 103/92/103
f 105/94/105 101/90/101 99/88/99
f 105/94/105 99/88/99 106/95/106
f 106/95/106 99/88/99 97/86/97
f 106/95/106 97/86/97 95/84/95
f 107/96/107 106/95/106 95/84/95
f 107/96/107 95/84/95 93/82/93
f 108/97/108 107/96/107 93/82/93
f 108/97/108 93/82/93 91/80/91
f 107/96/107 108/97/108 84/73/84
f 107/96/107 84/73/84 109/98/109
f 110/99/110 107/96/107 109/98/109
f 110/99/110 109/98/109 82/71/82
f 111/100/111 110/99/110 82/71/82
f 111/100/111 82/71/82 80/69/80
f 112/101/112 111/100/111 80/69/80
f 112/101/112 80/69/80 113/102/113
f 114/103/114 112/101/112 113/102/113
f 114/103/114 113/102/113 115/104/115
f 116/105/116 114/103/114 115/104/115
f 116/105/116 115/104/115 117/106/117
f 118/107/118 116/105/116 117/106/117
f 118/107/118 117/106/117 119/108/119
f 120/109/120 118/107/118 119/108/119
f 120/109/120 119/108/119 121/110/121
f 122/111/122 120/109/120 121/110/121
f 122/111/122 121/110/121 123/112/123
f 124/113/124 122/111/122 123/112/123
f 124/113/124 123/112/123 125/114/125
f 120/109/120 122/111/122 124/113/124
f 120/109/120 124/113/124 126/115/126
f 127/116/127 120/109/120 126/115/126
f 127/116/127 126/115/126 128/117/128
f 129/118/129 127/116/127 128/117/128
f 111/100/111 112/101/112 114/103/114
f 111/100/111 114/103/114 130/119/130
f 110/99/110 111/100/111 130/119/130
f 110/99/110 130/119/130 131/120/131
f 132/121/132 110/99/110 131/120/131
f 132/121/132 131/120/131 133/122/133
f 134/123/134 132/121/132 133/122/133
f 134/123/134 133/122/133 34/34/34
f 135/124/135 134/123/134 34/34/34
f 135/124/135 34/34/34 136/125/136
f 134/123/134 135/124/135 136/125/136
f 134/123/134 136/125/136 137/126/137
f 138/127/138 134/123/134 137/126/137
f 138/127/138 137/126/137 139/128/139
f 101/90/101 138/127/138 139/128/139
f 101/90/101 139/128/139 103/92/103
f 134/123/134 138/127/138 101/90/101
f 134/123/134 101/90/101 105/94/105
f 132/121/132 134/123/134 105/94/105
f 132/121/132 105/94/105 106/95/106
f 107/96/107 132/121/132 106/95/106
f 132/121/132 107/96/107 110/99/110
f 136/125/136 34/34/34 32/32/32
f 136/125/136 32/32/32 30/30/30
f 140/129/140 136/125/136 30/30/30
f 140/129/140 30/30/30 28/28/28
f 26/26/26 140/129/140 28/28/28
f 140/129/140 26/26/26 25/25/25
f 140/129/140 25/25/25 141/130/141
f 137/126/137 140/129/140 141/130/141
f 137/126/137 141/130/141 142/131/142
f 143/132/143 137/126/137 142/131/142
f 143/132/143 142/131/142 144/133/144
f 145/134/145 143/132/143 144/133/144
f 145/134/145 144/133/144 146/135/146
f 147/136/147 145/134/145 146/135/146
f 147/136/147 146/135/146 148/1/148
f 39/39/39 147/136/147 148/1/148
f 2/2/2 148/1/148 146/135/146
f 2/2/2 146/135/146 149/137/149
f 3/3/3 2/2/2 149/137/149
f 3/3/3 149/137/149 150/138/150
f 5/5/5 3/3/3 150/138/150
f 5/5/5 150/138/150 151/139/151
f 7/7/7 5/5/5 151/139/151
f 7/7/7 151/139/151 9/9/9
f 24/24/24 9/9/9 151/139/151
f 24/24/24 151/139/151 25/25/25
f 151/139/151 150/138/150 149/137/149
f 151/139/151 149/137/149 152/140/152
f 25/25/25 151/139/151 152/140/152
f 25/25/25 152/140/152 141/130/141
f 142/131/142 141/130/141 152/140/152
f 142/131/142 152/140/152 144/133/144
f 144/133/144 152/140/152 149/137/149
f 144/133/144 149/137/149 146/135/146
f 136/125/136 140/129/140 137/126/137
f 139/128/139 137/126/137 143/132/143
f 139/128/139 143/132/143 153/141/153
f 103/92/103 139/128/139 153/141/153
f 103/92/103 153/141/153 104/93/104
f 153/141/153 143/132/143 145/134/145
f 153/141/153 145/134/145 154/142/154
f 104/93/104 153/141/153 154/142/154
f 104/93/104 154/142/154 155/143/155
f 156/144/156 104/93/104 155/143/155
f 156/144/156 155/143/155 92/81/92
f 94/83/94 156/144/156 92/81/92
f 154/142/154 145/134/145 147/136/147
f 154/142/154 147/136/147 157/145/157
f 158/146/158 154/142/154 157/145/157
f 158/146/158 157/145/157 38/38/38
f 37/37/37 158/146/158 38/38/38
f 39/39/39 38/38/38 157/145/157
f 39/39/39 157/145/157 147/136/147
f 159/147/159 133/122/133 131/120/131
f 159/147/159 131/120/131 160/148/160
f 160/148/160 131/120/131 130/119/130
f 160/148/160 130/119/130 161/149/161
f 161/149/161 130/119/130 114/103/114
f 161/149/161 114/103/114 162/150/162
f 162/150/162 114/103/114 116/105/116
f 162/150/162 116/105/116 118/107/118
f 163/151/163 162/150/162 118/107/118
f 163/151/163 118/107/118 164/152/164
f 165/153/165 163/151/163 164/152/164
f 165/153/165 164/152/164 166/154/166
f 163/151/163 165/153/165 162/150/162
f 113/102/113 80/69/80 78/67/78
f 113/102/113 78/67/78 167/155/167
f 168/156/168 113/102/113 167/155/167
f 115/104/115 113/102/113 168/156/168
f 115/104/115 168/156/168 169/157/169
f 117/106/117 115/104/115 169/157/169
f 117/106/117 169/157/169 170/158/170
f 119/108/119 117/106/117 170/158/170
f 119/108/119 170/158/170 121/110/121
f 84/73/84 82/71/82 109/98/109
f 98/87/98 100/89/100 102/91/102
f 98/87/98 102/91/102 171/159/171
f 172/160/172 98/87/98 171/159/171
f 172/160/172 171/159/171 104/93/104
f 156/144/156 172/160/172 104/93/104
f 102/91/102 104/93/104 171/159/171
f 81/70/81 87/76/87 79/68/79
f 173/161/173 156/144/156 94/83/94
f 173/161/173 94/83/94 96/85/96
f 98/87/98 173/161/173 96/85/96
f 173/161/173 98/87/98 172/160/172
f 173/161/173 172/160/172 156/144/156
f 174/162/174 78/67/78 72/62/72
f 174/162/174 72/62/72 74/64/74
f 78/67/78 174/162/174 167/155/167
f 175/163/175 166/154/166 164/152/164
f 175/163/175 164/152/164 176/164/176
f 127/116/127 175/163/175 176/164/176
f 127/116/127 176/164/176 120/109/120
f 118/107/118 120/109/120 176/164/176
f 118/107/118 176/164/176 164/152/164
f 177/165/177 166/154/166 175/163/175
f 177/165/177 175/163/175 178/166/178
f 179/167/179 178/166/178 180/168/180
f 179/167/179 180/168/180 181/169/181
f 16/16/16 179/167/179 181/169/181
f 16/16/16 181/169/181 182/170/182
f 14/14/14 16/16/16 182/170/182
f 14/14/14 182/170/182 183/171/183
f 184/172/184 14/14/14 183/171/183
f 184/172/184 183/171/183 185/173/185
f 46/43/46 184/172/184 185/173/185
f 46/43/46 185/173/185 48/45/48
f 50/46/50 48/45/48 185/173/185
f 50/46/50 185/173/185 186/174/186
f 52/47/52 50/46/50 186/174/186
f 52/47/52 186/174/186 187/175/187
f 188/176/188 52/47/52 187/175/187
f 188/176/188 187/175/187 189/177/189
f 190/178/190 188/176/188 189/177/189
f 190/178/190 189/177/189 191/179/191
f 192/180/192 190/178/190 191/179/191
f 190/178/190 192/180/192 193/181/193
f 190/178/190 193/181/193 194/182/194
f 58/52/58 190/178/190 194/182/194
f 58/52/58 194/182/194 60/54/60
f 190/178/190 58/52/58 56/50/56
f 190/178/190 56/50/56 188/176/188
f 188/176/188 56/50/56 54/48/54
f 188/176/188 54/48/54 52/47/52
f 129/118/129 191/179/191 189/177/189
f 129/118/129 189/177/189 195/183/195
f 127/116/127 129/118/129 195/183/195
f 127/116/127 195/183/195 180/168/180
f 175/163/175 127/116/127 180/168/180
f 175/163/175 180/168/180 178/166/178
f 186/174/186 185/173/185 183/171/183
f 186/174/186 183/171/183 196/184/196
f 197/185/197 186/174/186 196/184/196
f 197/185/197 196/184/196 181/169/181
f 180/168/180 197/185/197 181/169/181
f 197/185/197 180/168/180 195/183/195
f 197/185/197 195/183/195 189/177/189
f 187/175/187 197/185/197 189/177/189
f 197/185/197 187/175/187 186/174/186
f 182/170/182 181/169/181 196/184/196
f 182/170/182 196/184/196 183/171/183
f 184/172/184 46/43/46 12/12/12
f 184/172/184 12/12/12 14/14/14
f 198/186/198 37/37/37 86/75/86
f 198/186/198 86/75/86 199/187/199
f 200/188/200 198/186/198 199/187/199
f 200/188/200 199/187/199 155/143/155
f 154/142/154 200/188/200 155/143/155
f 200/188/200 154/142/154 158/146/158
f 200/188/200 158/146/158 198/186/198
f 37/37/37 198/186/198 158/146/158
f 92/81/92 155/143/155 199/187/199
f 92/81/92 199/187/199 90/79/90
f 85/74/85 90/79/90 199/187/199
f 85/74/85 199/187/199 86/75/86
f 194/182/194 125/114/125 123/112/123
f 194/182/194 123/112/123 60/54/60
f 125/114/125 194/182/194 193/181/193
f 201/189/201 60/54/60 123/112/123
f 201/189/201 123/112/123 121/110/121
f 202/190/202 201/189/201 121/110/121
f 202/190/202 121/110/121 170/158/170
f 201/189/201 202/190/202 73/63/73
f 201/189/201 73/63/73 62/56/62
f 60/54/60 201/189/201 62/56/62
f 84/73/84 108/97/108 203/191/203
f 84/73/84 203/191/203 204/192/204
f 83/72/83 84/73/84 204/192/204
f 83/72/83 204/192/204 205/193/205
f 81/70/81 83/72/83 205/193/205
f 81/70/81 205/193/205 206/194/206
f 87/76/87 81/70/81 206/194/206
f 87/76/87 206/194/206 207/195/207
f 88/77/88 87/76/87 207/195/207
f 88/77/88 207/195/207 208/196/208
f 89/78/89 88/77/88 208/196/208
f 89/78/89 208/196/208 209/197/209
f 210/198/210 89/78/89 209/197/209
f 210/198/210 209/197/209 211/199/211
f 203/191/203 210/198/210 211/199/211
f 203/191/203 211/199/211 204/192/204
f 205/193/205 204/192/204 211/199/211
f 205/193/205 211/199/211 206/194/206
f 207/195/207 206/194/206 211/199/211
f 207/195/207 211/199/211 208/196/208
f 209/197/209 208/196/208 211/199/211
f 91/80/91 89/78/89 210/198/210
f 91/80/91 210/198/210 203/191/203
f 108/97/108 91/80/91 203/191/203
f 167/155/167 174/162/174 212/200/212
f 167/155/167 212/200/212 213/201/213
f 168/156/168 167/155/167 213/201/213
f 168/156/168 213/201/213 214/202/214
f 169/157/169 168/156/168 214/202/214
f 169/157/169 214/202/214 215/203/215
f 216/204/216 169/157/169 215/203/215
f 216/204/216 215/203/215 217/205/217
f 218/206/218 216/204/216 217/205/217
f 218/206/218 217/205/217 219/207/219
f 73/63/73 218/206/218 219/207/219
f 73/63/73 219/207/219 220/208/220
f 74/64/74 73/63/73 220/208/220
f 74/64/74 220/208/220 212/200/212
f 174/162/174 74/64/74 212/200/212
f 218/206/218 73/63/73 202/190/202
f 218/206/218 202/190/202 170/158/170
f 216/204/216 218/206/218 170/158/170
f 216/204/216 170/158/170 169/157/169
f 220/208/220 219/207/219 217/205/217
f 220/208/220 217/205/217 212/200/212
f 213/201/213 212/200/212 217/205/217
f 213/201/213 217/205/217 214/202/214
f 215/203/215 214/202/214 217/205/217
f 191/179/191 129/118/129 221/209/221
f 191/179/191 221/209/221 222/210/222
f 223/211/223 191/179/191 222/210/222
f 223/211/223 222/210/222 224/212/224
f 225/213/225 223/211/223 224/212/224
f 225/213/225 224/212/224 226/214/226
f 125/114/125 225/213/225 226/214/226
f 125/114/125 226/214/226 124/113/124
f 225/213/225 125/114/125 193/181/193
f 225/213/225 193/181/193 223/211/223
f 223/211/223 193/181/193 192/180/192
f 223/211/223 192/180/192 191/179/191
f 224/212/224 222/210/222 221/209/221
f 224/212/224 221/209/221 227/215/227
f 228/216/228 224/212/224 227/215/227
f 228/216/228 227/215/227 128/117/128
f 126/115/126 228/216/228 128/117/128
f 128/117/128 227/215/227 221/209/221
f 128/117/128 221/209/221 129/118/129
f 228/216/228 126/115/126 229/217/229
f 228/216/228 229/217/229 224/212/224
f 226/214/226 224/212/224 229/217/229
f 226/214/226 229/217/229 124/113/124
f 126/115/126 124/113/124 229/217/229
f 230/218/230 49/2/49 231/1/231
f 230/218/230 231/1/231 232/219/232
f 233/220/233 230/218/230 232/219/232
f 233/220/233 232/219/232 234/221/234
f 235/222/235 233/220/233 234/221/234
f 235/222/235 234/221/234 236/223/236
f 237/224/237 235/222/235 236/223/236
f 237/224/237 236/223/236 238/225/238
f 239/226/239 237/224/237 238/225/238
f 239/226/239 238/225/238 240/227/240
f 241/228/241 239/226/239 240/227/240
f 241/228/241 240/227/240 242/229/242
f 243/230/243 241/228/241 242/229/242
f 243/230/243 242/229/242 244/231/244
f 245/232/245 243/230/243 244/231/244
f 245/232/245 244/231/244 246/233/246
f 247/231/247 245/232/245 246/233/246
f 247/231/247 246/233/246 248/234/248
f 249/229/249 247/231/247 248/234/248
f 249/229/249 248/234/248 250/235/250
f 251/228/251 249/229/249 250/235/250
f 251/228/251 250/235/250 252/226/252
f 253/236/253 251/228/251 252/226/252
f 253/236/253 252/226/252 254/237/254
f 255/224/255 253/236/253 254/237/254
f 255/224/255 254/237/254 256/238/256
f 257/222/257 255/224/255 256/238/256
f 257/222/257 256/238/256 258/221/258
f 259/220/259 257/222/257 258/221/258
f 259/220/259 258/221/258 260/219/260
f 261/218/261 259/220/259 260/219/260
f 261/218/261 260/219/260 262/2/262
f 263/219/263 261/218/261 262/2/262
f 263/219/263 262/2/262 264/1/264
f 265/239/265 263/219/263 264/1/264
f 265/239/265 264/1/264 266/39/266
f 267/240/267 265/239/265 266/39/266
f 267/240/267 266/39/266 268/39/268
f 265/239/265 267/240/267 268/39/268
f 265/239/265 268/39/268 269/1/269
f 270/241/270 265/239/265 269/1/269
f 270/241/270 269/1/269 260/219/260
f 258/221/258 270/241/270 260/219/260
f 262/2/262 260/219/260 269/1/269
f 263/219/263 265/239/265 270/241/270
f 263/219/263 270/241/270 271/242/271
f 259/220/259 263/219/263 271/242/271
f 259/220/259 271/242/271 233/220/233
f 272/243/272 259/220/259 233/220/233
f 272/243/272 233/220/233 273/244/273
f 274/245/274 272/243/272 273/244/273
f 274/245/274 273/244/273 275/246/275
f 276/247/276 274/245/274 275/246/275
f 276/247/276 275/246/275 277/248/277
f 278/249/278 276/247/276 277/248/277
f 278/249/278 277/248/277 279/250/279
f 280/251/280 278/249/278 279/250/279
f 280/251/280 279/250/279 281/252/281
f 282/253/282 280/251/280 281/252/281
f 282/253/282 281/252/281 283/254/283
f 284/255/284 282/253/282 283/254/283
f 284/255/284 283/254/283 285/256/285
f 286/257/286 284/255/284 285/256/285
f 286/257/286 285/256/285 287/258/287
f 288/259/288 286/257/286 287/258/287
f 288/259/288 287/258/287 289/260/289
f 290/261/290 288/259/288 289/260/289
f 290/261/290 289/260/289 291/262/291
f 292/263/292 290/261/290 291/262/291
f 292/263/292 291/262/291 293/264/293
f 294/265/294 292/263/292 293/264/293
f 294/265/294 293/264/293 295/266/295
f 296/267/296 294/265/294 295/266/295
f 296/267/296 295/266/295 282/253/282
f 284/255/284 296/267/296 282/253/282
f 280/251/280 282/253/282 295/266/295
f 280/251/280 295/266/295 297/268/297
f 278/249/278 280/251/280 297/268/297
f 278/249/278 297/268/297 298/269/298
f 276/247/276 278/249/278 298/269/298
f 276/247/276 298/269/298 299/270/299
f 274/245/274 276/247/276 299/270/299
f 274/245/274 299/270/299 300/271/300
f 272/243/272 274/245/274 300/271/300
f 272/243/272 300/271/300 301/272/301
f 259/220/259 272/243/272 301/272/301
f 259/220/259 301/272/301 257/222/257
f 263/219/263 259/220/259 261/218/261
f 294/265/294 296/267/296 284/255/284
f 294/265/294 284/255/284 286/257/286
f 302/273/302 294/265/294 286/257/286
f 302/273/302 286/257/286 288/259/288
f 290/261/290 302/273/302 288/259/288
f 302/273/302 290/261/290 292/263/292
f 302/273/302 292/263/292 294/265/294
f 254/237/254 252/226/252 250/235/250
f 254/237/254 250/235/250 303/274/303
f 256/238/256 254/237/254 303/274/303
f 256/238/256 303/274/303 248/234/248
f 304/275/304 256/238/256 248/234/248
f 304/275/304 248/234/248 305/276/305
f 306/277/306 304/275/304 305/276/305
f 306/277/306 305/276/305 307/278/307
f 308/279/308 306/277/306 307/278/307
f 308/279/308 307/278/307 309/280/309
f 310/281/310 308/279/308 309/280/309
f 310/281/310 309/280/309 311/282/311
f 312/283/312 310/281/310 311/282/311
f 312/283/312 311/282/311 313/284/313
f 314/36/314 312/283/312 313/284/313
f 314/36/314 313/284/313 315/285/315
f 316/286/316 314/36/314 315/285/315
f 316/286/316 315/285/315 42/36/42
f 317/42/317 316/286/316 42/36/42
f 316/286/316 317/42/317 76/42/76
f 316/286/316 76/42/76 314/36/314
f 312/283/312 314/36/314 318/35/318
f 312/283/312 318/35/318 319/287/319
f 308/279/308 312/283/312 319/287/319
f 308/279/308 319/287/319 320/288/320
f 321/288/321 308/279/308 320/288/320
f 321/288/321 320/288/320 311/282/311
f 322/282/322 321/288/321 311/282/311
f 322/282/322 311/282/311 323/289/323
f 324/290/324 322/282/322 323/289/323
f 324/290/324 323/289/323 325/291/325
f 326/292/326 324/290/324 325/291/325
f 326/292/326 325/291/325 327/291/327
f 328/292/328 326/292/326 327/291/327
f 328/292/328 327/291/327 329/290/329
f 330/293/330 328/292/328 329/290/329
f 330/293/330 329/290/329 331/294/331
f 332/295/332 330/293/330 331/294/331
f 332/295/332 331/294/331 333/296/333
f 334/297/334 332/295/332 333/296/333
f 334/297/334 333/296/333 335/298/335
f 336/299/336 334/297/334 335/298/335
f 336/299/336 335/298/335 337/300/337
f 338/301/338 336/299/336 337/300/337
f 338/301/338 337/300/337 339/302/339
f 340/303/340 338/301/338 339/302/339
f 340/303/340 339/302/339 341/304/341
f 342/305/342 340/303/340 341/304/341
f 342/305/342 341/304/341 343/306/343
f 344/307/344 342/305/342 343/306/343
f 344/307/344 343/306/343 345/308/345
f 346/309/346 344/307/344 345/308/345
f 346/309/346 345/308/345 347/310/347
f 348/311/348 346/309/346 347/310/347
f 348/311/348 347/310/347 349/312/349
f 350/313/350 348/311/348 349/312/349
f 350/313/350 349/312/349 343/306/343
f 351/314/351 350/313/350 343/306/343
f 351/314/351 343/306/343 352/315/352
f 353/316/353 351/314/351 352/315/352
f 353/316/353 352/315/352 354/317/354
f 355/318/355 353/316/353 354/317/354
f 355/318/355 354/317/354 356/319/356
f 357/320/357 355/318/355 356/319/356
f 357/320/357 356/319/356 358/321/358
f 359/322/359 357/320/357 358/321/358
f 359/322/359 358/321/358 360/323/360
f 361/324/361 359/322/359 360/323/360
f 361/324/361 360/323/360 362/325/362
f 363/326/363 361/324/361 362/325/362
f 363/326/363 362/325/362 364/327/364
f 365/328/365 363/326/363 364/327/364
f 365/328/365 364/327/364 366/329/366
f 367/330/367 365/328/365 366/329/366
f 367/330/367 366/329/366 368/331/368
f 369/332/369 367/330/367 368/331/368
f 369/332/369 368/331/368 370/333/370
f 371/334/371 369/332/369 370/333/370
f 371/334/371 370/333/370 372/335/372
f 373/336/373 371/334/371 372/335/372
f 373/336/373 372/335/372 367/330/367
f 369/332/369 373/336/373 367/330/367
f 373/336/373 369/332/369 371/334/371
f 354/317/354 352/315/352 343/306/343
f 354/317/354 343/306/343 356/319/356
f 350/313/350 351/314/351 353/316/353
f 350/313/350 353/316/353 355/318/355
f 374/337/374 350/313/350 355/318/355
f 374/337/374 355/318/355 375/338/375
f 376/339/376 374/337/374 375/338/375
f 376/339/376 375/338/375 377/340/377
f 378/341/378 376/339/376 377/340/377
f 378/341/378 377/340/377 379/342/379
f 380/343/380 378/341/378 379/342/379
f 380/343/380 379/342/379 381/344/381
f 382/345/382 380/343/380 381/344/381
f 382/345/382 381/344/381 383/313/383
f 384/346/384 382/345/382 383/313/383
f 384/346/384 383/313/383 385/347/385
f 386/348/386 384/346/384 385/347/385
f 386/348/386 385/347/385 387/349/387
f 388/350/388 386/348/386 387/349/387
f 388/350/388 387/349/387 389/306/389
f 344/307/344 388/350/388 389/306/389
f 344/307/344 389/306/389 342/305/342
f 389/306/389 387/349/387 385/347/385
f 389/306/389 385/347/385 383/313/383
f 390/314/390 389/306/389 383/313/383
f 390/314/390 383/313/383 391/316/391
f 392/315/392 390/314/390 391/316/391
f 392/315/392 391/316/391 393/351/393
f 389/306/389 392/315/392 393/351/393
f 389/306/389 393/351/393 394/352/394
f 336/299/336 389/306/389 394/352/394
f 336/299/336 394/352/394 395/353/395
f 334/297/334 336/299/336 395/353/395
f 334/297/334 395/353/395 396/354/396
f 332/295/332 334/297/334 396/354/396
f 332/295/332 396/354/396 330/293/330
f 389/306/389 336/299/336 338/301/338
f 389/306/389 338/301/338 342/305/342
f 340/303/340 342/305/342 338/301/338
f 392/315/392 389/306/389 390/314/390
f 383/313/383 381/344/381 379/342/379
f 383/313/383 379/342/379 397/355/397
f 398/318/398 383/313/383 397/355/397
f 398/318/398 397/355/397 372/335/372
f 399/356/399 398/318/398 372/335/372
f 399/356/399 372/335/372 370/333/370
f 400/357/400 399/356/399 370/333/370
f 400/357/400 370/333/370 368/331/368
f 401/358/401 400/357/400 368/331/368
f 401/358/401 368/331/368 402/325/402
f 403/323/403 401/358/401 402/325/402
f 403/323/403 402/325/402 364/327/364
f 404/359/404 403/323/403 364/327/364
f 404/359/404 364/327/364 405/323/405
f 406/360/406 404/359/404 405/323/405
f 406/360/406 405/323/405 407/360/407
f 408/361/408 406/360/406 407/360/407
f 408/361/408 407/360/407 360/323/360
f 409/362/409 408/361/408 360/323/360
f 409/362/409 360/323/360 410/363/410
f 411/364/411 409/362/409 410/363/410
f 411/364/411 410/363/410 412/363/412
f 413/362/413 411/364/411 412/363/412
f 413/362/413 412/363/412 414/363/414
f 401/358/401 413/362/413 414/363/414
f 401/358/401 414/363/414 400/357/400
f 360/323/360 407/360/407 405/323/405
f 360/323/360 405/323/405 362/325/362
f 364/327/364 362/325/362 405/323/405
f 366/329/366 364/327/364 402/325/402
f 366/329/366 402/325/402 368/331/368
f 410/363/410 360/323/360 358/321/358
f 410/363/410 358/321/358 415/365/415
f 416/354/416 410/363/410 415/365/415
f 416/354/416 415/365/415 417/366/417
f 418/367/418 416/354/416 417/366/417
f 418/367/418 417/366/417 419/296/419
f 420/368/420 418/367/418 419/296/419
f 420/368/420 419/296/419 421/278/421
f 422/280/422 420/368/420 421/278/421
f 422/280/422 421/278/421 423/279/423
f 424/281/424 422/280/422 423/279/423
f 424/281/424 423/279/423 425/283/425
f 322/282/322 424/281/424 425/283/425
f 322/282/322 425/283/425 426/284/426
f 427/283/427 322/282/322 426/284/426
f 427/283/427 426/284/426 428/41/428
f 429/40/429 427/283/427 428/41/428
f 422/280/422 424/281/424 322/282/322
f 422/280/422 322/282/322 420/368/420
f 415/365/415 358/321/358 356/319/356
f 415/365/415 356/319/356 430/369/430
f 417/366/417 415/365/415 430/369/430
f 417/366/417 430/369/430 431/299/431
f 432/298/432 417/366/417 431/299/431
f 432/298/432 431/299/431 433/370/433
f 419/296/419 432/298/432 433/370/433
f 419/296/419 433/370/433 246/233/246
f 434/234/434 419/296/419 246/233/246
f 434/234/434 246/233/246 244/231/244
f 242/229/242 434/234/434 244/231/244
f 434/234/434 242/229/242 240/227/240
f 434/234/434 240/227/240 435/274/435
f 236/223/236 434/234/434 435/274/435
f 236/223/236 435/274/435 238/225/238
f 240/227/240 238/225/238 435/274/435
f 417/366/417 432/298/432 419/296/419
f 421/278/421 419/296/419 434/234/434
f 421/278/421 434/234/434 436/276/436
f 423/279/423 421/278/421 436/276/436
f 423/279/423 436/276/436 437/277/437
f 308/279/308 423/279/423 437/277/437
f 308/279/308 437/277/437 306/277/306
f 431/299/431 430/369/430 356/319/356
f 431/299/431 356/319/356 343/306/343
f 341/304/341 431/299/431 343/306/343
f 433/370/433 431/299/431 341/304/341
f 433/370/433 341/304/341 339/302/339
f 438/371/438 433/370/433 339/302/339
f 438/371/438 339/302/339 337/300/337
f 439/372/439 438/371/438 337/300/337
f 439/372/439 337/300/337 246/233/246
f 433/370/433 439/372/439 246/233/246
f 439/372/439 433/370/433 438/371/438
f 403/323/403 404/359/404 406/360/406
f 403/323/403 406/360/406 440/360/440
f 401/358/401 403/323/403 440/360/440
f 401/358/401 440/360/440 441/361/441
f 413/362/413 401/358/401 441/361/441
f 413/362/413 441/361/441 442/373/442
f 411/364/411 413/362/413 442/373/442
f 411/364/411 442/373/442 409/362/409
f 408/361/408 409/362/409 442/373/442
f 408/361/408 442/373/442 406/360/406
f 406/360/406 442/373/442 441/361/441
f 406/360/406 441/361/441 440/360/440
f 372/335/372 397/355/397 379/342/379
f 372/335/372 379/342/379 377/340/377
f 367/330/367 372/335/372 377/340/377
f 367/330/367 377/340/377 443/374/443
f 365/328/365 367/330/367 443/374/443
f 365/328/365 443/374/443 444/330/444
f 363/326/363 365/328/365 444/330/444
f 363/326/363 444/330/444 361/324/361
f 444/330/444 443/374/443 377/340/377
f 444/330/444 377/340/377 375/338/375
f 445/375/445 444/330/444 375/338/375
f 445/375/445 375/338/375 446/376/446
f 447/377/447 445/375/445 446/376/446
f 447/377/447 446/376/446 359/322/359
f 361/324/361 447/377/447 359/322/359
f 445/375/445 447/377/447 361/324/361
f 445/375/445 361/324/361 444/330/444
f 359/322/359 446/376/446 375/338/375
f 359/322/359 375/338/375 357/320/357
f 355/318/355 357/320/357 375/338/375
f 391/316/391 383/313/383 398/318/398
f 391/316/391 398/318/398 393/351/393
f 394/352/394 393/351/393 398/318/398
f 394/352/394 398/318/398 399/356/399
f 400/357/400 394/352/394 399/356/399
f 376/339/376 378/341/378 380/343/380
f 376/339/376 380/343/380 448/344/448
f 350/313/350 376/339/376 448/344/448
f 350/313/350 448/344/448 449/345/449
f 348/311/348 350/313/350 449/345/449
f 348/311/348 449/345/449 346/309/346
f 376/339/376 350/313/350 374/337/374
f 449/345/449 448/344/448 380/343/380
f 449/345/449 380/343/380 450/378/450
f 346/309/346 449/345/449 450/378/450
f 346/309/346 450/378/450 344/307/344
f 450/378/450 380/343/380 382/345/382
f 450/378/450 382/345/382 384/346/384
f 451/379/451 450/378/450 384/346/384
f 451/379/451 384/346/384 386/348/386
f 388/350/388 451/379/451 386/348/386
f 451/379/451 388/350/388 344/307/344
f 451/379/451 344/307/344 450/378/450
f 337/300/337 335/298/335 333/296/333
f 337/300/337 333/296/333 246/233/246
f 248/234/248 246/233/246 333/296/333
f 248/234/248 333/296/333 307/278/307
f 305/276/305 248/234/248 307/278/307
f 250/235/250 248/234/248 303/274/303
f 307/278/307 333/296/333 331/294/331
f 307/278/307 331/294/331 309/280/309
f 311/282/311 309/280/309 331/294/331
f 311/282/311 331/294/331 329/290/329
f 452/289/452 311/282/311 329/290/329
f 452/289/452 329/290/329 327/291/327
f 323/289/323 452/289/452 327/291/327
f 323/289/323 327/291/327 325/291/325
f 452/289/452 323/289/323 311/282/311
f 310/281/310 312/283/312 308/279/308
f 423/279/423 308/279/308 321/288/321
f 423/279/423 321/288/321 453/287/453
f 425/283/425 423/279/423 453/287/453
f 425/283/425 453/287/453 429/40/429
f 65/41/65 425/283/425 429/40/429
f 427/283/427 429/40/429 453/287/453
f 427/283/427 453/287/453 321/288/321
f 322/282/322 427/283/427 321/288/321
f 420/368/420 322/282/322 324/290/324
f 420/368/420 324/290/324 454/293/454
f 418/367/418 420/368/420 454/293/454
f 418/367/418 454/293/454 416/354/416
f 454/293/454 324/290/324 326/292/326
f 454/293/454 326/292/326 455/380/455
f 416/354/416 454/293/454 455/380/455
f 416/354/416 455/380/455 410/363/410
f 412/363/412 410/363/410 455/380/455
f 412/363/412 455/380/455 456/380/456
f 414/363/414 412/363/412 456/380/456
f 414/363/414 456/380/456 457/365/457
f 400/357/400 414/363/414 457/365/457
f 400/357/400 457/365/457 394/352/394
f 395/353/395 394/352/394 457/365/457
f 395/353/395 457/365/457 396/354/396
f 396/354/396 457/365/457 456/380/456
f 396/354/396 456/380/456 330/293/330
f 328/292/328 330/293/330 456/380/456
f 328/292/328 456/380/456 455/380/455
f 326/292/326 328/292/328 455/380/455
f 426/284/426 425/283/425 65/41/65
f 426/284/426 65/41/65 458/381/458
f 428/41/428 426/284/426 458/381/458
f 428/41/428 458/381/458 459/286/459
f 460/42/460 428/41/428 459/286/459
f 460/42/460 459/286/459 461/42/461
f 65/41/65 461/42/461 459/286/459
f 65/41/65 459/286/459 458/381/458
f 42/36/42 315/285/315 313/284/313
f 42/36/42 313/284/313 462/283/462
f 318/35/318 42/36/42 462/283/462
f 318/35/318 462/283/462 319/287/319
f 320/288/320 319/287/319 462/283/462
f 320/288/320 462/283/462 311/282/311
f 313/284/313 311/282/311 462/283/462
f 258/221/258 256/238/256 304/275/304
f 258/221/258 304/275/304 306/277/306
f 270/241/270 258/221/258 306/277/306
f 270/241/270 306/277/306 271/242/271
f 271/242/271 306/277/306 437/277/437
f 271/242/271 437/277/437 463/242/463
f 233/220/233 271/242/271 463/242/463
f 233/220/233 463/242/463 464/219/464
f 230/218/230 233/220/233 464/219/464
f 230/218/230 464/219/464 69/1/69
f 49/2/49 230/218/230 69/1/69
f 273/244/273 233/220/233 235/222/235
f 273/244/273 235/222/235 237/224/237
f 275/246/275 273/244/273 237/224/237
f 275/246/275 237/224/237 465/382/465
f 255/224/255 275/246/275 465/382/465
f 255/224/255 465/382/465 253/236/253
f 466/383/466 255/224/255 257/222/257
f 466/383/466 257/222/257 301/272/301
f 467/384/467 466/383/466 301/272/301
f 467/384/467 301/272/301 300/271/300
f 279/250/279 467/384/467 300/271/300
f 279/250/279 300/271/300 281/252/281
f 281/252/281 300/271/300 299/270/299
f 281/252/281 299/270/299 283/254/283
f 283/254/283 299/270/299 298/269/298
f 283/254/283 298/269/298 468/385/468
f 285/256/285 283/254/283 468/385/468
f 285/256/285 468/385/468 297/268/297
f 469/386/469 285/256/285 297/268/297
f 469/386/469 297/268/297 295/266/295
f 293/264/293 469/386/469 295/266/295
f 298/269/298 297/268/297 468/385/468
f 287/258/287 285/256/285 469/386/469
f 287/258/287 469/386/469 470/387/470
f 289/260/289 287/258/287 470/387/470
f 289/260/289 470/387/470 291/262/291
f 293/264/293 291/262/291 470/387/470
f 293/264/293 470/387/470 469/386/469
f 467/384/467 279/250/279 277/248/277
f 467/384/467 277/248/277 466/383/466
f 466/383/466 277/248/277 275/246/275
f 466/383/466 275/246/275 255/224/255
f 465/382/465 237/224/237 471/236/471
f 465/382/465 471/236/471 472/388/472
f 473/226/473 465/382/465 472/388/472
f 473/226/473 472/388/472 474/228/474
f 475/389/475 473/226/473 474/228/474
f 475/389/475 474/228/474 476/390/476
f 245/232/245 475/389/475 476/390/476
f 245/232/245 476/390/476 243/230/243
f 471/236/471 237/224/237 239/226/239
f 471/236/471 239/226/239 241/228/241
f 477/391/477 471/236/471 241/228/241
f 477/391/477 241/228/241 478/392/478
f 479/393/479 477/391/477 478/392/478
f 479/393/479 478/392/478 480/394/480
f 474/228/474 479/393/479 480/394/480
f 474/228/474 480/394/480 481/395/481
f 482/396/482 474/228/474 481/395/481
f 482/396/482 481/395/481 483/397/483
f 241/228/241 482/396/482 483/397/483
f 241/228/241 483/397/483 480/394/480
f 478/392/478 241/228/241 480/394/480
f 481/395/481 480/394/480 483/397/483
f 477/391/477 479/393/479 474/228/474
f 477/391/477 474/228/474 472/388/472
f 471/236/471 477/391/477 472/388/472
f 476/390/476 474/228/474 484/398/484
f 476/390/476 484/398/484 243/230/243
f 241/228/241 243/230/243 484/398/484
f 241/228/241 484/398/484 482/396/482
f 474/228/474 482/396/482 484/398/484
f 485/399/485 475/389/475 245/232/245
f 485/399/485 245/232/245 486/400/486
f 487/401/487 485/399/485 486/400/486
f 487/401/487 486/400/486 488/402/488
f 465/382/465 487/401/487 488/402/488
f 465/382/465 488/402/488 489/388/489
f 253/236/253 465/382/465 489/388/489
f 253/236/253 489/388/489 490/391/490
f 251/228/251 253/236/253 490/391/490
f 251/228/251 490/391/490 491/392/491
f 492/394/492 251/228/251 491/392/491
f 492/394/492 491/392/491 493/393/493
f 494/228/494 492/394/492 493/393/493
f 494/228/494 493/393/493 490/391/490
f 489/388/489 494/228/494 490/391/490
f 494/228/494 489/388/489 488/402/488
f 494/228/494 488/402/488 486/400/486
f 495/390/495 494/228/494 486/400/486
f 495/390/495 486/400/486 245/232/245
f 496/230/496 495/390/495 245/232/245
f 496/230/496 245/232/245 247/231/247
f 249/229/249 496/230/496 247/231/247
f 491/392/491 490/391/490 493/393/493
f 487/401/487 465/382/465 473/226/473
f 487/401/487 473/226/473 485/399/485
f 475/389/475 485/399/485 473/226/473
f 496/230/496 249/229/249 497/398/497
f 496/230/496 497/398/497 495/390/495
f 494/228/494 495/390/495 497/398/497
f 494/228/494 497/398/497 498/396/498
f 499/395/499 494/228/494 498/396/498
f 499/395/499 498/396/498 500/397/500
f 492/394/492 499/395/499 500/397/500
f 492/394/492 500/397/500 251/228/251
f 251/228/251 500/397/500 498/396/498
f 251/228/251 498/396/498 497/398/497
f 249/229/249 251/228/251 497/398/497
f 499/395/499 492/394/492 494/228/494
f 501/239/501 69/1/69 464/219/464
f 501/239/501 464/219/464 502/241/502
f 231/1/231 501/239/501 502/241/502
f 231/1/231 502/241/502 232/219/232
f 234/221/234 232/219/232 502/241/502
f 234/221/234 502/241/502 437/277/437
f 503/275/503 234/221/234 437/277/437
f 503/275/503 437/277/437 436/276/436
f 434/234/434 503/275/503 436/276/436
f 503/275/503 434/234/434 236/223/236
f 503/275/503 236/223/236 234/221/234
f 463/242/463 437/277/437 502/241/502
f 463/242/463 502/241/502 464/219/464
f 501/239/501 231/1/231 504/39/504
f 501/239/501 504/39/504 505/240/505
f 68/39/68 501/239/501 505/240/505
f 68/39/68 505/240/505 504/39/504
f 501/239/501 68/39/68 69/1/69
f 506/403/506 343/306/343 349/312/349
f 506/403/506 349/312/349 347/310/347
f 345/308/345 506/403/506 347/310/347
f 506/403/506 345/308/345 343/306/343
