# Blender 4.4.0
# www.blender.org
mtllib LuzFaro.mtl
o Sphere
v 30.126526 22.158823 32.475517
v 30.126526 22.100576 32.417271
v 30.126526 22.024473 32.385746
v 30.126526 21.983288 32.381691
v 30.126526 21.942102 32.385746
v 30.126526 21.865999 32.417271
v 30.134562 22.190346 32.552410
v 30.142286 22.178331 32.513565
v 30.149408 22.158823 32.477768
v 30.155649 22.132568 32.446392
v 30.160770 22.100576 32.420643
v 30.164577 22.064077 32.401508
v 30.166922 22.024473 32.389725
v 30.167711 21.983288 32.385746
v 30.166922 21.942102 32.389725
v 30.164577 21.902498 32.401508
v 30.160770 21.865999 32.420643
v 30.155649 21.834007 32.446392
v 30.149408 21.807753 32.477768
v 30.142286 21.788244 32.513565
v 30.134562 21.776230 32.552410
v 30.142286 22.190346 32.554752
v 30.157442 22.178331 32.518166
v 30.171410 22.158823 32.484444
v 30.183653 22.132568 32.454887
v 30.193701 22.100576 32.430630
v 30.201166 22.064077 32.412605
v 30.205763 22.024473 32.401508
v 30.207315 21.983288 32.397758
v 30.205763 21.942102 32.401508
v 30.201166 21.902498 32.412605
v 30.193701 21.865999 32.430630
v 30.183653 21.834007 32.454887
v 30.171410 21.807753 32.484444
v 30.157442 21.788244 32.518166
v 30.142286 21.776230 32.554752
v 30.149408 22.190346 32.558559
v 30.171410 22.178331 32.525631
v 30.191689 22.158823 32.495281
v 30.209461 22.132568 32.468681
v 30.224049 22.100576 32.446854
v 30.234886 22.064077 32.430630
v 30.241560 22.024473 32.420643
v 30.243814 21.983288 32.417271
v 30.241560 21.942102 32.420643
v 30.234886 21.902498 32.430630
v 30.224049 21.865999 32.446854
v 30.209461 21.834007 32.468681
v 30.191689 21.807753 32.495281
v 30.171410 21.788244 32.525631
v 30.149408 21.776230 32.558559
v 30.155649 22.190346 32.563683
v 30.183653 22.178331 32.535679
v 30.209461 22.158823 32.509869
v 30.232082 22.132568 32.487247
v 30.250648 22.100576 32.468681
v 30.264442 22.064077 32.454887
v 30.272938 22.024473 32.446392
v 30.275806 21.983288 32.443523
v 30.272938 21.942102 32.446392
v 30.264442 21.902498 32.454887
v 30.250648 21.865999 32.468681
v 30.232082 21.834007 32.487247
v 30.209461 21.807753 32.509869
v 30.183653 21.788244 32.535679
v 30.155649 21.776230 32.563683
v 30.160770 22.190346 32.569923
v 30.193701 22.178331 32.547920
v 30.224049 22.158823 32.527641
v 30.250648 22.132568 32.509869
v 30.272478 22.100576 32.495281
v 30.288698 22.064077 32.484444
v 30.298687 22.024473 32.477768
v 30.302061 21.983288 32.475517
v 30.298687 21.942102 32.477768
v 30.288698 21.902498 32.484444
v 30.272478 21.865999 32.495281
v 30.250648 21.834007 32.509869
v 30.224049 21.807753 32.527641
v 30.193701 21.788244 32.547920
v 30.160770 21.776230 32.569923
v 30.126526 22.194401 32.592804
v 30.164577 22.190346 32.577042
v 30.201166 22.178331 32.561886
v 30.234886 22.158823 32.547920
v 30.264442 22.132568 32.535679
v 30.288698 22.100576 32.525631
v 30.306723 22.064077 32.518166
v 30.317822 22.024473 32.513565
v 30.321569 21.983288 32.512012
v 30.317822 21.942102 32.513565
v 30.306723 21.902498 32.518166
v 30.288698 21.865999 32.525631
v 30.264442 21.834007 32.535679
v 30.234886 21.807753 32.547920
v 30.201166 21.788244 32.561886
v 30.164577 21.776230 32.577042
v 30.166922 22.190346 32.584770
v 30.205763 22.178331 32.577042
v 30.241560 22.158823 32.569923
v 30.272938 22.132568 32.563683
v 30.298687 22.100576 32.558559
v 30.317822 22.064077 32.554752
v 30.329605 22.024473 32.552410
v 30.333584 21.983288 32.551617
v 30.329605 21.942102 32.552410
v 30.317822 21.902498 32.554752
v 30.298687 21.865999 32.558559
v 30.272938 21.834007 32.563683
v 30.241560 21.807753 32.569923
v 30.205763 21.788244 32.577042
v 30.166922 21.776230 32.584770
v 30.167711 22.190346 32.592804
v 30.207315 22.178331 32.592804
v 30.243814 22.158823 32.592804
v 30.275806 22.132568 32.592804
v 30.302061 22.100576 32.592804
v 30.321569 22.064077 32.592804
v 30.333584 22.024473 32.592804
v 30.337639 21.983288 32.592804
v 30.333584 21.942102 32.592804
v 30.321569 21.902498 32.592804
v 30.302061 21.865999 32.592804
v 30.275806 21.834007 32.592804
v 30.243814 21.807753 32.592804
v 30.207315 21.788244 32.592804
v 30.167711 21.776230 32.592804
v 30.166922 22.190346 32.600838
v 30.205763 22.178331 32.608566
v 30.241560 22.158823 32.615685
v 30.272938 22.132568 32.621925
v 30.298687 22.100576 32.627048
v 30.317822 22.064077 32.630856
v 30.329605 22.024473 32.633198
v 30.333584 21.983288 32.633991
v 30.329605 21.942102 32.633198
v 30.317822 21.902498 32.630856
v 30.298687 21.865999 32.627048
v 30.272938 21.834007 32.621925
v 30.241560 21.807753 32.615685
v 30.205763 21.788244 32.608566
v 30.166922 21.776230 32.600838
v 30.164577 22.190346 32.608566
v 30.201166 22.178331 32.623722
v 30.234886 22.158823 32.637688
v 30.264442 22.132568 32.649929
v 30.288698 22.100576 32.659977
v 30.306723 22.064077 32.667442
v 30.317822 22.024473 32.672043
v 30.321569 21.983288 32.673595
v 30.317822 21.942102 32.672043
v 30.306723 21.902498 32.667442
v 30.288698 21.865999 32.659977
v 30.264442 21.834007 32.649929
v 30.234886 21.807753 32.637688
v 30.201166 21.788244 32.623722
v 30.164577 21.776230 32.608566
v 30.160770 22.190346 32.615685
v 30.193701 22.178331 32.637688
v 30.224049 22.158823 32.657967
v 30.250648 22.132568 32.675739
v 30.272478 22.100576 32.690327
v 30.288698 22.064077 32.701164
v 30.298687 22.024473 32.707840
v 30.302061 21.983288 32.710091
v 30.298687 21.942102 32.707840
v 30.288698 21.902498 32.701164
v 30.272478 21.865999 32.690327
v 30.250648 21.834007 32.675739
v 30.224049 21.807753 32.657967
v 30.193701 21.788244 32.637688
v 30.160770 21.776230 32.615685
v 30.155649 22.190346 32.621925
v 30.183653 22.178331 32.649929
v 30.209461 22.158823 32.675739
v 30.232082 22.132568 32.698360
v 30.250648 22.100576 32.716927
v 30.264442 22.064077 32.730721
v 30.272938 22.024473 32.739216
v 30.275806 21.983288 32.742085
v 30.272938 21.942102 32.739216
v 30.264442 21.902498 32.730721
v 30.250648 21.865999 32.716927
v 30.232082 21.834007 32.698360
v 30.209461 21.807753 32.675739
v 30.183653 21.788244 32.649929
v 30.155649 21.776230 32.621925
v 30.149408 22.190346 32.627048
v 30.171410 22.178331 32.659977
v 30.191689 22.158823 32.690327
v 30.209461 22.132568 32.716927
v 30.224047 22.100576 32.738754
v 30.234886 22.064077 32.754978
v 30.241560 22.024473 32.764965
v 30.243814 21.983288 32.768337
v 30.241560 21.942102 32.764965
v 30.234886 21.902498 32.754978
v 30.224047 21.865999 32.738754
v 30.209461 21.834007 32.716927
v 30.191689 21.807753 32.690327
v 30.171410 21.788244 32.659977
v 30.149408 21.776230 32.627048
v 30.142286 22.190346 32.630856
v 30.157442 22.178331 32.667442
v 30.171410 22.158823 32.701164
v 30.183653 22.132568 32.730721
v 30.193701 22.100576 32.754978
v 30.201166 22.064077 32.773003
v 30.205763 22.024473 32.784100
v 30.207315 21.983288 32.787849
v 30.205763 21.942102 32.784100
v 30.201166 21.902498 32.773003
v 30.193701 21.865999 32.754978
v 30.183653 21.834007 32.730721
v 30.171410 21.807753 32.701164
v 30.157442 21.788244 32.667442
v 30.142286 21.776230 32.630856
v 30.134562 22.190346 32.633198
v 30.142286 22.178331 32.672043
v 30.149408 22.158823 32.707840
v 30.155649 22.132568 32.739216
v 30.160770 22.100576 32.764965
v 30.164577 22.064077 32.784100
v 30.166922 22.024473 32.795883
v 30.167711 21.983288 32.799862
v 30.166922 21.942102 32.795883
v 30.164577 21.902498 32.784100
v 30.160770 21.865999 32.764965
v 30.155649 21.834007 32.739216
v 30.149408 21.807753 32.707840
v 30.142286 21.788244 32.672043
v 30.134562 21.776230 32.633198
v 30.126526 22.190346 32.633991
v 30.126526 22.178331 32.673595
v 30.126526 22.158823 32.710091
v 30.126526 22.132568 32.742085
v 30.126526 22.100576 32.768337
v 30.126526 22.064077 32.787849
v 30.126526 22.024473 32.799862
v 30.126526 21.983288 32.803917
v 30.126526 21.942102 32.799862
v 30.126526 21.902498 32.787849
v 30.126526 21.865999 32.768337
v 30.126526 21.834007 32.742085
v 30.126526 21.807753 32.710091
v 30.126526 21.788244 32.673595
v 30.126526 21.776230 32.633991
v 30.118490 22.190346 32.633198
v 30.110765 22.178331 32.672043
v 30.103643 22.158823 32.707840
v 30.097403 22.132568 32.739216
v 30.092281 22.100576 32.764965
v 30.088474 22.064077 32.784100
v 30.086130 22.024473 32.795883
v 30.085340 21.983288 32.799862
v 30.086130 21.942102 32.795883
v 30.088474 21.902498 32.784100
v 30.092281 21.865999 32.764965
v 30.097403 21.834007 32.739216
v 30.103643 21.807753 32.707840
v 30.110765 21.788244 32.672043
v 30.118490 21.776230 32.633198
v 30.110765 22.190346 32.630856
v 30.095610 22.178331 32.667442
v 30.081642 22.158823 32.701164
v 30.069399 22.132568 32.730721
v 30.059351 22.100576 32.754978
v 30.051886 22.064077 32.773003
v 30.047289 22.024473 32.784100
v 30.045736 21.983288 32.787846
v 30.047289 21.942102 32.784100
v 30.051886 21.902498 32.773003
v 30.059351 21.865999 32.754978
v 30.069399 21.834007 32.730721
v 30.081642 21.807753 32.701164
v 30.095610 21.788244 32.667442
v 30.110765 21.776230 32.630856
v 30.103643 22.190346 32.627048
v 30.081642 22.178331 32.659977
v 30.061363 22.158823 32.690327
v 30.043591 22.132568 32.716927
v 30.029003 22.100576 32.738754
v 30.018166 22.064077 32.754978
v 30.011492 22.024473 32.764965
v 30.009237 21.983288 32.768337
v 30.011492 21.942102 32.764965
v 30.018166 21.902498 32.754978
v 30.029003 21.865999 32.738754
v 30.043591 21.834007 32.716927
v 30.061363 21.807753 32.690327
v 30.081642 21.788244 32.659977
v 30.103643 21.776230 32.627048
v 30.097403 22.190346 32.621925
v 30.069399 22.178331 32.649929
v 30.043591 22.158823 32.675739
v 30.020969 22.132568 32.698360
v 30.002403 22.100576 32.716927
v 29.988609 22.064077 32.730721
v 29.980114 22.024473 32.739216
v 29.977245 21.983288 32.742085
v 29.980114 21.942102 32.739216
v 29.988609 21.902498 32.730721
v 30.002403 21.865999 32.716927
v 30.020969 21.834007 32.698360
v 30.043591 21.807753 32.675739
v 30.069399 21.788244 32.649929
v 30.097403 21.776230 32.621925
v 30.126526 21.772175 32.592804
v 30.092281 22.190346 32.615685
v 30.059351 22.178331 32.637688
v 30.029005 22.158823 32.657967
v 30.002403 22.132568 32.675739
v 29.980574 22.100576 32.690327
v 29.964354 22.064077 32.701164
v 29.954365 22.024473 32.707840
v 29.950991 21.983288 32.710091
v 29.954365 21.942102 32.707840
v 29.964354 21.902498 32.701164
v 29.980574 21.865999 32.690327
v 30.002403 21.834007 32.675739
v 30.029005 21.807753 32.657967
v 30.059351 21.788244 32.637688
v 30.092281 21.776230 32.615685
v 30.088474 22.190346 32.608566
v 30.051886 22.178331 32.623722
v 30.018166 22.158823 32.637688
v 29.988609 22.132568 32.649929
v 29.964354 22.100576 32.659977
v 29.946329 22.064077 32.667442
v 29.935230 22.024473 32.672043
v 29.931482 21.983288 32.673592
v 29.935230 21.942102 32.672043
v 29.946329 21.902498 32.667442
v 29.964354 21.865999 32.659977
v 29.988609 21.834007 32.649929
v 30.018166 21.807753 32.637688
v 30.051886 21.788244 32.623722
v 30.088474 21.776230 32.608566
v 30.086130 22.190346 32.600838
v 30.047289 22.178331 32.608566
v 30.011492 22.158823 32.615685
v 29.980114 22.132568 32.621925
v 29.954365 22.100576 32.627048
v 29.935230 22.064077 32.630856
v 29.923447 22.024473 32.633198
v 29.919468 21.983288 32.633991
v 29.923447 21.942102 32.633198
v 29.935230 21.902498 32.630856
v 29.954365 21.865999 32.627048
v 29.980114 21.834007 32.621925
v 30.011492 21.807753 32.615685
v 30.047289 21.788244 32.608566
v 30.086130 21.776230 32.600838
v 30.085340 22.190346 32.592804
v 30.045736 22.178331 32.592804
v 30.009237 22.158823 32.592804
v 29.977245 22.132568 32.592804
v 29.950991 22.100576 32.592804
v 29.931482 22.064077 32.592804
v 29.919468 22.024473 32.592804
v 29.915413 21.983288 32.592804
v 29.919468 21.942102 32.592804
v 29.931482 21.902498 32.592804
v 29.950991 21.865999 32.592804
v 29.977245 21.834007 32.592804
v 30.009237 21.807753 32.592804
v 30.045736 21.788244 32.592804
v 30.085340 21.776230 32.592804
v 30.086130 22.190346 32.584770
v 30.047289 22.178331 32.577042
v 30.011492 22.158823 32.569923
v 29.980114 22.132568 32.563683
v 29.954365 22.100576 32.558559
v 29.935230 22.064077 32.554752
v 29.923447 22.024473 32.552410
v 29.919468 21.983288 32.551617
v 29.923447 21.942102 32.552410
v 29.935230 21.902498 32.554752
v 29.954365 21.865999 32.558559
v 29.980114 21.834007 32.563683
v 30.011492 21.807753 32.569923
v 30.047289 21.788244 32.577042
v 30.086130 21.776230 32.584770
v 30.088474 22.190346 32.577042
v 30.051886 22.178331 32.561886
v 30.018166 22.158823 32.547920
v 29.988609 22.132568 32.535679
v 29.964354 22.100576 32.525631
v 29.946329 22.064077 32.518166
v 29.935230 22.024473 32.513565
v 29.931482 21.983288 32.512012
v 29.935230 21.942102 32.513565
v 29.946329 21.902498 32.518166
v 29.964354 21.865999 32.525631
v 29.988609 21.834007 32.535679
v 30.018166 21.807753 32.547920
v 30.051886 21.788244 32.561886
v 30.088474 21.776230 32.577042
v 30.092281 22.190346 32.569923
v 30.059351 22.178331 32.547920
v 30.029005 22.158823 32.527641
v 30.002403 22.132568 32.509869
v 29.980574 22.100576 32.495281
v 29.964354 22.064077 32.484444
v 29.954365 22.024473 32.477768
v 29.950991 21.983288 32.475517
v 29.954365 21.942102 32.477768
v 29.964354 21.902498 32.484444
v 29.980574 21.865999 32.495281
v 30.002403 21.834007 32.509869
v 30.029005 21.807753 32.527641
v 30.059351 21.788244 32.547920
v 30.092281 21.776230 32.569923
v 30.097403 22.190346 32.563683
v 30.069399 22.178331 32.535679
v 30.043591 22.158823 32.509869
v 30.020969 22.132568 32.487247
v 30.002405 22.100576 32.468681
v 29.988609 22.064077 32.454887
v 29.980114 22.024473 32.446392
v 29.977245 21.983288 32.443523
v 29.980114 21.942102 32.446392
v 29.988609 21.902498 32.454887
v 30.002405 21.865999 32.468681
v 30.020969 21.834007 32.487247
v 30.043591 21.807753 32.509869
v 30.069399 21.788244 32.535679
v 30.097403 21.776230 32.563683
v 30.103643 22.190346 32.558559
v 30.081642 22.178331 32.525631
v 30.061363 22.158823 32.495281
v 30.043591 22.132568 32.468681
v 30.029005 22.100576 32.446854
v 30.018166 22.064077 32.430630
v 30.011492 22.024473 32.420643
v 30.009237 21.983288 32.417271
v 30.011492 21.942102 32.420643
v 30.018166 21.902498 32.430630
v 30.029005 21.865999 32.446854
v 30.043591 21.834007 32.468681
v 30.061363 21.807753 32.495281
v 30.081642 21.788244 32.525631
v 30.103643 21.776230 32.558559
v 30.110765 22.190346 32.554752
v 30.095610 22.178331 32.518166
v 30.081642 22.158823 32.484444
v 30.069399 22.132568 32.454887
v 30.059351 22.100576 32.430630
v 30.051886 22.064077 32.412609
v 30.047289 22.024473 32.401508
v 30.045736 21.983288 32.397762
v 30.047289 21.942102 32.401508
v 30.051886 21.902498 32.412609
v 30.059351 21.865999 32.430630
v 30.069399 21.834007 32.454887
v 30.081642 21.807753 32.484444
v 30.095610 21.788244 32.518166
v 30.110765 21.776230 32.554752
v 30.118490 22.190346 32.552410
v 30.110765 22.178331 32.513565
v 30.103643 22.158823 32.477768
v 30.097403 22.132568 32.446392
v 30.092281 22.100576 32.420643
v 30.088474 22.064077 32.401508
v 30.086132 22.024473 32.389725
v 30.085340 21.983288 32.385746
v 30.086132 21.942102 32.389725
v 30.088474 21.902498 32.401508
v 30.092281 21.865999 32.420643
v 30.097403 21.834007 32.446392
v 30.103643 21.807753 32.477768
v 30.110765 21.788244 32.513565
v 30.118490 21.776230 32.552410
v 30.126526 22.190346 32.551617
v 30.126526 22.178331 32.512012
v 30.126526 22.132568 32.443523
v 30.126526 22.064077 32.397762
v 30.126526 21.902498 32.397762
v 30.126526 21.834007 32.443523
v 30.126526 21.807753 32.475517
v 30.126526 21.788244 32.512012
v 30.126526 21.776230 32.551617
vn 0.0287 0.9565 -0.2902
vn 0.0938 -0.2891 -0.9527
vn 0.0464 0.8810 -0.4709
vn 0.0865 -0.4696 -0.8786
vn 0.0623 0.7715 -0.6332
vn 0.0759 -0.6325 -0.7708
vn 0.0759 0.6325 -0.7708
vn 0.0623 -0.7715 -0.6332
vn 0.0865 0.4696 -0.8786
vn 0.0464 -0.8810 -0.4709
vn 0.0938 0.2891 -0.9527
vn 0.0287 -0.9565 -0.2902
vn 0.0975 0.0974 -0.9905
vn 0.0093 0.9951 -0.0980
vn 0.0097 -0.9951 -0.0980
vn 0.0975 -0.0974 -0.9905
vn 0.0287 0.9951 -0.0943
vn 0.0286 -0.9951 -0.0943
vn 0.2889 -0.0975 -0.9524
vn 0.0847 0.9565 -0.2790
vn 0.2779 -0.2891 -0.9161
vn 0.1374 0.8810 -0.4528
vn 0.2563 -0.4696 -0.8449
vn 0.1847 0.7715 -0.6088
vn 0.2249 -0.6325 -0.7412
vn 0.2248 0.6325 -0.7412
vn 0.1847 -0.7715 -0.6088
vn 0.2563 0.4696 -0.8449
vn 0.1374 -0.8810 -0.4528
vn 0.2779 0.2891 -0.9161
vn 0.0846 -0.9566 -0.2790
vn 0.2889 0.0975 -0.9524
vn 0.3651 0.6326 -0.6830
vn 0.2999 -0.7715 -0.5611
vn 0.4162 0.4697 -0.7786
vn 0.2230 -0.8810 -0.4172
vn 0.4513 0.2889 -0.8443
vn 0.1376 -0.9565 -0.2571
vn 0.4692 0.0975 -0.8777
vn 0.0462 0.9952 -0.0868
vn 0.0464 -0.9952 -0.0868
vn 0.4692 -0.0975 -0.8777
vn 0.1374 0.9566 -0.2571
vn 0.4513 -0.2889 -0.8443
vn 0.2230 0.8810 -0.4173
vn 0.4162 -0.4697 -0.7786
vn 0.2999 0.7715 -0.5611
vn 0.3651 -0.6326 -0.6831
vn 0.6314 -0.0976 -0.7693
vn 0.1850 0.9565 -0.2254
vn 0.6074 -0.2889 -0.7400
vn 0.3002 0.8810 -0.3657
vn 0.5600 -0.4696 -0.6825
vn 0.4036 0.7715 -0.4918
vn 0.4913 -0.6326 -0.5987
vn 0.4913 0.6326 -0.5987
vn 0.4036 -0.7715 -0.4918
vn 0.5601 0.4697 -0.6825
vn 0.3001 -0.8810 -0.3657
vn 0.6074 0.2889 -0.7400
vn 0.1850 -0.9566 -0.2254
vn 0.6313 0.0976 -0.7693
vn 0.0624 0.9951 -0.0761
vn 0.0626 -0.9951 -0.0761
vn 0.4918 -0.7715 -0.4036
vn 0.6825 0.4696 -0.5601
vn 0.3658 -0.8810 -0.3002
vn 0.7400 0.2890 -0.6073
vn 0.2254 -0.9565 -0.1850
vn 0.7694 0.0976 -0.6313
vn 0.0760 0.9951 -0.0625
vn 0.0759 -0.9952 -0.0625
vn 0.7693 -0.0976 -0.6314
vn 0.2253 0.9566 -0.1850
vn 0.7400 -0.2890 -0.6073
vn 0.3657 0.8810 -0.3002
vn 0.6825 -0.4696 -0.5601
vn 0.4918 0.7715 -0.4036
vn 0.5987 -0.6326 -0.4913
vn 0.5987 0.6326 -0.4913
vn 0.2570 0.9566 -0.1375
vn 0.8443 -0.2890 -0.4512
vn 0.4173 0.8810 -0.2230
vn 0.7786 -0.4696 -0.4162
vn 0.5611 0.7715 -0.2999
vn 0.6831 -0.6326 -0.3651
vn 0.6831 0.6326 -0.3651
vn 0.5611 -0.7716 -0.2999
vn 0.7787 0.4695 -0.4162
vn 0.4173 -0.8810 -0.2230
vn 0.8443 0.2891 -0.4512
vn 0.2571 -0.9566 -0.1375
vn 0.8777 0.0975 -0.4692
vn 0.0870 0.9951 -0.0465
vn 0.0870 -0.9951 -0.0464
vn 0.8777 -0.0975 -0.4692
vn 0.8448 0.4697 -0.2563
vn 0.4528 -0.8810 -0.1373
vn 0.9161 0.2890 -0.2779
vn 0.2791 -0.9565 -0.0846
vn 0.9524 0.0976 -0.2889
vn 0.0941 0.9951 -0.0286
vn 0.0940 -0.9952 -0.0286
vn 0.9524 -0.0976 -0.2889
vn 0.2791 0.9565 -0.0846
vn 0.9161 -0.2890 -0.2779
vn 0.4528 0.8810 -0.1373
vn 0.8448 -0.4697 -0.2563
vn 0.6088 0.7715 -0.1847
vn 0.7412 -0.6325 -0.2249
vn 0.7412 0.6325 -0.2249
vn 0.6089 -0.7715 -0.1847
vn 0.9527 -0.2890 -0.0939
vn 0.4709 0.8810 -0.0465
vn 0.8786 -0.4696 -0.0865
vn 0.6331 0.7715 -0.0624
vn 0.7708 -0.6326 -0.0759
vn 0.7708 0.6326 -0.0759
vn 0.6331 -0.7715 -0.0624
vn 0.8786 0.4696 -0.0865
vn 0.4709 -0.8810 -0.0465
vn 0.9527 0.2890 -0.0939
vn 0.2902 -0.9565 -0.0286
vn 0.9904 0.0975 -0.0976
vn 0.0980 0.9951 -0.0096
vn 0.0980 -0.9951 -0.0096
vn 0.9904 -0.0975 -0.0975
vn 0.2901 0.9566 -0.0286
vn 0.4709 -0.8810 0.0465
vn 0.9527 0.2890 0.0939
vn 0.2902 -0.9565 0.0286
vn 0.9904 0.0975 0.0976
vn 0.0980 0.9951 0.0096
vn 0.0980 -0.9951 0.0096
vn 0.9904 -0.0975 0.0975
vn 0.2902 0.9565 0.0286
vn 0.9527 -0.2890 0.0939
vn 0.4709 0.8810 0.0465
vn 0.8786 -0.4696 0.0865
vn 0.6332 0.7715 0.0624
vn 0.7708 -0.6326 0.0759
vn 0.7708 0.6326 0.0759
vn 0.6331 -0.7715 0.0624
vn 0.8786 0.4696 0.0865
vn 0.8449 -0.4696 0.2563
vn 0.6088 0.7715 0.1847
vn 0.7412 -0.6325 0.2249
vn 0.7412 0.6325 0.2249
vn 0.6088 -0.7715 0.1847
vn 0.8449 0.4696 0.2563
vn 0.4528 -0.8810 0.1373
vn 0.9161 0.2890 0.2779
vn 0.2791 -0.9565 0.0846
vn 0.9524 0.0976 0.2889
vn 0.0940 0.9952 0.0286
vn 0.0940 -0.9952 0.0286
vn 0.9524 -0.0976 0.2889
vn 0.2792 0.9565 0.0846
vn 0.9161 -0.2890 0.2779
vn 0.4528 0.8810 0.1373
vn 0.2571 -0.9566 0.1375
vn 0.8777 0.0975 0.4692
vn 0.0871 0.9951 0.0464
vn 0.0869 -0.9951 0.0464
vn 0.8777 -0.0975 0.4692
vn 0.2570 0.9566 0.1375
vn 0.8443 -0.2891 0.4512
vn 0.4173 0.8809 0.2230
vn 0.7786 -0.4696 0.4162
vn 0.5611 0.7715 0.2999
vn 0.6831 -0.6326 0.3651
vn 0.6830 0.6326 0.3651
vn 0.5610 -0.7716 0.2999
vn 0.7786 0.4696 0.4162
vn 0.4173 -0.8810 0.2230
vn 0.8443 0.2890 0.4512
vn 0.4919 0.7715 0.4036
vn 0.5987 -0.6326 0.4913
vn 0.5987 0.6326 0.4913
vn 0.4918 -0.7715 0.4036
vn 0.6825 0.4696 0.5601
vn 0.3657 -0.8810 0.3002
vn 0.7400 0.2890 0.6074
vn 0.2254 -0.9565 0.1851
vn 0.7693 0.0976 0.6313
vn 0.0760 0.9951 0.0625
vn 0.0759 -0.9952 0.0625
vn 0.7693 -0.0976 0.6314
vn 0.2254 0.9565 0.1851
vn 0.7400 -0.2890 0.6073
vn 0.3657 0.8810 0.3002
vn 0.6825 -0.4696 0.5601
vn 0.6314 0.0976 0.7693
vn 0.0624 0.9951 0.0761
vn 0.0626 -0.9951 0.0761
vn 0.6314 -0.0975 0.7693
vn 0.1851 0.9565 0.2254
vn 0.6074 -0.2890 0.7400
vn 0.3001 0.8810 0.3657
vn 0.5601 -0.4697 0.6825
vn 0.4036 0.7715 0.4918
vn 0.4913 -0.6326 0.5987
vn 0.4913 0.6326 0.5987
vn 0.4036 -0.7715 0.4918
vn 0.5601 0.4697 0.6825
vn 0.3001 -0.8810 0.3657
vn 0.6074 0.2889 0.7400
vn 0.1849 -0.9566 0.2254
vn 0.3651 -0.6325 0.6831
vn 0.3652 0.6325 0.6831
vn 0.2999 -0.7715 0.5612
vn 0.4162 0.4697 0.7786
vn 0.2230 -0.8810 0.4172
vn 0.4513 0.2889 0.8443
vn 0.1376 -0.9565 0.2571
vn 0.4692 0.0975 0.8777
vn 0.0462 0.9952 0.0867
vn 0.0463 -0.9952 0.0867
vn 0.4692 -0.0975 0.8777
vn 0.1374 0.9566 0.2571
vn 0.4513 -0.2889 0.8443
vn 0.2230 0.8810 0.4173
vn 0.4162 -0.4697 0.7786
vn 0.3000 0.7715 0.5611
vn 0.0287 0.9951 0.0943
vn 0.0286 -0.9951 0.0943
vn 0.2889 -0.0974 0.9524
vn 0.0847 0.9565 0.2790
vn 0.2779 -0.2890 0.9161
vn 0.1374 0.8810 0.4528
vn 0.2562 -0.4696 0.8449
vn 0.1847 0.7715 0.6088
vn 0.2249 -0.6325 0.7412
vn 0.2248 0.6325 0.7412
vn 0.1847 -0.7715 0.6088
vn 0.2563 0.4696 0.8449
vn 0.1374 -0.8810 0.4528
vn 0.2779 0.2890 0.9161
vn 0.0846 -0.9566 0.2790
vn 0.2889 0.0974 0.9524
vn 0.0759 0.6325 0.7708
vn 0.0623 -0.7715 0.6332
vn 0.0865 0.4696 0.8786
vn 0.0464 -0.8809 0.4709
vn 0.0939 0.2891 0.9527
vn 0.0287 -0.9565 0.2902
vn 0.0975 0.0975 0.9904
vn 0.0093 0.9951 0.0980
vn 0.0097 -0.9951 0.0980
vn 0.0975 -0.0975 0.9904
vn 0.0287 0.9565 0.2902
vn 0.0939 -0.2891 0.9527
vn 0.0464 0.8809 0.4709
vn 0.0865 -0.4696 0.8786
vn 0.0623 0.7715 0.6332
vn 0.0759 -0.6325 0.7708
vn -0.0975 -0.0975 0.9904
vn -0.0287 0.9566 0.2901
vn -0.0939 -0.2891 0.9527
vn -0.0464 0.8810 0.4709
vn -0.0866 -0.4696 0.8786
vn -0.0623 0.7715 0.6332
vn -0.0759 -0.6325 0.7708
vn -0.0759 0.6325 0.7708
vn -0.0623 -0.7715 0.6332
vn -0.0865 0.4696 0.8786
vn -0.0464 -0.8810 0.4709
vn -0.0939 0.2891 0.9527
vn -0.0287 -0.9566 0.2901
vn -0.0975 0.0975 0.9904
vn -0.0093 0.9951 0.0979
vn -0.0097 -0.9951 0.0979
vn -0.1847 -0.7715 0.6088
vn -0.2562 0.4695 0.8449
vn -0.1374 -0.8810 0.4528
vn -0.2779 0.2890 0.9161
vn -0.0846 -0.9566 0.2790
vn -0.2889 0.0974 0.9524
vn -0.0287 0.9951 0.0943
vn -0.0286 -0.9951 0.0943
vn -0.2889 -0.0974 0.9524
vn -0.0847 0.9565 0.2790
vn -0.2779 -0.2890 0.9161
vn -0.1374 0.8810 0.4528
vn -0.2562 -0.4696 0.8449
vn -0.1847 0.7715 0.6088
vn -0.2249 -0.6325 0.7412
vn -0.2248 0.6325 0.7412
vn -0.4513 -0.2889 0.8443
vn -0.2230 0.8810 0.4172
vn -0.4162 -0.4698 0.7785
vn -0.2999 0.7715 0.5611
vn -0.3651 -0.6325 0.6831
vn -0.3652 0.6325 0.6831
vn -0.2999 -0.7715 0.5611
vn -0.4162 0.4697 0.7786
vn -0.2230 -0.8810 0.4172
vn -0.4513 0.2889 0.8443
vn -0.1375 -0.9565 0.2571
vn -0.4691 0.0976 0.8777
vn -0.0462 0.9952 0.0867
vn -0.0463 -0.9952 0.0867
vn -0.4691 -0.0976 0.8777
vn -0.1374 0.9566 0.2571
vn -0.3001 -0.8810 0.3657
vn -0.6074 0.2889 0.7400
vn -0.1850 -0.9565 0.2254
vn -0.6313 0.0976 0.7694
vn -0.0624 0.9951 0.0761
vn -0.0626 -0.9951 0.0761
vn -0.6313 -0.0975 0.7694
vn -0.1850 0.9566 0.2254
vn -0.6074 -0.2890 0.7400
vn -0.3002 0.8810 0.3657
vn -0.5600 -0.4696 0.6825
vn -0.4036 0.7715 0.4918
vn -0.4913 -0.6326 0.5987
vn -0.4913 0.6326 0.5987
vn -0.4037 -0.7715 0.4918
vn -0.5601 0.4696 0.6825
vn -0.3657 0.8810 0.3002
vn -0.6825 -0.4696 0.5601
vn -0.4919 0.7715 0.4036
vn -0.5987 -0.6326 0.4913
vn -0.5987 0.6326 0.4913
vn -0.4918 -0.7715 0.4036
vn -0.6825 0.4696 0.5601
vn -0.3658 -0.8810 0.3002
vn -0.7400 0.2890 0.6073
vn -0.2255 -0.9565 0.1850
vn -0.7694 0.0976 0.6313
vn -0.0761 0.9951 0.0625
vn -0.0759 -0.9952 0.0625
vn -0.7693 -0.0976 0.6314
vn -0.2254 0.9565 0.1850
vn -0.7400 -0.2890 0.6073
vn -0.8443 0.2891 0.4512
vn -0.2571 -0.9566 0.1375
vn -0.8777 0.0975 0.4691
vn -0.0869 0.9951 0.0464
vn -0.0869 -0.9951 0.0464
vn -0.8777 -0.0975 0.4691
vn -0.2570 0.9566 0.1375
vn -0.8443 -0.2890 0.4512
vn -0.4173 0.8810 0.2230
vn -0.7786 -0.4696 0.4161
vn -0.5611 0.7715 0.2999
vn -0.6831 -0.6326 0.3651
vn -0.6831 0.6326 0.3651
vn -0.5610 -0.7715 0.2999
vn -0.7787 0.4696 0.4161
vn -0.4173 -0.8810 0.2230
vn -0.8448 -0.4696 0.2563
vn -0.6088 0.7716 0.1846
vn -0.7412 -0.6325 0.2249
vn -0.7412 0.6326 0.2249
vn -0.6089 -0.7715 0.1846
vn -0.8448 0.4696 0.2563
vn -0.4528 -0.8810 0.1374
vn -0.9161 0.2890 0.2779
vn -0.2791 -0.9565 0.0847
vn -0.9523 0.0976 0.2890
vn -0.0941 0.9951 0.0286
vn -0.0940 -0.9952 0.0286
vn -0.9523 -0.0976 0.2890
vn -0.2791 0.9565 0.0846
vn -0.9161 -0.2890 0.2779
vn -0.4528 0.8810 0.1374
vn -0.2903 -0.9565 0.0286
vn -0.9904 0.0975 0.0975
vn -0.0980 0.9951 0.0096
vn -0.0980 -0.9951 0.0096
vn -0.9904 -0.0975 0.0975
vn -0.2902 0.9565 0.0286
vn -0.9527 -0.2890 0.0939
vn -0.4708 0.8810 0.0464
vn -0.8786 -0.4696 0.0865
vn -0.6331 0.7715 0.0624
vn -0.7708 -0.6326 0.0759
vn -0.7708 0.6326 0.0759
vn -0.6332 -0.7715 0.0624
vn -0.8786 0.4696 0.0865
vn -0.4708 -0.8810 0.0464
vn -0.9527 0.2890 0.0939
vn -0.6331 0.7715 -0.0624
vn -0.7708 -0.6326 -0.0759
vn -0.7708 0.6326 -0.0759
vn -0.6331 -0.7715 -0.0624
vn -0.8786 0.4696 -0.0865
vn -0.4709 -0.8810 -0.0464
vn -0.9527 0.2890 -0.0939
vn -0.2902 -0.9566 -0.0286
vn -0.9904 0.0975 -0.0975
vn -0.0980 0.9951 -0.0096
vn -0.0980 -0.9951 -0.0096
vn -0.9904 -0.0975 -0.0975
vn -0.2901 0.9566 -0.0286
vn -0.9527 -0.2890 -0.0939
vn -0.4709 0.8810 -0.0464
vn -0.8786 -0.4696 -0.0865
vn -0.9523 0.0976 -0.2890
vn -0.0940 0.9952 -0.0286
vn -0.0940 -0.9952 -0.0286
vn -0.9524 -0.0976 -0.2890
vn -0.2792 0.9565 -0.0846
vn -0.9161 -0.2890 -0.2779
vn -0.4528 0.8810 -0.1374
vn -0.8448 -0.4696 -0.2563
vn -0.6088 0.7715 -0.1846
vn -0.7412 -0.6325 -0.2249
vn -0.7412 0.6325 -0.2249
vn -0.6088 -0.7715 -0.1846
vn -0.8448 0.4696 -0.2563
vn -0.4528 -0.8810 -0.1374
vn -0.9161 0.2890 -0.2779
vn -0.2791 -0.9565 -0.0847
vn -0.6831 -0.6326 -0.3651
vn -0.6830 0.6326 -0.3651
vn -0.5610 -0.7715 -0.2999
vn -0.7787 0.4696 -0.4161
vn -0.4173 -0.8810 -0.2230
vn -0.8443 0.2890 -0.4512
vn -0.2571 -0.9566 -0.1375
vn -0.8777 0.0975 -0.4691
vn -0.0872 0.9951 -0.0465
vn -0.0870 -0.9951 -0.0464
vn -0.8777 -0.0975 -0.4692
vn -0.2570 0.9566 -0.1375
vn -0.8443 -0.2891 -0.4512
vn -0.4173 0.8810 -0.2230
vn -0.7787 -0.4696 -0.4161
vn -0.5611 0.7715 -0.2999
vn -0.0759 -0.9952 -0.0625
vn -0.7693 -0.0976 -0.6314
vn -0.2253 0.9566 -0.1849
vn -0.7400 -0.2890 -0.6073
vn -0.3658 0.8810 -0.3002
vn -0.6825 -0.4695 -0.5601
vn -0.4919 0.7715 -0.4036
vn -0.5987 -0.6326 -0.4914
vn -0.5987 0.6326 -0.4914
vn -0.4918 -0.7715 -0.4036
vn -0.6825 0.4696 -0.5601
vn -0.3657 -0.8810 -0.3002
vn -0.7400 0.2890 -0.6074
vn -0.2253 -0.9566 -0.1849
vn -0.7694 0.0976 -0.6313
vn -0.0760 0.9951 -0.0625
vn -0.4037 -0.7715 -0.4918
vn -0.5600 0.4696 -0.6825
vn -0.3001 -0.8810 -0.3657
vn -0.6074 0.2889 -0.7400
vn -0.1849 -0.9566 -0.2254
vn -0.6313 0.0976 -0.7694
vn -0.0624 0.9951 -0.0761
vn -0.0626 -0.9951 -0.0761
vn -0.6313 -0.0975 -0.7694
vn -0.1851 0.9565 -0.2254
vn -0.6074 -0.2890 -0.7400
vn -0.3001 0.8810 -0.3657
vn -0.5600 -0.4696 -0.6825
vn -0.4036 0.7715 -0.4918
vn -0.4913 -0.6326 -0.5987
vn -0.4913 0.6326 -0.5987
vn -0.1374 0.9565 -0.2572
vn -0.4513 -0.2890 -0.8443
vn -0.2230 0.8810 -0.4173
vn -0.4162 -0.4696 -0.7786
vn -0.3000 0.7715 -0.5611
vn -0.3651 -0.6325 -0.6831
vn -0.3652 0.6325 -0.6831
vn -0.2999 -0.7715 -0.5612
vn -0.4162 0.4697 -0.7786
vn -0.2230 -0.8810 -0.4173
vn -0.4512 0.2890 -0.8443
vn -0.1376 -0.9565 -0.2572
vn -0.4691 0.0975 -0.8777
vn -0.0462 0.9952 -0.0868
vn -0.0464 -0.9952 -0.0868
vn -0.4691 -0.0975 -0.8777
vn -0.2563 0.4696 -0.8449
vn -0.1374 -0.8810 -0.4528
vn -0.2779 0.2891 -0.9161
vn -0.0846 -0.9566 -0.2790
vn -0.2889 0.0975 -0.9524
vn -0.0287 0.9951 -0.0943
vn -0.0286 -0.9951 -0.0943
vn -0.2889 -0.0975 -0.9524
vn -0.0847 0.9565 -0.2790
vn -0.2779 -0.2891 -0.9161
vn -0.1374 0.8810 -0.4528
vn -0.2562 -0.4696 -0.8449
vn -0.1847 0.7715 -0.6088
vn -0.2249 -0.6325 -0.7412
vn -0.2248 0.6325 -0.7412
vn -0.1847 -0.7716 -0.6088
vn -0.0938 -0.2891 -0.9527
vn -0.0464 0.8810 -0.4709
vn -0.0865 -0.4696 -0.8786
vn -0.0623 0.7715 -0.6332
vn -0.0759 -0.6325 -0.7708
vn -0.0759 0.6326 -0.7708
vn -0.0623 -0.7715 -0.6332
vn -0.0865 0.4696 -0.8786
vn -0.0464 -0.8810 -0.4709
vn -0.0938 0.2891 -0.9527
vn -0.0287 -0.9566 -0.2901
vn -0.0975 0.0975 -0.9904
vn -0.0093 0.9952 -0.0979
vn -0.0097 -0.9951 -0.0979
vn -0.0975 -0.0975 -0.9904
vn -0.0287 0.9566 -0.2901
vt 0.441503 0.452452
vt 0.478611 0.467958
vt 0.475328 0.475571
vt 0.435063 0.467386
vt 0.467772 0.281860
vt 0.463248 0.241322
vt 0.505553 0.241322
vt 0.507623 0.281860
vt 0.407303 0.440654
vt 0.397954 0.462334
vt 0.474525 0.318297
vt 0.510390 0.318297
vt 0.476882 0.033726
vt 0.486120 0.002483
vt 0.510084 0.002483
vt 0.507382 0.033726
vt 0.483248 0.349234
vt 0.513749 0.349234
vt 0.469523 0.070405
vt 0.505388 0.070405
vt 0.097360 0.406753
vt 0.098421 0.372639
vt 0.128131 0.369577
vt 0.120702 0.404348
vt 0.464326 0.111108
vt 0.504177 0.111108
vt 0.099216 0.445358
vt 0.115295 0.443701
vt 0.461491 0.154273
vt 0.503797 0.154273
vt 0.103920 0.486970
vt 0.112117 0.486125
vt 0.461127 0.198241
vt 0.504261 0.198241
vt 0.517203 0.486575
vt 0.111291 0.529989
vt 0.473655 0.483653
vt 0.120328 0.486961
vt 0.548223 0.197354
vt 0.548670 0.240452
vt 0.431780 0.483239
vt 0.548238 0.281040
vt 0.393189 0.485349
vt 0.546943 0.317559
vt 0.534508 0.001990
vt 0.538468 0.033099
vt 0.544834 0.348606
vt 0.541940 0.069667
vt 0.157891 0.372609
vt 0.144084 0.406730
vt 0.544792 0.110289
vt 0.131401 0.445342
vt 0.546914 0.153403
vt 0.568944 0.031869
vt 0.577776 0.068220
vt 0.186558 0.381616
vt 0.166608 0.413807
vt 0.584611 0.108681
vt 0.146916 0.450216
vt 0.589185 0.151697
vt 0.128237 0.489446
vt 0.591322 0.195614
vt 0.473655 0.491893
vt 0.590941 0.238745
vt 0.431780 0.499402
vt 0.588056 0.279432
vt 0.393189 0.508815
vt 0.582778 0.316113
vt 0.359363 0.489902
vt 0.359363 0.519768
vt 0.575310 0.347376
vt 0.631903 0.193088
vt 0.630742 0.236267
vt 0.475328 0.499975
vt 0.435063 0.515256
vt 0.625548 0.277098
vt 0.397954 0.531830
vt 0.616520 0.314012
vt 0.365428 0.549061
vt 0.205999 0.354882
vt 0.237128 0.372093
vt 0.213031 0.396253
vt 0.597638 0.030082
vt 0.611518 0.066120
vt 0.187408 0.425307
vt 0.622102 0.106347
vt 0.161243 0.458138
vt 0.628986 0.149219
vt 0.135541 0.493485
vt 0.236293 0.415958
vt 0.205684 0.440789
vt 0.641869 0.063446
vt 0.655827 0.103377
vt 0.173832 0.468802
vt 0.664787 0.146065
vt 0.141959 0.498921
vt 0.668406 0.189872
vt 0.478611 0.507588
vt 0.666543 0.233114
vt 0.441503 0.530189
vt 0.659272 0.274128
vt 0.407303 0.553510
vt 0.646871 0.311339
vt 0.377327 0.576654
vt 0.264480 0.395263
vt 0.623450 0.027809
vt 0.483377 0.514439
vt 0.450851 0.543628
vt 0.696969 0.229406
vt 0.687933 0.270635
vt 0.420875 0.573021
vt 0.289164 0.379501
vt 0.314192 0.410878
vt 0.287005 0.423502
vt 0.394600 0.601488
vt 0.255448 0.439973
vt 0.352726 0.598733
vt 0.373038 0.627934
vt 0.220735 0.459657
vt 0.667662 0.060302
vt 0.684487 0.099884
vt 0.184198 0.481799
vt 0.695213 0.142357
vt 0.147244 0.505547
vt 0.699427 0.186091
vt 0.357015 0.651344
vt 0.398890 0.652767
vt 0.385740 0.678937
vt 0.231981 0.481187
vt 0.191945 0.496629
vt 0.902239 0.004890
vt 0.943374 0.014346
vt 0.946575 0.043040
vt 0.905637 0.035352
vt 0.151193 0.513107
vt 0.858952 0.001990
vt 0.862417 0.033049
vt 0.489443 0.520266
vt 0.815177 0.005760
vt 0.818575 0.036221
vt 0.462749 0.555058
vt 0.772597 0.016052
vt 0.775797 0.044747
vt 0.438148 0.589614
vt 0.332894 0.446681
vt 0.303836 0.455724
vt 0.416586 0.622607
vt 0.269762 0.467375
vt 0.821364 0.072053
vt 0.778424 0.078499
vt 0.476740 0.564038
vt 0.458460 0.602651
vt 0.735727 0.058297
vt 0.738091 0.088674
vt 0.442438 0.639199
vt 0.314327 0.490690
vt 0.278683 0.497112
vt 0.429288 0.672278
vt 0.238990 0.504551
vt 0.983658 0.055820
vt 0.986022 0.086196
vt 0.949202 0.076793
vt 0.196773 0.512722
vt 0.908426 0.071183
vt 0.153654 0.521312
vt 0.865260 0.069583
vt 0.496575 0.524844
vt 0.241494 0.528851
vt 0.198498 0.529460
vt 0.951154 0.114306
vt 0.910498 0.111007
vt 0.154534 0.529845
vt 0.867373 0.110187
vt 0.504501 0.527997
vt 0.823436 0.111877
vt 0.492286 0.570224
vt 0.780376 0.116013
vt 0.481029 0.611631
vt 0.739848 0.122435
vt 0.471163 0.650629
vt 0.318074 0.527058
vt 0.281870 0.528040
vt 0.463065 0.685718
vt 0.987778 0.119958
vt 0.781578 0.155846
vt 0.740930 0.158284
vt 0.504989 0.616209
vt 0.501657 0.656456
vt 0.703408 0.130897
vt 0.704328 0.161383
vt 0.498923 0.692569
vt 0.279200 0.558971
vt 0.239396 0.553153
vt 0.988860 0.155806
vt 0.952356 0.154139
vt 0.197053 0.546200
vt 0.911774 0.153294
vt 0.153797 0.538378
vt 0.868674 0.153302
vt 0.512914 0.529605
vt 0.824713 0.154163
vt 0.508790 0.573377
vt 0.192493 0.562298
vt 0.151473 0.546585
vt 0.912205 0.196417
vt 0.869114 0.197270
vt 0.521492 0.529605
vt 0.825143 0.197287
vt 0.525616 0.573377
vt 0.781984 0.196467
vt 0.529417 0.616209
vt 0.741295 0.194842
vt 0.532749 0.656456
vt 0.704639 0.192474
vt 0.535483 0.692569
vt 0.270775 0.588716
vt 0.232777 0.576524
vt 0.989226 0.192365
vt 0.952762 0.194761
vt 0.553377 0.611631
vt 0.563243 0.650629
vt 0.740930 0.230705
vt 0.704328 0.222973
vt 0.571341 0.685718
vt 0.256919 0.616133
vt 0.221891 0.598065
vt 0.988860 0.228228
vt 0.952356 0.234609
vt 0.184995 0.577136
vt 0.911774 0.238720
vt 0.147650 0.554149
vt 0.868674 0.240402
vt 0.529905 0.527997
vt 0.824713 0.239590
vt 0.542120 0.570224
vt 0.781578 0.236316
vt 0.910498 0.278578
vt 0.867373 0.281041
vt 0.537831 0.524844
vt 0.142476 0.560780
vt 0.823436 0.279448
vt 0.557666 0.564038
vt 0.780376 0.273861
vt 0.575946 0.602651
vt 0.739848 0.264494
vt 0.591968 0.639199
vt 0.703408 0.251709
vt 0.605118 0.672278
vt 0.238165 0.640167
vt 0.207156 0.616949
vt 0.987778 0.262017
vt 0.951154 0.272155
vt 0.174845 0.590143
vt 0.266682 0.658905
vt 0.239717 0.682103
vt 0.215233 0.659895
vt 0.617820 0.622606
vt 0.635516 0.652767
vt 0.189138 0.632449
vt 0.986022 0.292435
vt 0.949202 0.305953
vt 0.162435 0.600820
vt 0.908426 0.314458
vt 0.136149 0.566223
vt 0.865260 0.317624
vt 0.544963 0.520266
vt 0.821364 0.315328
vt 0.571657 0.555058
vt 0.778424 0.307659
vt 0.596258 0.589614
vt 0.738091 0.294912
vt 0.551029 0.514439
vt 0.128912 0.570269
vt 0.688395 0.553294
vt 0.685661 0.509423
vt 0.722221 0.506945
vt 0.724253 0.550863
vt 0.583555 0.543628
vt 0.696492 0.596155
vt 0.730269 0.593865
vt 0.613531 0.573021
vt 0.709642 0.636359
vt 0.740040 0.634298
vt 0.639806 0.601488
vt 0.727338 0.672361
vt 0.753190 0.670608
vt 0.661368 0.627934
vt 0.189005 0.674559
vt 0.168531 0.643970
vt 0.696492 0.425369
vt 0.709642 0.388416
vt 0.740040 0.386355
vt 0.730269 0.423079
vt 0.148240 0.608756
vt 0.688395 0.466228
vt 0.724253 0.463797
vt 0.657079 0.576654
vt 0.681680 0.598733
vt 0.160488 0.683595
vt 0.146125 0.651070
vt 0.773817 0.384936
vt 0.767801 0.421502
vt 0.132807 0.613646
vt 0.764095 0.462123
vt 0.121045 0.572762
vt 0.762844 0.505238
vt 0.555795 0.507588
vt 0.764095 0.549189
vt 0.592903 0.530189
vt 0.767801 0.592288
vt 0.627103 0.553510
vt 0.773817 0.632879
vt 0.781915 0.669401
vt 0.805970 0.504368
vt 0.806392 0.548336
vt 0.559077 0.499975
vt 0.599343 0.515255
vt 0.807643 0.591484
vt 0.636451 0.531830
vt 0.809675 0.632155
vt 0.668978 0.549061
vt 0.812409 0.668786
vt 0.781915 0.353830
vt 0.812409 0.353214
vt 0.809675 0.384212
vt 0.130779 0.686657
vt 0.122783 0.653475
vt 0.807643 0.420698
vt 0.116728 0.615303
vt 0.806392 0.461270
vt 0.112848 0.573607
vt 0.815741 0.699968
vt 0.843501 0.668786
vt 0.840169 0.699968
vt 0.846235 0.384212
vt 0.848267 0.420698
vt 0.099400 0.651094
vt 0.100622 0.613663
vt 0.849518 0.461270
vt 0.104637 0.572771
vt 0.849940 0.504368
vt 0.560751 0.491893
vt 0.849518 0.548336
vt 0.602626 0.499402
vt 0.848267 0.591484
vt 0.641217 0.508815
vt 0.846235 0.632155
vt 0.675043 0.519768
vt 0.843501 0.353214
vt 0.891815 0.549189
vt 0.888110 0.592288
vt 0.602625 0.483239
vt 0.641217 0.485349
vt 0.882093 0.632879
vt 0.675043 0.489902
vt 0.873995 0.669401
vt 0.873995 0.353830
vt 0.882093 0.384936
vt 0.864129 0.700452
vt 0.888110 0.421502
vt 0.076876 0.644017
vt 0.085107 0.608788
vt 0.891815 0.462123
vt 0.096728 0.570285
vt 0.893066 0.505238
vt 0.560751 0.483653
vt 0.056077 0.632516
vt 0.070780 0.600866
vt 0.925641 0.423079
vt 0.931658 0.463797
vt 0.089424 0.566247
vt 0.933689 0.506945
vt 0.559077 0.475571
vt 0.931658 0.550863
vt 0.599343 0.467385
vt 0.925641 0.593865
vt 0.636451 0.462333
vt 0.915870 0.634298
vt 0.668977 0.460609
vt 0.902721 0.670608
vt 0.902721 0.355037
vt 0.915870 0.386355
vt 0.886698 0.701400
vt 0.592903 0.452452
vt 0.627103 0.440654
vt 0.959418 0.596155
vt 0.946268 0.636359
vt 0.657079 0.433016
vt 0.928572 0.672361
vt 0.928572 0.356789
vt 0.946268 0.388416
vt 0.045878 0.659981
vt 0.022617 0.640276
vt 0.037801 0.617034
vt 0.959418 0.425369
vt 0.058191 0.590202
vt 0.967515 0.466228
vt 0.083006 0.560811
vt 0.970249 0.509423
vt 0.555795 0.467958
vt 0.967515 0.553294
vt 0.988143 0.428283
vt 0.998010 0.469322
vt 0.047825 0.577205
vt 0.077721 0.554185
vt 0.001990 0.159768
vt 0.005754 0.116548
vt 0.036278 0.113759
vt 0.033112 0.156925
vt 0.551029 0.461106
vt 0.004884 0.203610
vt 0.035408 0.200821
vt 0.583555 0.439012
vt 0.998010 0.556388
vt 0.988143 0.599069
vt 0.613531 0.421142
vt 0.972120 0.638982
vt 0.639805 0.408183
vt 0.950558 0.674591
vt 0.681680 0.429832
vt 0.661368 0.400631
vt 0.003462 0.616261
vt 0.022750 0.598166
vt 0.972120 0.391039
vt 0.055824 0.284094
vt 0.043076 0.243761
vt 0.076875 0.241809
vt 0.086241 0.282337
vt 0.596257 0.404549
vt 0.617820 0.387064
vt 0.073159 0.320271
vt 0.099027 0.318777
vt 0.058301 0.036163
vt 0.076312 0.004715
vt 0.102180 0.003221
vt 0.088719 0.034407
vt 0.094417 0.350901
vt 0.114741 0.349727
vt 0.044783 0.072983
vt 0.078581 0.071031
vt 0.011504 0.576636
vt 0.040078 0.562375
vt 0.072158 0.111687
vt 0.073772 0.546625
vt 0.069695 0.154812
vt 0.544963 0.455280
vt 0.071288 0.198749
vt 0.571657 0.427583
vt 0.035250 0.546282
vt 0.071310 0.538420
vt 0.112015 0.110411
vt 0.110334 0.153511
vt 0.537831 0.450702
vt 0.111145 0.197473
vt 0.557666 0.418603
vt 0.114420 0.240607
vt 0.575946 0.391512
vt 0.120031 0.281255
vt 0.591968 0.370471
vt 0.127763 0.317857
vt 0.130916 0.002301
vt 0.122508 0.033325
vt 0.137319 0.349004
vt 0.116126 0.069829
vt 0.004494 0.553272
vt 0.553377 0.382532
vt 0.563243 0.359041
vt 0.155894 0.280890
vt 0.158262 0.317546
vt 0.161415 0.001990
vt 0.158371 0.032960
vt 0.161282 0.348760
vt 0.155975 0.069423
vt 0.001990 0.528972
vt 0.033525 0.529544
vt 0.154319 0.109980
vt 0.070431 0.529887
vt 0.153466 0.153072
vt 0.529905 0.447548
vt 0.153449 0.197042
vt 0.542120 0.412417
vt 0.154269 0.240201
vt 0.197442 0.110411
vt 0.197434 0.153511
vt 0.521492 0.445941
vt 0.071168 0.521353
vt 0.196572 0.197473
vt 0.525616 0.409264
vt 0.194890 0.240607
vt 0.529417 0.377954
vt 0.192452 0.281255
vt 0.532749 0.353214
vt 0.189352 0.317857
vt 0.192505 0.002301
vt 0.194929 0.033325
vt 0.185709 0.349004
vt 0.196596 0.069829
vt 0.004088 0.504670
vt 0.034970 0.512804
vt 0.228301 0.282337
vt 0.219839 0.318777
vt 0.222992 0.003221
vt 0.230778 0.034407
vt 0.209663 0.349727
vt 0.236429 0.071031
vt 0.010708 0.481299
vt 0.039530 0.496706
vt 0.239728 0.111687
vt 0.073492 0.513147
vt 0.240549 0.154812
vt 0.512914 0.445941
vt 0.238859 0.198749
vt 0.508790 0.409264
vt 0.234723 0.241809
vt 0.504989 0.377954
vt 0.501657 0.353214
vt 0.077315 0.505582
vt 0.281153 0.156925
vt 0.278683 0.200821
vt 0.504501 0.447548
vt 0.492286 0.412417
vt 0.272236 0.243761
vt 0.481029 0.382532
vt 0.262062 0.284094
vt 0.471163 0.359041
vt 0.248551 0.320271
vt 0.251703 0.004715
vt 0.264539 0.036163
vt 0.232221 0.350901
vt 0.273943 0.072983
vt 0.021594 0.459758
vt 0.047028 0.481869
vt 0.279553 0.113759
vt 0.001990 0.440101
vt 0.020745 0.416067
vt 0.036329 0.440875
vt 0.294916 0.038528
vt 0.307695 0.075610
vt 0.057178 0.468861
vt 0.315384 0.116548
vt 0.082489 0.498951
vt 0.317686 0.159768
vt 0.496575 0.450702
vt 0.314514 0.203610
vt 0.476740 0.418603
vt 0.305989 0.246388
vt 0.458460 0.391512
vt 0.292439 0.286458
vt 0.442438 0.370471
vt 0.274384 0.322281
vt 0.277537 0.006726
vt 0.489443 0.455280
vt 0.462749 0.427583
vt 0.344976 0.207008
vt 0.334684 0.249589
vt 0.438148 0.404549
vt 0.318263 0.289339
vt 0.416586 0.387064
vt 0.296346 0.324731
vt 0.379390 0.066120
vt 0.400230 0.030082
vt 0.422256 0.031869
vt 0.405290 0.068220
vt 0.043676 0.396339
vt 0.054347 0.425375
vt 0.364176 0.106347
vt 0.392954 0.108681
vt 0.069589 0.458185
vt 0.355173 0.149219
vt 0.385723 0.151697
vt 0.088816 0.493508
vt 0.352726 0.193088
vt 0.383875 0.195614
vt 0.348745 0.163233
vt 0.435724 0.069667
vt 0.426771 0.110289
vt 0.074954 0.413853
vt 0.083783 0.450248
vt 0.421623 0.153403
vt 0.096053 0.489463
vt 0.420478 0.197354
vt 0.483377 0.461106
vt 0.387480 0.238745
vt 0.423379 0.240452
vt 0.450851 0.439013
vt 0.396400 0.279432
vt 0.430216 0.281040
vt 0.420875 0.421142
vt 0.410292 0.316113
vt 0.440726 0.317559
vt 0.394600 0.408183
vt 0.428623 0.347376
vt 0.454505 0.348606
vt 0.448138 0.033099
vt 0.069905 0.381675
vt 0.463536 0.001990
s 0
usemtl Material
f 475/1/1 474/2/1 7/3/1 8/4/1
f 478/5/2 5/6/2 15/7/2 16/8/2
f 1/9/3 475/1/3 8/4/3 9/10/3
f 6/11/4 478/5/4 16/8/4 17/12/4
f 476/13/5 1/14/5 9/15/5 10/16/5
f 479/17/6 6/11/6 17/12/6 18/18/6
f 2/19/7 476/13/7 10/16/7 11/20/7
f 480/21/8 479/22/8 18/23/8 19/24/8
f 477/25/9 2/19/9 11/20/9 12/26/9
f 481/27/10 480/21/10 19/24/10 20/28/10
f 3/29/11 477/25/11 12/26/11 13/30/11
f 482/31/12 481/27/12 20/28/12 21/32/12
f 4/33/13 3/29/13 13/30/13 14/34/13
f 474/2/14 82/35/14 7/3/14
f 308/36/15 482/31/15 21/32/15
f 5/6/16 4/33/16 14/34/16 15/7/16
f 7/3/17 82/35/17 22/37/17
f 308/36/18 21/32/18 36/38/18
f 15/7/19 14/34/19 29/39/19 30/40/19
f 8/4/20 7/3/20 22/37/20 23/41/20
f 16/8/21 15/7/21 30/40/21 31/42/21
f 9/10/22 8/4/22 23/41/22 24/43/22
f 17/12/23 16/8/23 31/42/23 32/44/23
f 10/16/24 9/15/24 24/45/24 25/46/24
f 18/18/25 17/12/25 32/44/25 33/47/25
f 11/20/26 10/16/26 25/46/26 26/48/26
f 19/24/27 18/23/27 33/49/27 34/50/27
f 12/26/28 11/20/28 26/48/28 27/51/28
f 20/28/29 19/24/29 34/50/29 35/52/29
f 13/30/30 12/26/30 27/51/30 28/53/30
f 21/32/31 20/28/31 35/52/31 36/38/31
f 14/34/32 13/30/32 28/53/32 29/39/32
f 26/48/33 25/46/33 40/54/33 41/55/33
f 34/50/34 33/49/34 48/56/34 49/57/34
f 27/51/35 26/48/35 41/55/35 42/58/35
f 35/52/36 34/50/36 49/57/36 50/59/36
f 28/53/37 27/51/37 42/58/37 43/60/37
f 36/38/38 35/52/38 50/59/38 51/61/38
f 29/39/39 28/53/39 43/60/39 44/62/39
f 22/37/40 82/35/40 37/63/40
f 308/36/41 36/38/41 51/61/41
f 30/40/42 29/39/42 44/62/42 45/64/42
f 23/41/43 22/37/43 37/63/43 38/65/43
f 31/42/44 30/40/44 45/64/44 46/66/44
f 24/43/45 23/41/45 38/65/45 39/67/45
f 32/44/46 31/42/46 46/66/46 47/68/46
f 25/69/47 24/43/47 39/67/47 40/70/47
f 33/47/48 32/44/48 47/68/48 48/71/48
f 45/64/49 44/62/49 59/72/49 60/73/49
f 38/65/50 37/63/50 52/74/50 53/75/50
f 46/66/51 45/64/51 60/73/51 61/76/51
f 39/67/52 38/65/52 53/75/52 54/77/52
f 47/68/53 46/66/53 61/76/53 62/78/53
f 40/70/54 39/67/54 54/77/54 55/79/54
f 48/56/55 47/80/55 62/81/55 63/82/55
f 41/55/56 40/54/56 55/83/56 56/84/56
f 49/57/57 48/56/57 63/82/57 64/85/57
f 42/58/58 41/55/58 56/84/58 57/86/58
f 50/59/59 49/57/59 64/85/59 65/87/59
f 43/60/60 42/58/60 57/86/60 58/88/60
f 51/61/61 50/59/61 65/87/61 66/89/61
f 44/62/62 43/60/62 58/88/62 59/72/62
f 37/63/63 82/35/63 52/74/63
f 308/36/64 51/61/64 66/89/64
f 64/85/65 63/82/65 78/90/65 79/91/65
f 57/86/66 56/84/66 71/92/66 72/93/66
f 65/87/67 64/85/67 79/91/67 80/94/67
f 58/88/68 57/86/68 72/93/68 73/95/68
f 66/89/69 65/87/69 80/94/69 81/96/69
f 59/72/70 58/88/70 73/95/70 74/97/70
f 52/74/71 82/35/71 67/98/71
f 308/36/72 66/89/72 81/96/72
f 60/73/73 59/72/73 74/97/73 75/99/73
f 53/75/74 52/74/74 67/98/74 68/100/74
f 61/76/75 60/73/75 75/99/75 76/101/75
f 54/77/76 53/75/76 68/100/76 69/102/76
f 62/78/77 61/76/77 76/101/77 77/103/77
f 55/79/78 54/77/78 69/102/78 70/104/78
f 63/82/79 62/81/79 77/105/79 78/90/79
f 56/84/80 55/83/80 70/106/80 71/92/80
f 68/100/81 67/98/81 83/107/81 84/108/81
f 76/101/82 75/99/82 91/109/82 92/110/82
f 69/102/83 68/100/83 84/108/83 85/111/83
f 77/105/84 76/112/84 92/113/84 93/114/84
f 70/104/85 69/102/85 85/111/85 86/115/85
f 78/90/86 77/105/86 93/114/86 94/116/86
f 71/117/87 70/104/87 86/115/87 87/118/87
f 79/91/88 78/90/88 94/116/88 95/119/88
f 72/93/89 71/92/89 87/120/89 88/121/89
f 80/94/90 79/91/90 95/119/90 96/122/90
f 73/95/91 72/93/91 88/121/91 89/123/91
f 81/96/92 80/94/92 96/122/92 97/124/92
f 74/97/93 73/95/93 89/123/93 90/125/93
f 67/98/94 82/35/94 83/107/94
f 308/36/95 81/96/95 97/124/95
f 75/99/96 74/97/96 90/125/96 91/109/96
f 88/126/97 87/118/97 102/127/97 103/128/97
f 96/122/98 95/119/98 110/129/98 111/130/98
f 89/131/99 88/132/99 103/133/99 104/134/99
f 97/124/100 96/122/100 111/130/100 112/135/100
f 90/136/101 89/131/101 104/134/101 105/137/101
f 83/107/102 82/35/102 98/138/102
f 308/36/103 97/124/103 112/135/103
f 91/139/104 90/136/104 105/137/104 106/140/104
f 84/108/105 83/107/105 98/138/105 99/141/105
f 92/142/106 91/139/106 106/140/106 107/143/106
f 85/111/107 84/108/107 99/141/107 100/144/107
f 93/114/108 92/113/108 107/145/108 108/146/108
f 86/115/109 85/111/109 100/144/109 101/147/109
f 94/116/110 93/114/110 108/146/110 109/148/110
f 87/118/111 86/115/111 101/147/111 102/127/111
f 95/119/112 94/116/112 109/148/112 110/129/112
f 107/143/113 106/140/113 121/149/113 122/150/113
f 100/144/114 99/141/114 114/151/114 115/152/114
f 108/153/115 107/143/115 122/150/115 123/154/115
f 101/147/116 100/144/116 115/152/116 116/155/116
f 109/148/117 108/146/117 123/156/117 124/157/117
f 102/127/118 101/147/118 116/155/118 117/158/118
f 110/129/119 109/148/119 124/157/119 125/159/119
f 103/133/120 102/160/120 117/161/120 118/162/120
f 111/130/121 110/129/121 125/159/121 126/163/121
f 104/134/122 103/133/122 118/162/122 119/164/122
f 112/135/123 111/130/123 126/163/123 127/165/123
f 105/137/124 104/134/124 119/164/124 120/166/124
f 98/138/125 82/35/125 113/167/125
f 308/36/126 112/135/126 127/165/126
f 106/140/127 105/137/127 120/166/127 121/149/127
f 99/141/128 98/138/128 113/167/128 114/151/128
f 126/163/129 125/159/129 140/168/129 141/169/129
f 119/164/130 118/162/130 133/170/130 134/171/130
f 127/165/131 126/163/131 141/169/131 142/172/131
f 120/166/132 119/164/132 134/171/132 135/173/132
f 113/167/133 82/35/133 128/174/133
f 308/36/134 127/165/134 142/172/134
f 121/149/135 120/166/135 135/173/135 136/175/135
f 114/151/136 113/167/136 128/174/136 129/176/136
f 122/150/137 121/149/137 136/175/137 137/177/137
f 115/152/138 114/151/138 129/176/138 130/178/138
f 123/154/139 122/150/139 137/177/139 138/179/139
f 116/155/140 115/152/140 130/178/140 131/180/140
f 124/157/141 123/156/141 138/181/141 139/182/141
f 117/158/142 116/155/142 131/180/142 132/183/142
f 125/159/143 124/157/143 139/182/143 140/168/143
f 118/162/144 117/161/144 132/184/144 133/170/144
f 138/179/145 137/177/145 152/185/145 153/186/145
f 131/180/146 130/178/146 145/187/146 146/188/146
f 139/189/147 138/179/147 153/186/147 154/190/147
f 132/183/148 131/180/148 146/188/148 147/191/148
f 140/168/149 139/182/149 154/192/149 155/193/149
f 133/170/150 132/184/150 147/194/150 148/195/150
f 141/169/151 140/168/151 155/193/151 156/196/151
f 134/171/152 133/170/152 148/195/152 149/197/152
f 142/172/153 141/169/153 156/196/153 157/198/153
f 135/173/154 134/171/154 149/197/154 150/199/154
f 128/174/155 82/35/155 143/200/155
f 308/36/156 142/172/156 157/198/156
f 136/175/157 135/173/157 150/199/157 151/201/157
f 129/176/158 128/174/158 143/200/158 144/202/158
f 137/177/159 136/175/159 151/201/159 152/185/159
f 130/178/160 129/176/160 144/202/160 145/187/160
f 157/198/161 156/196/161 171/203/161 172/204/161
f 150/199/162 149/197/162 164/205/162 165/206/162
f 143/200/163 82/35/163 158/207/163
f 308/36/164 157/198/164 172/204/164
f 151/201/165 150/199/165 165/206/165 166/208/165
f 144/202/166 143/200/166 158/207/166 159/209/166
f 152/185/167 151/201/167 166/208/167 167/210/167
f 145/187/168 144/202/168 159/209/168 160/211/168
f 153/186/169 152/185/169 167/210/169 168/212/169
f 146/188/170 145/187/170 160/211/170 161/213/170
f 154/190/171 153/186/171 168/212/171 169/214/171
f 147/191/172 146/188/172 161/213/172 162/215/172
f 155/193/173 154/192/173 169/216/173 170/217/173
f 148/195/174 147/194/174 162/218/174 163/219/174
f 156/196/175 155/193/175 170/217/175 171/203/175
f 149/197/176 148/195/176 163/219/176 164/205/176
f 161/213/177 160/211/177 175/220/177 176/221/177
f 169/214/178 168/212/178 183/222/178 184/223/178
f 162/215/179 161/213/179 176/221/179 177/224/179
f 170/217/180 169/216/180 184/225/180 185/226/180
f 163/219/181 162/218/181 177/227/181 178/228/181
f 171/203/182 170/217/182 185/226/182 186/229/182
f 164/205/183 163/219/183 178/228/183 179/230/183
f 172/204/184 171/203/184 186/229/184 187/231/184
f 165/206/185 164/205/185 179/230/185 180/232/185
f 158/207/186 82/35/186 173/233/186
f 308/36/187 172/204/187 187/231/187
f 166/208/188 165/206/188 180/232/188 181/234/188
f 159/209/189 158/207/189 173/233/189 174/235/189
f 167/210/190 166/208/190 181/234/190 182/236/190
f 160/211/191 159/209/191 174/235/191 175/220/191
f 168/212/192 167/210/192 182/236/192 183/222/192
f 180/232/193 179/230/193 194/237/193 195/238/193
f 173/233/194 82/35/194 188/239/194
f 308/36/195 187/231/195 202/240/195
f 181/234/196 180/232/196 195/238/196 196/241/196
f 174/235/197 173/233/197 188/239/197 189/242/197
f 182/236/198 181/234/198 196/241/198 197/243/198
f 175/220/199 174/235/199 189/242/199 190/244/199
f 183/222/200 182/236/200 197/243/200 198/245/200
f 176/221/201 175/220/201 190/244/201 191/246/201
f 184/223/202 183/222/202 198/245/202 199/247/202
f 177/224/203 176/221/203 191/246/203 192/248/203
f 185/226/204 184/225/204 199/249/204 200/250/204
f 178/228/205 177/227/205 192/251/205 193/252/205
f 186/229/206 185/226/206 200/250/206 201/253/206
f 179/230/207 178/228/207 193/252/207 194/237/207
f 187/231/208 186/229/208 201/253/208 202/240/208
f 199/249/209 198/254/209 213/255/209 214/256/209
f 192/248/210 191/246/210 206/257/210 207/258/210
f 200/250/211 199/249/211 214/256/211 215/259/211
f 193/252/212 192/251/212 207/260/212 208/261/212
f 201/253/213 200/250/213 215/259/213 216/262/213
f 194/237/214 193/252/214 208/261/214 209/263/214
f 202/240/215 201/253/215 216/262/215 217/264/215
f 195/238/216 194/237/216 209/263/216 210/265/216
f 188/239/217 82/35/217 203/266/217
f 308/36/218 202/240/218 217/264/218
f 196/241/219 195/238/219 210/265/219 211/267/219
f 189/242/220 188/239/220 203/266/220 204/268/220
f 197/243/221 196/241/221 211/267/221 212/269/221
f 190/244/222 189/242/222 204/268/222 205/270/222
f 198/245/223 197/243/223 212/269/223 213/271/223
f 191/246/224 190/244/224 205/270/224 206/257/224
f 203/266/225 82/35/225 218/272/225
f 308/36/226 217/264/226 232/273/226
f 211/274/227 210/275/227 225/276/227 226/277/227
f 204/268/228 203/266/228 218/272/228 219/278/228
f 212/279/229 211/274/229 226/277/229 227/280/229
f 205/270/230 204/268/230 219/278/230 220/281/230
f 213/282/231 212/279/231 227/280/231 228/283/231
f 206/257/232 205/270/232 220/281/232 221/284/232
f 214/285/233 213/282/233 228/283/233 229/286/233
f 207/258/234 206/257/234 221/284/234 222/287/234
f 215/259/235 214/256/235 229/288/235 230/289/235
f 208/290/236 207/291/236 222/292/236 223/293/236
f 216/262/237 215/259/237 230/289/237 231/294/237
f 209/295/238 208/290/238 223/293/238 224/296/238
f 217/264/239 216/262/239 231/294/239 232/273/239
f 210/275/240 209/295/240 224/296/240 225/276/240
f 222/287/241 221/284/241 236/297/241 237/298/241
f 230/289/242 229/288/242 244/299/242 245/300/242
f 223/293/243 222/292/243 237/301/243 238/302/243
f 231/294/244 230/289/244 245/300/244 246/303/244
f 224/296/245 223/293/245 238/302/245 239/304/245
f 232/273/246 231/294/246 246/303/246 247/305/246
f 225/276/247 224/296/247 239/304/247 240/306/247
f 218/272/248 82/35/248 233/307/248
f 308/36/249 232/273/249 247/305/249
f 226/277/250 225/276/250 240/306/250 241/308/250
f 219/278/251 218/272/251 233/307/251 234/309/251
f 227/280/252 226/277/252 241/308/252 242/310/252
f 220/281/253 219/278/253 234/309/253 235/311/253
f 228/283/254 227/280/254 242/310/254 243/312/254
f 221/284/255 220/281/255 235/311/255 236/297/255
f 229/286/256 228/283/256 243/312/256 244/313/256
f 241/308/257 240/306/257 255/314/257 256/315/257
f 234/309/258 233/307/258 248/316/258 249/317/258
f 242/310/259 241/308/259 256/315/259 257/318/259
f 235/311/260 234/309/260 249/317/260 250/319/260
f 243/312/261 242/310/261 257/318/261 258/320/261
f 236/297/262 235/311/262 250/319/262 251/321/262
f 244/313/263 243/312/263 258/320/263 259/322/263
f 237/301/264 236/323/264 251/324/264 252/325/264
f 245/300/265 244/299/265 259/326/265 260/327/265
f 238/302/266 237/301/266 252/325/266 253/328/266
f 246/303/267 245/300/267 260/327/267 261/329/267
f 239/304/268 238/302/268 253/328/268 254/330/268
f 247/305/269 246/303/269 261/329/269 262/331/269
f 240/306/270 239/304/270 254/330/270 255/314/270
f 233/307/271 82/35/271 248/316/271
f 308/36/272 247/305/272 262/331/272
f 260/332/273 259/322/273 274/333/273 275/334/273
f 253/328/274 252/325/274 267/335/274 268/336/274
f 261/329/275 260/327/275 275/337/275 276/338/275
f 254/330/276 253/328/276 268/336/276 269/339/276
f 262/331/277 261/329/277 276/338/277 277/340/277
f 255/314/278 254/330/278 269/339/278 270/341/278
f 248/316/279 82/35/279 263/342/279
f 308/36/280 262/331/280 277/340/280
f 256/315/281 255/314/281 270/341/281 271/343/281
f 249/317/282 248/316/282 263/342/282 264/344/282
f 257/318/283 256/315/283 271/343/283 272/345/283
f 250/319/284 249/317/284 264/344/284 265/346/284
f 258/320/285 257/318/285 272/345/285 273/347/285
f 251/321/286 250/319/286 265/346/286 266/348/286
f 259/322/287 258/320/287 273/347/287 274/333/287
f 252/325/288 251/324/288 266/349/288 267/335/288
f 272/345/289 271/343/289 286/350/289 287/351/289
f 265/346/290 264/344/290 279/352/290 280/353/290
f 273/347/291 272/345/291 287/351/291 288/354/291
f 266/348/292 265/346/292 280/353/292 281/355/292
f 274/333/293 273/347/293 288/354/293 289/356/293
f 267/335/294 266/349/294 281/357/294 282/358/294
f 275/334/295 274/333/295 289/356/295 290/359/295
f 268/336/296 267/335/296 282/358/296 283/360/296
f 276/338/297 275/337/297 290/361/297 291/362/297
f 269/339/298 268/336/298 283/360/298 284/363/298
f 277/340/299 276/338/299 291/362/299 292/364/299
f 270/341/300 269/339/300 284/363/300 285/365/300
f 263/342/301 82/35/301 278/366/301
f 308/36/302 277/340/302 292/364/302
f 271/343/303 270/341/303 285/365/303 286/350/303
f 264/344/304 263/342/304 278/366/304 279/352/304
f 291/362/305 290/361/305 305/367/305 306/368/305
f 284/363/306 283/360/306 298/369/306 299/370/306
f 292/364/307 291/362/307 306/368/307 307/371/307
f 285/365/308 284/363/308 299/370/308 300/372/308
f 278/366/309 82/35/309 293/373/309
f 308/36/310 292/364/310 307/371/310
f 286/350/311 285/365/311 300/372/311 301/374/311
f 279/352/312 278/366/312 293/373/312 294/375/312
f 287/351/313 286/350/313 301/374/313 302/376/313
f 280/353/314 279/352/314 294/375/314 295/377/314
f 288/354/315 287/351/315 302/376/315 303/378/315
f 281/355/316 280/353/316 295/377/316 296/379/316
f 289/356/317 288/354/317 303/378/317 304/380/317
f 282/358/318 281/357/318 296/381/318 297/382/318
f 290/359/319 289/356/319 304/380/319 305/383/319
f 283/360/320 282/358/320 297/382/320 298/369/320
f 295/377/321 294/375/321 310/384/321 311/385/321
f 303/378/322 302/376/322 318/386/322 319/387/322
f 296/379/323 295/377/323 311/385/323 312/388/323
f 304/380/324 303/378/324 319/387/324 320/389/324
f 297/382/325 296/381/325 312/390/325 313/391/325
f 305/367/326 304/392/326 320/393/326 321/394/326
f 298/369/327 297/382/327 313/391/327 314/395/327
f 306/368/328 305/367/328 321/394/328 322/396/328
f 299/370/329 298/369/329 314/395/329 315/397/329
f 307/371/330 306/368/330 322/396/330 323/398/330
f 300/372/331 299/370/331 315/397/331 316/399/331
f 293/373/332 82/35/332 309/400/332
f 308/36/333 307/371/333 323/398/333
f 301/374/334 300/372/334 316/399/334 317/401/334
f 294/375/335 293/373/335 309/400/335 310/384/335
f 302/376/336 301/374/336 317/401/336 318/386/336
f 315/397/337 314/395/337 329/402/337 330/403/337
f 323/398/338 322/396/338 337/404/338 338/405/338
f 316/406/339 315/407/339 330/408/339 331/409/339
f 309/400/340 82/35/340 324/410/340
f 308/36/341 323/398/341 338/405/341
f 317/411/342 316/406/342 331/409/342 332/412/342
f 310/384/343 309/400/343 324/410/343 325/413/343
f 318/386/344 317/401/344 332/414/344 333/415/344
f 311/385/345 310/384/345 325/413/345 326/416/345
f 319/387/346 318/386/346 333/415/346 334/417/346
f 312/388/347 311/385/347 326/416/347 327/418/347
f 320/389/348 319/387/348 334/417/348 335/419/348
f 313/420/349 312/388/349 327/418/349 328/421/349
f 321/394/350 320/393/350 335/422/350 336/423/350
f 314/395/351 313/391/351 328/424/351 329/402/351
f 322/396/352 321/394/352 336/423/352 337/404/352
f 334/425/353 333/426/353 348/427/353 349/428/353
f 327/418/354 326/416/354 341/429/354 342/430/354
f 335/431/355 334/425/355 349/428/355 350/432/355
f 328/433/356 327/434/356 342/435/356 343/436/356
f 336/437/357 335/431/357 350/432/357 351/438/357
f 329/439/358 328/433/358 343/436/358 344/440/358
f 337/404/359 336/423/359 351/441/359 352/442/359
f 330/408/360 329/439/360 344/440/360 345/443/360
f 338/405/361 337/404/361 352/442/361 353/444/361
f 331/409/362 330/408/362 345/443/362 346/445/362
f 324/410/363 82/35/363 339/446/363
f 308/36/364 338/405/364 353/444/364
f 332/412/365 331/409/365 346/445/365 347/447/365
f 325/413/366 324/410/366 339/446/366 340/448/366
f 333/426/367 332/412/367 347/447/367 348/427/367
f 326/416/368 325/413/368 340/448/368 341/429/368
f 353/444/369 352/442/369 367/449/369 368/450/369
f 346/445/370 345/443/370 360/451/370 361/452/370
f 339/446/371 82/35/371 354/453/371
f 308/36/372 353/444/372 368/450/372
f 347/447/373 346/445/373 361/452/373 362/454/373
f 340/448/374 339/446/374 354/453/374 355/455/374
f 348/427/375 347/447/375 362/454/375 363/456/375
f 341/429/376 340/448/376 355/455/376 356/457/376
f 349/428/377 348/427/377 363/456/377 364/458/377
f 342/430/378 341/429/378 356/457/378 357/459/378
f 350/432/379 349/428/379 364/458/379 365/460/379
f 343/436/380 342/435/380 357/461/380 358/462/380
f 351/438/381 350/432/381 365/460/381 366/463/381
f 344/440/382 343/436/382 358/462/382 359/464/382
f 352/442/383 351/441/383 366/465/383 367/449/383
f 345/443/384 344/440/384 359/464/384 360/451/384
f 357/459/385 356/457/385 371/466/385 372/467/385
f 365/460/386 364/458/386 379/468/386 380/469/386
f 358/462/387 357/461/387 372/470/387 373/471/387
f 366/463/388 365/460/388 380/469/388 381/472/388
f 359/464/389 358/462/389 373/471/389 374/473/389
f 367/449/390 366/465/390 381/474/390 382/475/390
f 360/451/391 359/464/391 374/473/391 375/476/391
f 368/450/392 367/449/392 382/475/392 383/477/392
f 361/452/393 360/451/393 375/476/393 376/478/393
f 354/453/394 82/35/394 369/479/394
f 308/36/395 368/450/395 383/477/395
f 362/454/396 361/452/396 376/478/396 377/480/396
f 355/455/397 354/453/397 369/479/397 370/481/397
f 363/456/398 362/454/398 377/480/398 378/482/398
f 356/457/399 355/455/399 370/481/399 371/466/399
f 364/458/400 363/456/400 378/482/400 379/468/400
f 376/478/401 375/476/401 390/483/401 391/484/401
f 369/479/402 82/35/402 384/485/402
f 308/36/403 383/477/403 398/486/403
f 377/480/404 376/478/404 391/484/404 392/487/404
f 370/481/405 369/479/405 384/485/405 385/488/405
f 378/482/406 377/480/406 392/487/406 393/489/406
f 371/466/407 370/481/407 385/488/407 386/490/407
f 379/468/408 378/482/408 393/489/408 394/491/408
f 372/467/409 371/466/409 386/490/409 387/492/409
f 380/469/410 379/468/410 394/491/410 395/493/410
f 373/471/411 372/470/411 387/494/411 388/495/411
f 381/472/412 380/469/412 395/493/412 396/496/412
f 374/473/413 373/471/413 388/495/413 389/497/413
f 382/475/414 381/474/414 396/498/414 397/499/414
f 375/476/415 374/473/415 389/497/415 390/483/415
f 383/477/416 382/475/416 397/499/416 398/486/416
f 395/493/417 394/491/417 409/500/417 410/501/417
f 388/495/418 387/494/418 402/502/418 403/503/418
f 396/496/419 395/493/419 410/501/419 411/504/419
f 389/497/420 388/495/420 403/503/420 404/505/420
f 397/499/421 396/498/421 411/506/421 412/507/421
f 390/483/422 389/497/422 404/505/422 405/508/422
f 398/486/423 397/499/423 412/507/423 413/509/423
f 391/484/424 390/483/424 405/508/424 406/510/424
f 384/485/425 82/35/425 399/511/425
f 308/36/426 398/486/426 413/509/426
f 392/487/427 391/484/427 406/510/427 407/512/427
f 385/488/428 384/485/428 399/511/428 400/513/428
f 393/489/429 392/487/429 407/512/429 408/514/429
f 386/490/430 385/488/430 400/513/430 401/515/430
f 394/491/431 393/489/431 408/514/431 409/500/431
f 387/492/432 386/490/432 401/515/432 402/516/432
f 308/36/433 413/509/433 428/517/433
f 407/512/434 406/510/434 421/518/434 422/519/434
f 400/513/435 399/511/435 414/520/435 415/521/435
f 408/514/436 407/512/436 422/519/436 423/522/436
f 401/515/437 400/513/437 415/521/437 416/523/437
f 409/500/438 408/514/438 423/522/438 424/524/438
f 402/516/439 401/515/439 416/523/439 417/525/439
f 410/501/440 409/500/440 424/524/440 425/526/440
f 403/503/441 402/502/441 417/527/441 418/528/441
f 411/504/442 410/501/442 425/526/442 426/529/442
f 404/505/443 403/503/443 418/528/443 419/530/443
f 412/507/444 411/506/444 426/531/444 427/532/444
f 405/508/445 404/505/445 419/530/445 420/533/445
f 413/509/446 412/507/446 427/532/446 428/517/446
f 406/510/447 405/508/447 420/533/447 421/518/447
f 399/511/448 82/35/448 414/520/448
f 426/531/449 425/534/449 440/535/449 441/536/449
f 419/530/450 418/528/450 433/537/450 434/538/450
f 427/532/451 426/531/451 441/536/451 442/539/451
f 420/533/452 419/530/452 434/538/452 435/540/452
f 428/517/453 427/532/453 442/539/453 443/541/453
f 421/518/454 420/533/454 435/540/454 436/542/454
f 414/520/455 82/35/455 429/543/455
f 308/36/456 428/517/456 443/541/456
f 422/519/457 421/518/457 436/542/457 437/544/457
f 415/521/458 414/520/458 429/543/458 430/545/458
f 423/522/459 422/519/459 437/544/459 438/546/459
f 416/523/460 415/521/460 430/545/460 431/547/460
f 424/524/461 423/522/461 438/546/461 439/548/461
f 417/525/462 416/523/462 431/547/462 432/549/462
f 425/526/463 424/524/463 439/548/463 440/550/463
f 418/528/464 417/527/464 432/551/464 433/537/464
f 430/545/465 429/543/465 444/552/465 445/553/465
f 438/546/466 437/544/466 452/554/466 453/555/466
f 431/547/467 430/545/467 445/553/467 446/556/467
f 439/548/468 438/546/468 453/555/468 454/557/468
f 432/549/469 431/547/469 446/556/469 447/558/469
f 440/550/470 439/548/470 454/557/470 455/559/470
f 433/560/471 432/561/471 447/562/471 448/563/471
f 441/536/472 440/535/472 455/564/472 456/565/472
f 434/566/473 433/560/473 448/563/473 449/567/473
f 442/539/474 441/536/474 456/565/474 457/568/474
f 435/569/475 434/566/475 449/567/475 450/570/475
f 443/541/476 442/539/476 457/568/476 458/571/476
f 436/572/477 435/569/477 450/570/477 451/573/477
f 429/543/478 82/35/478 444/552/478
f 308/36/479 443/541/479 458/571/479
f 437/544/480 436/542/480 451/574/480 452/554/480
f 449/567/481 448/563/481 463/575/481 464/576/481
f 457/568/482 456/565/482 471/577/482 472/578/482
f 450/570/483 449/567/483 464/576/483 465/579/483
f 458/571/484 457/568/484 472/578/484 473/580/484
f 451/573/485 450/570/485 465/579/485 466/581/485
f 444/552/486 82/35/486 459/582/486
f 308/36/487 458/571/487 473/580/487
f 452/583/488 451/573/488 466/581/488 467/584/488
f 445/553/489 444/552/489 459/582/489 460/585/489
f 453/586/490 452/583/490 467/584/490 468/587/490
f 446/556/491 445/553/491 460/585/491 461/588/491
f 454/589/492 453/586/492 468/587/492 469/590/492
f 447/558/493 446/556/493 461/588/493 462/591/493
f 455/592/494 454/589/494 469/590/494 470/593/494
f 448/563/495 447/562/495 462/594/495 463/575/495
f 456/565/496 455/564/496 470/595/496 471/577/496
f 468/587/497 467/584/497 5/6/497 478/5/497
f 461/588/498 460/585/498 475/1/498 1/9/498
f 469/590/499 468/587/499 478/5/499 6/11/499
f 462/594/500 461/596/500 1/14/500 476/13/500
f 470/593/501 469/590/501 6/11/501 479/17/501
f 463/575/502 462/594/502 476/13/502 2/19/502
f 471/577/503 470/595/503 479/22/503 480/21/503
f 464/576/504 463/575/504 2/19/504 477/25/504
f 472/578/505 471/577/505 480/21/505 481/27/505
f 465/579/506 464/576/506 477/25/506 3/29/506
f 473/580/507 472/578/507 481/27/507 482/31/507
f 466/581/508 465/579/508 3/29/508 4/33/508
f 459/582/509 82/35/509 474/2/509
f 308/36/510 473/580/510 482/31/510
f 467/584/511 466/581/511 4/33/511 5/6/511
f 460/585/512 459/582/512 474/2/512 475/1/512
