# Blender 4.4.0
# www.blender.org
mtllib Medusa.mtl
o Sphere_jelly
v -17.088099 2.289329 -12.968876
v -17.087725 2.225132 -12.911950
v -17.177441 2.314626 -12.943288
v -17.182293 2.252179 -12.887185
v -17.197496 2.224105 -12.915081
v -17.192076 2.291632 -12.972508
v -17.163364 2.441049 -13.081536
v -17.158937 2.541098 -13.108741
v -17.086668 2.455710 -13.002011
v -17.073053 2.546895 -13.019566
v -17.069550 2.444019 -13.041192
v -17.054148 2.539812 -13.062303
v -17.164883 2.462538 -13.006143
v -17.160557 2.552440 -13.021913
v -17.123980 2.433029 -13.094940
v -17.114855 2.536312 -13.125613
v -17.126129 2.463721 -12.988350
v -17.117140 2.551910 -13.002734
v -17.085138 2.434260 -13.077515
v -17.071438 2.535962 -13.106470
v -17.180323 2.452995 -13.046697
v -17.177866 2.547712 -13.065772
v -17.127131 2.051644 -12.706574
v -17.131294 2.074656 -12.792439
v -17.180235 2.088719 -12.787740
v -17.182722 2.067836 -12.700916
v -17.141676 2.200388 -12.680786
v -17.144243 2.204133 -12.767805
v -17.095322 2.190024 -12.772648
v -17.086145 2.184279 -12.686550
v -17.075888 2.079115 -12.704891
v -17.086172 2.098475 -12.790123
v -17.071714 2.145548 -12.782482
v -17.059389 2.133456 -12.698482
v -17.189363 2.180208 -12.770145
v -17.192957 2.172970 -12.682537
v -17.209970 2.118084 -12.690887
v -17.204287 2.132540 -12.778452
v -17.111086 1.976772 -12.565735
v -17.100334 1.951458 -12.484506
v -17.119295 2.150402 -12.501908
v -17.107969 2.112911 -12.425163
v -17.047398 2.007785 -12.563235
v -17.041115 1.980296 -12.482183
v -17.207018 2.055845 -12.524043
v -17.189482 2.024839 -12.445830
v -17.177189 1.996673 -12.549466
v -17.161791 1.969908 -12.469448
v -17.053204 2.130559 -12.518103
v -17.046513 2.094461 -12.440220
v -17.023455 2.071590 -12.543402
v -17.018822 2.039530 -12.463838
v -17.183033 2.119500 -12.504387
v -17.167189 2.084074 -12.427486
v -17.102383 2.267441 -12.996816
v -17.102545 2.198979 -12.937515
v -17.104656 2.252783 -12.884899
v -17.103912 2.313067 -12.940723
v -17.140219 2.326776 -12.928169
v -17.143274 2.263845 -12.871379
v -17.180170 2.199359 -12.939873
v -17.175915 2.269012 -12.999420
v -17.138264 2.259608 -13.006786
v -17.141008 2.188172 -12.950253
v -17.212111 2.092286 -12.610604
v -17.199215 2.166755 -12.854890
v -17.182962 2.366557 -13.017293
v -17.169165 2.382294 -12.984892
v -17.183619 2.203658 -12.831554
v -17.190607 2.151476 -12.594306
v -17.084892 2.360986 -13.012600
v -17.083872 2.173266 -12.855639
v -17.043417 2.108316 -12.624741
v -17.064783 2.048063 -12.643173
v -17.098940 2.141299 -12.877243
v -17.098635 2.345937 -13.042110
v -17.099821 2.378363 -12.981495
v -17.101940 2.208364 -12.831908
v -17.071188 2.162044 -12.605640
v -17.132200 2.180308 -12.592219
v -17.143337 2.220114 -12.821909
v -17.134350 2.388768 -12.967114
v -17.167980 2.349916 -13.045509
v -17.180511 2.136485 -12.876343
v -17.184156 2.037460 -12.631687
v -17.123156 2.019123 -12.645363
v -17.139082 2.125443 -12.886148
v -17.132708 2.341939 -13.053074
v -17.089579 1.990727 -12.350557
v -17.096985 2.067298 -12.358268
v -17.090773 1.938618 -12.404375
v -17.026089 2.008793 -12.388474
v -17.161669 1.997123 -12.374167
v -17.048140 2.052579 -12.370076
v -17.043747 1.961588 -12.402680
v -17.144011 2.044327 -12.359961
v -17.111437 2.645550 -13.002995
v -17.108931 2.630306 -13.138950
v -17.041914 2.633807 -13.069252
v -17.178453 2.642050 -13.072693
v -17.062796 2.640404 -13.021688
v -17.061022 2.629624 -13.117825
v -17.159346 2.646232 -13.024121
v -17.157572 2.635453 -13.120257
v -17.139620 1.953336 -12.392564
v -17.107620 2.705637 -13.007420
v -17.105207 2.690293 -13.143243
v -17.038118 2.694427 -13.073773
v -17.174669 2.702241 -13.077105
v -17.058958 2.700870 -13.026223
v -17.057301 2.689533 -13.122097
v -17.155514 2.706327 -13.028563
v -17.153818 2.695860 -13.124683
v -17.030655 2.775320 -12.962523
v -16.987526 2.794022 -13.152104
v -16.990311 2.827945 -13.147316
v -17.069155 2.821359 -12.779585
v -17.019922 2.711337 -13.019020
v -16.995935 2.697241 -13.128933
v -16.981203 2.755769 -13.185093
v -16.999292 2.826008 -13.099494
v -16.967005 2.913475 -13.262441
v -16.966732 3.012869 -13.265934
v -16.971712 3.103549 -13.244287
v -16.980112 3.184887 -13.208195
v -16.991304 3.256982 -13.154873
v -17.004967 3.325948 -13.089217
v -17.020782 3.396776 -13.013210
v -17.039803 3.459563 -12.921830
v -17.062969 3.511278 -12.816183
v -17.088305 3.541218 -12.700763
v -17.133257 3.540789 -12.698151
v -17.154289 3.510953 -12.814661
v -17.173351 3.459553 -12.922897
v -17.190737 3.396777 -13.014703
v -17.205215 3.325950 -13.090977
v -17.217722 3.256984 -13.156861
v -17.227739 3.184950 -13.210384
v -17.233294 3.104275 -13.246838
v -17.236774 3.014236 -13.268769
v -17.235584 2.915931 -13.265607
v -17.202650 2.832670 -13.103488
v -17.219816 2.768506 -13.190552
v -17.213631 2.709831 -13.134247
v -17.193434 2.719640 -13.023148
v -17.146059 2.821949 -12.781607
v -17.054010 3.541602 -12.688544
v -17.000795 3.511205 -12.792914
v -16.952129 3.459559 -12.889093
v -16.909212 3.396778 -12.971596
v -16.873507 3.325951 -13.040184
v -16.842667 3.256984 -13.099432
v -16.817341 3.184599 -13.147734
v -16.799906 3.103119 -13.180164
v -16.789532 3.012462 -13.199503
v -16.790964 2.913235 -13.196095
v -16.866848 2.828126 -13.048234
v -16.825384 2.759524 -13.125509
v -16.854267 2.653156 -13.074124
v -16.906704 2.665033 -12.975420
v -17.018513 2.821346 -12.760830
v -17.212982 2.833020 -13.150784
v -16.844685 2.828686 -13.091796
v -17.212181 2.804815 -13.156929
v -16.841227 2.797214 -13.095531
v -17.180521 2.777741 -12.965727
v -16.931864 2.775723 -12.925582
v -17.591532 2.388351 -12.455308
v -17.593531 2.353618 -12.389385
v -17.541445 2.317919 -12.500334
v -17.541075 2.269857 -12.428392
v -17.577065 2.257940 -12.439906
v -17.575750 2.300359 -12.507997
v -17.617228 2.458618 -12.639499
v -17.624561 2.554639 -12.684807
v -17.552317 2.505777 -12.563322
v -17.552334 2.588077 -12.590062
v -17.593641 2.507946 -12.553528
v -17.598372 2.587116 -12.578320
v -17.539425 2.466516 -12.633499
v -17.538174 2.563387 -12.674126
v -17.639097 2.471040 -12.610924
v -17.649406 2.563168 -12.645779
v -17.529652 2.487151 -12.598304
v -17.527313 2.578032 -12.630668
v -17.629332 2.491948 -12.575801
v -17.638590 2.576986 -12.601327
v -17.575890 2.456171 -12.649277
v -17.578531 2.555381 -12.696340
v -17.670122 2.285161 -12.211677
v -17.657980 2.260023 -12.276708
v -17.632669 2.217532 -12.260922
v -17.641657 2.238650 -12.194427
v -17.518955 2.301491 -12.216630
v -17.525179 2.274424 -12.280506
v -17.550035 2.315836 -12.290245
v -17.547092 2.350100 -12.230397
v -17.653856 2.338949 -12.225915
v -17.643883 2.305687 -12.288429
v -17.599169 2.328625 -12.295310
v -17.602966 2.365435 -12.234881
v -17.538950 2.228789 -12.273822
v -17.535185 2.248078 -12.206998
v -17.585773 2.223613 -12.190944
v -17.583460 2.204906 -12.258141
v -17.683226 2.279060 -12.064640
v -17.674299 2.272879 -11.983078
v -17.499613 2.300752 -12.074170
v -17.503431 2.292120 -11.992105
v -17.663389 2.347373 -12.060551
v -17.655790 2.336012 -11.979117
v -17.581442 2.197673 -12.077511
v -17.579657 2.197201 -11.995064
v -17.649311 2.217225 -12.071738
v -17.642763 2.215382 -11.989684
v -17.533602 2.362916 -12.067719
v -17.534967 2.349617 -11.985500
v -17.601442 2.382220 -12.062130
v -17.598078 2.367797 -11.980120
v -17.519398 2.232033 -12.078475
v -17.521944 2.228987 -11.996067
v -17.625349 2.367928 -12.466495
v -17.629503 2.334088 -12.398952
v -17.552706 2.343869 -12.395082
v -17.552835 2.380642 -12.460814
v -17.531981 2.350411 -12.479971
v -17.530876 2.305682 -12.412230
v -17.617867 2.266448 -12.434578
v -17.614141 2.307723 -12.505707
v -17.634729 2.335064 -12.487583
v -17.639536 2.293576 -12.417384
v -17.585104 2.216167 -12.153430
v -17.579872 2.219818 -12.356400
v -17.575455 2.368603 -12.579576
v -17.543037 2.382151 -12.570228
v -17.541918 2.236462 -12.351262
v -17.528051 2.247276 -12.156344
v -17.590921 2.436887 -12.511062
v -17.595984 2.327778 -12.333090
v -17.603600 2.383790 -12.149979
v -17.660570 2.352264 -12.146549
v -17.634069 2.306313 -12.337743
v -17.622501 2.418386 -12.528501
v -17.554337 2.431892 -12.518015
v -17.553144 2.316289 -12.335614
v -17.541178 2.366188 -12.153725
v -17.509882 2.309763 -12.155818
v -17.530739 2.275853 -12.344294
v -17.534279 2.407615 -12.544571
v -17.611645 2.371871 -12.576444
v -17.622694 2.230530 -12.354076
v -17.647511 2.233669 -12.149728
v -17.678719 2.289731 -12.146690
v -17.645086 2.262443 -12.346287
v -17.631159 2.392402 -12.555000
v -17.585451 2.272995 -11.874886
v -17.518602 2.283489 -11.912281
v -17.654314 2.268108 -11.903990
v -17.593775 2.343563 -11.902200
v -17.579140 2.208034 -11.914072
v -17.543650 2.329154 -11.906869
v -17.639612 2.318278 -11.901007
v -17.533302 2.233320 -11.915264
v -17.525787 2.669922 -12.651954
v -17.660353 2.654051 -12.668915
v -17.604015 2.678703 -12.594103
v -17.582136 2.646548 -12.725292
v -17.553274 2.679665 -12.606925
v -17.648376 2.667972 -12.619772
v -17.537729 2.656176 -12.700781
v -17.632906 2.645235 -12.712536
v -17.629265 2.222444 -11.909401
v -17.528652 2.727640 -12.664516
v -17.663221 2.711722 -12.683211
v -17.606899 2.733845 -12.607953
v -17.584984 2.704957 -12.739697
v -17.556087 2.734250 -12.620275
v -17.651268 2.724386 -12.633951
v -17.540592 2.714939 -12.713703
v -17.635767 2.703603 -12.727009
v -17.495152 2.792433 -12.585506
v -17.688856 2.830134 -12.589394
v -17.681799 2.842360 -12.576744
v -17.310139 2.824960 -12.587969
v -17.555414 2.749801 -12.583138
v -17.668644 2.743520 -12.577918
v -17.724100 2.799224 -12.585619
v -17.633125 2.847326 -12.584126
v -17.798653 2.920244 -12.569565
v -17.801716 3.016129 -12.566729
v -17.779703 3.105126 -12.566291
v -17.743778 3.185009 -12.567391
v -17.689451 3.256982 -12.569057
v -17.622423 3.325948 -12.571111
v -17.544794 3.396772 -12.573509
v -17.449652 3.459192 -12.577794
v -17.339455 3.509167 -12.583863
v -17.225185 3.540477 -12.585841
v -17.181770 3.540508 -12.672756
v -17.255253 3.509821 -12.760429
v -17.327692 3.459420 -12.846847
v -17.388338 3.396778 -12.919123
v -17.438044 3.325951 -12.978357
v -17.480978 3.256984 -13.029526
v -17.515762 3.185017 -13.071013
v -17.538525 3.103596 -13.100872
v -17.552599 3.011044 -13.120066
v -17.550438 2.911747 -13.117477
v -17.444048 2.828485 -12.992493
v -17.502323 2.761909 -13.059005
v -17.468462 2.655941 -13.010044
v -17.395967 2.667421 -12.924577
v -17.235586 2.822692 -12.740277
v -17.214930 3.540484 -12.629422
v -17.320295 3.509217 -12.670659
v -17.426418 3.459217 -12.708172
v -17.516745 3.396775 -12.741119
v -17.589380 3.325950 -12.768623
v -17.652094 3.256984 -12.792381
v -17.702921 3.185011 -12.811637
v -17.736742 3.104653 -12.825364
v -17.757849 3.013316 -12.836246
v -17.754843 2.914400 -12.836131
v -17.600386 2.830413 -12.785581
v -17.685881 2.756898 -12.817919
v -17.633652 2.701511 -12.788572
v -17.527529 2.719642 -12.751314
v -17.293825 2.824554 -12.661580
v -17.218882 3.540392 -12.549862
v -17.327318 3.509300 -12.514221
v -17.432878 3.459275 -12.483760
v -17.523203 3.396776 -12.456383
v -17.596962 3.325951 -12.433136
v -17.660664 3.256984 -12.413050
v -17.712296 3.185012 -12.396770
v -17.746437 3.105128 -12.386005
v -17.767445 3.017195 -12.381228
v -17.764427 2.923422 -12.384819
v -17.609966 2.854101 -12.442155
v -17.696199 2.811335 -12.416722
v -17.644585 2.698016 -12.421130
v -17.537994 2.697766 -12.456867
v -17.302454 2.825041 -12.536301
v -17.475616 2.828419 -13.028624
v -17.645784 2.830657 -12.797997
v -17.655437 2.848639 -12.423167
v -17.479364 2.797920 -13.034073
v -17.652842 2.796472 -12.809303
v -17.662455 2.839983 -12.429282
v -17.356033 2.776419 -12.884655
v -17.470276 2.781122 -12.732786
v -17.480585 2.792717 -12.480995
v -16.652727 2.258812 -12.417488
v -16.657846 2.201499 -12.353578
v -16.704981 2.318924 -12.369514
v -16.712727 2.270861 -12.308050
v -16.677269 2.287378 -12.289111
v -16.671188 2.335224 -12.350590
v -16.614508 2.456440 -12.427485
v -16.601843 2.539198 -12.447573
v -16.675936 2.440227 -12.518566
v -16.670399 2.544583 -12.550452
v -16.634577 2.432727 -12.525145
v -16.624130 2.539665 -12.559659
v -16.690779 2.461421 -12.449436
v -16.687361 2.548884 -12.465193
v -16.590954 2.443235 -12.466396
v -16.575678 2.535466 -12.486625
v -16.699116 2.451767 -12.489440
v -16.696602 2.547589 -12.511429
v -16.599260 2.433670 -12.506155
v -16.584883 2.535878 -12.533319
v -16.655863 2.464087 -12.420994
v -16.648111 2.544533 -12.438436
v -16.596666 2.222525 -12.079812
v -16.602182 2.202124 -12.171133
v -16.630016 2.238770 -12.164875
v -16.625795 2.260504 -12.098456
v -16.745203 2.192883 -12.097971
v -16.734049 2.175640 -12.184506
v -16.706734 2.136062 -12.196308
v -16.715733 2.146124 -12.085258
v -16.610064 2.162767 -12.077196
v -16.613304 2.152792 -12.187626
v -16.656738 2.125663 -12.198000
v -16.659800 2.133420 -12.076829
v -16.722721 2.221584 -12.175202
v -16.730766 2.245012 -12.108868
v -16.681137 2.272064 -12.109575
v -16.679892 2.247944 -12.165125
v -16.618217 2.248065 -11.873723
v -16.640200 2.223024 -11.796753
v -16.786451 2.195242 -11.929835
v -16.796701 2.173688 -11.848907
v -16.619699 2.180407 -11.894800
v -16.641575 2.160112 -11.816355
v -16.735136 2.306225 -11.883559
v -16.748915 2.277109 -11.805909
v -16.666033 2.300180 -11.869067
v -16.684660 2.271486 -11.792427
v -16.738716 2.142885 -11.934444
v -16.752243 2.125227 -11.853233
v -16.669611 2.136840 -11.919951
v -16.687986 2.119603 -11.839748
v -16.784943 2.262805 -11.908869
v -16.795324 2.236600 -11.829304
v -16.619873 2.270139 -12.403998
v -16.622686 2.217042 -12.337122
v -16.698725 2.210941 -12.351170
v -16.691439 2.267913 -12.414944
v -16.713316 2.291962 -12.396461
v -16.721577 2.238926 -12.333014
v -16.636728 2.277990 -12.295670
v -16.633120 2.321789 -12.356277
v -16.611725 2.295890 -12.378025
v -16.614063 2.248377 -12.314602
v -16.711073 2.321669 -11.979506
v -16.679548 2.266964 -12.236119
v -16.663637 2.389472 -12.391064
v -16.694809 2.380959 -12.416015
v -16.716618 2.236316 -12.246886
v -16.758142 2.283025 -11.999572
v -16.645357 2.340850 -12.473125
v -16.658466 2.162257 -12.279572
v -16.656540 2.166009 -12.000176
v -16.609303 2.205072 -11.980263
v -16.621458 2.183567 -12.268647
v -16.614080 2.345180 -12.460040
v -16.681917 2.348862 -12.468723
v -16.701792 2.169995 -12.277225
v -16.719934 2.172920 -12.013426
v -16.761980 2.221473 -12.013218
v -16.726137 2.197440 -12.263136
v -16.702400 2.364407 -12.447928
v -16.627075 2.379158 -12.401619
v -16.636286 2.258280 -12.238195
v -16.648357 2.315096 -11.964566
v -16.606245 2.266532 -11.964568
v -16.612444 2.219145 -12.250751
v -16.606495 2.361142 -12.429807
v -16.740156 2.167067 -11.716271
v -16.795813 2.156856 -11.768954
v -16.671694 2.195739 -11.726461
v -16.709551 2.113732 -11.761150
v -16.757956 2.238863 -11.734266
v -16.760523 2.118310 -11.772236
v -16.672756 2.145804 -11.742189
v -16.794748 2.206789 -11.753227
v -16.696318 2.642758 -12.513776
v -16.562986 2.628628 -12.486301
v -16.616474 2.634811 -12.566656
v -16.642954 2.636981 -12.432427
v -16.667530 2.640258 -12.556389
v -16.573172 2.629998 -12.537609
v -16.686153 2.641907 -12.462451
v -16.591896 2.631532 -12.442696
v -16.706984 2.234285 -11.723180
v -16.692266 2.703600 -12.513242
v -16.558752 2.689535 -12.486881
v -16.612391 2.695730 -12.567276
v -16.638844 2.696904 -12.432617
v -16.663441 2.701204 -12.557020
v -16.569017 2.691000 -12.538269
v -16.682537 2.701592 -12.462418
v -16.587662 2.692003 -12.443129
v -16.723217 2.775724 -12.597356
v -16.528030 2.799276 -12.598886
v -16.536007 2.832050 -12.602268
v -16.914295 2.820355 -12.596011
v -16.662760 2.713367 -12.596665
v -16.549669 2.702349 -12.597269
v -16.493193 2.761599 -12.598267
v -16.584126 2.830803 -12.600121
v -16.419601 2.916126 -12.606818
v -16.416470 3.014509 -12.607491
v -16.439304 3.105115 -12.607360
v -16.475243 3.185009 -12.606264
v -16.529570 3.256982 -12.604599
v -16.596598 3.325948 -12.602545
v -16.674198 3.396776 -12.600166
v -16.768049 3.459454 -12.596876
v -16.877806 3.510201 -12.591063
v -16.993202 3.542176 -12.587906
v -17.003513 3.542096 -12.544111
v -16.896118 3.510136 -12.503059
v -16.790598 3.459445 -12.465561
v -16.702242 3.396777 -12.432537
v -16.629641 3.325950 -12.405033
v -16.566927 3.256984 -12.381275
v -16.515770 3.184744 -12.361919
v -16.481369 3.103838 -12.348787
v -16.460752 3.013540 -12.340608
v -16.464146 2.914718 -12.341081
v -16.620173 2.828960 -12.400490
v -16.538044 2.762372 -12.362598
v -16.591843 2.702790 -12.382805
v -16.700861 2.712358 -12.435447
v -16.931011 2.818918 -12.526024
v -16.999554 3.542110 -12.623966
v -16.889616 3.510385 -12.658805
v -16.784954 3.459482 -12.689484
v -16.695807 3.396778 -12.717268
v -16.622059 3.325951 -12.740520
v -16.558357 3.256984 -12.760606
v -16.506725 3.185012 -12.776886
v -16.472584 3.105128 -12.787650
v -16.450945 3.014977 -12.793839
v -16.453602 2.916714 -12.792303
v -16.610138 2.832350 -12.741383
v -16.522947 2.767311 -12.765622
v -16.578083 2.660289 -12.750145
v -16.686201 2.668847 -12.717782
v -16.921824 2.821308 -12.646077
v -17.021273 3.541927 -12.660895
v -16.932146 3.510831 -12.735660
v -16.848600 3.459531 -12.805758
v -16.777216 3.396778 -12.865656
v -16.717979 3.325951 -12.915360
v -16.666813 3.256984 -12.958295
v -16.625294 3.184946 -12.993133
v -16.597248 3.103890 -13.016593
v -16.579752 3.012977 -13.030559
v -16.581619 2.913995 -13.027687
v -16.708277 2.830628 -12.920231
v -16.639484 2.768368 -12.976398
v -16.681549 2.726157 -12.941837
v -16.768513 2.734719 -12.870263
v -16.958714 2.821300 -12.713002
v -16.574400 2.830049 -12.382693
v -16.564125 2.832733 -12.756479
v -16.670908 2.830607 -12.951886
v -16.569298 2.799688 -12.376951
v -16.556713 2.803614 -12.756055
v -16.666361 2.803351 -12.954335
v -16.755741 2.772438 -12.460026
v -16.742868 2.776941 -12.700977
v -16.815073 2.776644 -12.831969
v -17.197937 2.269403 -12.248156
v -17.203609 2.164233 -12.203674
v -17.115686 2.267404 -12.291376
v -17.115515 2.129346 -12.230832
v -17.094790 2.152088 -12.209631
v -17.094990 2.265692 -12.261787
v -17.108683 2.465123 -12.187909
v -17.102745 2.548440 -12.153552
v -17.197275 2.487611 -12.250416
v -17.201540 2.574037 -12.223812
v -17.208229 2.473901 -12.211493
v -17.213726 2.558639 -12.179760
v -17.119417 2.490668 -12.260944
v -17.114735 2.575297 -12.235431
v -17.145288 2.457239 -12.167297
v -17.143629 2.541948 -12.131039
v -17.160555 2.494562 -12.270790
v -17.160587 2.580724 -12.246649
v -17.186518 2.462093 -12.177542
v -17.189547 2.546666 -12.142067
v -17.098152 2.477895 -12.226247
v -17.091000 2.560264 -12.196365
v -17.153316 2.170630 -11.916908
v -17.148073 2.144757 -12.000171
v -17.103800 2.119536 -12.004223
v -17.102671 2.143564 -11.910406
v -17.170128 2.022918 -11.897099
v -17.165703 2.016601 -12.030248
v -17.209974 2.041751 -12.026211
v -17.220661 2.050074 -11.903643
v -17.209131 2.154488 -11.917632
v -17.197508 2.132388 -12.005016
v -17.223114 2.089276 -12.014834
v -17.237181 2.105363 -11.914109
v -17.116276 2.028877 -12.024649
v -17.114519 2.039204 -11.896392
v -17.086618 2.089427 -11.901755
v -17.090658 2.071035 -12.012618
v -17.168253 2.283870 -11.763330
v -17.146992 2.257699 -11.679905
v -17.156786 2.106362 -11.793203
v -17.137363 2.091170 -11.721659
v -17.230413 2.250628 -11.756020
v -17.204809 2.226701 -11.673557
v -17.072260 2.205325 -11.795131
v -17.058397 2.183704 -11.718512
v -17.102764 2.265095 -11.779742
v -17.086338 2.239868 -11.698540
v -17.222342 2.125106 -11.777473
v -17.197962 2.108815 -11.703220
v -17.252842 2.184862 -11.762094
v -17.225920 2.165031 -11.683215
v -17.094618 2.139585 -11.800523
v -17.079578 2.122272 -11.727908
v -17.177546 2.273256 -12.216847
v -17.182726 2.187297 -12.178989
v -17.192430 2.138810 -12.226879
v -17.188606 2.270108 -12.280898
v -17.154467 2.267830 -12.300633
v -17.155916 2.123578 -12.239539
v -17.105782 2.178694 -12.183089
v -17.104761 2.270808 -12.226354
v -17.139076 2.276936 -12.201057
v -17.142351 2.196908 -12.165310
v -17.083286 2.184315 -11.835514
v -17.096573 2.092792 -12.115363
v -17.101049 2.390255 -12.252418
v -17.120567 2.400630 -12.281387
v -17.118753 2.058660 -12.125217
v -17.103655 2.126000 -11.818248
v -17.198343 2.385381 -12.238223
v -17.211061 2.108808 -12.114697
v -17.251627 2.170140 -11.832347
v -17.231651 2.227741 -11.850319
v -17.189009 2.143668 -12.100972
v -17.178860 2.378640 -12.207438
v -17.189287 2.396419 -12.271389
v -17.199688 2.069687 -12.124762
v -17.222460 2.115978 -11.815427
v -17.161320 2.097700 -11.809875
v -17.161427 2.048297 -12.129726
v -17.157110 2.402205 -12.289962
v -17.110077 2.382326 -12.217313
v -17.108053 2.132400 -12.101641
v -17.112392 2.238354 -11.852115
v -17.173935 2.256228 -11.858479
v -17.146376 2.156128 -12.094997
v -17.142218 2.379872 -12.195903
v -17.116907 2.152310 -11.592794
v -17.120632 2.092696 -11.641882
v -17.128077 2.224924 -11.607482
v -17.190905 2.151413 -11.610647
v -17.057802 2.166207 -11.638716
v -17.168781 2.106830 -11.626921
v -17.174046 2.200329 -11.602596
v -17.074663 2.117291 -11.646768
v -17.157715 2.638771 -12.246569
v -17.138796 2.629264 -12.112414
v -17.216085 2.639231 -12.168345
v -17.080917 2.632041 -12.187205
v -17.202744 2.640428 -12.220085
v -17.189356 2.633613 -12.125299
v -17.107210 2.635056 -12.233239
v -17.093834 2.627723 -12.138503
v -17.079927 2.210790 -11.622444
v -17.153172 2.694300 -12.249759
v -17.134144 2.689080 -12.115188
v -17.210724 2.697002 -12.170347
v -17.075823 2.687746 -12.189082
v -17.197763 2.696917 -12.222744
v -17.184694 2.693308 -12.128151
v -17.102722 2.690568 -12.236134
v -17.088713 2.686526 -12.140099
v -17.217299 2.769221 -12.267015
v -17.234743 2.805608 -12.081474
v -17.229280 2.833548 -12.056066
v -17.164047 2.816588 -12.412914
v -17.233393 2.711406 -12.220236
v -17.241598 2.709154 -12.108527
v -17.240324 2.771800 -12.051349
v -17.225405 2.831304 -12.121051
v -17.247629 2.917817 -11.923729
v -17.248781 3.015323 -11.915124
v -17.245247 3.104859 -11.933057
v -17.238791 3.185009 -11.965569
v -17.227716 3.256982 -12.018784
v -17.214054 3.325948 -12.084438
v -17.198238 3.396776 -12.160446
v -17.179207 3.459561 -12.251836
v -17.155603 3.511015 -12.357932
v -17.130520 3.540822 -12.473201
v -17.109777 3.546885 -12.586868
v -17.109510 2.819489 -12.586827
v -17.037104 3.541809 -12.500504
v -16.962751 3.510415 -12.411917
v -16.890909 3.459489 -12.326308
v -16.830683 3.396778 -12.254533
v -16.780977 3.325951 -12.195297
v -16.738043 3.256984 -12.144131
v -16.702847 3.184171 -12.104777
v -16.679739 3.102500 -12.081942
v -16.666363 3.011632 -12.069367
v -16.670206 2.912580 -12.077102
v -16.784143 2.827887 -12.217607
v -16.729115 2.764890 -12.156506
v -16.771357 2.654106 -12.202626
v -16.846956 2.661007 -12.288253
v -16.993784 2.817275 -12.452557
v -17.085878 3.541318 -12.475498
v -17.064726 3.510935 -12.359269
v -17.045656 3.459547 -12.250809
v -17.028284 3.396777 -12.158953
v -17.013805 3.325950 -12.082679
v -17.001299 3.256984 -12.016794
v -16.990883 3.184676 -11.964837
v -16.983187 3.103558 -11.934830
v -16.978474 3.013119 -11.918526
v -16.978968 2.913876 -11.931351
v -17.024073 2.821879 -12.140884
v -17.004114 2.755944 -12.081720
v -17.026047 2.694236 -12.136431
v -17.061794 2.700223 -12.242257
v -17.087816 2.815986 -12.415546
v -17.164881 3.540537 -12.485619
v -17.218327 3.510714 -12.381732
v -17.266903 3.459545 -12.284638
v -17.309809 3.396778 -12.202060
v -17.345514 3.325951 -12.133471
v -17.376356 3.256984 -12.074224
v -17.401354 3.185012 -12.026203
v -17.417263 3.105280 -11.996223
v -17.426840 3.016301 -11.978756
v -17.425379 2.919583 -11.984288
v -17.357674 2.839254 -12.147473
v -17.399282 2.785029 -12.076496
v -17.383770 2.677646 -12.124187
v -17.338879 2.679179 -12.226033
v -17.212191 2.820063 -12.428085
v -17.197412 3.540375 -12.513192
v -17.285406 3.509882 -12.439305
v -17.370003 3.459444 -12.368249
v -17.441805 3.396778 -12.307999
v -17.501041 3.325951 -12.258294
v -17.552208 3.256984 -12.215361
v -17.593679 3.185012 -12.180561
v -17.621187 3.105585 -12.158049
v -17.638329 3.018360 -12.145494
v -17.636784 2.926538 -12.150427
v -17.516373 2.852145 -12.265089
v -17.584984 2.801035 -12.205090
v -17.546148 2.755666 -12.238987
v -17.461906 2.755281 -12.314024
v -17.268597 2.823915 -12.471992
v -16.750282 2.828332 -12.175653
v -17.008091 2.826208 -12.072296
v -17.376411 2.837824 -12.096691
v -17.551519 2.849982 -12.229995
v -16.750490 2.800507 -12.181156
v -17.012280 2.792137 -12.107593
v -17.383156 2.816880 -12.106036
v -17.557880 2.832223 -12.229660
v -16.881382 2.768846 -12.330700
v -17.070105 2.761678 -12.284328
v -17.304377 2.782002 -12.274881
v -17.414484 2.790738 -12.354486
vn -0.0390 0.9234 0.3817
vn -0.7288 0.5917 0.3446
vn -0.7007 0.5383 0.4682
vn -0.0212 0.8645 0.5022
vn 0.9898 -0.1410 0.0203
vn 0.6974 -0.0156 0.7165
vn 0.6963 0.0588 0.7153
vn 0.9865 -0.1590 0.0390
vn -0.6404 -0.6200 -0.4534
vn 0.0383 -0.8017 -0.5965
vn 0.0802 -0.9261 -0.3687
vn -0.6219 -0.7297 -0.2842
vn -0.7688 0.5657 0.2984
vn -0.9926 -0.0740 -0.0968
vn -0.9905 -0.0976 -0.0970
vn -0.7817 0.6171 0.0903
vn -0.0169 0.6069 0.7946
vn -0.7542 0.4394 0.4880
vn -0.7487 0.4875 0.4491
vn -0.0261 0.7207 0.6927
vn 0.7379 -0.5994 -0.3101
vn 0.7597 -0.5677 -0.3173
vn 0.0734 -0.9259 -0.3707
vn -0.0232 0.3960 0.9180
vn -0.7596 0.3130 0.5701
vn 0.0189 -0.1073 -0.9940
vn 0.7180 -0.1282 -0.6842
vn 0.7034 -0.2204 -0.6758
vn 0.0184 -0.2130 -0.9769
vn -0.9907 -0.0883 0.1031
vn -0.9621 -0.1336 0.2379
vn 0.7029 -0.5451 -0.4570
vn 0.9942 0.0383 -0.1000
vn 0.9872 0.0868 -0.1339
vn 0.7032 0.6463 0.2963
vn -0.0546 0.8796 0.4726
vn -0.0971 0.9812 0.1666
vn 0.6543 0.7533 0.0667
vn -0.0975 0.9855 0.1388
vn 0.6197 0.7837 0.0419
vn 0.9760 0.1319 -0.1730
vn 0.6470 0.7544 0.1107
vn 0.6731 0.7135 0.1944
vn 0.9901 0.0855 -0.1111
vn 0.7188 -0.5545 -0.4194
vn 0.7270 -0.5893 -0.3523
vn -0.7450 0.6266 0.2287
vn -0.9987 -0.0515 -0.0033
vn -0.6705 -0.7142 -0.2008
vn 0.0395 -0.9206 -0.3885
vn 0.0583 -0.9698 -0.2369
vn -0.6485 -0.7593 -0.0546
vn 0.6813 0.6574 0.3219
vn 0.9989 0.0355 0.0307
vn -0.6759 -0.6763 -0.2928
vn 0.0316 -0.8831 -0.4682
vn -0.9968 -0.0550 -0.0582
vn -0.7596 0.6427 0.0999
vn 0.7419 -0.6395 -0.2013
vn -0.6573 -0.7089 -0.2558
vn 0.9798 0.1394 -0.1431
vn -0.6816 -0.1210 -0.7216
vn 0.0168 -0.3449 -0.9385
vn -0.6723 -0.2085 -0.7103
vn 0.9952 -0.0935 0.0290
vn 0.6872 -0.0234 0.7261
vn -0.9957 0.0321 -0.0870
vn -0.9952 0.0336 -0.0920
vn 0.7017 -0.4772 -0.5290
vn 0.9996 0.0192 -0.0207
vn -0.4823 -0.7890 0.3805
vn -0.7109 -0.2735 0.6479
vn 0.8655 -0.1378 0.4816
vn 0.6770 -0.6892 0.2582
vn -0.6929 -0.0434 -0.7198
vn -0.6473 -0.2944 -0.7031
vn 0.0176 -0.4491 -0.8933
vn 0.0186 -0.5668 -0.8236
vn -0.6498 -0.3959 -0.6489
vn 0.6731 -0.3815 -0.6336
vn 0.6810 -0.4317 -0.5915
vn 0.7285 0.2042 0.6539
vn 0.9941 -0.1059 0.0224
vn -0.0215 0.0831 0.9963
vn -0.7314 0.0878 0.6763
vn -0.7375 0.1847 0.6496
vn -0.0272 0.2080 0.9778
vn 0.7337 0.3934 0.5540
vn 0.7158 0.5067 0.4805
vn -0.6650 -0.4928 -0.5612
vn 0.0174 -0.6738 -0.7387
vn 0.6929 -0.3238 -0.6443
vn -0.0668 0.9590 0.2753
vn -0.9975 -0.0117 -0.0704
vn -0.0230 0.0405 0.9989
vn -0.4732 -0.1540 0.8674
vn -0.8716 -0.4869 0.0558
vn -0.9994 0.0269 -0.0212
vn -0.7210 0.0616 0.6902
vn 0.0438 0.5298 0.8470
vn 0.1274 -0.3358 0.9333
vn 0.6211 0.3951 0.6769
vn 0.1114 -0.9542 0.2777
vn 0.9998 -0.0209 -0.0007
vn 0.8079 -0.5796 0.1061
vn 0.4165 -0.2062 0.8855
vn 0.0186 -0.1205 -0.9925
vn 0.4565 -0.3690 -0.8096
vn -0.9985 0.0124 -0.0534
vn -0.4444 -0.3186 -0.8373
vn -0.0179 0.0753 0.9970
vn 0.0324 -0.8724 -0.4878
vn -0.1641 -0.8519 0.4973
vn -0.9992 0.0032 -0.0403
vn -0.5250 0.2965 0.7978
vn -0.4057 0.7713 -0.4904
vn -0.6048 -0.2904 -0.7416
vn -0.1884 -0.2904 -0.9382
vn -0.1158 0.7819 -0.6126
vn -0.6053 0.3285 -0.7251
vn -0.5560 0.5041 -0.6609
vn -0.1892 0.5058 -0.8416
vn -0.2035 0.3267 -0.9229
vn -0.4013 0.7817 -0.4774
vn -0.3209 0.8691 -0.3763
vn -0.1136 0.8666 -0.4858
vn -0.1377 0.7817 -0.6083
vn -0.4497 0.7146 -0.5359
vn -0.1536 0.7159 -0.6811
vn -0.2574 -0.9100 -0.3251
vn -0.6292 0.0448 -0.7759
vn -0.1977 0.0437 -0.9793
vn -0.1294 -0.8571 -0.4986
vn -0.6343 0.1058 -0.7658
vn -0.2120 0.1034 -0.9718
vn -0.5697 -0.4464 -0.6900
vn -0.1892 -0.4448 -0.8754
vn -0.4913 0.6449 -0.5854
vn -0.1677 0.6466 -0.7442
vn -0.2306 0.9374 -0.2611
vn -0.1168 0.9849 -0.1278
vn -0.0515 0.9862 -0.1572
vn -0.0893 0.9374 -0.3367
vn 0.3080 -0.8791 0.3637
vn 0.0880 -0.8798 0.4670
vn 0.3795 -0.7917 0.4788
vn 0.1334 -0.8286 0.5438
vn -0.2182 -0.9377 -0.2704
vn -0.0769 -0.9353 -0.3454
vn 0.1985 -0.9264 -0.3201
vn 0.4937 0.0438 -0.8685
vn 0.7622 0.0745 -0.6430
vn 0.4108 -0.8491 -0.3320
vn 0.4926 0.0998 -0.8645
vn 0.4685 0.3227 -0.8224
vn 0.7257 0.3227 -0.6077
vn 0.7633 0.1016 -0.6380
vn 0.3456 0.7151 -0.6076
vn 0.3086 0.7815 -0.5422
vn 0.4784 0.7811 -0.4012
vn 0.5355 0.7150 -0.4494
vn 0.3770 0.6466 -0.6632
vn 0.5848 0.6460 -0.4906
vn 0.1760 0.9363 -0.3040
vn 0.0773 0.9870 -0.1409
vn 0.1243 0.9866 -0.1058
vn 0.2730 0.9353 -0.2251
vn -0.2159 -0.8803 0.4224
vn -0.3182 -0.9041 0.2853
vn 0.4423 -0.4543 -0.7733
vn 0.6873 -0.4510 -0.5694
vn 0.1753 -0.9399 -0.2931
vn 0.2672 -0.9398 -0.2129
vn 0.4266 0.5049 -0.7504
vn 0.6622 0.5034 -0.5550
vn 0.2494 0.8648 -0.4358
vn 0.3851 0.8652 -0.3212
vn -0.2826 -0.8055 0.5209
vn -0.4254 -0.8277 0.3661
vn 0.2997 0.7748 -0.5567
vn 0.4674 -0.2736 -0.8407
vn 0.7332 -0.2710 -0.6237
vn 0.4610 0.7909 -0.4025
vn 0.0729 -0.9914 0.1091
vn 0.0204 -0.9917 0.1272
vn -0.0619 -0.9919 0.1114
vn -0.0969 -0.9918 0.0836
vn 0.0572 -0.9386 -0.3402
vn 0.1904 -0.2612 -0.9463
vn 0.1351 0.7669 -0.6274
vn 0.1714 0.0066 -0.9852
vn -0.1521 -0.8258 0.5431
vn -0.0286 -0.9918 0.1247
vn 0.1629 -0.4533 -0.8763
vn -0.0121 -0.9998 -0.0124
vn -0.0083 1.0000 -0.0000
vn 0.0177 0.9870 -0.1597
vn 0.1383 0.6479 -0.7491
vn 0.1567 0.5067 -0.8477
vn 0.1833 0.1008 -0.9779
vn 0.0576 0.9372 -0.3441
vn 0.0899 0.8655 -0.4928
vn 0.1266 0.7165 -0.6860
vn 0.1737 0.3246 -0.9298
vn 0.1129 0.7824 -0.6124
vn 0.9938 0.1073 -0.0288
vn 0.9878 0.0948 0.1238
vn 0.7771 -0.6257 0.0683
vn 0.7746 -0.6240 -0.1032
vn -0.1645 0.2164 0.9623
vn -0.1964 0.3835 0.9024
vn 0.6132 0.3209 0.7218
vn 0.6033 0.1969 0.7728
vn -0.5525 -0.7883 -0.2708
vn -0.5706 -0.8211 0.0100
vn -0.9672 -0.2058 -0.1490
vn -0.9654 -0.1974 -0.1705
vn 0.7363 -0.6507 -0.1855
vn 0.7503 -0.6610 0.0107
vn 0.1137 -0.9904 0.0784
vn 0.0917 -0.9560 -0.2786
vn 0.9930 0.1049 0.0534
vn 0.9949 0.0913 0.0425
vn 0.7579 -0.5765 -0.3053
vn 0.7729 -0.4940 -0.3982
vn -0.9852 -0.1086 -0.1330
vn -0.7556 0.5888 -0.2871
vn -0.8006 0.5318 -0.2761
vn 0.9942 0.0614 0.0883
vn 0.7686 -0.4320 -0.4718
vn -0.9837 -0.1180 -0.1356
vn -0.9770 -0.1623 -0.1387
vn -0.8140 0.0636 0.5774
vn -0.8069 0.0689 0.5867
vn 0.1146 -0.9917 0.0589
vn 0.1058 -0.9869 -0.1214
vn -0.8172 0.5761 0.0179
vn -0.1252 0.9491 -0.2891
vn -0.1294 0.9745 0.1834
vn 0.6443 0.7510 0.1442
vn 0.6488 0.7250 -0.2309
vn 0.9941 0.0488 -0.0970
vn 0.9975 0.0672 -0.0217
vn 0.5905 0.7430 -0.3151
vn 0.9802 0.1201 -0.1577
vn -0.1177 0.9887 -0.0932
vn -0.1099 0.9890 0.0990
vn 0.6270 0.7772 0.0537
vn 0.6028 0.7895 -0.1158
vn -0.7714 0.6314 -0.0794
vn -0.7813 0.6185 0.0839
vn 0.7731 -0.6117 -0.1679
vn 0.0938 -0.9763 -0.1950
vn -0.6228 -0.7791 -0.0711
vn -0.6139 -0.7831 0.0992
vn -0.9786 -0.1206 0.1666
vn -0.9932 -0.1152 0.0150
vn -0.0984 0.9667 0.2361
vn 0.6279 0.7535 0.1948
vn -0.6257 -0.7634 -0.1604
vn -0.9906 -0.0931 -0.1004
vn 0.7911 -0.6116 0.0097
vn 0.1111 -0.9931 0.0377
vn -0.7647 0.6046 0.2231
vn -0.6323 -0.7747 -0.0079
vn -0.1148 0.9223 -0.3691
vn -0.5629 -0.3361 -0.7551
vn -0.5414 -0.4595 -0.7040
vn -0.9730 -0.1813 -0.1428
vn -0.1551 0.1957 0.9683
vn 0.5909 0.1860 0.7850
vn 0.1396 -0.7879 -0.5998
vn 0.1514 -0.6675 -0.7291
vn -0.8122 0.5436 0.2120
vn -0.1445 0.8923 0.4277
vn 0.1208 -0.8369 0.5339
vn -0.4858 -0.6901 0.5365
vn -0.6109 0.4688 0.6380
vn -0.0494 0.7389 0.6720
vn -0.5816 -0.2543 -0.7727
vn -0.5231 -0.5772 -0.6270
vn -0.5436 -0.6605 -0.5179
vn -0.9800 -0.1285 -0.1518
vn -0.9764 -0.1567 -0.1486
vn -0.8373 0.4746 0.2713
vn -0.8530 0.3318 0.4029
vn -0.2128 0.6265 0.7498
vn 0.6159 0.5041 0.6054
vn 0.9903 0.0197 0.1376
vn 0.9927 0.0217 0.1188
vn 0.7765 -0.3317 -0.5357
vn 0.7935 -0.2114 -0.5706
vn 0.6217 0.6410 0.4501
vn 0.6233 0.6956 0.3571
vn -0.5634 -0.7192 -0.4066
vn -0.9789 -0.1469 -0.1422
vn -0.8410 0.1618 0.5163
vn 0.9813 0.1358 -0.1364
vn 0.1066 -0.8756 -0.4710
vn 0.9883 0.0508 0.1440
vn 0.9229 -0.2876 -0.2560
vn 0.8048 -0.1316 -0.5788
vn 0.1527 -0.2586 -0.9538
vn 0.1988 -0.6988 -0.6871
vn 0.8188 0.0382 0.5728
vn 0.5456 0.5907 0.5945
vn 0.0627 -0.0804 0.9948
vn -0.7612 -0.1377 0.6338
vn -0.1842 0.8163 0.5474
vn -0.0808 -0.3755 0.9233
vn 0.8032 -0.0991 0.5874
vn -0.9809 -0.1341 -0.1411
vn -0.9024 -0.2616 0.3425
vn 0.1409 -0.5147 -0.8457
vn -0.7407 -0.4487 -0.5000
vn 0.9879 0.0624 0.1417
vn -0.5333 -0.8455 0.0283
vn 0.4290 -0.9033 0.0008
vn 0.1444 -0.3544 -0.9239
vn 0.6693 -0.5549 0.4941
vn -0.5512 0.7755 -0.3080
vn -0.8475 -0.2742 -0.4546
vn -0.8727 0.3276 -0.3621
vn -0.7973 0.5040 -0.3320
vn -0.5721 0.7844 -0.2394
vn -0.4504 0.8722 -0.1907
vn -0.6440 0.7159 -0.2695
vn -0.4499 -0.8865 -0.1077
vn -0.9237 -0.0168 -0.3828
vn -0.9175 0.1076 -0.3829
vn -0.8276 -0.4499 -0.3357
vn -0.7039 0.6465 -0.2943
vn -0.3182 0.9376 -0.1399
vn -0.1597 0.9845 -0.0731
vn 0.4041 -0.8768 0.2607
vn 0.4627 -0.8375 0.2906
vn -0.3083 -0.9452 -0.1078
vn -0.4316 -0.8900 0.1470
vn -0.4814 -0.7965 0.3659
vn -0.7344 0.1536 0.6611
vn -0.9385 0.1686 0.3013
vn -0.9377 0.0977 0.3334
vn -0.7599 0.0908 0.6436
vn -0.7245 0.3160 0.6125
vn -0.8919 0.3215 0.3181
vn -0.6583 0.7152 0.2348
vn -0.5355 0.7150 0.4494
vn -0.4778 0.7820 0.4002
vn -0.5850 0.7840 0.2079
vn -0.7188 0.6463 0.2562
vn -0.5848 0.6459 0.4907
vn -0.3275 0.9378 0.1150
vn -0.2711 0.9375 0.2181
vn -0.1325 0.9857 0.1041
vn -0.1614 0.9852 0.0577
vn 0.3528 -0.9270 -0.1276
vn 0.2167 -0.9418 -0.2569
vn -0.8283 -0.4735 0.2996
vn -0.6790 -0.4672 0.5663
vn -0.2540 -0.9610 0.1092
vn -0.2469 -0.9515 0.1834
vn -0.8141 0.5031 0.2899
vn -0.6626 0.5001 0.5576
vn -0.4633 0.8711 0.1630
vn -0.3824 0.8681 0.3166
vn 0.4830 -0.8600 -0.1647
vn 0.3556 -0.8636 -0.3574
vn -0.4605 0.8767 0.1389
vn -0.3593 0.8543 0.3755
vn -0.6680 -0.2513 0.7004
vn -0.8945 -0.2236 0.3870
vn 0.0921 -0.9932 0.0714
vn 0.0765 -0.9966 -0.0316
vn 0.0460 -0.9950 -0.0887
vn -0.9607 -0.2481 -0.1242
vn -0.2848 -0.9579 0.0364
vn -0.9948 0.0969 -0.0301
vn -0.5290 0.8434 -0.0941
vn 0.0894 -0.9958 0.0202
vn 0.4731 -0.8810 0.0050
vn -0.8859 -0.4635 0.0199
vn -0.1735 0.9848 -0.0047
vn -0.8634 0.5044 0.0073
vn -0.7619 0.6477 0.0062
vn -0.9946 0.1034 0.0111
vn -0.4872 0.8733 -0.0005
vn -0.3464 0.9381 -0.0064
vn -0.6975 0.7166 0.0056
vn -0.9459 0.3243 0.0090
vn -0.6182 0.7860 0.0043
vn -0.9161 -0.2901 -0.2769
vn -0.9336 -0.3319 -0.1353
vn -0.9170 0.3905 0.0809
vn -0.8910 0.4491 -0.0671
vn 0.1666 -0.1953 -0.9665
vn 0.1266 -0.4026 -0.9066
vn -0.5335 -0.2969 -0.7920
vn -0.5412 -0.1248 -0.8316
vn 0.5685 0.7928 0.2197
vn 0.5877 0.8046 -0.0846
vn 0.9859 0.1483 -0.0779
vn 0.9859 0.1661 -0.0225
vn -0.8533 0.5063 0.1247
vn -0.8370 0.5367 -0.1069
vn -0.1848 0.9771 -0.1054
vn -0.2248 0.9298 0.2914
vn -0.9637 -0.0803 -0.2547
vn -0.9730 -0.1367 -0.1857
vn -0.8433 0.4827 0.2365
vn -0.8481 0.4320 0.3068
vn 0.9763 0.2086 -0.0576
vn 0.7987 -0.5843 0.1436
vn 0.8014 -0.5859 -0.1200
vn -0.9651 -0.0635 -0.2542
vn -0.8580 0.3155 0.4054
vn 0.9757 -0.1001 0.1947
vn 0.9770 -0.1266 0.1714
vn 0.7977 -0.1997 -0.5691
vn 0.8257 -0.0951 -0.5560
vn -0.3815 0.8635 0.3297
vn -0.3443 0.9227 0.1736
vn 0.8108 -0.5164 -0.2754
vn 0.1763 -0.9681 -0.1781
vn 0.1809 -0.8837 -0.4317
vn -0.5326 -0.7515 -0.3893
vn -0.5328 -0.8301 -0.1645
vn -0.9686 -0.2194 -0.1167
vn -0.9693 -0.1856 -0.1611
vn -0.5461 -0.8256 0.1420
vn -0.9714 -0.2186 -0.0928
vn 0.3057 -0.9495 0.0700
vn 0.3491 -0.9167 -0.1943
vn -0.3997 -0.8543 -0.3322
vn -0.5146 -0.8545 -0.0704
vn 0.9099 -0.4057 0.0866
vn 0.8960 -0.4403 0.0574
vn -0.7897 0.5527 -0.2664
vn -0.2180 0.9654 -0.1430
vn 0.3998 0.8618 0.3121
vn 0.3627 0.8074 0.4653
vn 0.8778 0.2521 0.4073
vn 0.9157 0.2997 0.2677
vn 0.3185 -0.9461 -0.0591
vn -0.4238 -0.8849 -0.1932
vn 0.4629 0.8864 -0.0046
vn 0.9338 0.3511 0.0686
vn -0.7587 0.5593 -0.3340
vn -0.1043 0.9200 -0.3778
vn 0.8590 -0.4755 0.1897
vn 0.5524 0.7907 -0.2640
vn 0.1444 -0.9639 0.2238
vn 0.5793 -0.0050 0.8151
vn 0.5896 0.1456 0.7944
vn 0.9769 -0.1104 0.1831
vn 0.1898 -0.0548 -0.9803
vn -0.5565 -0.0014 -0.8308
vn -0.1604 0.7102 0.6855
vn -0.1810 0.4930 0.8510
vn 0.7974 -0.5115 -0.3202
vn 0.1577 -0.8140 -0.5591
vn -0.4136 0.5548 0.7219
vn 0.2034 0.5435 0.8144
vn 0.6173 -0.5265 0.5845
vn 0.1492 -0.9001 0.4093
vn 0.5517 -0.0679 0.8313
vn 0.6321 0.3133 0.7087
vn 0.6334 0.5269 0.5667
vn 0.9893 0.0679 0.1293
vn 0.9845 -0.0351 0.1718
vn 0.7773 -0.4557 -0.4337
vn 0.7574 -0.4108 -0.5076
vn 0.1105 -0.5327 -0.8390
vn -0.5205 -0.4066 -0.7508
vn -0.9742 -0.0193 -0.2248
vn -0.9705 -0.0575 -0.2340
vn -0.8564 0.1862 0.4816
vn -0.8492 0.0637 0.5243
vn -0.5252 -0.5231 -0.6712
vn -0.5378 -0.6679 -0.5145
vn 0.6158 0.6857 0.3881
vn 0.9900 0.1210 0.0723
vn 0.7679 -0.3380 -0.5442
vn -0.9500 -0.1883 -0.2489
vn -0.1918 0.8618 0.4695
vn -0.9795 0.0310 -0.1992
vn -0.8941 -0.3572 0.2701
vn -0.8352 0.0241 0.5494
vn -0.2025 -0.0169 0.9791
vn -0.2410 -0.5230 0.8175
vn -0.8513 -0.4018 0.3373
vn -0.4466 -0.8590 0.2504
vn -0.2217 -0.2860 0.9322
vn 0.5995 0.0604 0.7981
vn 0.1369 -0.6661 -0.7332
vn 0.0855 -0.5435 -0.8351
vn -0.7272 -0.3355 -0.5988
vn 0.9776 -0.0913 0.1896
vn 0.9030 -0.3211 -0.2854
vn -0.2110 0.2860 0.9347
vn 0.7351 -0.3065 0.6048
vn -0.9746 -0.0805 -0.2087
vn 0.5070 -0.8613 0.0323
vn -0.4817 -0.8758 0.0290
vn -0.2117 0.0833 0.9738
vn -0.8558 0.1987 0.4776
vn 0.3291 0.7541 0.5683
vn 0.5600 0.7796 0.2802
vn 0.8650 -0.2806 0.4159
vn 0.4624 -0.3158 0.8285
vn 0.6101 0.2880 0.7381
vn 0.8731 0.3153 0.3718
vn 0.7988 0.4984 0.3370
vn 0.5603 0.4798 0.6752
vn 0.4019 0.7806 0.4787
vn 0.5746 0.7823 0.2407
vn 0.4563 0.8686 0.1930
vn 0.3216 0.8669 0.3809
vn 0.4497 0.7145 0.5359
vn 0.6441 0.7159 0.2695
vn 0.2406 -0.8918 0.3832
vn 0.4638 -0.8503 0.2488
vn 0.8978 0.0278 0.4394
vn 0.5295 0.0524 0.8467
vn 0.6313 0.0608 0.7732
vn 0.9146 0.0926 0.3936
vn 0.5492 -0.4823 0.6824
vn 0.8170 -0.4543 0.3550
vn 0.4926 0.6398 0.5899
vn 0.7044 0.6454 0.2954
vn 0.2285 0.9360 0.2679
vn 0.3220 0.9360 0.1425
vn 0.1538 0.9853 0.0737
vn 0.1075 0.9856 0.1309
vn -0.2156 -0.8949 -0.3907
vn -0.4097 -0.8805 -0.2384
vn -0.2988 -0.7603 -0.5767
vn -0.4760 -0.8214 -0.3141
vn 0.2093 -0.9407 0.2668
vn 0.3232 -0.9356 0.1418
vn 0.3726 -0.9171 -0.1417
vn 0.9420 0.0711 -0.3279
vn 0.9375 0.1051 -0.3318
vn 0.8914 0.3241 -0.3170
vn 0.6584 0.7151 -0.2348
vn 0.5869 0.7821 -0.2092
vn 0.7188 0.6463 -0.2562
vn 0.3326 0.9357 -0.1174
vn 0.1558 0.9861 -0.0570
vn -0.4314 -0.8922 0.1336
vn 0.8425 -0.4503 -0.2958
vn 0.3218 -0.9401 -0.1122
vn 0.8140 0.5034 -0.2897
vn 0.4693 0.8673 -0.1660
vn -0.5458 -0.8174 0.1845
vn 0.5783 0.7921 -0.1956
vn 0.9121 -0.2663 -0.3116
vn -0.0721 -0.9829 -0.1695
vn -0.1181 -0.9889 -0.0901
vn -0.1193 -0.9923 0.0348
vn 0.9640 -0.2658 0.0032
vn 0.3466 -0.9380 -0.0067
vn 0.9992 0.0287 0.0267
vn 0.6242 0.7812 0.0120
vn -0.1277 -0.9915 -0.0233
vn -0.5496 -0.8353 0.0140
vn 0.8927 -0.4506 -0.0093
vn 0.1684 0.9857 0.0052
vn 0.8632 0.5049 -0.0077
vn 0.7618 0.6478 -0.0063
vn 0.9945 0.1047 -0.0091
vn 0.4943 0.8693 -0.0013
vn 0.3512 0.9363 0.0050
vn 0.6975 0.7165 -0.0056
vn 0.9456 0.3253 -0.0092
vn 0.6214 0.7835 -0.0047
vn 0.1052 -0.9903 0.0910
vn 0.8106 -0.5697 -0.1352
vn 0.7453 -0.6376 -0.1950
vn 0.0921 -0.9888 -0.1174
vn -0.9846 -0.0833 0.1538
vn -0.8108 0.0780 -0.5802
vn -0.7918 0.1090 -0.6010
vn -0.9872 -0.1223 0.1026
vn 0.8247 0.5371 0.1771
vn 0.1329 0.9433 0.3042
vn 0.1442 0.9846 -0.0992
vn 0.8133 0.5794 -0.0544
vn 0.5720 -0.7435 -0.3465
vn 0.9807 -0.1681 -0.0994
vn 0.9846 -0.1686 -0.0461
vn 0.5888 -0.8029 -0.0934
vn -0.1261 -0.1540 -0.9800
vn 0.5484 -0.1265 -0.8266
vn 0.5494 -0.5446 -0.6337
vn -0.1161 -0.6304 -0.7675
vn -0.6139 0.7805 -0.1182
vn -0.6259 0.6029 -0.4947
vn 0.0921 0.7875 -0.6094
vn -0.1411 0.1382 -0.9803
vn 0.5701 0.1313 -0.8110
vn 0.1253 -0.0916 0.9879
vn -0.5856 -0.0345 0.8099
vn -0.5898 -0.2419 0.7705
vn 0.1238 -0.3068 0.9437
vn 0.9620 0.1630 -0.2191
vn 0.9944 0.0675 -0.0810
vn -0.6403 0.7425 0.1968
vn -0.9916 0.1116 -0.0656
vn -0.9881 0.0982 -0.1187
vn -0.7585 -0.5627 -0.3289
vn -0.1225 -0.8921 -0.4348
vn -0.1216 -0.9831 -0.1366
vn -0.7682 -0.6261 -0.1336
vn -0.0819 -0.9315 0.3544
vn -0.7267 -0.6505 0.2206
vn -0.9931 -0.0062 -0.1168
vn -0.6893 -0.6544 0.3109
vn -0.6735 -0.7288 0.1233
vn -0.9884 -0.0403 0.1461
vn -0.6860 0.5848 -0.4330
vn -0.7428 0.6569 0.1294
vn 0.7165 -0.6063 0.3449
vn 0.9749 0.0592 -0.2145
vn 0.5920 0.7968 -0.1209
vn -0.1010 0.9945 0.0284
vn -0.0278 0.9313 0.3631
vn 0.6731 0.7240 0.1510
vn -0.5994 -0.7929 0.1099
vn -0.9276 -0.1432 0.3451
vn 0.5641 0.6415 -0.5199
vn -0.0815 0.8219 -0.5637
vn 0.9863 -0.1514 0.0656
vn 0.5976 -0.7365 0.3169
vn -0.6889 0.5730 0.4439
vn 0.7742 0.5065 -0.3795
vn -0.9938 -0.0042 -0.1107
vn 0.7765 -0.2411 0.5822
vn 0.1324 -0.3708 0.9192
vn 0.8010 -0.2424 0.5474
vn -0.9854 0.0217 0.1686
vn -0.8081 0.0314 -0.5882
vn 0.9821 0.0350 -0.1849
vn 0.9735 -0.0315 -0.2265
vn -0.6774 0.5165 0.5238
vn -0.9972 0.0741 -0.0129
vn 0.6618 0.5058 0.5533
vn 0.9102 -0.0495 0.4112
vn -0.6376 -0.2210 0.7380
vn -0.4763 0.3793 0.7933
vn 0.7795 -0.1238 0.6140
vn 0.8288 -0.0981 0.5509
vn 0.1470 -0.2110 0.9664
vn 0.1424 0.1764 0.9740
vn 0.8469 0.1160 0.5190
vn -0.6243 -0.1875 0.7584
vn -0.6619 0.1425 0.7359
vn -0.7796 0.0575 -0.6236
vn -0.9914 -0.0788 0.1043
vn -0.1468 0.1376 -0.9795
vn 0.6136 0.0736 -0.7862
vn 0.5923 0.1875 -0.7836
vn -0.1432 0.2329 -0.9619
vn -0.7532 -0.1000 -0.6501
vn -0.7375 -0.4013 -0.5431
vn 0.8471 0.3478 0.4019
vn 0.1314 0.6702 0.7304
vn -0.6056 -0.3202 0.7285
vn 0.0287 -0.8509 0.5245
vn 0.9728 -0.1475 -0.1787
vn -0.1436 -0.0121 -0.9896
vn 0.3395 -0.0587 -0.9388
vn 0.7799 -0.6060 -0.1563
vn 0.9863 -0.1086 -0.1241
vn 0.6077 -0.0664 -0.7914
vn 0.1838 -0.9013 0.3922
vn 0.2250 -0.2266 0.9476
vn -0.4000 -0.7510 0.5254
vn 0.0886 0.6444 0.7596
vn -0.9977 0.0219 0.0648
vn -0.8846 -0.4580 0.0878
vn -0.5898 0.0095 -0.8075
vn 0.1166 -0.1876 0.9753
vn -0.3716 -0.3879 0.8435
vn 0.9876 -0.0098 -0.1564
vn 0.5175 -0.4775 0.7101
vn -0.1183 0.1804 -0.9764
vn -0.0168 -0.8426 0.5383
vn -0.0388 -0.8483 -0.5281
vn 0.9886 -0.0814 -0.1270
vn 0.7249 -0.6262 0.2870
vn 0.1823 -0.2957 0.9377
vn 0.1475 0.7121 0.6864
vn 0.1964 0.4747 0.8580
vn 0.2190 0.2747 0.9362
vn 0.1123 0.8662 0.4868
vn 0.1376 0.7814 0.6086
vn 0.1536 0.7159 0.6811
vn 0.1816 -0.0088 0.9833
vn 0.0681 -0.8737 0.4817
vn 0.2285 0.0405 0.9727
vn 0.1956 -0.5071 0.8394
vn 0.1696 0.6413 0.7483
vn 0.0381 0.9864 0.1598
vn 0.0838 0.9369 0.3395
vn -0.0884 -0.8364 -0.5410
vn -0.1353 -0.7658 -0.6287
vn 0.0634 -0.9483 0.3111
vn -0.2303 -0.8875 0.3991
vn -0.3650 0.1026 0.9253
vn -0.4814 0.0761 0.8732
vn -0.4649 0.3035 0.8317
vn -0.3456 0.7151 0.6076
vn -0.3086 0.7818 0.5418
vn -0.3772 0.6463 0.6633
vn -0.1793 0.9379 0.2969
vn -0.0891 0.9865 0.1374
vn 0.0683 -0.9164 -0.3944
vn -0.4244 -0.4855 0.7643
vn -0.1767 -0.9492 0.2604
vn -0.4275 0.4952 0.7563
vn -0.2494 0.8667 0.4320
vn 0.1237 -0.8055 -0.5796
vn -0.1648 0.8088 0.5646
vn -0.3133 -0.2718 0.9099
vn -0.0398 -0.9782 -0.2037
vn -0.0227 -0.9878 -0.1541
vn -0.0656 -0.9475 0.3130
vn 0.0059 -0.3026 0.9531
vn 0.0361 0.7464 0.6646
vn 0.0089 0.0324 0.9994
vn -0.0430 -0.7835 -0.6199
vn -0.0531 -0.9788 -0.1977
vn -0.1367 -0.5008 0.8547
vn -0.0315 0.9868 0.1587
vn -0.1376 0.6462 0.7507
vn -0.1542 0.4866 0.8599
vn -0.1623 0.0538 0.9853
vn -0.0618 0.9379 0.3413
vn -0.0904 0.8664 0.4911
vn -0.1266 0.7165 0.6860
vn -0.1630 0.2873 0.9439
vn -0.1130 0.7825 0.6123
vt 0.494601 0.974028
vt 0.594493 0.974116
vt 0.587400 0.982948
vt 0.494514 0.982866
vt 0.398407 0.889731
vt 0.426807 0.889551
vt 0.433673 0.899207
vt 0.408203 0.899368
vt 0.555333 0.937116
vt 0.492573 0.937186
vt 0.492450 0.946405
vt 0.565132 0.946324
vt 0.556435 0.936778
vt 0.581786 0.936947
vt 0.595766 0.946130
vt 0.566408 0.945936
vt 0.494054 0.918203
vt 0.550214 0.918266
vt 0.553325 0.927565
vt 0.494093 0.927499
vt 0.420297 0.946324
vt 0.410324 0.955547
vt 0.492327 0.955638
vt 0.494016 0.908772
vt 0.547104 0.908832
vt 0.492429 0.880374
vt 0.418636 0.880292
vt 0.425624 0.889911
vt 0.492515 0.889985
vt 0.635138 0.974329
vt 0.625194 0.983146
vt 0.430269 0.937116
vt 0.404919 0.936947
vt 0.390938 0.946130
vt 0.431371 0.936778
vt 0.494131 0.936708
vt 0.494254 0.945855
vt 0.421572 0.945936
vt 0.494377 0.955017
vt 0.411774 0.955108
vt 0.362977 0.964590
vt 0.401975 0.964345
vt 0.393977 0.974117
vt 0.351566 0.974330
vt 0.400351 0.964835
vt 0.392211 0.974542
vt 0.586354 0.964344
vt 0.623727 0.964589
vt 0.592727 0.974542
vt 0.492103 0.974630
vt 0.492191 0.983426
vt 0.585757 0.983344
vt 0.400947 0.982948
vt 0.361510 0.983146
vt 0.584729 0.964835
vt 0.492204 0.964936
vt 0.609747 0.955327
vt 0.576381 0.955108
vt 0.399305 0.983344
vt 0.574930 0.955547
vt 0.376957 0.955327
vt 0.559897 0.889911
vt 0.492602 0.899596
vt 0.553031 0.899529
vt 0.388611 0.880094
vt 0.419941 0.879896
vt 0.568705 0.908975
vt 0.573065 0.918419
vt 0.433380 0.927887
vt 0.409279 0.927726
vt 0.566763 0.991550
vt 0.598094 0.991352
vt 0.388611 0.991352
vt 0.418636 0.991550
vt 0.566763 0.880292
vt 0.546165 0.909118
vt 0.492688 0.909178
vt 0.492650 0.918634
vt 0.549221 0.918571
vt 0.439600 0.909118
vt 0.436490 0.918571
vt 0.440539 0.908832
vt 0.417999 0.908975
vt 0.494188 0.889477
vt 0.561080 0.889551
vt 0.554092 0.899207
vt 0.494102 0.899140
vt 0.437483 0.918267
vt 0.434427 0.927565
vt 0.552277 0.927887
vt 0.492612 0.927953
vt 0.432612 0.899529
vt 0.494501 0.964243
vt 0.577425 0.927726
vt 0.494274 0.879814
vt 0.568068 0.873724
vt 0.598093 0.873922
vt 0.598093 0.880094
vt 0.568068 0.879896
vt 0.494275 0.991071
vt 0.493352 0.994786
vt 0.419941 0.991154
vt 0.492430 0.991632
vt 0.413639 0.918419
vt 0.388611 0.873922
vt 0.419941 0.873724
vt 0.492429 0.874203
vt 0.418636 0.874121
vt 0.578501 0.899368
vt 0.566763 0.874121
vt 0.494274 0.873642
vt 0.585750 0.870810
vt 0.568332 0.875513
vt 0.539377 0.863514
vt 0.554787 0.861473
vt 0.540019 0.859431
vt 0.588297 0.889731
vt 0.568068 0.991153
vt 0.222075 0.971345
vt 0.248469 0.997438
vt 0.426727 0.997437
vt 0.419038 0.971344
vt 0.274401 0.752876
vt 0.279597 0.746359
vt 0.455140 0.831177
vt 0.453193 0.838687
vt 0.326362 0.688010
vt 0.363823 0.641361
vt 0.479343 0.698041
vt 0.469071 0.757650
vt 0.300056 0.720788
vt 0.461596 0.799390
vt 0.230530 0.818962
vt 0.204765 0.935510
vt 0.413995 0.935509
vt 0.421501 0.870812
vt 0.268285 0.760535
vt 0.450972 0.847422
vt 0.263178 0.766940
vt 0.447999 0.854822
vt 0.285525 0.738925
vt 0.457206 0.822232
vt 0.405188 0.589745
vt 0.437783 0.549000
vt 0.496611 0.578274
vt 0.489177 0.633088
vt 0.285267 0.823665
vt 0.437446 0.875514
vt 0.314966 0.935393
vt 0.446098 0.935392
vt 0.258914 0.772326
vt 0.442512 0.863877
vt 0.693575 0.818962
vt 0.712084 0.935510
vt 0.851848 0.935510
vt 0.821142 0.888611
vt 0.718309 0.805674
vt 0.714171 0.797168
vt 0.836352 0.696015
vt 0.843609 0.701840
vt 0.695364 0.761016
vt 0.675132 0.723512
vt 0.770958 0.643507
vt 0.804490 0.670448
vt 0.706361 0.781701
vt 0.822847 0.685189
vt 0.616012 0.612674
vt 0.591672 0.564561
vt 0.630206 0.530403
vt 0.671759 0.563863
vt 0.654254 0.823665
vt 0.755909 0.893314
vt 0.721901 0.813025
vt 0.849823 0.706829
vt 0.724733 0.820538
vt 0.857594 0.713078
vt 0.710570 0.790044
vt 0.830129 0.691026
vt 0.646172 0.670102
vt 0.723223 0.605164
vt 0.632920 0.935393
vt 0.720515 0.935393
vt 0.699648 0.971345
vt 0.680688 0.997438
vt 0.799763 0.997438
vt 0.831218 0.971345
vt 0.255343 0.776797
vt 0.437270 0.869568
vt 0.728993 0.825602
vt 0.863160 0.717558
vt 0.405375 0.979157
vt 0.472435 0.979156
vt 0.567975 0.979157
vt 0.612770 0.979157
vt 0.503724 0.858586
vt 0.467163 0.859431
vt 0.611143 0.862562
vt 0.610201 0.869733
vt 0.451753 0.861473
vt 0.466521 0.863514
vt 0.588440 0.971343
vt 0.593949 0.935508
vt 0.558881 0.935391
vt 0.530111 0.979155
vt 0.611960 0.853423
vt 0.500000 0.978381
vt 0.522436 0.443932
vt 0.550722 0.580287
vt 0.607366 0.819923
vt 0.608836 0.828989
vt 0.610810 0.845624
vt 0.502816 0.864360
vt 0.564855 0.633225
vt 0.580246 0.696390
vt 0.580041 0.997436
vt 0.602656 0.797106
vt 0.609787 0.836636
vt 0.593578 0.755655
vt 0.361329 0.963316
vt 0.371129 0.971791
vt 0.393808 0.971874
vt 0.385718 0.963404
vt 0.516728 0.889731
vt 0.515112 0.899334
vt 0.451658 0.899173
vt 0.445975 0.889551
vt 0.552378 0.932792
vt 0.560490 0.940104
vt 0.602000 0.940185
vt 0.588221 0.932865
vt 0.429122 0.932443
vt 0.417748 0.939714
vt 0.484171 0.939909
vt 0.486477 0.932618
vt 0.422505 0.917041
vt 0.418207 0.924912
vt 0.432669 0.924981
vt 0.436216 0.917106
vt 0.615778 0.947586
vt 0.595757 0.947496
vt 0.584383 0.940104
vt 0.426801 0.908504
vt 0.439763 0.908564
vt 0.604293 0.880374
vt 0.594639 0.889985
vt 0.578307 0.889911
vt 0.586277 0.880292
vt 0.479316 0.972072
vt 0.477676 0.963615
vt 0.573010 0.932792
vt 0.517960 0.939909
vt 0.515654 0.932618
vt 0.449753 0.932443
vt 0.441641 0.939714
vt 0.400132 0.939634
vt 0.413910 0.932371
vt 0.433529 0.947066
vt 0.386353 0.946976
vt 0.522573 0.954986
vt 0.524455 0.963615
vt 0.418796 0.963404
vt 0.425417 0.954747
vt 0.607131 0.955224
vt 0.616414 0.963827
vt 0.395001 0.954747
vt 0.479558 0.954986
vt 0.583336 0.963827
vt 0.577566 0.972270
vt 0.631002 0.972352
vt 0.640803 0.963914
vt 0.522815 0.972072
vt 0.424566 0.971874
vt 0.576715 0.955224
vt 0.629557 0.955323
vt 0.406374 0.947066
vt 0.481865 0.947281
vt 0.608324 0.972270
vt 0.568603 0.947497
vt 0.520267 0.947281
vt 0.556157 0.889911
vt 0.550472 0.899496
vt 0.584984 0.899562
vt 0.518345 0.880094
vt 0.440290 0.879896
vt 0.487916 0.917264
vt 0.488635 0.908711
vt 0.569462 0.925316
vt 0.514935 0.925148
vt 0.483787 0.980277
vt 0.561841 0.980476
vt 0.586277 0.980476
vt 0.518345 0.980277
vt 0.561841 0.880292
vt 0.544788 0.908857
vt 0.547318 0.917422
vt 0.579627 0.917487
vt 0.575330 0.908918
vt 0.565915 0.917422
vt 0.562368 0.908857
vt 0.513496 0.908711
vt 0.457343 0.908564
vt 0.407492 0.889477
vt 0.417147 0.899106
vt 0.431794 0.899173
vt 0.423824 0.889551
vt 0.454813 0.917106
vt 0.452283 0.924981
vt 0.549848 0.925316
vt 0.583924 0.925385
vt 0.570337 0.899496
vt 0.372575 0.954649
vt 0.487196 0.925148
vt 0.397838 0.879814
vt 0.415855 0.873724
vt 0.415855 0.879896
vt 0.483787 0.880094
vt 0.483787 0.873922
vt 0.397838 0.979997
vt 0.440290 0.980079
vt 0.501066 0.983711
vt 0.604293 0.980558
vt 0.514216 0.917264
vt 0.518344 0.873922
vt 0.440290 0.873724
vt 0.604293 0.874203
vt 0.586277 0.874120
vt 0.487019 0.899334
vt 0.561841 0.874121
vt 0.397838 0.873642
vt 0.079298 0.870810
vt 0.092285 0.859431
vt 0.125698 0.861473
vt 0.164089 0.863515
vt 0.164755 0.875513
vt 0.485403 0.889731
vt 0.415855 0.980079
vt 0.094050 0.971344
vt 0.132602 0.997437
vt 0.153174 0.596291
vt 0.160069 0.592730
vt 0.228482 0.563315
vt 0.285573 0.540886
vt 0.189546 0.579541
vt 0.106399 0.870812
vt 0.068765 0.935510
vt 0.145116 0.600391
vt 0.138501 0.604950
vt 0.168307 0.588749
vt 0.348903 0.517421
vt 0.396621 0.497973
vt 0.186351 0.875515
vt 0.229731 0.935392
vt 0.130767 0.612380
vt 0.100181 0.818962
vt 0.178858 0.888611
vt 0.148152 0.935510
vt 0.061953 0.935510
vt 0.128113 0.330908
vt 0.200889 0.183461
vt 0.207908 0.188879
vt 0.137309 0.333109
vt 0.176506 0.343604
vt 0.239050 0.213358
vt 0.272773 0.240881
vt 0.217305 0.355229
vt 0.154035 0.337357
vt 0.220999 0.199080
vt 0.340200 0.387447
vt 0.374213 0.324693
vt 0.414983 0.357531
vt 0.389922 0.402184
vt 0.181396 0.823665
vt 0.244091 0.893314
vt 0.120152 0.328984
vt 0.194892 0.178843
vt 0.112187 0.327829
vt 0.187408 0.173073
vt 0.145024 0.335072
vt 0.213932 0.193557
vt 0.276211 0.371327
vt 0.321907 0.282099
vt 0.225462 0.935393
vt 0.279485 0.935393
vt 0.087637 0.971345
vt 0.168782 0.971345
vt 0.200237 0.997438
vt 0.126798 0.997438
vt 0.126276 0.618776
vt 0.106303 0.324747
vt 0.182013 0.168911
vt 0.361786 0.979156
vt 0.359602 0.979157
vt 0.387230 0.979157
vt 0.104304 0.859431
vt 0.083424 0.858586
vt 0.088797 0.450158
vt 0.095641 0.447685
vt 0.176108 0.863514
vt 0.142695 0.861473
vt 0.039073 0.935508
vt 0.066099 0.971343
vt 0.352269 0.979155
vt 0.211122 0.935391
vt 0.104435 0.444878
vt 0.383116 0.445759
vt 0.128981 0.442595
vt 0.138110 0.442043
vt 0.112312 0.444299
vt 0.184969 0.864360
vt 0.264808 0.442894
vt 0.331065 0.445661
vt 0.107306 0.997436
vt 0.161301 0.441698
vt 0.121321 0.443341
vt 0.203535 0.441621
vt 0.638672 0.968413
vt 0.628872 0.977055
vt 0.606193 0.977137
vt 0.614283 0.968501
vt 0.483273 0.889731
vt 0.484888 0.899368
vt 0.548342 0.899207
vt 0.554026 0.889551
vt 0.447623 0.935152
vt 0.439510 0.943284
vt 0.398001 0.943364
vt 0.411780 0.935224
vt 0.570879 0.934808
vt 0.582253 0.942894
vt 0.515830 0.943089
vt 0.513524 0.934980
vt 0.577496 0.917878
vt 0.581793 0.926476
vt 0.567332 0.926544
vt 0.563785 0.917942
vt 0.384222 0.951539
vt 0.404244 0.951449
vt 0.415618 0.943284
vt 0.573199 0.908772
vt 0.560238 0.908832
vt 0.395707 0.880375
vt 0.405362 0.889985
vt 0.421694 0.889911
vt 0.413724 0.880292
vt 0.520684 0.977335
vt 0.522325 0.968714
vt 0.426992 0.935152
vt 0.482040 0.943089
vt 0.484347 0.934980
vt 0.550248 0.934808
vt 0.558360 0.942894
vt 0.599869 0.942814
vt 0.586090 0.934737
vt 0.566472 0.951015
vt 0.613648 0.950924
vt 0.477427 0.959598
vt 0.475545 0.968714
vt 0.581205 0.968501
vt 0.574584 0.959357
vt 0.392870 0.959840
vt 0.383587 0.968926
vt 0.605000 0.959357
vt 0.520442 0.959598
vt 0.416665 0.968926
vt 0.422435 0.977533
vt 0.368999 0.977615
vt 0.359198 0.969014
vt 0.477186 0.977335
vt 0.575435 0.977137
vt 0.423286 0.959840
vt 0.370444 0.959940
vt 0.593627 0.951014
vt 0.518136 0.951232
vt 0.391677 0.977533
vt 0.431398 0.951449
vt 0.479734 0.951232
vt 0.443844 0.889911
vt 0.449528 0.899529
vt 0.415016 0.899596
vt 0.481656 0.880094
vt 0.559710 0.879896
vt 0.512085 0.918097
vt 0.511366 0.908975
vt 0.430538 0.926872
vt 0.485066 0.926708
vt 0.516214 0.985541
vt 0.438160 0.985739
vt 0.413724 0.985739
vt 0.481656 0.985541
vt 0.438160 0.880292
vt 0.455213 0.909119
vt 0.452682 0.918252
vt 0.420374 0.918316
vt 0.424671 0.909179
vt 0.434085 0.918252
vt 0.437633 0.909119
vt 0.486504 0.908975
vt 0.542658 0.908832
vt 0.592508 0.889477
vt 0.582854 0.899140
vt 0.568207 0.899207
vt 0.576177 0.889551
vt 0.545188 0.917942
vt 0.547718 0.926544
vt 0.450152 0.926872
vt 0.416077 0.926940
vt 0.429663 0.899529
vt 0.627426 0.959256
vt 0.512804 0.926708
vt 0.602163 0.879813
vt 0.584146 0.873724
vt 0.584146 0.879896
vt 0.516214 0.880094
vt 0.516214 0.873922
vt 0.602163 0.985260
vt 0.559710 0.985342
vt 0.498935 0.988975
vt 0.395708 0.985821
vt 0.485785 0.918097
vt 0.481656 0.873922
vt 0.559710 0.873724
vt 0.395707 0.874203
vt 0.413724 0.874121
vt 0.512982 0.899368
vt 0.438160 0.874121
vt 0.602163 0.873642
vt 0.920702 0.870810
vt 0.907715 0.859431
vt 0.874302 0.861473
vt 0.835911 0.863515
vt 0.835245 0.875513
vt 0.514598 0.889731
vt 0.584146 0.985342
vt 0.777925 0.971345
vt 0.905950 0.971344
vt 0.867398 0.997437
vt 0.751531 0.997438
vt 0.783589 0.107874
vt 0.892891 0.291344
vt 0.885992 0.294807
vt 0.778338 0.114363
vt 0.731304 0.172703
vt 0.818465 0.321598
vt 0.762438 0.343552
vt 0.691190 0.225067
vt 0.757720 0.139902
vt 0.856757 0.307086
vt 0.769470 0.818962
vt 0.893601 0.870812
vt 0.931235 0.935510
vt 0.795235 0.935510
vt 0.789750 0.100248
vt 0.900951 0.287316
vt 0.794896 0.093879
vt 0.907577 0.282791
vt 0.772339 0.121772
vt 0.877749 0.298645
vt 0.644206 0.288939
vt 0.698502 0.369233
vt 0.648760 0.389689
vt 0.607587 0.337720
vt 0.714733 0.823665
vt 0.813649 0.875515
vt 0.685034 0.935393
vt 0.770269 0.935392
vt 0.799211 0.088549
vt 0.915331 0.275411
vt 0.899819 0.818962
vt 0.938047 0.935510
vt 0.917842 0.557084
vt 0.908624 0.554881
vt 0.869257 0.544352
vt 0.828319 0.532685
vt 0.891814 0.550618
vt 0.706199 0.499626
vt 0.655469 0.485553
vt 0.818604 0.823665
vt 0.925819 0.559010
vt 0.933815 0.560171
vt 0.900877 0.552912
vt 0.769770 0.516098
vt 0.774539 0.935393
vt 0.912363 0.971345
vt 0.873202 0.997438
vt 0.802795 0.084099
vt 0.919818 0.269032
vt 0.939707 0.563257
vt 0.594625 0.979157
vt 0.638214 0.979156
vt 0.640398 0.979157
vt 0.895696 0.859431
vt 0.916576 0.858586
vt 0.957223 0.437780
vt 0.950372 0.440247
vt 0.823893 0.863515
vt 0.857305 0.861473
vt 0.960927 0.935508
vt 0.933901 0.971343
vt 0.647731 0.979155
vt 0.788878 0.935391
vt 0.941546 0.443032
vt 0.662314 0.442001
vt 0.916935 0.445274
vt 0.907755 0.445808
vt 0.933654 0.443598
vt 0.815031 0.864360
vt 0.781199 0.445640
vt 0.715099 0.443111
vt 0.892694 0.997436
vt 0.884478 0.446135
vt 0.924626 0.444542
vt 0.842104 0.446201
vt 0.505400 0.978087
vt 0.405508 0.978175
vt 0.412601 0.987145
vt 0.505487 0.987063
vt 0.601594 0.889731
vt 0.573194 0.889551
vt 0.566328 0.899207
vt 0.591798 0.899368
vt 0.444668 0.938685
vt 0.507428 0.938754
vt 0.507551 0.948712
vt 0.434869 0.948632
vt 0.443566 0.938352
vt 0.418215 0.938519
vt 0.404235 0.948438
vt 0.433593 0.948245
vt 0.505946 0.918568
vt 0.449787 0.918630
vt 0.446676 0.928464
vt 0.505908 0.928399
vt 0.579704 0.948632
vt 0.589677 0.958570
vt 0.507674 0.958662
vt 0.505985 0.908822
vt 0.452897 0.908881
vt 0.507571 0.880374
vt 0.581365 0.880292
vt 0.574377 0.889911
vt 0.507485 0.889985
vt 0.364863 0.978389
vt 0.374807 0.987344
vt 0.569731 0.938685
vt 0.595082 0.938518
vt 0.609063 0.948438
vt 0.568630 0.938352
vt 0.505870 0.938283
vt 0.505747 0.948164
vt 0.578429 0.948244
vt 0.505624 0.958037
vt 0.588227 0.958128
vt 0.637024 0.968219
vt 0.598026 0.967971
vt 0.606023 0.978175
vt 0.648435 0.978388
vt 0.599651 0.968467
vt 0.607790 0.978602
vt 0.413647 0.967971
vt 0.376274 0.968219
vt 0.407274 0.978602
vt 0.507898 0.978690
vt 0.507810 0.987624
vt 0.414244 0.987542
vt 0.599054 0.987145
vt 0.638491 0.987343
vt 0.415272 0.968467
vt 0.507797 0.968570
vt 0.390254 0.958349
vt 0.423620 0.958128
vt 0.600696 0.987541
vt 0.425070 0.958570
vt 0.623044 0.958349
vt 0.440104 0.889911
vt 0.507399 0.899596
vt 0.446970 0.899529
vt 0.611390 0.880094
vt 0.580060 0.879896
vt 0.431296 0.909023
vt 0.426935 0.918781
vt 0.566621 0.928781
vt 0.590722 0.928623
vt 0.433238 0.995748
vt 0.401907 0.995549
vt 0.611390 0.995549
vt 0.581365 0.995747
vt 0.433238 0.880292
vt 0.453835 0.909166
vt 0.507313 0.909225
vt 0.507351 0.918993
vt 0.450780 0.918931
vt 0.560401 0.909166
vt 0.563511 0.918931
vt 0.559462 0.908881
vt 0.582002 0.909023
vt 0.505812 0.889477
vt 0.438921 0.889551
vt 0.445909 0.899207
vt 0.505899 0.899140
vt 0.562518 0.918630
vt 0.565574 0.928464
vt 0.447724 0.928781
vt 0.507389 0.928846
vt 0.567389 0.899529
vt 0.505500 0.967869
vt 0.422576 0.928623
vt 0.505726 0.879813
vt 0.431933 0.873724
vt 0.401907 0.873922
vt 0.401907 0.880094
vt 0.431933 0.879896
vt 0.505726 0.995269
vt 0.506649 0.998983
vt 0.580060 0.995351
vt 0.507572 0.995830
vt 0.586362 0.918780
vt 0.611390 0.873922
vt 0.580060 0.873724
vt 0.507571 0.874203
vt 0.581365 0.874120
vt 0.421500 0.899368
vt 0.433238 0.874121
vt 0.505726 0.873642
vt 0.414250 0.870810
vt 0.431668 0.875513
vt 0.460623 0.863515
vt 0.445213 0.861473
vt 0.459981 0.859432
vt 0.411703 0.889731
vt 0.431933 0.995351
vt 0.573273 0.997437
vt 0.580962 0.971344
vt 0.590402 0.056617
vt 0.592381 0.049190
vt 0.567401 0.186356
vt 0.577430 0.127475
vt 0.584189 0.087498
vt 0.586005 0.935510
vt 0.578499 0.870812
vt 0.594642 0.040510
vt 0.597671 0.033124
vt 0.588314 0.065428
vt 0.548312 0.309480
vt 0.556434 0.253626
vt 0.562554 0.875515
vt 0.553902 0.935392
vt 0.603248 0.024086
vt 0.306425 0.818962
vt 0.287916 0.935510
vt 0.313640 0.054859
vt 0.317731 0.063372
vt 0.336870 0.100569
vt 0.360042 0.144084
vt 0.325419 0.078841
vt 0.428840 0.275659
vt 0.453458 0.323507
vt 0.345746 0.823665
vt 0.310093 0.047500
vt 0.307332 0.039985
vt 0.321277 0.070501
vt 0.394973 0.209688
vt 0.367080 0.935393
vt 0.300352 0.971345
vt 0.319312 0.997438
vt 0.608517 0.018398
vt 0.303094 0.034923
vt 0.527565 0.979156
vt 0.432025 0.979157
vt 0.496276 0.858586
vt 0.532837 0.859432
vt 0.430033 0.016227
vt 0.431349 0.009757
vt 0.548247 0.861473
vt 0.533479 0.863515
vt 0.411560 0.971343
vt 0.406051 0.935508
vt 0.441119 0.935391
vt 0.469889 0.979155
vt 0.428684 0.024461
vt 0.494579 0.307655
vt 0.431958 0.055798
vt 0.430802 0.047221
vt 0.429535 0.031771
vt 0.497184 0.864360
vt 0.480551 0.254792
vt 0.463077 0.187708
vt 0.419959 0.997436
vt 0.436451 0.078313
vt 0.430184 0.040120
vt 0.446560 0.121944
s 1
usemtl Jellyfish.001
f 41/1/1 53/2/2 54/3/3 42/4/4
f 12/5/5 10/6/6 9/7/7 11/8/8
f 84/9/9 87/10/10 24/11/11 25/12/12
f 69/13/13 66/14/14 38/15/15 35/16/16
f 59/17/17 3/18/18 4/19/19 60/20/20
f 24/11/11 32/21/21 31/22/22 23/23/23
f 82/24/24 68/25/25 3/18/18 59/17/17
f 98/26/26 102/27/27 20/28/28 16/29/29
f 53/2/2 45/30/30 46/31/31 54/3/3
f 75/32/32 72/33/33 33/34/34 32/21/21
f 78/35/35 81/36/36 28/37/37 29/38/38
f 72/33/33 78/35/35 29/38/38 33/34/34
f 29/38/38 28/37/37 27/39/39 30/40/40
f 73/41/41 79/42/42 49/43/43 51/44/44
f 74/45/45 73/41/41 51/44/44 43/46/46
f 70/47/47 65/48/48 45/30/30 53/2/2
f 47/49/49 39/50/50 40/51/51 48/52/52
f 51/44/44 49/43/43 50/53/53 52/54/54
f 85/55/55 86/56/56 39/50/50 47/49/49
f 86/56/56 74/45/45 43/46/46 39/50/50
f 45/30/30 47/49/49 48/52/52 46/31/31
f 35/16/16 38/15/15 37/57/57 36/58/58
f 28/37/37 35/16/16 36/58/58 27/39/39
f 66/14/14 84/9/9 25/12/12 38/15/15
f 43/46/46 51/44/44 52/54/54 44/59/59
f 38/15/15 25/12/12 26/60/60 37/57/57
f 33/34/34 29/38/38 30/40/40 34/61/61
f 25/12/12 24/11/11 23/23/23 26/60/60
f 8/62/62 16/29/29 15/63/63 7/64/64
f 49/43/43 41/1/1 42/4/4 50/53/53
f 99/65/65 101/66/66 10/6/6 12/5/5
f 34/61/61 30/40/40 79/42/42 73/41/41
f 68/25/25 67/67/67 6/68/68 3/18/18
f 56/69/69 2/70/70 72/33/33 75/32/32
f 46/31/31 48/52/52 105/71/71 93/72/72
f 44/59/59 52/54/54 92/73/73 95/74/74
f 104/75/75 98/26/26 16/29/29 8/62/62
f 83/76/76 88/77/77 63/78/78 62/79/79
f 36/58/58 37/57/57 65/48/48 70/47/47
f 88/77/77 76/80/80 55/81/81 63/78/78
f 11/8/8 9/7/7 77/82/82 71/83/83
f 18/84/84 14/85/85 13/86/86 17/87/87
f 58/88/88 59/17/17 60/20/20 57/89/89
f 61/90/90 64/91/91 87/10/10 84/9/9
f 77/82/82 82/24/24 59/17/17 58/88/88
f 57/89/89 60/20/20 81/36/36 78/35/35
f 16/29/29 20/28/28 19/92/92 15/63/63
f 32/21/21 33/34/34 34/61/61 31/22/22
f 79/42/42 80/93/93 41/1/1 49/43/43
f 3/18/18 6/68/68 5/94/94 4/19/19
f 87/10/10 75/32/32 32/21/21 24/11/11
f 80/93/93 70/47/47 53/2/2 41/1/1
f 23/23/23 31/22/22 74/45/45 86/56/56
f 39/50/50 43/46/46 44/59/59 40/51/51
f 101/66/66 97/95/95 18/84/84 10/6/6
f 81/36/36 69/13/13 35/16/16 28/37/37
f 65/48/48 85/55/55 47/49/49 45/30/30
f 112/96/96 109/97/97 100/98/98 103/99/99
f 90/100/100 89/101/101 92/73/73 94/102/102
f 93/72/72 105/71/71 91/103/103 89/101/101
f 37/57/57 26/60/60 85/55/55 65/48/48
f 27/39/39 36/58/58 70/47/47 80/93/93
f 1/104/104 58/88/88 57/89/89 2/70/70
f 4/19/19 5/94/94 66/14/14 69/13/13
f 19/92/92 11/8/8 71/83/83 76/80/80
f 26/60/60 23/23/23 86/56/56 85/55/55
f 15/63/63 19/92/92 76/80/80 88/77/77
f 52/54/54 50/53/53 94/102/102 92/73/73
f 67/67/67 83/76/76 62/79/79 6/68/68
f 108/105/105 110/106/106 101/66/66 99/65/65
f 6/68/68 62/79/79 61/90/90 5/94/94
f 107/107/107 111/108/108 102/27/27 98/26/26
f 21/109/109 7/64/64 83/76/76 67/67/67
f 40/51/51 44/59/59 95/74/74 91/103/103
f 2/70/70 57/89/89 78/35/35 72/33/33
f 109/97/97 113/110/110 104/75/75 100/98/98
f 111/108/108 108/105/105 99/65/65 102/27/27
f 106/111/111 112/96/96 103/99/99 97/95/95
f 17/87/87 13/86/86 68/25/25 82/24/24
f 50/53/53 42/4/4 90/100/100 94/102/102
f 5/94/94 61/90/90 84/9/9 66/14/14
f 48/52/52 40/51/51 91/103/103 105/71/71
f 102/27/27 99/65/65 12/5/5 20/28/28
f 20/28/28 12/5/5 11/8/8 19/92/92
f 97/95/95 103/99/99 14/85/85 18/84/84
f 10/6/6 18/84/84 17/87/87 9/7/7
f 119/112/112 118/113/113 110/114/106 108/115/105 111/116/108
f 103/99/99 100/98/98 22/117/114 14/85/85
f 110/106/106 106/111/111 97/95/95 101/66/66
f 100/98/98 104/75/75 8/62/62 22/117/114
f 22/117/114 8/62/62 7/64/64 21/109/109
f 113/110/110 107/107/107 98/26/26 104/75/75
f 14/85/85 22/117/114 21/109/109 13/86/86
f 64/91/91 56/69/69 75/32/32 87/10/10
f 76/80/80 71/83/83 1/104/104 55/81/81
f 55/81/81 1/104/104 2/70/70 56/69/69
f 31/22/22 34/61/61 73/41/41 74/45/45
f 42/4/4 54/3/3 96/118/115 90/100/100
f 89/101/101 91/103/103 95/74/74 92/73/73
f 60/20/20 4/19/19 69/13/13 81/36/36
f 13/86/86 21/109/109 67/67/67 68/25/25
f 7/64/64 15/63/63 88/77/77 83/76/76
f 62/79/79 63/78/78 64/91/91 61/90/90
f 63/78/78 55/81/81 56/69/69 64/91/91
f 30/40/40 27/39/39 80/93/93 79/42/42
f 54/3/3 46/31/31 93/72/72 96/118/115
f 96/118/115 93/72/72 89/101/101 90/100/100
f 71/83/83 77/82/82 58/88/88 1/104/104
f 9/7/7 17/87/87 82/24/24 77/82/82
f 347/119/116 309/120/117 142/121/118 164/122/119
f 306/123/120 305/124/121 138/125/122 139/126/123
f 302/127/124 301/128/125 134/129/126 135/130/127
f 303/131/128 302/127/124 135/130/127 136/132/129
f 311/133/130 310/134/131 143/135/132 144/136/133
f 307/137/134 306/123/120 139/126/123 140/138/135
f 308/139/136 307/137/134 140/138/135 141/140/137
f 304/141/138 303/131/128 136/132/129 137/142/139
f 300/143/140 299/144/141 132/145/142 133/146/143
f 312/147/144 311/133/130 144/136/133 145/148/145
f 350/149/146 312/147/144 145/148/145 166/150/147
f 344/151/148 308/139/136 141/140/137 162/152/149
f 305/124/121 304/141/138 137/142/139 138/125/122
f 301/128/125 300/143/140 133/146/143 134/129/126
f 159/153/150 158/154/151 525/155/152 526/156/153
f 155/157/154 154/158/155 521/159/156 522/160/157
f 151/161/158 150/162/159 517/163/160 518/164/161
f 152/165/162 151/161/158 518/164/161 519/166/163
f 148/167/164 147/168/165 514/169/166 515/170/167
f 160/171/168 159/153/150 526/156/153 527/172/169
f 156/173/170 155/157/154 522/160/157 523/174/171
f 163/175/172 156/173/170 523/174/171 531/176/173
f 153/177/174 152/165/162 519/166/163 520/178/175
f 149/179/176 148/167/164 515/170/167 516/180/177
f 167/181/178 160/171/168 527/172/169 537/182/179
f 165/183/180 157/184/181 524/185/182 534/186/183
f 154/158/155 153/177/174 520/178/175 521/159/156
f 150/162/159 149/179/176 516/180/177 517/163/160
f 309/187/117 344/151/148 162/152/149 142/188/118
f 157/189/181 163/175/172 531/176/173 524/190/182
f 310/134/131 347/119/116 164/122/119 143/135/132
f 158/154/151 165/183/180 534/186/183 525/155/152
f 313/191/184 350/149/146 166/150/147 146/192/185
f 161/193/186 167/181/178 537/182/179 528/194/187
f 144/136/133 119/112/112 111/116/108 107/195/107 113/196/110
f 142/188/118 162/152/149 116/197/188 121/198/189
f 145/148/145 144/136/133 113/196/110 109/199/97 112/200/96
f 143/135/132 164/122/119 115/201/190 120/202/191
f 146/192/185 166/150/147 114/203/192 117/204/193
f 162/152/149 141/140/137 122/205/194 116/197/188
f 670/206/195 146/192/185 117/204/193
f 132/145/142 669/207/196 131/208/197
f 138/125/122 137/142/139 126/209/198 125/210/199
f 141/140/137 140/138/135 123/211/200 122/205/194
f 118/113/113 145/148/145 112/200/96 106/212/111 110/114/106
f 166/150/147 145/148/145 118/113/113 114/203/192
f 134/129/126 133/146/143 130/213/201 129/214/202
f 164/122/119 142/121/118 121/215/189 115/201/190
f 137/142/139 136/132/129 127/216/203 126/209/198
f 133/146/143 132/145/142 131/208/197 130/213/201
f 140/138/135 139/126/123 124/217/204 123/211/200
f 144/136/133 143/135/132 120/202/191 119/112/112
f 139/126/123 138/125/122 125/210/199 124/217/204
f 135/130/127 134/129/126 129/214/202 128/218/205
f 136/132/129 135/130/127 128/218/205 127/216/203
f 118/113/113 119/112/112 159/153/150 160/171/168
f 122/205/194 123/211/200 155/157/154 156/173/170
f 126/209/198 127/216/203 151/161/158 152/165/162
f 130/213/201 131/208/197 147/168/165 148/167/164
f 114/203/192 118/113/113 160/171/168 167/181/178
f 116/197/188 122/205/194 156/173/170 163/175/172
f 125/210/199 126/209/198 152/165/162 153/177/174
f 129/214/202 130/213/201 148/167/164 149/179/176
f 128/218/205 129/214/202 149/179/176 150/162/159
f 115/201/190 121/215/189 157/184/181 165/183/180
f 124/217/204 125/210/199 153/177/174 154/158/155
f 123/211/200 124/217/204 154/158/155 155/157/154
f 127/216/203 128/218/205 150/162/159 151/161/158
f 119/112/112 120/202/191 158/154/151 159/153/150
f 670/206/195 313/191/184 146/192/185
f 299/144/141 669/207/196 132/145/142
f 670/206/195 117/204/193 161/193/186
f 131/208/197 669/207/196 147/168/165
f 147/168/165 669/207/196 514/169/166
f 670/206/195 161/193/186 528/194/187
f 121/198/189 116/197/188 163/175/172 157/189/181
f 120/202/191 115/201/190 165/183/180 158/154/151
f 117/204/193 114/203/192 167/181/178 161/193/186
f 208/219/206 209/220/207 221/221/208 220/222/209
f 179/223/210 178/224/211 176/225/212 177/226/213
f 251/227/214 192/228/215 191/229/216 254/230/217
f 236/231/218 202/232/219 205/233/220 233/234/221
f 226/235/222 227/236/223 171/237/224 170/238/225
f 191/229/216 190/239/226 198/240/227 199/241/228
f 249/242/229 226/235/222 170/238/225 235/243/230
f 265/244/231 183/245/232 187/246/233 269/247/234
f 220/222/209 221/221/208 213/248/235 212/249/236
f 242/250/237 199/241/228 200/251/238 239/252/239
f 245/253/240 196/254/241 195/255/242 248/256/243
f 239/252/239 200/251/238 196/254/241 245/253/240
f 196/254/241 197/257/244 194/258/245 195/255/242
f 240/259/246 218/260/247 216/261/248 246/262/249
f 241/263/250 210/264/251 218/260/247 240/259/246
f 237/265/252 220/222/209 212/249/236 232/266/253
f 214/267/254 215/268/255 207/269/256 206/270/257
f 218/260/247 219/271/258 217/272/259 216/261/248
f 252/273/260 214/267/254 206/270/257 253/274/261
f 253/274/261 206/270/257 210/264/251 241/263/250
f 212/249/236 213/248/235 215/268/255 214/267/254
f 202/232/219 203/275/262 204/276/263 205/233/220
f 195/255/242 194/258/245 203/275/262 202/232/219
f 233/234/221 205/233/220 192/228/215 251/227/214
f 210/264/251 211/277/264 219/271/258 218/260/247
f 205/233/220 204/276/263 193/278/265 192/228/215
f 200/251/238 201/279/266 197/257/244 196/254/241
f 192/228/215 193/278/265 190/239/226 191/229/216
f 175/280/267 174/281/268 182/282/269 183/245/232
f 216/261/248 217/272/259 209/220/207 208/219/206
f 266/283/270 179/223/210 177/226/213 268/284/271
f 201/279/266 240/259/246 246/262/249 197/257/244
f 235/243/230 170/238/225 173/285/272 234/286/273
f 223/287/274 242/250/237 239/252/239 169/288/275
f 213/248/235 260/289/276 272/290/277 215/268/255
f 211/277/264 262/291/278 259/292/279 219/271/258
f 271/293/280 175/280/267 183/245/232 265/244/231
f 250/294/281 229/295/282 230/296/283 255/297/284
f 203/275/262 237/265/252 232/266/253 204/276/263
f 255/297/284 230/296/283 222/298/285 243/299/286
f 178/224/211 238/300/287 244/301/288 176/225/212
f 185/302/289 184/303/290 180/304/291 181/305/292
f 225/306/293 224/307/294 227/236/223 226/235/222
f 228/308/295 251/227/214 254/230/217 231/309/296
f 244/301/288 225/306/293 226/235/222 249/242/229
f 224/307/294 245/253/240 248/256/243 227/236/223
f 183/245/232 182/282/269 186/310/297 187/246/233
f 199/241/228 198/240/227 201/279/266 200/251/238
f 246/262/249 216/261/248 208/219/206 247/311/298
f 170/238/225 171/237/224 172/312/299 173/285/272
f 254/230/217 191/229/216 199/241/228 242/250/237
f 247/311/298 208/219/206 220/222/209 237/265/252
f 190/239/226 253/274/261 241/263/250 198/240/227
f 206/270/257 207/269/256 211/277/264 210/264/251
f 268/284/271 177/226/213 185/302/289 264/313/300
f 248/256/243 195/255/242 202/232/219 236/231/218
f 232/266/253 212/249/236 214/267/254 252/273/260
f 279/314/301 270/315/302 267/316/303 276/317/304
f 257/318/305 261/319/306 259/292/279 256/320/307
f 260/289/276 256/320/307 258/321/308 272/290/277
f 204/276/263 232/266/253 252/273/260 193/278/265
f 194/258/245 247/311/298 237/265/252 203/275/262
f 168/322/309 169/288/275 224/307/294 225/306/293
f 171/237/224 236/231/218 233/234/221 172/312/299
f 186/310/297 243/299/286 238/300/287 178/224/211
f 193/278/265 252/273/260 253/274/261 190/239/226
f 182/282/269 255/297/284 243/299/286 186/310/297
f 219/271/258 259/292/279 261/319/306 217/272/259
f 234/286/273 173/285/272 229/295/282 250/294/281
f 275/323/310 266/283/270 268/284/271 277/324/311
f 173/285/272 172/312/299 228/308/295 229/295/282
f 274/325/312 265/244/231 269/247/234 278/326/313
f 188/327/314 234/286/273 250/294/281 174/281/268
f 207/269/256 258/321/308 262/291/278 211/277/264
f 169/288/275 239/252/239 245/253/240 224/307/294
f 276/317/304 267/316/303 271/293/280 280/328/315
f 278/326/313 269/247/234 266/283/270 275/323/310
f 273/329/316 264/313/300 270/315/302 279/314/301
f 184/303/290 249/242/229 235/243/230 180/304/291
f 217/272/259 261/319/306 257/318/305 209/220/207
f 172/312/299 233/234/221 251/227/214 228/308/295
f 215/268/255 272/290/277 258/321/308 207/269/256
f 269/247/234 187/246/233 179/223/210 266/283/270
f 187/246/233 186/310/297 178/224/211 179/223/210
f 264/313/300 185/302/289 181/305/292 270/315/302
f 177/226/213 176/225/212 184/303/290 185/302/289
f 286/330/317 278/331/313 275/332/310 277/333/311 285/334/318
f 270/315/302 181/305/292 189/335/319 267/316/303
f 277/324/311 268/284/271 264/313/300 273/329/316
f 267/316/303 189/335/319 175/280/267 271/293/280
f 189/335/319 188/327/314 174/281/268 175/280/267
f 280/328/315 271/293/280 265/244/231 274/325/312
f 181/305/292 180/304/291 188/327/314 189/335/319
f 231/309/296 254/230/217 242/250/237 223/287/274
f 243/299/286 222/298/285 168/322/309 238/300/287
f 222/298/285 223/287/274 169/288/275 168/322/309
f 198/240/227 241/263/250 240/259/246 201/279/266
f 209/220/207 257/318/305 263/336/320 221/221/208
f 256/320/307 259/292/279 262/291/278 258/321/308
f 227/236/223 248/256/243 236/231/218 171/237/224
f 180/304/291 235/243/230 234/286/273 188/327/314
f 174/281/268 250/294/281 255/297/284 182/282/269
f 229/295/282 228/308/295 231/309/296 230/296/283
f 230/296/283 231/309/296 223/287/274 222/298/285
f 197/257/244 246/262/249 247/311/298 194/258/245
f 221/221/208 263/336/320 260/289/276 213/248/235
f 263/336/320 257/318/305 256/320/307 260/289/276
f 238/300/287 168/322/309 225/306/293 244/301/288
f 176/225/212 244/301/288 249/242/229 184/303/290
f 347/119/116 348/337/321 324/338/322 309/120/117
f 306/123/120 321/339/323 320/340/324 305/124/121
f 302/127/124 317/341/325 316/342/326 301/128/125
f 303/131/128 318/343/327 317/341/325 302/127/124
f 311/133/130 326/344/328 325/345/329 310/134/131
f 307/137/134 322/346/330 321/339/323 306/123/120
f 308/139/136 323/347/331 322/346/330 307/137/134
f 304/141/138 319/348/332 318/343/327 303/131/128
f 300/143/140 315/349/333 314/350/334 299/144/141
f 312/147/144 327/351/335 326/344/328 311/133/130
f 350/149/146 351/352/336 327/351/335 312/147/144
f 344/151/148 345/353/337 323/347/331 308/139/136
f 305/124/121 320/340/324 319/348/332 304/141/138
f 301/128/125 316/342/326 315/349/333 300/143/140
f 341/354/338 728/355/339 727/356/340 340/357/341
f 337/358/342 724/359/343 723/360/344 336/361/345
f 333/362/346 720/363/347 719/364/348 332/365/349
f 334/366/350 721/367/351 720/363/347 333/362/346
f 330/368/352 717/369/353 716/370/354 329/371/355
f 342/372/356 729/373/357 728/355/339 341/354/338
f 338/374/358 725/375/359 724/359/343 337/358/342
f 346/376/360 734/377/361 725/375/359 338/374/358
f 335/378/362 722/379/363 721/367/351 334/366/350
f 331/380/364 718/381/365 717/369/353 330/368/352
f 352/382/366 742/383/367 729/373/357 342/372/356
f 349/384/368 738/385/369 726/386/370 339/387/371
f 336/361/345 723/360/344 722/379/363 335/378/362
f 332/365/349 719/364/348 718/381/365 331/380/364
f 309/187/117 324/388/322 345/353/337 344/151/148
f 339/389/371 726/390/370 734/377/361 346/376/360
f 310/134/131 325/345/329 348/337/321 347/119/116
f 340/357/341 727/356/340 738/385/369 349/384/368
f 313/191/184 328/391/372 351/352/336 350/149/146
f 343/392/373 730/393/374 742/383/367 352/382/366
f 326/344/328 280/394/315 274/395/312 278/331/313 286/330/317
f 324/388/322 288/396/375 283/397/376 345/353/337
f 327/351/335 279/398/301 276/399/304 280/394/315 326/344/328
f 325/345/329 287/400/377 282/401/378 348/337/321
f 328/391/372 284/402/379 281/403/380 351/352/336
f 345/353/337 283/397/376 289/404/381 323/347/331
f 670/206/195 284/402/379 328/391/372
f 314/350/334 298/405/382 669/207/196
f 320/340/324 292/406/383 293/407/384 319/348/332
f 323/347/331 289/404/381 290/408/385 322/346/330
f 285/334/318 277/333/311 273/409/316 279/398/301 327/351/335
f 351/352/336 281/403/380 285/334/318 327/351/335
f 316/342/326 296/410/386 297/411/387 315/349/333
f 348/337/321 282/401/378 288/412/375 324/338/322
f 319/348/332 293/407/384 294/413/388 318/343/327
f 315/349/333 297/411/387 298/405/382 314/350/334
f 322/346/330 290/408/385 291/414/389 321/339/323
f 326/344/328 286/330/317 287/400/377 325/345/329
f 321/339/323 291/414/389 292/406/383 320/340/324
f 317/341/325 295/415/390 296/410/386 316/342/326
f 318/343/327 294/413/388 295/415/390 317/341/325
f 285/334/318 342/372/356 341/354/338 286/330/317
f 289/404/381 338/374/358 337/358/342 290/408/385
f 293/407/384 334/366/350 333/362/346 294/413/388
f 297/411/387 330/368/352 329/371/355 298/405/382
f 281/403/380 352/382/366 342/372/356 285/334/318
f 283/397/376 346/376/360 338/374/358 289/404/381
f 292/406/383 335/378/362 334/366/350 293/407/384
f 296/410/386 331/380/364 330/368/352 297/411/387
f 295/415/390 332/365/349 331/380/364 296/410/386
f 282/401/378 349/384/368 339/387/371 288/412/375
f 291/414/389 336/361/345 335/378/362 292/406/383
f 290/408/385 337/358/342 336/361/345 291/414/389
f 294/413/388 333/362/346 332/365/349 295/415/390
f 286/330/317 341/354/338 340/357/341 287/400/377
f 670/206/195 328/391/372 313/191/184
f 299/144/141 314/350/334 669/207/196
f 670/206/195 343/392/373 284/402/379
f 298/405/382 329/371/355 669/207/196
f 329/371/355 716/370/354 669/207/196
f 670/206/195 730/393/374 343/392/373
f 288/396/375 339/389/371 346/376/360 283/397/376
f 287/400/377 340/357/341 349/384/368 282/401/378
f 284/402/379 343/392/373 352/382/366 281/403/380
f 393/416/391 394/417/392 406/418/393 405/419/394
f 364/420/395 363/421/396 361/422/397 362/423/398
f 436/424/399 377/425/400 376/426/401 439/427/402
f 421/428/403 387/429/404 390/430/405 418/431/406
f 411/432/407 412/433/408 356/434/409 355/435/410
f 376/426/401 375/436/411 383/437/412 384/438/413
f 434/439/414 411/432/407 355/435/410 420/440/415
f 450/441/416 368/442/417 372/443/418 454/444/419
f 405/419/394 406/418/393 398/445/420 397/446/421
f 427/447/422 384/438/413 385/448/423 424/449/424
f 430/450/425 381/451/426 380/452/427 433/453/428
f 424/449/424 385/448/423 381/451/426 430/450/425
f 381/451/426 382/454/429 379/455/430 380/452/427
f 425/456/431 403/457/432 401/458/433 431/459/434
f 426/460/435 395/461/436 403/457/432 425/456/431
f 422/462/437 405/419/394 397/446/421 417/463/438
f 399/464/439 400/465/440 392/466/441 391/467/442
f 403/457/432 404/468/443 402/469/444 401/458/433
f 437/470/445 399/464/439 391/467/442 438/471/446
f 438/471/446 391/467/442 395/461/436 426/460/435
f 397/446/421 398/445/420 400/465/440 399/464/439
f 387/429/404 388/472/447 389/473/448 390/430/405
f 380/452/427 379/455/430 388/472/447 387/429/404
f 418/431/406 390/430/405 377/425/400 436/424/399
f 395/461/436 396/474/449 404/468/443 403/457/432
f 390/430/405 389/473/448 378/475/450 377/425/400
f 385/448/423 386/476/451 382/454/429 381/451/426
f 377/425/400 378/475/450 375/436/411 376/426/401
f 360/477/452 359/478/453 367/479/454 368/442/417
f 401/458/433 402/469/444 394/417/392 393/416/391
f 451/480/455 364/420/395 362/423/398 453/481/456
f 386/476/451 425/456/431 431/459/434 382/454/429
f 420/440/415 355/435/410 358/482/457 419/483/458
f 408/484/459 427/447/422 424/449/424 354/485/460
f 398/445/420 445/486/461 457/487/462 400/465/440
f 396/474/449 447/488/463 444/489/464 404/468/443
f 456/490/465 360/477/452 368/442/417 450/441/416
f 435/491/466 414/492/467 415/493/468 440/494/469
f 388/472/447 422/462/437 417/463/438 389/473/448
f 440/494/469 415/493/468 407/495/470 428/496/471
f 363/421/396 423/497/472 429/498/473 361/422/397
f 370/499/474 369/500/475 365/501/476 366/502/477
f 410/503/478 409/504/479 412/433/408 411/432/407
f 413/505/480 436/424/399 439/427/402 416/506/481
f 429/498/473 410/503/478 411/432/407 434/439/414
f 409/504/479 430/450/425 433/453/428 412/433/408
f 368/442/417 367/479/454 371/507/482 372/443/418
f 384/438/413 383/437/412 386/476/451 385/448/423
f 431/459/434 401/458/433 393/416/391 432/508/483
f 355/435/410 356/434/409 357/509/484 358/482/457
f 439/427/402 376/426/401 384/438/413 427/447/422
f 432/508/483 393/416/391 405/419/394 422/462/437
f 375/436/411 438/471/446 426/460/435 383/437/412
f 391/467/442 392/466/441 396/474/449 395/461/436
f 453/481/456 362/423/398 370/499/474 449/510/485
f 433/453/428 380/452/427 387/429/404 421/428/403
f 417/463/438 397/446/421 399/464/439 437/470/445
f 464/511/486 455/512/487 452/513/488 461/514/489
f 442/515/490 446/516/491 444/489/464 441/517/492
f 445/486/461 441/517/492 443/518/493 457/487/462
f 389/473/448 417/463/438 437/470/445 378/475/450
f 379/455/430 432/508/483 422/462/437 388/472/447
f 353/519/494 354/485/460 409/504/479 410/503/478
f 356/434/409 421/428/403 418/431/406 357/509/484
f 371/507/482 428/496/471 423/497/472 363/421/396
f 378/475/450 437/470/445 438/471/446 375/436/411
f 367/479/454 440/494/469 428/496/471 371/507/482
f 404/468/443 444/489/464 446/516/491 402/469/444
f 419/483/458 358/482/457 414/492/467 435/491/466
f 460/520/495 451/480/455 453/481/456 462/521/496
f 358/482/457 357/509/484 413/505/480 414/492/467
f 459/522/497 450/441/416 454/444/419 463/523/498
f 373/524/499 419/483/458 435/491/466 359/478/453
f 392/466/441 443/518/493 447/488/463 396/474/449
f 354/485/460 424/449/424 430/450/425 409/504/479
f 461/514/489 452/513/488 456/490/465 465/525/500
f 463/523/498 454/444/419 451/480/455 460/520/495
f 458/526/501 449/510/485 455/512/487 464/511/486
f 369/500/475 434/439/414 420/440/415 365/501/476
f 402/469/444 446/516/491 442/515/490 394/417/392
f 357/509/484 418/431/406 436/424/399 413/505/480
f 400/465/440 457/487/462 443/518/493 392/466/441
f 454/444/419 372/443/418 364/420/395 451/480/455
f 372/443/418 371/507/482 363/421/396 364/420/395
f 449/510/485 370/499/474 366/502/477 455/512/487
f 362/423/398 361/422/397 369/500/475 370/499/474
f 471/527/502 463/528/498 460/529/495 462/530/496 470/531/503
f 455/512/487 366/502/477 374/532/504 452/513/488
f 462/521/496 453/481/456 449/510/485 458/526/501
f 452/513/488 374/532/504 360/477/452 456/490/465
f 374/532/504 373/524/499 359/478/453 360/477/452
f 465/525/500 456/490/465 450/441/416 459/522/497
f 366/502/477 365/501/476 373/524/499 374/532/504
f 416/506/481 439/427/402 427/447/422 408/484/459
f 428/496/471 407/495/470 353/519/494 423/497/472
f 407/495/470 408/484/459 354/485/460 353/519/494
f 383/437/412 426/460/435 425/456/431 386/476/451
f 394/417/392 442/515/490 448/533/505 406/418/393
f 441/517/492 444/489/464 447/488/463 443/518/493
f 412/433/408 433/453/428 421/428/403 356/434/409
f 365/501/476 420/440/415 419/483/458 373/524/499
f 359/478/453 435/491/466 440/494/469 367/479/454
f 414/492/467 413/505/480 416/506/481 415/493/468
f 415/493/468 416/506/481 408/484/459 407/495/470
f 382/454/429 431/459/434 432/508/483 379/455/430
f 406/418/393 448/533/505 445/486/461 398/445/420
f 448/533/505 442/515/490 441/517/492 445/486/461
f 423/497/472 353/519/494 410/503/478 429/498/473
f 361/422/397 429/498/473 434/439/414 369/500/475
f 735/534/506 532/535/507 494/536/508 681/537/509
f 678/538/510 491/539/511 490/540/512 677/541/513
f 674/542/514 487/543/515 486/544/516 673/545/517
f 675/546/518 488/547/519 487/543/515 674/542/514
f 683/548/520 496/549/521 495/550/522 682/551/523
f 679/552/524 492/553/525 491/539/511 678/538/510
f 680/554/526 493/555/527 492/553/525 679/552/524
f 676/556/528 489/557/529 488/547/519 675/546/518
f 672/558/530 485/559/531 484/560/532 671/561/533
f 684/562/534 497/563/535 496/549/521 683/548/520
f 739/564/536 535/565/537 497/563/535 684/562/534
f 731/566/538 529/567/539 493/555/527 680/554/526
f 677/541/513 490/540/512 489/557/529 676/556/528
f 673/545/517 486/544/516 485/559/531 672/558/530
f 511/568/540 526/156/153 525/155/152 510/569/541
f 507/570/542 522/160/157 521/159/156 506/571/543
f 503/572/544 518/164/161 517/163/160 502/573/545
f 504/574/546 519/166/163 518/164/161 503/572/544
f 500/575/547 515/170/167 514/169/166 499/576/548
f 512/577/549 527/172/169 526/156/153 511/568/540
f 508/578/550 523/174/171 522/160/157 507/570/542
f 530/579/551 531/176/173 523/174/171 508/578/550
f 505/580/552 520/178/175 519/166/163 504/574/546
f 501/581/553 516/180/177 515/170/167 500/575/547
f 536/582/554 537/182/179 527/172/169 512/577/549
f 533/583/555 534/186/183 524/185/182 509/584/556
f 506/571/543 521/159/156 520/178/175 505/580/552
f 502/573/545 517/163/160 516/180/177 501/581/553
f 681/585/509 494/586/508 529/567/539 731/566/538
f 509/587/556 524/190/182 531/176/173 530/579/551
f 682/551/523 495/550/522 532/535/507 735/534/506
f 510/569/541 525/155/152 534/186/183 533/583/555
f 685/588/557 498/589/558 535/565/537 739/564/536
f 513/590/559 528/194/187 537/182/179 536/582/554
f 496/549/521 465/591/500 459/592/497 463/528/498 471/527/502
f 494/586/508 473/593/560 468/594/561 529/567/539
f 497/563/535 464/595/486 461/596/489 465/591/500 496/549/521
f 495/550/522 472/597/562 467/598/563 532/535/507
f 498/589/558 469/599/564 466/600/565 535/565/537
f 529/567/539 468/594/561 474/601/566 493/555/527
f 670/206/195 469/599/564 498/589/558
f 484/560/532 483/602/567 669/207/196
f 490/540/512 477/603/568 478/604/569 489/557/529
f 493/555/527 474/601/566 475/605/570 492/553/525
f 470/531/503 462/530/496 458/606/501 464/595/486 497/563/535
f 535/565/537 466/600/565 470/531/503 497/563/535
f 486/544/516 481/607/571 482/608/572 485/559/531
f 532/535/507 467/598/563 473/609/560 494/536/508
f 489/557/529 478/604/569 479/610/573 488/547/519
f 485/559/531 482/608/572 483/602/567 484/560/532
f 492/553/525 475/605/570 476/611/574 491/539/511
f 496/549/521 471/527/502 472/597/562 495/550/522
f 491/539/511 476/611/574 477/603/568 490/540/512
f 487/543/515 480/612/575 481/607/571 486/544/516
f 488/547/519 479/610/573 480/612/575 487/543/515
f 470/531/503 512/577/549 511/568/540 471/527/502
f 474/601/566 508/578/550 507/570/542 475/605/570
f 478/604/569 504/574/546 503/572/544 479/610/573
f 482/608/572 500/575/547 499/576/548 483/602/567
f 466/600/565 536/582/554 512/577/549 470/531/503
f 468/594/561 530/579/551 508/578/550 474/601/566
f 477/603/568 505/580/552 504/574/546 478/604/569
f 481/607/571 501/581/553 500/575/547 482/608/572
f 480/612/575 502/573/545 501/581/553 481/607/571
f 467/598/563 533/583/555 509/584/556 473/609/560
f 476/611/574 506/571/543 505/580/552 477/603/568
f 475/605/570 507/570/542 506/571/543 476/611/574
f 479/610/573 503/572/544 502/573/545 480/612/575
f 471/527/502 511/568/540 510/569/541 472/597/562
f 670/206/195 498/589/558 685/588/557
f 671/561/533 484/560/532 669/207/196
f 670/206/195 513/590/559 469/599/564
f 483/602/567 499/576/548 669/207/196
f 499/576/548 514/169/166 669/207/196
f 670/206/195 528/194/187 513/590/559
f 473/593/560 509/587/556 530/579/551 468/594/561
f 472/597/562 510/569/541 533/583/555 467/598/563
f 469/599/564 513/590/559 536/582/554 466/600/565
f 578/613/576 590/614/577 591/615/578 579/616/579
f 549/617/580 547/618/581 546/619/582 548/620/583
f 621/621/584 624/622/585 561/623/586 562/624/587
f 606/625/588 603/626/589 575/627/590 572/628/591
f 596/629/592 540/630/593 541/631/594 597/632/595
f 561/623/586 569/633/596 568/634/597 560/635/598
f 619/636/599 605/637/600 540/630/593 596/629/592
f 635/638/601 639/639/602 557/640/603 553/641/604
f 590/614/577 582/642/605 583/643/606 591/615/578
f 612/644/607 609/645/608 570/646/609 569/633/596
f 615/647/610 618/648/611 565/649/612 566/650/613
f 609/645/608 615/647/610 566/650/613 570/646/609
f 566/650/613 565/649/612 564/651/614 567/652/615
f 610/653/616 616/654/617 586/655/618 588/656/619
f 611/657/620 610/653/616 588/656/619 580/658/621
f 607/659/622 602/660/623 582/642/605 590/614/577
f 584/661/624 576/662/625 577/663/626 585/664/627
f 588/656/619 586/655/618 587/665/628 589/666/629
f 622/667/630 623/668/631 576/662/625 584/661/624
f 623/668/631 611/657/620 580/658/621 576/662/625
f 582/642/605 584/661/624 585/664/627 583/643/606
f 572/628/591 575/627/590 574/669/632 573/670/633
f 565/649/612 572/628/591 573/670/633 564/651/614
f 603/626/589 621/621/584 562/624/587 575/627/590
f 580/658/621 588/656/619 589/666/629 581/671/634
f 575/627/590 562/624/587 563/672/635 574/669/632
f 570/646/609 566/650/613 567/652/615 571/673/636
f 562/624/587 561/623/586 560/635/598 563/672/635
f 545/674/637 553/641/604 552/675/638 544/676/639
f 586/655/618 578/613/576 579/616/579 587/665/628
f 636/677/640 638/678/641 547/618/581 549/617/580
f 571/673/636 567/652/615 616/654/617 610/653/616
f 605/637/600 604/679/642 543/680/643 540/630/593
f 593/681/644 539/682/645 609/645/608 612/644/607
f 583/643/606 585/664/627 642/683/646 630/684/647
f 581/671/634 589/666/629 629/685/648 632/686/649
f 641/687/650 635/638/601 553/641/604 545/674/637
f 620/688/651 625/689/652 600/690/653 599/691/654
f 573/670/633 574/669/632 602/660/623 607/659/622
f 625/689/652 613/692/655 592/693/656 600/690/653
f 548/620/583 546/619/582 614/694/657 608/695/658
f 555/696/659 551/697/660 550/698/661 554/699/662
f 595/700/663 596/629/592 597/632/595 594/701/664
f 598/702/665 601/703/666 624/622/585 621/621/584
f 614/694/657 619/636/599 596/629/592 595/700/663
f 594/701/664 597/632/595 618/648/611 615/647/610
f 553/641/604 557/640/603 556/704/667 552/675/638
f 569/633/596 570/646/609 571/673/636 568/634/597
f 616/654/617 617/705/668 578/613/576 586/655/618
f 540/630/593 543/680/643 542/706/669 541/631/594
f 624/622/585 612/644/607 569/633/596 561/623/586
f 617/705/668 607/659/622 590/614/577 578/613/576
f 560/635/598 568/634/597 611/657/620 623/668/631
f 576/662/625 580/658/621 581/671/634 577/663/626
f 638/678/641 634/707/670 555/696/659 547/618/581
f 618/648/611 606/625/588 572/628/591 565/649/612
f 602/660/623 622/667/630 584/661/624 582/642/605
f 649/708/671 646/709/672 637/710/673 640/711/674
f 627/712/675 626/713/676 629/685/648 631/714/677
f 630/684/647 642/683/646 628/715/678 626/713/676
f 574/669/632 563/672/635 622/667/630 602/660/623
f 564/651/614 573/670/633 607/659/622 617/705/668
f 538/716/679 595/700/663 594/701/664 539/682/645
f 541/631/594 542/706/669 603/626/589 606/625/588
f 556/704/667 548/620/583 608/695/658 613/692/655
f 563/672/635 560/635/598 623/668/631 622/667/630
f 552/675/638 556/704/667 613/692/655 625/689/652
f 589/666/629 587/665/628 631/714/677 629/685/648
f 604/679/642 620/688/651 599/691/654 543/680/643
f 645/717/680 647/718/681 638/678/641 636/677/640
f 543/680/643 599/691/654 598/702/665 542/706/669
f 644/719/682 648/720/683 639/639/602 635/638/601
f 558/721/684 544/676/639 620/688/651 604/679/642
f 577/663/626 581/671/634 632/686/649 628/715/678
f 539/682/645 594/701/664 615/647/610 609/645/608
f 646/709/672 650/722/685 641/687/650 637/710/673
f 648/720/683 645/717/680 636/677/640 639/639/602
f 643/723/686 649/708/671 640/711/674 634/707/670
f 554/699/662 550/698/661 605/637/600 619/636/599
f 587/665/628 579/616/579 627/712/675 631/714/677
f 542/706/669 598/702/665 621/621/584 603/626/589
f 585/664/627 577/663/626 628/715/678 642/683/646
f 639/639/602 636/677/640 549/617/580 557/640/603
f 557/640/603 549/617/580 548/620/583 556/704/667
f 634/707/670 640/711/674 551/697/660 555/696/659
f 547/618/581 555/696/659 554/699/662 546/619/582
f 656/724/687 655/725/688 647/726/681 645/727/680 648/728/683
f 640/711/674 637/710/673 559/729/689 551/697/660
f 647/718/681 643/723/686 634/707/670 638/678/641
f 637/710/673 641/687/650 545/674/637 559/729/689
f 559/729/689 545/674/637 544/676/639 558/721/684
f 650/722/685 644/719/682 635/638/601 641/687/650
f 551/697/660 559/729/689 558/721/684 550/698/661
f 601/703/666 593/681/644 612/644/607 624/622/585
f 613/692/655 608/695/658 538/716/679 592/693/656
f 592/693/656 538/716/679 539/682/645 593/681/644
f 568/634/597 571/673/636 610/653/616 611/657/620
f 579/616/579 591/615/578 633/730/690 627/712/675
f 626/713/676 628/715/678 632/686/649 629/685/648
f 597/632/595 541/631/594 606/625/588 618/648/611
f 550/698/661 558/721/684 604/679/642 605/637/600
f 544/676/639 552/675/638 625/689/652 620/688/651
f 599/691/654 600/690/653 601/703/666 598/702/665
f 600/690/653 592/693/656 593/681/644 601/703/666
f 567/652/615 564/651/614 617/705/668 616/654/617
f 591/615/578 583/643/606 630/684/647 633/730/690
f 633/730/690 630/684/647 626/713/676 627/712/675
f 608/695/658 614/694/657 595/700/663 538/716/679
f 546/619/582 554/699/662 619/636/599 614/694/657
f 735/534/506 681/537/509 696/731/691 736/732/692
f 678/538/510 677/541/513 692/733/693 693/734/694
f 674/542/514 673/545/517 688/735/695 689/736/696
f 675/546/518 674/542/514 689/736/696 690/737/697
f 683/548/520 682/551/523 697/738/698 698/739/699
f 679/552/524 678/538/510 693/734/694 694/740/700
f 680/554/526 679/552/524 694/740/700 695/741/701
f 676/556/528 675/546/518 690/737/697 691/742/702
f 672/558/530 671/561/533 686/743/703 687/744/704
f 684/562/534 683/548/520 698/739/699 699/745/705
f 739/564/536 684/562/534 699/745/705 740/746/706
f 731/566/538 680/554/526 695/741/701 732/747/707
f 677/541/513 676/556/528 691/742/702 692/733/693
f 673/545/517 672/558/530 687/744/704 688/735/695
f 713/748/708 712/749/709 727/356/340 728/355/339
f 709/750/710 708/751/711 723/360/344 724/359/343
f 705/752/712 704/753/713 719/364/348 720/363/347
f 706/754/714 705/752/712 720/363/347 721/367/351
f 702/755/715 701/756/716 716/370/354 717/369/353
f 714/757/717 713/748/708 728/355/339 729/373/357
f 710/758/718 709/750/710 724/359/343 725/375/359
f 733/759/719 710/758/718 725/375/359 734/377/361
f 707/760/720 706/754/714 721/367/351 722/379/363
f 703/761/721 702/755/715 717/369/353 718/381/365
f 741/762/722 714/757/717 729/373/357 742/383/367
f 737/763/723 711/764/724 726/386/370 738/385/369
f 708/751/711 707/760/720 722/379/363 723/360/344
f 704/753/713 703/761/721 718/381/365 719/364/348
f 681/585/509 731/566/538 732/747/707 696/765/691
f 711/766/724 733/759/719 734/377/361 726/390/370
f 682/551/523 735/534/506 736/732/692 697/738/698
f 712/749/709 737/763/723 738/385/369 727/356/340
f 685/588/557 739/564/536 740/746/706 700/767/725
f 715/768/726 741/762/722 742/383/367 730/393/374
f 698/739/699 656/724/687 648/728/683 644/769/682 650/770/685
f 696/765/691 732/747/707 653/771/727 658/772/728
f 699/745/705 698/739/699 650/770/685 646/773/672 649/774/671
f 697/738/698 736/732/692 652/775/729 657/776/730
f 700/767/725 740/746/706 651/777/731 654/778/732
f 732/747/707 695/741/701 659/779/733 653/771/727
f 670/206/195 700/767/725 654/778/732
f 686/743/703 669/207/196 668/780/734
f 692/733/693 691/742/702 663/781/735 662/782/736
f 695/741/701 694/740/700 660/783/737 659/779/733
f 655/725/688 699/745/705 649/774/671 643/784/686 647/726/681
f 740/746/706 699/745/705 655/725/688 651/777/731
f 688/735/695 687/744/704 667/785/738 666/786/739
f 736/732/692 696/731/691 658/787/728 652/775/729
f 691/742/702 690/737/697 664/788/740 663/781/735
f 687/744/704 686/743/703 668/780/734 667/785/738
f 694/740/700 693/734/694 661/789/741 660/783/737
f 698/739/699 697/738/698 657/776/730 656/724/687
f 693/734/694 692/733/693 662/782/736 661/789/741
f 689/736/696 688/735/695 666/786/739 665/790/742
f 690/737/697 689/736/696 665/790/742 664/788/740
f 655/725/688 656/724/687 713/748/708 714/757/717
f 659/779/733 660/783/737 709/750/710 710/758/718
f 663/781/735 664/788/740 705/752/712 706/754/714
f 667/785/738 668/780/734 701/756/716 702/755/715
f 651/777/731 655/725/688 714/757/717 741/762/722
f 653/771/727 659/779/733 710/758/718 733/759/719
f 662/782/736 663/781/735 706/754/714 707/760/720
f 666/786/739 667/785/738 702/755/715 703/761/721
f 665/790/742 666/786/739 703/761/721 704/753/713
f 652/775/729 658/787/728 711/764/724 737/763/723
f 661/789/741 662/782/736 707/760/720 708/751/711
f 660/783/737 661/789/741 708/751/711 709/750/710
f 664/788/740 665/790/742 704/753/713 705/752/712
f 656/724/687 657/776/730 712/749/709 713/748/708
f 670/206/195 685/588/557 700/767/725
f 671/561/533 669/207/196 686/743/703
f 670/206/195 654/778/732 715/768/726
f 668/780/734 669/207/196 701/756/716
f 701/756/716 669/207/196 716/370/354
f 670/206/195 715/768/726 730/393/374
f 658/772/728 653/771/727 733/759/719 711/766/724
f 657/776/730 652/775/729 737/763/723 712/749/709
f 654/778/732 651/777/731 741/762/722 715/768/726
