# Blender 4.4.0
# www.blender.org
mtllib Pared2.mtl
o Plane.002
v 39.057476 -2.265297 39.574677
v -40.057476 -2.265297 39.574680
v 39.057476 37.292179 39.574677
v -0.500000 -2.265297 39.574677
v -40.057476 37.292179 39.574677
v -0.500000 37.292179 39.574677
v 39.057476 17.513441 39.574677
v -20.278738 -2.265297 39.574680
v 19.278738 -2.265297 39.574677
v -40.057476 17.513441 39.574680
v -20.278738 37.292179 39.574677
v 19.278738 37.292179 39.574677
v -0.500000 17.513441 39.574677
v 19.278738 17.513441 39.574677
v -20.278738 17.513441 39.574677
v 39.057476 7.624073 39.574677
v -30.168106 -2.265297 39.574680
v 9.389369 -2.265297 39.574677
v -40.057476 27.402809 39.574680
v -30.168106 37.292179 39.574677
v 9.389369 37.292179 39.574677
v -0.500000 27.402809 39.574677
v 39.057476 27.402809 39.574677
v -10.389369 -2.265297 39.574680
v -0.500000 37.292179 39.574677
v 29.168106 -2.265297 39.574677
v -40.057476 7.624073 39.574680
v -10.389369 37.292179 39.574677
v 29.168106 37.292179 39.574677
v -0.500000 7.624073 39.574677
v 9.389369 17.513441 39.574677
v 29.168106 17.513441 39.574677
v 19.278738 27.402809 39.574677
v 19.278738 7.624073 39.574677
v -30.168106 17.513441 39.574680
v -10.389369 17.513441 39.574677
v -20.278738 27.402809 39.574677
v -20.278738 7.624073 39.574680
v -10.389369 7.624073 39.574677
v -10.389369 27.402809 39.574677
v -30.168106 27.402809 39.574677
v 29.168106 7.624073 39.574677
v 29.168106 27.402809 39.574677
v 9.389369 27.402809 39.574677
v 9.389369 7.624073 39.574677
v -30.168106 7.624073 39.574680
v 39.057476 2.679386 39.574677
v -35.112793 -2.265297 39.574680
v 4.444685 -2.265297 39.574677
v -40.057476 32.347496 39.574680
v -35.112793 37.292179 39.574677
v 4.444685 37.292179 39.574677
v -0.500000 32.347496 39.574677
v 39.057476 22.458126 39.574677
v -15.334053 -2.265297 39.574680
v 19.278738 37.292179 39.574677
v 24.223423 -2.265297 39.574677
v -40.057476 12.568756 39.574680
v -15.334053 37.292179 39.574677
v 24.223423 37.292179 39.574677
v -0.500000 12.568756 39.574677
v 4.444685 17.513441 39.574677
v 24.223423 17.513441 39.574677
v 19.278738 32.347496 39.574677
v 19.278738 12.568756 39.574677
v -35.112793 17.513441 39.574680
v -15.334053 17.513441 39.574677
v -20.278738 32.347496 39.574677
v -20.278738 12.568756 39.574680
v 39.057476 12.568756 39.574677
v -25.223423 -2.265297 39.574680
v 14.334053 -2.265297 39.574677
v -40.057476 22.458126 39.574680
v -25.223423 37.292179 39.574677
v 14.334053 37.292179 39.574677
v -0.500000 22.458126 39.574677
v 39.057476 32.347496 39.574677
v -5.444685 -2.265297 39.574680
v -20.278738 37.292179 39.574677
v 34.112793 -2.265297 39.574677
v -40.057476 2.679386 39.574680
v -5.444685 37.292179 39.574677
v 34.112793 37.292179 39.574677
v -0.500000 2.679386 39.574677
v 14.334053 17.513441 39.574677
v 34.112793 17.513441 39.574677
v 19.278738 22.458126 39.574677
v 19.278738 2.679386 39.574677
v -25.223423 17.513441 39.574680
v -5.444685 17.513441 39.574677
v -20.278738 22.458126 39.574677
v -20.278738 2.679386 39.574680
v -15.334053 7.624073 39.574680
v -5.444685 7.624073 39.574677
v -10.389369 12.568756 39.574677
v -10.389369 2.679386 39.574680
v -15.334053 27.402809 39.574677
v -5.444685 27.402809 39.574677
v -10.389369 32.347496 39.574677
v -10.389369 22.458126 39.574677
v -35.112793 27.402809 39.574680
v -25.223423 27.402809 39.574677
v -30.168106 32.347496 39.574677
v -30.168106 22.458126 39.574680
v 24.223423 7.624073 39.574677
v 34.112793 7.624073 39.574677
v 29.168106 12.568756 39.574677
v 29.168106 2.679386 39.574677
v 24.223423 27.402809 39.574677
v 34.112793 27.402809 39.574677
v 29.168106 32.347496 39.574677
v 29.168106 22.458126 39.574677
v 4.444685 27.402809 39.574677
v 14.334053 27.402809 39.574677
v 9.389369 32.347496 39.574677
v 9.389369 22.458126 39.574677
v 4.444685 7.624073 39.574677
v 14.334053 7.624073 39.574677
v 9.389369 12.568756 39.574677
v 9.389369 2.679386 39.574677
v -35.112793 7.624073 39.574680
v -25.223423 7.624073 39.574680
v -30.168106 12.568756 39.574680
v -30.168106 2.679386 39.574680
v -25.223423 2.679386 39.574680
v -25.223423 12.568756 39.574680
v -35.112793 12.568756 39.574680
v 14.334053 2.679386 39.574677
v 14.334053 12.568756 39.574677
v 4.444685 12.568756 39.574677
v 14.334053 22.458126 39.574677
v 14.334053 32.347496 39.574677
v 4.444685 32.347496 39.574677
v 34.112793 22.458126 39.574677
v 34.112793 32.347496 39.574677
v 24.223423 32.347496 39.574677
v 34.112793 2.679386 39.574677
v 34.112793 12.568756 39.574677
v 24.223423 12.568756 39.574677
v -25.223423 22.458126 39.574677
v -25.223423 32.347496 39.574677
v -35.112793 32.347496 39.574677
v -5.444685 22.458126 39.574677
v -5.444685 32.347496 39.574677
v -15.334053 32.347496 39.574677
v -5.444685 2.679386 39.574677
v -5.444685 12.568756 39.574677
v -15.334053 12.568756 39.574677
v -15.334053 2.679386 39.574680
v -15.334053 22.458126 39.574677
v -35.112793 22.458126 39.574680
v 24.223423 2.679386 39.574677
v 24.223423 22.458126 39.574677
v 4.444685 22.458126 39.574677
v 4.444685 2.679386 39.574677
v -35.112793 2.679386 39.574680
vn -0.0000 -0.0000 -1.0000
vt 0.938504 0.122375
vt 0.938249 -0.003208
vt 1.000394 -0.003333
vt 1.000649 0.122250
vt 0.505270 1.002330
vt 0.567416 1.002204
vt 0.629561 1.002079
vt 0.691707 1.001953
vt 0.753852 1.001828
vt 0.815998 1.001703
vt 0.878143 1.001577
vt 0.940289 1.001452
vt 1.002435 1.001326
vt 0.256688 1.002831
vt 0.008106 1.003333
vt 0.070251 1.003208
vt 0.132397 1.003082
vt 0.194542 1.002957
vt 0.318833 1.002706
vt 0.380979 1.002581
vt 0.443124 1.002455
vt 0.441339 0.123378
vt 0.441084 -0.002204
vt 0.503229 -0.002330
vt 0.503485 0.123253
vt 0.442359 0.625708
vt 0.442104 0.500125
vt 0.504250 0.500000
vt 0.504505 0.625583
vt 0.193777 0.626210
vt 0.193522 0.500627
vt 0.255668 0.500502
vt 0.255923 0.626084
vt 0.192757 0.123880
vt 0.192502 -0.001702
vt 0.254647 -0.001828
vt 0.254902 0.123755
vt 0.939524 0.624704
vt 0.939269 0.499122
vt 1.001414 0.498997
vt 1.001669 0.624579
vt 0.690942 0.625206
vt 0.690687 0.499624
vt 0.752832 0.499498
vt 0.753087 0.625081
vt 0.689921 0.122877
vt 0.689666 -0.002706
vt 0.751812 -0.002831
vt 0.752067 0.122751
vt 0.690431 0.374041
vt 0.690176 0.248459
vt 0.752322 0.248334
vt 0.752577 0.373916
vt 0.566140 0.374292
vt 0.565885 0.248710
vt 0.628031 0.248584
vt 0.628286 0.374167
vt 0.565630 0.123127
vt 0.565375 -0.002455
vt 0.627521 -0.002580
vt 0.627776 0.123002
vt 0.691452 0.876371
vt 0.691197 0.750789
vt 0.753342 0.750663
vt 0.753597 0.876246
vt 0.567161 0.876622
vt 0.566906 0.751039
vt 0.629051 0.750914
vt 0.629306 0.876496
vt 0.566651 0.625457
vt 0.566395 0.499875
vt 0.628541 0.499749
vt 0.628796 0.625332
vt 0.940034 0.875869
vt 0.939779 0.750287
vt 1.001925 0.750161
vt 1.002180 0.875744
vt 0.815743 0.876120
vt 0.815488 0.750538
vt 0.877633 0.750412
vt 0.877888 0.875995
vt 0.815233 0.624955
vt 0.814978 0.499373
vt 0.877123 0.499247
vt 0.877378 0.624830
vt 0.193267 0.375045
vt 0.193012 0.249462
vt 0.255157 0.249337
vt 0.255412 0.374919
vt 0.068976 0.375296
vt 0.068721 0.249713
vt 0.130866 0.249588
vt 0.131121 0.375170
vt 0.068466 0.124131
vt 0.068210 -0.001452
vt 0.130356 -0.001577
vt 0.130611 0.124005
vt 0.194287 0.877374
vt 0.194032 0.751792
vt 0.256178 0.751666
vt 0.256433 0.877249
vt 0.069996 0.877625
vt 0.069741 0.752043
vt 0.131886 0.751917
vt 0.132142 0.877500
vt 0.069486 0.626460
vt 0.069231 0.500878
vt 0.131376 0.500753
vt 0.131632 0.626335
vt 0.442870 0.876873
vt 0.442614 0.751290
vt 0.504760 0.751165
vt 0.505015 0.876747
vt 0.318578 0.877123
vt 0.318323 0.751541
vt 0.380469 0.751416
vt 0.380724 0.876998
vt 0.318068 0.625959
vt 0.317813 0.500376
vt 0.379959 0.500251
vt 0.380214 0.625833
vt 0.441849 0.374543
vt 0.441594 0.248961
vt 0.503740 0.248835
vt 0.503995 0.374418
vt 0.317558 0.374794
vt 0.317303 0.249211
vt 0.379448 0.249086
vt 0.379704 0.374668
vt 0.317048 0.123629
vt 0.316793 -0.001953
vt 0.378938 -0.002079
vt 0.379193 0.123504
vt 0.939014 0.373540
vt 0.938759 0.247957
vt 1.000904 0.247832
vt 1.001159 0.373414
vt 0.814723 0.373791
vt 0.814467 0.248208
vt 0.876613 0.248083
vt 0.876868 0.373665
vt 0.814212 0.122626
vt 0.813957 -0.002957
vt 0.876103 -0.003082
vt 0.876358 0.122500
vt 0.007595 0.752168
vt 0.007340 0.626586
vt 0.007085 0.501003
vt 0.007850 0.877751
vt 0.006575 0.249839
vt 0.006320 0.124256
vt 0.006065 -0.001326
vt 0.006830 0.375421
s 0
usemtl Material.004
f 156/1/1 48/2/1 2/3/1 81/4/1
f 6/5/1 82/6/1 28/7/1 59/8/1 11/9/1 74/10/1 20/11/1 51/12/1 5/13/1 79/9/1 25/5/1 56/14/1 3/15/1 83/16/1 29/17/1 60/18/1 12/14/1 75/19/1 21/20/1 52/21/1
f 155/22/1 49/23/1 4/24/1 84/25/1
f 154/26/1 62/27/1 13/28/1 76/29/1
f 153/30/1 63/31/1 14/32/1 87/33/1
f 152/34/1 57/35/1 9/36/1 88/37/1
f 151/38/1 66/39/1 10/40/1 73/41/1
f 150/42/1 67/43/1 15/44/1 91/45/1
f 149/46/1 55/47/1 8/48/1 92/49/1
f 148/50/1 93/51/1 38/52/1 69/53/1
f 147/54/1 94/55/1 39/56/1 95/57/1
f 146/58/1 78/59/1 24/60/1 96/61/1
f 145/62/1 97/63/1 37/64/1 68/65/1
f 144/66/1 98/67/1 40/68/1 99/69/1
f 143/70/1 90/71/1 36/72/1 100/73/1
f 142/74/1 101/75/1 19/76/1 50/77/1
f 141/78/1 102/79/1 41/80/1 103/81/1
f 140/82/1 89/83/1 35/84/1 104/85/1
f 139/86/1 105/87/1 34/88/1 65/89/1
f 138/90/1 106/91/1 42/92/1 107/93/1
f 137/94/1 80/95/1 26/96/1 108/97/1
f 136/98/1 109/99/1 33/100/1 64/101/1
f 135/102/1 110/103/1 43/104/1 111/105/1
f 134/106/1 86/107/1 32/108/1 112/109/1
f 133/110/1 113/111/1 22/112/1 53/113/1
f 132/114/1 114/115/1 44/116/1 115/117/1
f 131/118/1 85/119/1 31/120/1 116/121/1
f 130/122/1 117/123/1 30/124/1 61/125/1
f 129/126/1 118/127/1 45/128/1 119/129/1
f 128/130/1 72/131/1 18/132/1 120/133/1
f 127/134/1 121/135/1 27/136/1 58/137/1
f 126/138/1 122/139/1 46/140/1 123/141/1
f 125/142/1 71/143/1 17/144/1 124/145/1
f 122/139/1 125/142/1 124/145/1 46/140/1
f 38/52/1 92/49/1 125/142/1 122/139/1
f 92/49/1 8/48/1 71/143/1 125/142/1
f 89/83/1 126/138/1 123/141/1 35/84/1
f 15/44/1 69/53/1 126/138/1 89/83/1
f 69/53/1 38/52/1 122/139/1 126/138/1
f 66/39/1 127/134/1 58/137/1 10/40/1
f 35/84/1 123/141/1 127/134/1 66/39/1
f 123/141/1 46/140/1 121/135/1 127/134/1
f 118/127/1 128/130/1 120/133/1 45/128/1
f 34/88/1 88/37/1 128/130/1 118/127/1
f 88/37/1 9/36/1 72/131/1 128/130/1
f 85/119/1 129/126/1 119/129/1 31/120/1
f 14/32/1 65/89/1 129/126/1 85/119/1
f 65/89/1 34/88/1 118/127/1 129/126/1
f 62/27/1 130/122/1 61/125/1 13/28/1
f 31/120/1 119/129/1 130/122/1 62/27/1
f 119/129/1 45/128/1 117/123/1 130/122/1
f 114/115/1 131/118/1 116/121/1 44/116/1
f 33/100/1 87/33/1 131/118/1 114/115/1
f 87/33/1 14/32/1 85/119/1 131/118/1
f 75/19/1 132/114/1 115/117/1 21/20/1
f 12/14/1 64/101/1 132/114/1 75/19/1
f 64/101/1 33/100/1 114/115/1 132/114/1
f 52/21/1 133/110/1 53/113/1 6/5/1
f 21/20/1 115/117/1 133/110/1 52/21/1
f 115/117/1 44/116/1 113/111/1 133/110/1
f 110/103/1 134/106/1 112/109/1 43/104/1
f 23/146/1 54/147/1 134/106/1 110/103/1
f 54/147/1 7/148/1 86/107/1 134/106/1
f 83/16/1 135/102/1 111/105/1 29/17/1
f 3/15/1 77/149/1 135/102/1 83/16/1
f 77/149/1 23/146/1 110/103/1 135/102/1
f 60/18/1 136/98/1 64/101/1 12/14/1
f 29/17/1 111/105/1 136/98/1 60/18/1
f 111/105/1 43/104/1 109/99/1 136/98/1
f 106/91/1 137/94/1 108/97/1 42/92/1
f 16/150/1 47/151/1 137/94/1 106/91/1
f 47/151/1 1/152/1 80/95/1 137/94/1
f 86/107/1 138/90/1 107/93/1 32/108/1
f 7/148/1 70/153/1 138/90/1 86/107/1
f 70/153/1 16/150/1 106/91/1 138/90/1
f 63/31/1 139/86/1 65/89/1 14/32/1
f 32/108/1 107/93/1 139/86/1 63/31/1
f 107/93/1 42/92/1 105/87/1 139/86/1
f 102/79/1 140/82/1 104/85/1 41/80/1
f 37/64/1 91/45/1 140/82/1 102/79/1
f 91/45/1 15/44/1 89/83/1 140/82/1
f 74/10/1 141/78/1 103/81/1 20/11/1
f 11/9/1 68/65/1 141/78/1 74/10/1
f 68/65/1 37/64/1 102/79/1 141/78/1
f 51/12/1 142/74/1 50/77/1 5/13/1
f 20/11/1 103/81/1 142/74/1 51/12/1
f 103/81/1 41/80/1 101/75/1 142/74/1
f 98/67/1 143/70/1 100/73/1 40/68/1
f 22/112/1 76/29/1 143/70/1 98/67/1
f 76/29/1 13/28/1 90/71/1 143/70/1
f 82/6/1 144/66/1 99/69/1 28/7/1
f 6/5/1 53/113/1 144/66/1 82/6/1
f 53/113/1 22/112/1 98/67/1 144/66/1
f 59/8/1 145/62/1 68/65/1 11/9/1
f 28/7/1 99/69/1 145/62/1 59/8/1
f 99/69/1 40/68/1 97/63/1 145/62/1
f 94/55/1 146/58/1 96/61/1 39/56/1
f 30/124/1 84/25/1 146/58/1 94/55/1
f 84/25/1 4/24/1 78/59/1 146/58/1
f 90/71/1 147/54/1 95/57/1 36/72/1
f 13/28/1 61/125/1 147/54/1 90/71/1
f 61/125/1 30/124/1 94/55/1 147/54/1
f 67/43/1 148/50/1 69/53/1 15/44/1
f 36/72/1 95/57/1 148/50/1 67/43/1
f 95/57/1 39/56/1 93/51/1 148/50/1
f 93/51/1 149/46/1 92/49/1 38/52/1
f 39/56/1 96/61/1 149/46/1 93/51/1
f 96/61/1 24/60/1 55/47/1 149/46/1
f 97/63/1 150/42/1 91/45/1 37/64/1
f 40/68/1 100/73/1 150/42/1 97/63/1
f 100/73/1 36/72/1 67/43/1 150/42/1
f 101/75/1 151/38/1 73/41/1 19/76/1
f 41/80/1 104/85/1 151/38/1 101/75/1
f 104/85/1 35/84/1 66/39/1 151/38/1
f 105/87/1 152/34/1 88/37/1 34/88/1
f 42/92/1 108/97/1 152/34/1 105/87/1
f 108/97/1 26/96/1 57/35/1 152/34/1
f 109/99/1 153/30/1 87/33/1 33/100/1
f 43/104/1 112/109/1 153/30/1 109/99/1
f 112/109/1 32/108/1 63/31/1 153/30/1
f 113/111/1 154/26/1 76/29/1 22/112/1
f 44/116/1 116/121/1 154/26/1 113/111/1
f 116/121/1 31/120/1 62/27/1 154/26/1
f 117/123/1 155/22/1 84/25/1 30/124/1
f 45/128/1 120/133/1 155/22/1 117/123/1
f 120/133/1 18/132/1 49/23/1 155/22/1
f 121/135/1 156/1/1 81/4/1 27/136/1
f 46/140/1 124/145/1 156/1/1 121/135/1
f 124/145/1 17/144/1 48/2/1 156/1/1
