# Blender 4.4.0
# www.blender.org
mtllib Tablero.mtl
o Cube
v -22.455959 1.364582 22.455959
v -23.040899 0.963242 22.455959
v -22.455959 0.963242 23.040899
v -22.869600 1.247042 22.455959
v -22.793699 1.194962 22.793699
v -22.869600 0.963242 22.869600
v -22.455959 1.247042 22.869600
v -22.455959 -0.963238 23.040899
v -23.040899 -0.963238 22.455959
v -22.455959 -1.364578 22.455959
v -22.869600 -0.963238 22.869600
v -22.793699 -1.194958 22.793699
v -22.869600 -1.247038 22.455959
v -22.455959 -1.247038 22.869600
v -22.455959 1.364578 -22.455959
v -22.455959 0.963238 -23.040899
v -23.040899 0.963238 -22.455959
v -22.455959 1.247038 -22.869600
v -22.793699 1.194958 -22.793699
v -22.869600 0.963238 -22.869600
v -22.869600 1.247038 -22.455959
v -22.455959 -1.364582 -22.455959
v -23.040899 -0.963242 -22.455959
v -22.455959 -0.963242 -23.040899
v -22.869600 -1.247042 -22.455959
v -22.793699 -1.194962 -22.793699
v -22.869600 -0.963242 -22.869600
v -22.455959 -1.247042 -22.869600
v 22.455959 1.364582 22.455959
v 22.455959 0.963242 23.040899
v 23.040899 0.963242 22.455959
v 22.455959 1.247042 22.869600
v 22.793699 1.194962 22.793699
v 22.869600 0.963242 22.869600
v 22.869600 1.247042 22.455959
v 22.455959 -1.364578 22.455959
v 23.040899 -0.963238 22.455959
v 22.455959 -0.963238 23.040899
v 22.869600 -1.247038 22.455959
v 22.793699 -1.194958 22.793699
v 22.869600 -0.963238 22.869600
v 22.455959 -1.247038 22.869600
v 22.455959 1.364578 -22.455959
v 23.040899 0.963238 -22.455959
v 22.455959 0.963238 -23.040899
v 22.869600 1.247038 -22.455959
v 22.793699 1.194958 -22.793699
v 22.869600 0.963238 -22.869600
v 22.455959 1.247038 -22.869600
v 22.455959 -1.364582 -22.455959
v 22.455959 -0.963242 -23.040899
v 23.040899 -0.963242 -22.455959
v 22.455959 -1.247042 -22.869600
v 22.793699 -1.194962 -22.793699
v 22.869600 -0.963242 -22.869600
v 22.869600 -1.247042 -22.455959
vn 0.1766 0.2463 0.9530
vn -0.1766 0.2463 0.9530
vn -0.1766 -0.2463 0.9530
vn 0.1766 -0.2463 0.9530
vn 0.9530 0.2463 -0.1766
vn 0.9530 0.2463 0.1766
vn 0.9530 -0.2463 0.1766
vn 0.9530 -0.2463 -0.1766
vn 0.1283 -0.9834 -0.1283
vn 0.1283 -0.9834 0.1283
vn -0.1283 -0.9834 0.1283
vn -0.1283 -0.9834 -0.1283
vn -0.9530 0.2463 0.1766
vn -0.9530 0.2463 -0.1766
vn -0.9530 -0.2463 -0.1766
vn -0.9530 -0.2463 0.1766
vn -0.1766 0.2463 -0.9530
vn 0.1766 0.2463 -0.9530
vn 0.1766 -0.2463 -0.9530
vn -0.1766 -0.2463 -0.9530
vn -0.1283 0.9834 0.1283
vn -0.6115 0.7779 0.1451
vn -0.5136 0.6874 0.5136
vn -0.1451 0.7779 0.6115
vn -0.6871 0.2364 0.6871
vn -0.6871 -0.2364 0.6871
vn -0.5136 -0.6874 0.5136
vn -0.1451 -0.7779 0.6115
vn -0.6115 -0.7779 0.1451
vn -0.1283 0.9834 -0.1283
vn -0.1451 0.7779 -0.6115
vn -0.5136 0.6874 -0.5136
vn -0.6115 0.7779 -0.1451
vn -0.6871 0.2364 -0.6871
vn -0.6115 -0.7779 -0.1451
vn -0.5136 -0.6874 -0.5136
vn -0.1451 -0.7779 -0.6115
vn -0.6871 -0.2364 -0.6871
vn 0.1283 0.9834 0.1283
vn 0.1451 0.7779 0.6115
vn 0.5136 0.6874 0.5136
vn 0.6115 0.7779 0.1451
vn 0.6871 0.2364 0.6871
vn 0.6115 -0.7779 0.1451
vn 0.5136 -0.6874 0.5136
vn 0.1451 -0.7779 0.6115
vn 0.6871 -0.2364 0.6871
vn 0.1283 0.9834 -0.1283
vn 0.6115 0.7779 -0.1451
vn 0.5136 0.6874 -0.5136
vn 0.1451 0.7779 -0.6115
vn 0.6871 0.2364 -0.6871
vn 0.1451 -0.7779 -0.6115
vn 0.5136 -0.6874 -0.5136
vn 0.6115 -0.7779 -0.1451
vn 0.6871 -0.2364 -0.6871
vt 0.029132 0.942682
vt 0.029132 0.482249
vt 0.049014 0.482249
vt 0.049014 0.942682
vt 0.501285 0.979331
vt 0.064672 0.979408
vt 0.064672 0.954622
vt 0.501285 0.954635
vt 0.501285 0.942682
vt 0.064672 0.942682
vt 0.064672 0.482249
vt 0.501285 0.482249
vt 0.064672 0.445561
vt 0.501285 0.445561
vt 0.501285 0.472670
vt 0.064672 0.472670
vt 0.530899 0.482249
vt 0.530899 0.942682
vt 0.512193 0.942682
vt 0.512193 0.482249
vt 0.064672 0.436863
vt 0.064672 0.442531
vt 0.059890 0.442531
vt 0.060688 0.436863
vt 0.059890 0.445561
vt 0.051169 0.445561
vt 0.051169 0.474477
vt 0.059890 0.472670
vt 0.059890 0.476966
vt 0.059890 0.482249
vt 0.064672 0.476966
vt 0.501285 0.436863
vt 0.512193 0.436863
vt 0.505138 0.442531
vt 0.501285 0.442531
vt 0.512193 0.445561
vt 0.505138 0.445561
vt 0.501285 0.476966
vt 0.505138 0.476966
vt 0.505138 0.482249
vt 0.505138 0.472670
vt 0.064672 0.993310
vt 0.051169 0.988219
vt 0.059890 0.984146
vt 0.064672 0.985371
vt 0.051169 0.982299
vt 0.059890 0.980036
vt 0.064672 0.948673
vt 0.059890 0.948985
vt 0.059890 0.942682
vt 0.059890 0.953026
vt 0.051169 0.949320
vt 0.501285 0.993310
vt 0.501285 0.985398
vt 0.505138 0.984107
vt 0.512193 0.988305
vt 0.505138 0.979888
vt 0.512193 0.982142
vt 0.505138 0.942682
vt 0.505138 0.949107
vt 0.501285 0.948881
vt 0.512193 0.949318
vt 0.505138 0.952965
vt 0.538396 0.482249
vt 0.538396 0.942682
vt 0.545893 0.482249
vt 0.545893 0.942682
vt 0.021041 0.942682
vt 0.021041 0.482249
vt 0.012950 0.942682
vt 0.012950 0.482249
vt 0.521581 0.472059
vt 0.521740 0.010952
vt 0.982847 0.011112
vt 0.982688 0.472218
s 1
usemtl None
f 30/1/1 3/2/2 8/3/3 38/4/4
f 44/5/5 31/6/6 37/7/7 52/8/8
f 50/9/9 36/10/10 10/11/11 22/12/12
f 2/13/13 17/14/14 23/15/15 9/16/16
f 16/17/17 45/18/18 51/19/19 24/20/20
f 1/21/21 4/22/22 5/23/23 7/24/24
f 2/13/13 6/25/25 5/23/23 4/22/22
f 3/26/2 7/24/24 5/23/23 6/25/25
f 8/27/3 11/28/26 12/29/27 14/30/28
f 9/16/16 13/31/29 12/29/27 11/28/26
f 10/11/11 14/30/28 12/29/27 13/31/29
f 15/32/30 18/33/31 19/34/32 21/35/33
f 16/36/17 20/37/34 19/34/32 18/33/31
f 17/14/14 21/35/33 19/34/32 20/37/34
f 22/12/12 25/38/35 26/39/36 28/40/37
f 23/15/15 27/41/38 26/39/36 25/38/35
f 24/20/20 28/40/37 26/39/36 27/41/38
f 29/42/39 32/43/40 33/44/41 35/45/42
f 30/46/1 34/47/43 33/44/41 32/43/40
f 31/6/6 35/45/42 33/44/41 34/47/43
f 36/10/10 39/48/44 40/49/45 42/50/46
f 37/7/7 41/51/47 40/49/45 39/48/44
f 38/52/4 42/50/46 40/49/45 41/51/47
f 43/53/48 46/54/49 47/55/50 49/56/51
f 44/5/5 48/57/52 47/55/50 46/54/49
f 45/58/18 49/56/51 47/55/50 48/57/52
f 50/9/9 53/59/53 54/60/54 56/61/55
f 51/62/19 55/63/56 54/60/54 53/59/53
f 52/8/8 56/61/55 54/60/54 55/63/56
f 17/14/14 2/13/13 4/22/22 21/35/33
f 21/35/33 4/22/22 1/21/21 15/32/30
f 2/13/13 9/16/16 11/28/26 6/25/25
f 6/25/25 11/28/26 8/27/3 3/26/2
f 9/16/16 23/15/15 25/38/35 13/31/29
f 13/31/29 25/38/35 22/12/12 10/11/11
f 23/15/15 17/14/14 20/37/34 27/41/38
f 27/41/38 20/37/34 16/36/17 24/20/20
f 45/18/18 16/17/17 18/64/31 49/65/51
f 49/65/51 18/64/31 15/66/30 43/67/48
f 24/20/20 51/19/19 53/59/53 28/40/37
f 28/40/37 53/59/53 50/9/9 22/12/12
f 51/62/19 45/58/18 48/57/52 55/63/56
f 55/63/56 48/57/52 44/5/5 52/8/8
f 31/6/6 44/5/5 46/54/49 35/45/42
f 35/45/42 46/54/49 43/53/48 29/42/39
f 52/8/8 37/7/7 39/48/44 56/61/55
f 56/61/55 39/48/44 36/10/10 50/9/9
f 37/7/7 31/6/6 34/47/43 41/51/47
f 41/51/47 34/47/43 30/46/1 38/52/4
f 3/2/2 30/1/1 32/68/40 7/69/24
f 7/69/24 32/68/40 29/70/39 1/71/21
f 38/4/4 8/3/3 14/30/28 42/50/46
f 42/50/46 14/30/28 10/11/11 36/10/10
f 15/72/30 1/73/21 29/74/39 43/75/48
